<?xml version="1.0" encoding="UTF-8" standalone="no"?>
<!DOCTYPE svg PUBLIC "-//W3C//DTD SVG 1.1//EN"
 "http://www.w3.org/Graphics/SVG/1.1/DTD/svg11.dtd">
<!-- Generated by graphviz version 3.0.0 (20220226.1711)
 -->
<!-- Pages: 1 -->
<svg width="2508pt" height="241pt"
 viewBox="0.00 0.00 2507.61 241.22" xmlns="http://www.w3.org/2000/svg" xmlns:xlink="http://www.w3.org/1999/xlink">
<g id="graph0" class="graph" transform="scale(1 1) rotate(0) translate(4 237.22)">
<polygon fill="white" stroke="transparent" points="-4,4 -4,-237.22 2503.61,-237.22 2503.61,4 -4,4"/>
<!-- amphx:0000007 -->
<g id="node1" class="node">
<title>amphx:0000007</title>
<ellipse fill="none" stroke="red" cx="105.36" cy="-206.35" rx="105.22" ry="26.74"/>
<text text-anchor="middle" x="105.36" y="-210.15" font-family="Times,serif" font-size="14.00">embryonic development</text>
<text text-anchor="middle" x="105.36" y="-195.15" font-family="Times,serif" font-size="14.00">amphx:0000007</text>
</g>
<!-- uberon:0000105 -->
<g id="node2" class="node">
<title>uberon:0000105</title>
<ellipse fill="none" stroke="blue" cx="660.36" cy="-116.61" rx="74.49" ry="26.74"/>
<text text-anchor="middle" x="660.36" y="-120.41" font-family="Times,serif" font-size="14.00">life cycle stage</text>
<text text-anchor="middle" x="660.36" y="-105.41" font-family="Times,serif" font-size="14.00">uberon:0000105</text>
</g>
<!-- amphx:0000007&#45;&gt;uberon:0000105 -->
<g id="edge1" class="edge">
<title>amphx:0000007&#45;&gt;uberon:0000105</title>
<path fill="none" stroke="black" d="M180.65,-187.49C193.84,-184.62 207.47,-181.83 220.36,-179.48 345.49,-156.65 491.98,-137.56 580.39,-126.86"/>
<polygon fill="black" stroke="black" points="580.84,-130.34 590.35,-125.67 580,-123.39 580.84,-130.34"/>
</g>
<!-- amphx:0000014 -->
<g id="node3" class="node">
<title>amphx:0000014</title>
<ellipse fill="none" stroke="red" cx="315.36" cy="-206.35" rx="86.03" ry="26.74"/>
<text text-anchor="middle" x="315.36" y="-210.15" font-family="Times,serif" font-size="14.00">larval development</text>
<text text-anchor="middle" x="315.36" y="-195.15" font-family="Times,serif" font-size="14.00">amphx:0000014</text>
</g>
<!-- amphx:0000014&#45;&gt;uberon:0000105 -->
<g id="edge2" class="edge">
<title>amphx:0000014&#45;&gt;uberon:0000105</title>
<path fill="none" stroke="black" d="M378.83,-188.06C389.67,-185.16 400.83,-182.21 411.36,-179.48 471.59,-163.88 540.23,-146.89 590.17,-134.66"/>
<polygon fill="black" stroke="black" points="591.01,-138.06 599.9,-132.28 589.35,-131.26 591.01,-138.06"/>
</g>
<!-- amphx:1000003 -->
<g id="node4" class="node">
<title>amphx:1000003</title>
<ellipse fill="none" stroke="red" cx="1281.36" cy="-116.61" rx="74.49" ry="26.74"/>
<text text-anchor="middle" x="1281.36" y="-120.41" font-family="Times,serif" font-size="14.00">whole oocyte</text>
<text text-anchor="middle" x="1281.36" y="-105.41" font-family="Times,serif" font-size="14.00">amphx:1000003</text>
</g>
<!-- cl:0000000 -->
<g id="node5" class="node">
<title>cl:0000000</title>
<ellipse fill="none" stroke="blue" cx="1676.36" cy="-26.87" rx="54.39" ry="26.74"/>
<text text-anchor="middle" x="1676.36" y="-30.67" font-family="Times,serif" font-size="14.00">cell</text>
<text text-anchor="middle" x="1676.36" y="-15.67" font-family="Times,serif" font-size="14.00">cl:0000000</text>
</g>
<!-- amphx:1000003&#45;&gt;cl:0000000 -->
<g id="edge3" class="edge">
<title>amphx:1000003&#45;&gt;cl:0000000</title>
<path fill="none" stroke="black" d="M1335.35,-98.09C1345.28,-95.12 1355.59,-92.21 1365.36,-89.74 1451.31,-68.02 1552.19,-49.14 1615.2,-38.13"/>
<polygon fill="black" stroke="black" points="1616.11,-41.52 1625.37,-36.36 1614.91,-34.62 1616.11,-41.52"/>
</g>
<!-- amphx:1000007 -->
<g id="node6" class="node">
<title>amphx:1000007</title>
<ellipse fill="none" stroke="red" cx="1351.36" cy="-206.35" rx="101.23" ry="26.74"/>
<text text-anchor="middle" x="1351.36" y="-210.15" font-family="Times,serif" font-size="14.00">vegetal pole cytoplasm</text>
<text text-anchor="middle" x="1351.36" y="-195.15" font-family="Times,serif" font-size="14.00">amphx:1000007</text>
</g>
<!-- go:0005575 -->
<g id="node7" class="node">
<title>go:0005575</title>
<ellipse fill="none" stroke="blue" cx="1460.36" cy="-116.61" rx="86.03" ry="26.74"/>
<text text-anchor="middle" x="1460.36" y="-120.41" font-family="Times,serif" font-size="14.00">cellular component</text>
<text text-anchor="middle" x="1460.36" y="-105.41" font-family="Times,serif" font-size="14.00">go:0005575</text>
</g>
<!-- amphx:1000007&#45;&gt;go:0005575 -->
<g id="edge4" class="edge">
<title>amphx:1000007&#45;&gt;go:0005575</title>
<path fill="none" stroke="black" d="M1382.01,-180.68C1394.42,-170.69 1408.89,-159.04 1421.99,-148.5"/>
<polygon fill="black" stroke="black" points="1424.34,-151.1 1429.94,-142.1 1419.95,-145.64 1424.34,-151.1"/>
</g>
<!-- go:0005575&#45;&gt;cl:0000000 -->
<g id="edge16" class="edge">
<title>go:0005575&#45;&gt;cl:0000000</title>
<path fill="none" stroke="blue" d="M1511.55,-94.82C1546.1,-80.78 1591.5,-62.34 1625.9,-48.37"/>
<polygon fill="blue" stroke="blue" points="1627.34,-51.56 1635.29,-44.55 1624.71,-45.07 1627.34,-51.56"/>
</g>
<!-- amphx:1000084 -->
<g id="node8" class="node">
<title>amphx:1000084</title>
<ellipse fill="none" stroke="red" cx="1676.36" cy="-116.61" rx="111.95" ry="26.74"/>
<text text-anchor="middle" x="1676.36" y="-120.41" font-family="Times,serif" font-size="14.00">epidermal sensory neuron</text>
<text text-anchor="middle" x="1676.36" y="-105.41" font-family="Times,serif" font-size="14.00">amphx:1000084</text>
</g>
<!-- amphx:1000084&#45;&gt;cl:0000000 -->
<g id="edge5" class="edge">
<title>amphx:1000084&#45;&gt;cl:0000000</title>
<path fill="none" stroke="black" d="M1676.36,-89.29C1676.36,-81.32 1676.36,-72.43 1676.36,-63.94"/>
<polygon fill="black" stroke="black" points="1679.86,-63.87 1676.36,-53.87 1672.86,-63.87 1679.86,-63.87"/>
</g>
<!-- amphx:1000320 -->
<g id="node9" class="node">
<title>amphx:1000320</title>
<ellipse fill="none" stroke="red" cx="2033.36" cy="-206.35" rx="74.49" ry="26.74"/>
<text text-anchor="middle" x="2033.36" y="-210.15" font-family="Times,serif" font-size="14.00">pharynx</text>
<text text-anchor="middle" x="2033.36" y="-195.15" font-family="Times,serif" font-size="14.00">amphx:1000320</text>
</g>
<!-- uberon:0000061 -->
<g id="node10" class="node">
<title>uberon:0000061</title>
<ellipse fill="none" stroke="blue" cx="2229.36" cy="-116.61" rx="90.52" ry="26.74"/>
<text text-anchor="middle" x="2229.36" y="-120.41" font-family="Times,serif" font-size="14.00">anatomical structure</text>
<text text-anchor="middle" x="2229.36" y="-105.41" font-family="Times,serif" font-size="14.00">uberon:0000061</text>
</g>
<!-- amphx:1000320&#45;&gt;uberon:0000061 -->
<g id="edge6" class="edge">
<title>amphx:1000320&#45;&gt;uberon:0000061</title>
<path fill="none" stroke="black" d="M2078.82,-185C2106.37,-172.67 2141.79,-156.81 2171.35,-143.58"/>
<polygon fill="black" stroke="black" points="2173.02,-146.66 2180.72,-139.38 2170.16,-140.27 2173.02,-146.66"/>
</g>
<!-- amphx:0000016 -->
<g id="node11" class="node">
<title>amphx:0000016</title>
<ellipse fill="none" stroke="red" cx="494.36" cy="-206.35" rx="74.49" ry="26.74"/>
<text text-anchor="middle" x="494.36" y="-210.15" font-family="Times,serif" font-size="14.00">metamorphosis</text>
<text text-anchor="middle" x="494.36" y="-195.15" font-family="Times,serif" font-size="14.00">amphx:0000016</text>
</g>
<!-- amphx:0000016&#45;&gt;uberon:0000105 -->
<g id="edge7" class="edge">
<title>amphx:0000016&#45;&gt;uberon:0000105</title>
<path fill="none" stroke="black" d="M535.39,-183.66C558.12,-171.65 586.55,-156.62 610.55,-143.94"/>
<polygon fill="black" stroke="black" points="612.3,-146.97 619.51,-139.2 609.03,-140.78 612.3,-146.97"/>
</g>
<!-- amphx:1000002 -->
<g id="node12" class="node">
<title>amphx:1000002</title>
<ellipse fill="none" stroke="red" cx="1880.36" cy="-116.61" rx="74.49" ry="26.74"/>
<text text-anchor="middle" x="1880.36" y="-120.41" font-family="Times,serif" font-size="14.00">blastomere</text>
<text text-anchor="middle" x="1880.36" y="-105.41" font-family="Times,serif" font-size="14.00">amphx:1000002</text>
</g>
<!-- amphx:1000002&#45;&gt;cl:0000000 -->
<g id="edge8" class="edge">
<title>amphx:1000002&#45;&gt;cl:0000000</title>
<path fill="none" stroke="black" d="M1833.81,-95.59C1801.6,-81.73 1758.78,-63.32 1725.92,-49.19"/>
<polygon fill="black" stroke="black" points="1727.08,-45.87 1716.51,-45.14 1724.31,-52.3 1727.08,-45.87"/>
</g>
<!-- amphx:1000222 -->
<g id="node13" class="node">
<title>amphx:1000222</title>
<ellipse fill="none" stroke="red" cx="2229.36" cy="-206.35" rx="103.89" ry="26.74"/>
<text text-anchor="middle" x="2229.36" y="-210.15" font-family="Times,serif" font-size="14.00">posterior somite pair 13</text>
<text text-anchor="middle" x="2229.36" y="-195.15" font-family="Times,serif" font-size="14.00">amphx:1000222</text>
</g>
<!-- amphx:1000222&#45;&gt;uberon:0000061 -->
<g id="edge9" class="edge">
<title>amphx:1000222&#45;&gt;uberon:0000061</title>
<path fill="none" stroke="black" d="M2229.36,-179.03C2229.36,-171.06 2229.36,-162.17 2229.36,-153.68"/>
<polygon fill="black" stroke="black" points="2232.86,-153.61 2229.36,-143.61 2225.86,-153.61 2232.86,-153.61"/>
</g>
<!-- amphx:1000010 -->
<g id="node14" class="node">
<title>amphx:1000010</title>
<ellipse fill="none" stroke="red" cx="1570.36" cy="-206.35" rx="99.9" ry="26.74"/>
<text text-anchor="middle" x="1570.36" y="-210.15" font-family="Times,serif" font-size="14.00">animal pole cytoplasm</text>
<text text-anchor="middle" x="1570.36" y="-195.15" font-family="Times,serif" font-size="14.00">amphx:1000010</text>
</g>
<!-- amphx:1000010&#45;&gt;go:0005575 -->
<g id="edge10" class="edge">
<title>amphx:1000010&#45;&gt;go:0005575</title>
<path fill="none" stroke="black" d="M1539.43,-180.68C1526.8,-170.6 1512.06,-158.85 1498.75,-148.23"/>
<polygon fill="black" stroke="black" points="1500.68,-145.3 1490.68,-141.8 1496.32,-150.77 1500.68,-145.3"/>
</g>
<!-- amphx:1000124 -->
<g id="node15" class="node">
<title>amphx:1000124</title>
<ellipse fill="none" stroke="red" cx="2425.36" cy="-206.35" rx="74.49" ry="26.74"/>
<text text-anchor="middle" x="2425.36" y="-210.15" font-family="Times,serif" font-size="14.00">somite pair 6</text>
<text text-anchor="middle" x="2425.36" y="-195.15" font-family="Times,serif" font-size="14.00">amphx:1000124</text>
</g>
<!-- amphx:1000124&#45;&gt;uberon:0000061 -->
<g id="edge11" class="edge">
<title>amphx:1000124&#45;&gt;uberon:0000061</title>
<path fill="none" stroke="black" d="M2379.9,-185C2352.35,-172.67 2316.93,-156.81 2287.37,-143.58"/>
<polygon fill="black" stroke="black" points="2288.55,-140.27 2278,-139.38 2285.69,-146.66 2288.55,-140.27"/>
</g>
<!-- amphx:0000001 -->
<g id="node16" class="node">
<title>amphx:0000001</title>
<ellipse fill="none" stroke="red" cx="660.36" cy="-206.35" rx="74.49" ry="26.74"/>
<text text-anchor="middle" x="660.36" y="-210.15" font-family="Times,serif" font-size="14.00">gametogenesis</text>
<text text-anchor="middle" x="660.36" y="-195.15" font-family="Times,serif" font-size="14.00">amphx:0000001</text>
</g>
<!-- amphx:0000001&#45;&gt;uberon:0000105 -->
<g id="edge12" class="edge">
<title>amphx:0000001&#45;&gt;uberon:0000105</title>
<path fill="none" stroke="black" d="M660.36,-179.03C660.36,-171.06 660.36,-162.17 660.36,-153.68"/>
<polygon fill="black" stroke="black" points="663.86,-153.61 660.36,-143.61 656.86,-153.61 663.86,-153.61"/>
</g>
<!-- amphx:0000019 -->
<g id="node17" class="node">
<title>amphx:0000019</title>
<ellipse fill="none" stroke="red" cx="826.36" cy="-206.35" rx="74.49" ry="26.74"/>
<text text-anchor="middle" x="826.36" y="-210.15" font-family="Times,serif" font-size="14.00">adult</text>
<text text-anchor="middle" x="826.36" y="-195.15" font-family="Times,serif" font-size="14.00">amphx:0000019</text>
</g>
<!-- amphx:0000019&#45;&gt;uberon:0000105 -->
<g id="edge13" class="edge">
<title>amphx:0000019&#45;&gt;uberon:0000105</title>
<path fill="none" stroke="black" d="M785.33,-183.66C762.59,-171.65 734.16,-156.62 710.17,-143.94"/>
<polygon fill="black" stroke="black" points="711.68,-140.78 701.21,-139.2 708.41,-146.97 711.68,-140.78"/>
</g>
<!-- amphx:0000004 -->
<g id="node18" class="node">
<title>amphx:0000004</title>
<ellipse fill="none" stroke="red" cx="992.36" cy="-206.35" rx="74.49" ry="26.74"/>
<text text-anchor="middle" x="992.36" y="-210.15" font-family="Times,serif" font-size="14.00">gamete stage</text>
<text text-anchor="middle" x="992.36" y="-195.15" font-family="Times,serif" font-size="14.00">amphx:0000004</text>
</g>
<!-- amphx:0000004&#45;&gt;uberon:0000105 -->
<g id="edge14" class="edge">
<title>amphx:0000004&#45;&gt;uberon:0000105</title>
<path fill="none" stroke="black" d="M938.03,-187.92C928.5,-185 918.66,-182.08 909.36,-179.48 849.74,-162.8 781.46,-145.99 731.5,-134.12"/>
<polygon fill="black" stroke="black" points="732.3,-130.71 721.76,-131.81 730.69,-137.52 732.3,-130.71"/>
</g>
<!-- amphx:1000013 -->
<g id="node19" class="node">
<title>amphx:1000013</title>
<ellipse fill="none" stroke="red" cx="2046.36" cy="-116.61" rx="74.49" ry="26.74"/>
<text text-anchor="middle" x="2046.36" y="-120.41" font-family="Times,serif" font-size="14.00">zygote</text>
<text text-anchor="middle" x="2046.36" y="-105.41" font-family="Times,serif" font-size="14.00">amphx:1000013</text>
</g>
<!-- amphx:1000013&#45;&gt;cl:0000000 -->
<g id="edge15" class="edge">
<title>amphx:1000013&#45;&gt;cl:0000000</title>
<path fill="none" stroke="black" d="M1992.54,-98.06C1982.87,-95.13 1972.85,-92.24 1963.36,-89.74 1885.82,-69.34 1795.21,-50.65 1736.86,-39.27"/>
<polygon fill="black" stroke="black" points="1737.2,-35.77 1726.71,-37.3 1735.86,-42.64 1737.2,-35.77"/>
</g>
<!-- amphx:0000017 -->
<g id="node20" class="node">
<title>amphx:0000017</title>
<ellipse fill="none" stroke="red" cx="1158.36" cy="-206.35" rx="74.49" ry="26.74"/>
<text text-anchor="middle" x="1158.36" y="-210.15" font-family="Times,serif" font-size="14.00">juvenile</text>
<text text-anchor="middle" x="1158.36" y="-195.15" font-family="Times,serif" font-size="14.00">amphx:0000017</text>
</g>
<!-- amphx:0000017&#45;&gt;uberon:0000105 -->
<g id="edge17" class="edge">
<title>amphx:0000017&#45;&gt;uberon:0000105</title>
<path fill="none" stroke="black" d="M1105.11,-187.43C1095.29,-184.5 1085.07,-181.7 1075.36,-179.48 960.56,-153.2 825.23,-135.43 741.1,-125.91"/>
<polygon fill="black" stroke="black" points="741.43,-122.43 731.1,-124.79 740.65,-129.38 741.43,-122.43"/>
</g>
</g>
</svg>
