<?xml version="1.0" encoding="UTF-8" standalone="no"?>
<!DOCTYPE svg PUBLIC "-//W3C//DTD SVG 1.1//EN"
 "http://www.w3.org/Graphics/SVG/1.1/DTD/svg11.dtd">
<!-- Generated by graphviz version 3.0.0 (20220226.1711)
 -->
<!-- Pages: 1 -->
<svg width="2238pt" height="241pt"
 viewBox="0.00 0.00 2238.49 241.22" xmlns="http://www.w3.org/2000/svg" xmlns:xlink="http://www.w3.org/1999/xlink">
<g id="graph0" class="graph" transform="scale(1 1) rotate(0) translate(4 237.22)">
<polygon fill="white" stroke="transparent" points="-4,4 -4,-237.22 2234.49,-237.22 2234.49,4 -4,4"/>
<!-- amphx:0000001 -->
<g id="node1" class="node">
<title>amphx:0000001</title>
<ellipse fill="none" stroke="red" cx="74.25" cy="-206.35" rx="74.49" ry="26.74"/>
<text text-anchor="middle" x="74.25" y="-210.15" font-family="Times,serif" font-size="14.00">gametogenesis</text>
<text text-anchor="middle" x="74.25" y="-195.15" font-family="Times,serif" font-size="14.00">amphx:0000001</text>
</g>
<!-- uberon:0000105 -->
<g id="node2" class="node">
<title>uberon:0000105</title>
<ellipse fill="none" stroke="blue" cx="598.25" cy="-116.61" rx="74.49" ry="26.74"/>
<text text-anchor="middle" x="598.25" y="-120.41" font-family="Times,serif" font-size="14.00">life cycle stage</text>
<text text-anchor="middle" x="598.25" y="-105.41" font-family="Times,serif" font-size="14.00">uberon:0000105</text>
</g>
<!-- amphx:0000001&#45;&gt;uberon:0000105 -->
<g id="edge1" class="edge">
<title>amphx:0000001&#45;&gt;uberon:0000105</title>
<path fill="none" stroke="black" d="M127.48,-187.36C137.3,-184.44 147.53,-181.66 157.25,-179.48 281.09,-151.69 427.46,-134.1 516.53,-125.05"/>
<polygon fill="black" stroke="black" points="516.97,-128.53 526.57,-124.05 516.27,-121.56 516.97,-128.53"/>
</g>
<!-- go:0005575 -->
<g id="node3" class="node">
<title>go:0005575</title>
<ellipse fill="none" stroke="blue" cx="1545.25" cy="-116.61" rx="86.03" ry="26.74"/>
<text text-anchor="middle" x="1545.25" y="-120.41" font-family="Times,serif" font-size="14.00">cellular component</text>
<text text-anchor="middle" x="1545.25" y="-105.41" font-family="Times,serif" font-size="14.00">go:0005575</text>
</g>
<!-- cl:0000000 -->
<g id="node4" class="node">
<title>cl:0000000</title>
<ellipse fill="none" stroke="blue" cx="1200.25" cy="-26.87" rx="54.39" ry="26.74"/>
<text text-anchor="middle" x="1200.25" y="-30.67" font-family="Times,serif" font-size="14.00">cell</text>
<text text-anchor="middle" x="1200.25" y="-15.67" font-family="Times,serif" font-size="14.00">cl:0000000</text>
</g>
<!-- go:0005575&#45;&gt;cl:0000000 -->
<g id="edge2" class="edge">
<title>go:0005575&#45;&gt;cl:0000000</title>
<path fill="none" stroke="blue" d="M1481.78,-98.32C1470.93,-95.42 1459.77,-92.47 1449.25,-89.74 1383.96,-72.83 1308.8,-54.28 1258.28,-41.95"/>
<polygon fill="blue" stroke="blue" points="1259.06,-38.54 1248.52,-39.57 1257.4,-45.34 1259.06,-38.54"/>
</g>
<!-- amphx:0000017 -->
<g id="node5" class="node">
<title>amphx:0000017</title>
<ellipse fill="none" stroke="red" cx="240.25" cy="-206.35" rx="74.49" ry="26.74"/>
<text text-anchor="middle" x="240.25" y="-210.15" font-family="Times,serif" font-size="14.00">juvenile</text>
<text text-anchor="middle" x="240.25" y="-195.15" font-family="Times,serif" font-size="14.00">amphx:0000017</text>
</g>
<!-- amphx:0000017&#45;&gt;uberon:0000105 -->
<g id="edge3" class="edge">
<title>amphx:0000017&#45;&gt;uberon:0000105</title>
<path fill="none" stroke="black" d="M294.75,-187.9C304.53,-184.96 314.66,-182.03 324.25,-179.48 391.57,-161.54 469.08,-144.36 524.44,-132.67"/>
<polygon fill="black" stroke="black" points="525.45,-136.04 534.51,-130.55 524.01,-129.19 525.45,-136.04"/>
</g>
<!-- uberon:0000061 -->
<g id="node6" class="node">
<title>uberon:0000061</title>
<ellipse fill="none" stroke="blue" cx="1990.25" cy="-116.61" rx="90.52" ry="26.74"/>
<text text-anchor="middle" x="1990.25" y="-120.41" font-family="Times,serif" font-size="14.00">anatomical structure</text>
<text text-anchor="middle" x="1990.25" y="-105.41" font-family="Times,serif" font-size="14.00">uberon:0000061</text>
</g>
<!-- amphx:0000014 -->
<g id="node7" class="node">
<title>amphx:0000014</title>
<ellipse fill="none" stroke="red" cx="419.25" cy="-206.35" rx="86.03" ry="26.74"/>
<text text-anchor="middle" x="419.25" y="-210.15" font-family="Times,serif" font-size="14.00">larval development</text>
<text text-anchor="middle" x="419.25" y="-195.15" font-family="Times,serif" font-size="14.00">amphx:0000014</text>
</g>
<!-- amphx:0000014&#45;&gt;uberon:0000105 -->
<g id="edge4" class="edge">
<title>amphx:0000014&#45;&gt;uberon:0000105</title>
<path fill="none" stroke="black" d="M464.42,-183.21C489.23,-171.05 520.12,-155.9 545.97,-143.23"/>
<polygon fill="black" stroke="black" points="547.81,-146.23 555.25,-138.69 544.73,-139.94 547.81,-146.23"/>
</g>
<!-- amphx:0000004 -->
<g id="node8" class="node">
<title>amphx:0000004</title>
<ellipse fill="none" stroke="red" cx="598.25" cy="-206.35" rx="74.49" ry="26.74"/>
<text text-anchor="middle" x="598.25" y="-210.15" font-family="Times,serif" font-size="14.00">gamete stage</text>
<text text-anchor="middle" x="598.25" y="-195.15" font-family="Times,serif" font-size="14.00">amphx:0000004</text>
</g>
<!-- amphx:0000004&#45;&gt;uberon:0000105 -->
<g id="edge5" class="edge">
<title>amphx:0000004&#45;&gt;uberon:0000105</title>
<path fill="none" stroke="black" d="M598.25,-179.03C598.25,-171.06 598.25,-162.17 598.25,-153.68"/>
<polygon fill="black" stroke="black" points="601.75,-153.61 598.25,-143.61 594.75,-153.61 601.75,-153.61"/>
</g>
<!-- amphx:0000007 -->
<g id="node9" class="node">
<title>amphx:0000007</title>
<ellipse fill="none" stroke="red" cx="796.25" cy="-206.35" rx="105.22" ry="26.74"/>
<text text-anchor="middle" x="796.25" y="-210.15" font-family="Times,serif" font-size="14.00">embryonic development</text>
<text text-anchor="middle" x="796.25" y="-195.15" font-family="Times,serif" font-size="14.00">amphx:0000007</text>
</g>
<!-- amphx:0000007&#45;&gt;uberon:0000105 -->
<g id="edge6" class="edge">
<title>amphx:0000007&#45;&gt;uberon:0000105</title>
<path fill="none" stroke="black" d="M745.26,-182.76C717.15,-170.3 682.24,-154.83 653.49,-142.09"/>
<polygon fill="black" stroke="black" points="654.55,-138.73 643.99,-137.88 651.72,-145.13 654.55,-138.73"/>
</g>
<!-- amphx:1000222 -->
<g id="node10" class="node">
<title>amphx:1000222</title>
<ellipse fill="none" stroke="red" cx="1794.25" cy="-206.35" rx="103.89" ry="26.74"/>
<text text-anchor="middle" x="1794.25" y="-210.15" font-family="Times,serif" font-size="14.00">posterior somite pair 13</text>
<text text-anchor="middle" x="1794.25" y="-195.15" font-family="Times,serif" font-size="14.00">amphx:1000222</text>
</g>
<!-- amphx:1000222&#45;&gt;uberon:0000061 -->
<g id="edge7" class="edge">
<title>amphx:1000222&#45;&gt;uberon:0000061</title>
<path fill="none" stroke="black" d="M1844.72,-182.76C1871.52,-170.76 1904.58,-155.96 1932.41,-143.5"/>
<polygon fill="black" stroke="black" points="1933.94,-146.65 1941.63,-139.37 1931.08,-140.26 1933.94,-146.65"/>
</g>
<!-- amphx:1000007 -->
<g id="node11" class="node">
<title>amphx:1000007</title>
<ellipse fill="none" stroke="red" cx="1353.25" cy="-206.35" rx="101.23" ry="26.74"/>
<text text-anchor="middle" x="1353.25" y="-210.15" font-family="Times,serif" font-size="14.00">vegetal pole cytoplasm</text>
<text text-anchor="middle" x="1353.25" y="-195.15" font-family="Times,serif" font-size="14.00">amphx:1000007</text>
</g>
<!-- amphx:1000007&#45;&gt;go:0005575 -->
<g id="edge8" class="edge">
<title>amphx:1000007&#45;&gt;go:0005575</title>
<path fill="none" stroke="black" d="M1402.69,-182.76C1428.93,-170.76 1461.29,-155.98 1488.55,-143.52"/>
<polygon fill="black" stroke="black" points="1490.31,-146.56 1497.95,-139.22 1487.4,-140.19 1490.31,-146.56"/>
</g>
<!-- amphx:1000084 -->
<g id="node12" class="node">
<title>amphx:1000084</title>
<ellipse fill="none" stroke="red" cx="830.25" cy="-116.61" rx="111.95" ry="26.74"/>
<text text-anchor="middle" x="830.25" y="-120.41" font-family="Times,serif" font-size="14.00">epidermal sensory neuron</text>
<text text-anchor="middle" x="830.25" y="-105.41" font-family="Times,serif" font-size="14.00">amphx:1000084</text>
</g>
<!-- amphx:1000084&#45;&gt;cl:0000000 -->
<g id="edge9" class="edge">
<title>amphx:1000084&#45;&gt;cl:0000000</title>
<path fill="none" stroke="black" d="M907.81,-97.22C977.71,-80.64 1078.92,-56.64 1142.09,-41.66"/>
<polygon fill="black" stroke="black" points="1142.96,-45.05 1151.89,-39.34 1141.35,-38.24 1142.96,-45.05"/>
</g>
<!-- amphx:1000013 -->
<g id="node13" class="node">
<title>amphx:1000013</title>
<ellipse fill="none" stroke="red" cx="1034.25" cy="-116.61" rx="74.49" ry="26.74"/>
<text text-anchor="middle" x="1034.25" y="-120.41" font-family="Times,serif" font-size="14.00">zygote</text>
<text text-anchor="middle" x="1034.25" y="-105.41" font-family="Times,serif" font-size="14.00">amphx:1000013</text>
</g>
<!-- amphx:1000013&#45;&gt;cl:0000000 -->
<g id="edge10" class="edge">
<title>amphx:1000013&#45;&gt;cl:0000000</title>
<path fill="none" stroke="black" d="M1075.28,-93.92C1099.48,-81.13 1130.14,-64.93 1155.03,-51.77"/>
<polygon fill="black" stroke="black" points="1156.71,-54.84 1163.92,-47.07 1153.44,-48.65 1156.71,-54.84"/>
</g>
<!-- amphx:0000019 -->
<g id="node14" class="node">
<title>amphx:0000019</title>
<ellipse fill="none" stroke="red" cx="994.25" cy="-206.35" rx="74.49" ry="26.74"/>
<text text-anchor="middle" x="994.25" y="-210.15" font-family="Times,serif" font-size="14.00">adult</text>
<text text-anchor="middle" x="994.25" y="-195.15" font-family="Times,serif" font-size="14.00">amphx:0000019</text>
</g>
<!-- amphx:0000019&#45;&gt;uberon:0000105 -->
<g id="edge11" class="edge">
<title>amphx:0000019&#45;&gt;uberon:0000105</title>
<path fill="none" stroke="black" d="M940.29,-187.68C930.36,-184.72 920.03,-181.85 910.25,-179.48 822.05,-158.08 798.14,-161.79 709.25,-143.48 696.12,-140.78 682.17,-137.69 668.75,-134.62"/>
<polygon fill="black" stroke="black" points="669.14,-131.12 658.61,-132.28 667.57,-137.94 669.14,-131.12"/>
</g>
<!-- amphx:1000002 -->
<g id="node15" class="node">
<title>amphx:1000002</title>
<ellipse fill="none" stroke="red" cx="1200.25" cy="-116.61" rx="74.49" ry="26.74"/>
<text text-anchor="middle" x="1200.25" y="-120.41" font-family="Times,serif" font-size="14.00">blastomere</text>
<text text-anchor="middle" x="1200.25" y="-105.41" font-family="Times,serif" font-size="14.00">amphx:1000002</text>
</g>
<!-- amphx:1000002&#45;&gt;cl:0000000 -->
<g id="edge12" class="edge">
<title>amphx:1000002&#45;&gt;cl:0000000</title>
<path fill="none" stroke="black" d="M1200.25,-89.29C1200.25,-81.32 1200.25,-72.43 1200.25,-63.94"/>
<polygon fill="black" stroke="black" points="1203.75,-63.87 1200.25,-53.87 1196.75,-63.87 1203.75,-63.87"/>
</g>
<!-- amphx:1000003 -->
<g id="node16" class="node">
<title>amphx:1000003</title>
<ellipse fill="none" stroke="red" cx="1366.25" cy="-116.61" rx="74.49" ry="26.74"/>
<text text-anchor="middle" x="1366.25" y="-120.41" font-family="Times,serif" font-size="14.00">whole oocyte</text>
<text text-anchor="middle" x="1366.25" y="-105.41" font-family="Times,serif" font-size="14.00">amphx:1000003</text>
</g>
<!-- amphx:1000003&#45;&gt;cl:0000000 -->
<g id="edge13" class="edge">
<title>amphx:1000003&#45;&gt;cl:0000000</title>
<path fill="none" stroke="black" d="M1325.21,-93.92C1301.01,-81.13 1270.36,-64.93 1245.46,-51.77"/>
<polygon fill="black" stroke="black" points="1247.05,-48.65 1236.57,-47.07 1243.78,-54.84 1247.05,-48.65"/>
</g>
<!-- amphx:0000016 -->
<g id="node17" class="node">
<title>amphx:0000016</title>
<ellipse fill="none" stroke="red" cx="1160.25" cy="-206.35" rx="74.49" ry="26.74"/>
<text text-anchor="middle" x="1160.25" y="-210.15" font-family="Times,serif" font-size="14.00">metamorphosis</text>
<text text-anchor="middle" x="1160.25" y="-195.15" font-family="Times,serif" font-size="14.00">amphx:0000016</text>
</g>
<!-- amphx:0000016&#45;&gt;uberon:0000105 -->
<g id="edge14" class="edge">
<title>amphx:0000016&#45;&gt;uberon:0000105</title>
<path fill="none" stroke="black" d="M1107.53,-187.15C1097.57,-184.22 1087.16,-181.49 1077.25,-179.48 916.18,-146.86 871.4,-170.19 709.25,-143.48 695.66,-141.24 681.25,-138.31 667.48,-135.22"/>
<polygon fill="black" stroke="black" points="668.11,-131.78 657.58,-132.96 666.55,-138.6 668.11,-131.78"/>
</g>
<!-- amphx:1000320 -->
<g id="node18" class="node">
<title>amphx:1000320</title>
<ellipse fill="none" stroke="red" cx="1990.25" cy="-206.35" rx="74.49" ry="26.74"/>
<text text-anchor="middle" x="1990.25" y="-210.15" font-family="Times,serif" font-size="14.00">pharynx</text>
<text text-anchor="middle" x="1990.25" y="-195.15" font-family="Times,serif" font-size="14.00">amphx:1000320</text>
</g>
<!-- amphx:1000320&#45;&gt;uberon:0000061 -->
<g id="edge15" class="edge">
<title>amphx:1000320&#45;&gt;uberon:0000061</title>
<path fill="none" stroke="black" d="M1990.25,-179.03C1990.25,-171.06 1990.25,-162.17 1990.25,-153.68"/>
<polygon fill="black" stroke="black" points="1993.75,-153.61 1990.25,-143.61 1986.75,-153.61 1993.75,-153.61"/>
</g>
<!-- amphx:1000010 -->
<g id="node19" class="node">
<title>amphx:1000010</title>
<ellipse fill="none" stroke="red" cx="1572.25" cy="-206.35" rx="99.9" ry="26.74"/>
<text text-anchor="middle" x="1572.25" y="-210.15" font-family="Times,serif" font-size="14.00">animal pole cytoplasm</text>
<text text-anchor="middle" x="1572.25" y="-195.15" font-family="Times,serif" font-size="14.00">amphx:1000010</text>
</g>
<!-- amphx:1000010&#45;&gt;go:0005575 -->
<g id="edge16" class="edge">
<title>amphx:1000010&#45;&gt;go:0005575</title>
<path fill="none" stroke="black" d="M1564.29,-179.5C1561.76,-171.27 1558.91,-162.02 1556.21,-153.23"/>
<polygon fill="black" stroke="black" points="1559.52,-152.11 1553.24,-143.58 1552.83,-154.17 1559.52,-152.11"/>
</g>
<!-- amphx:1000124 -->
<g id="node20" class="node">
<title>amphx:1000124</title>
<ellipse fill="none" stroke="red" cx="2156.25" cy="-206.35" rx="74.49" ry="26.74"/>
<text text-anchor="middle" x="2156.25" y="-210.15" font-family="Times,serif" font-size="14.00">somite pair 6</text>
<text text-anchor="middle" x="2156.25" y="-195.15" font-family="Times,serif" font-size="14.00">amphx:1000124</text>
</g>
<!-- amphx:1000124&#45;&gt;uberon:0000061 -->
<g id="edge17" class="edge">
<title>amphx:1000124&#45;&gt;uberon:0000061</title>
<path fill="none" stroke="black" d="M2115.21,-183.66C2093.26,-172.06 2065.99,-157.65 2042.53,-145.25"/>
<polygon fill="black" stroke="black" points="2043.89,-142.01 2033.42,-140.43 2040.62,-148.19 2043.89,-142.01"/>
</g>
</g>
</svg>
