<?xml version="1.0" encoding="UTF-8" standalone="no"?>
<!DOCTYPE svg PUBLIC "-//W3C//DTD SVG 1.1//EN"
 "http://www.w3.org/Graphics/SVG/1.1/DTD/svg11.dtd">
<!-- Generated by graphviz version 3.0.0 (20220226.1711)
 -->
<!-- Pages: 1 -->
<svg width="2581pt" height="241pt"
 viewBox="0.00 0.00 2581.49 241.22" xmlns="http://www.w3.org/2000/svg" xmlns:xlink="http://www.w3.org/1999/xlink">
<g id="graph0" class="graph" transform="scale(1 1) rotate(0) translate(4 237.22)">
<polygon fill="white" stroke="transparent" points="-4,4 -4,-237.22 2577.49,-237.22 2577.49,4 -4,4"/>
<!-- cl:0000000 -->
<g id="node1" class="node">
<title>cl:0000000</title>
<ellipse fill="none" stroke="blue" cx="432.25" cy="-26.87" rx="54.39" ry="26.74"/>
<text text-anchor="middle" x="432.25" y="-30.67" font-family="Times,serif" font-size="14.00">cell</text>
<text text-anchor="middle" x="432.25" y="-15.67" font-family="Times,serif" font-size="14.00">cl:0000000</text>
</g>
<!-- amphx:1000002 -->
<g id="node2" class="node">
<title>amphx:1000002</title>
<ellipse fill="none" stroke="orange" cx="74.25" cy="-116.61" rx="74.49" ry="26.74"/>
<text text-anchor="middle" x="74.25" y="-120.41" font-family="Times,serif" font-size="14.00">blastomere</text>
<text text-anchor="middle" x="74.25" y="-105.41" font-family="Times,serif" font-size="14.00">amphx:1000002</text>
</g>
<!-- amphx:1000002&#45;&gt;cl:0000000 -->
<g id="edge1" class="edge">
<title>amphx:1000002&#45;&gt;cl:0000000</title>
<path fill="none" stroke="black" d="M128.75,-98.16C138.53,-95.22 148.66,-92.29 158.25,-89.74 231.44,-70.24 316.69,-51.62 372.42,-40"/>
<polygon fill="black" stroke="black" points="373.39,-43.37 382.47,-37.91 371.97,-36.52 373.39,-43.37"/>
</g>
<!-- amphx:1000320 -->
<g id="node3" class="node">
<title>amphx:1000320</title>
<ellipse fill="none" stroke="orange" cx="856.25" cy="-206.35" rx="74.49" ry="26.74"/>
<text text-anchor="middle" x="856.25" y="-210.15" font-family="Times,serif" font-size="14.00">pharynx</text>
<text text-anchor="middle" x="856.25" y="-195.15" font-family="Times,serif" font-size="14.00">amphx:1000320</text>
</g>
<!-- uberon:0000061 -->
<g id="node4" class="node">
<title>uberon:0000061</title>
<ellipse fill="none" stroke="blue" cx="1022.25" cy="-116.61" rx="90.52" ry="26.74"/>
<text text-anchor="middle" x="1022.25" y="-120.41" font-family="Times,serif" font-size="14.00">anatomical structure</text>
<text text-anchor="middle" x="1022.25" y="-105.41" font-family="Times,serif" font-size="14.00">uberon:0000061</text>
</g>
<!-- amphx:1000320&#45;&gt;uberon:0000061 -->
<g id="edge2" class="edge">
<title>amphx:1000320&#45;&gt;uberon:0000061</title>
<path fill="none" stroke="black" d="M897.28,-183.66C919.23,-172.06 946.5,-157.65 969.96,-145.25"/>
<polygon fill="black" stroke="black" points="971.87,-148.19 979.08,-140.43 968.6,-142.01 971.87,-148.19"/>
</g>
<!-- go:0005575 -->
<g id="node5" class="node">
<title>go:0005575</title>
<ellipse fill="none" stroke="blue" cx="253.25" cy="-116.61" rx="86.03" ry="26.74"/>
<text text-anchor="middle" x="253.25" y="-120.41" font-family="Times,serif" font-size="14.00">cellular component</text>
<text text-anchor="middle" x="253.25" y="-105.41" font-family="Times,serif" font-size="14.00">go:0005575</text>
</g>
<!-- go:0005575&#45;&gt;cl:0000000 -->
<g id="edge3" class="edge">
<title>go:0005575&#45;&gt;cl:0000000</title>
<path fill="none" stroke="blue" d="M298.42,-93.47C324.91,-80.48 358.34,-64.09 385.16,-50.95"/>
<polygon fill="blue" stroke="blue" points="386.91,-53.99 394.35,-46.44 383.83,-47.7 386.91,-53.99"/>
</g>
<!-- uberon:0000105 -->
<g id="node6" class="node">
<title>uberon:0000105</title>
<ellipse fill="none" stroke="blue" cx="1925.25" cy="-116.61" rx="74.49" ry="26.74"/>
<text text-anchor="middle" x="1925.25" y="-120.41" font-family="Times,serif" font-size="14.00">life cycle stage</text>
<text text-anchor="middle" x="1925.25" y="-105.41" font-family="Times,serif" font-size="14.00">uberon:0000105</text>
</g>
<!-- amphx:0000019 -->
<g id="node7" class="node">
<title>amphx:0000019</title>
<ellipse fill="none" stroke="orange" cx="1414.25" cy="-206.35" rx="74.49" ry="26.74"/>
<text text-anchor="middle" x="1414.25" y="-210.15" font-family="Times,serif" font-size="14.00">adult</text>
<text text-anchor="middle" x="1414.25" y="-195.15" font-family="Times,serif" font-size="14.00">amphx:0000019</text>
</g>
<!-- amphx:0000019&#45;&gt;uberon:0000105 -->
<g id="edge4" class="edge">
<title>amphx:0000019&#45;&gt;uberon:0000105</title>
<path fill="none" stroke="black" d="M1467.49,-187.39C1477.31,-184.47 1487.53,-181.68 1497.25,-179.48 1616.63,-152.43 1757.55,-134.74 1844.16,-125.46"/>
<polygon fill="black" stroke="black" points="1844.61,-128.93 1854.18,-124.39 1843.87,-121.97 1844.61,-128.93"/>
</g>
<!-- amphx:0000001 -->
<g id="node8" class="node">
<title>amphx:0000001</title>
<ellipse fill="none" stroke="orange" cx="1580.25" cy="-206.35" rx="74.49" ry="26.74"/>
<text text-anchor="middle" x="1580.25" y="-210.15" font-family="Times,serif" font-size="14.00">gametogenesis</text>
<text text-anchor="middle" x="1580.25" y="-195.15" font-family="Times,serif" font-size="14.00">amphx:0000001</text>
</g>
<!-- amphx:0000001&#45;&gt;uberon:0000105 -->
<g id="edge5" class="edge">
<title>amphx:0000001&#45;&gt;uberon:0000105</title>
<path fill="none" stroke="black" d="M1634.55,-187.82C1644.08,-184.92 1653.93,-182.03 1663.25,-179.48 1726.77,-162.1 1799.75,-145.11 1852.52,-133.34"/>
<polygon fill="black" stroke="black" points="1853.46,-136.72 1862.47,-131.13 1851.95,-129.89 1853.46,-136.72"/>
</g>
<!-- amphx:0000004 -->
<g id="node9" class="node">
<title>amphx:0000004</title>
<ellipse fill="none" stroke="orange" cx="1746.25" cy="-206.35" rx="74.49" ry="26.74"/>
<text text-anchor="middle" x="1746.25" y="-210.15" font-family="Times,serif" font-size="14.00">gamete stage</text>
<text text-anchor="middle" x="1746.25" y="-195.15" font-family="Times,serif" font-size="14.00">amphx:0000004</text>
</g>
<!-- amphx:0000004&#45;&gt;uberon:0000105 -->
<g id="edge6" class="edge">
<title>amphx:0000004&#45;&gt;uberon:0000105</title>
<path fill="none" stroke="black" d="M1789.12,-184.33C1814.38,-171.95 1846.51,-156.2 1873.21,-143.12"/>
<polygon fill="black" stroke="black" points="1874.97,-146.15 1882.41,-138.61 1871.89,-139.87 1874.97,-146.15"/>
</g>
<!-- amphx:1000124 -->
<g id="node10" class="node">
<title>amphx:1000124</title>
<ellipse fill="none" stroke="orange" cx="1022.25" cy="-206.35" rx="74.49" ry="26.74"/>
<text text-anchor="middle" x="1022.25" y="-210.15" font-family="Times,serif" font-size="14.00">somite pair 6</text>
<text text-anchor="middle" x="1022.25" y="-195.15" font-family="Times,serif" font-size="14.00">amphx:1000124</text>
</g>
<!-- amphx:1000124&#45;&gt;uberon:0000061 -->
<g id="edge7" class="edge">
<title>amphx:1000124&#45;&gt;uberon:0000061</title>
<path fill="none" stroke="black" d="M1022.25,-179.03C1022.25,-171.06 1022.25,-162.17 1022.25,-153.68"/>
<polygon fill="black" stroke="black" points="1025.75,-153.61 1022.25,-143.61 1018.75,-153.61 1025.75,-153.61"/>
</g>
<!-- amphx:1000013 -->
<g id="node11" class="node">
<title>amphx:1000013</title>
<ellipse fill="none" stroke="orange" cx="432.25" cy="-116.61" rx="74.49" ry="26.74"/>
<text text-anchor="middle" x="432.25" y="-120.41" font-family="Times,serif" font-size="14.00">zygote</text>
<text text-anchor="middle" x="432.25" y="-105.41" font-family="Times,serif" font-size="14.00">amphx:1000013</text>
</g>
<!-- amphx:1000013&#45;&gt;cl:0000000 -->
<g id="edge8" class="edge">
<title>amphx:1000013&#45;&gt;cl:0000000</title>
<path fill="none" stroke="black" d="M432.25,-89.29C432.25,-81.32 432.25,-72.43 432.25,-63.94"/>
<polygon fill="black" stroke="black" points="435.75,-63.87 432.25,-53.87 428.75,-63.87 435.75,-63.87"/>
</g>
<!-- amphx:1000003 -->
<g id="node12" class="node">
<title>amphx:1000003</title>
<ellipse fill="none" stroke="orange" cx="598.25" cy="-116.61" rx="74.49" ry="26.74"/>
<text text-anchor="middle" x="598.25" y="-120.41" font-family="Times,serif" font-size="14.00">whole oocyte</text>
<text text-anchor="middle" x="598.25" y="-105.41" font-family="Times,serif" font-size="14.00">amphx:1000003</text>
</g>
<!-- amphx:1000003&#45;&gt;cl:0000000 -->
<g id="edge9" class="edge">
<title>amphx:1000003&#45;&gt;cl:0000000</title>
<path fill="none" stroke="black" d="M557.21,-93.92C533.01,-81.13 502.36,-64.93 477.46,-51.77"/>
<polygon fill="black" stroke="black" points="479.05,-48.65 468.57,-47.07 475.78,-54.84 479.05,-48.65"/>
</g>
<!-- amphx:1000007 -->
<g id="node13" class="node">
<title>amphx:1000007</title>
<ellipse fill="none" stroke="orange" cx="144.25" cy="-206.35" rx="101.23" ry="26.74"/>
<text text-anchor="middle" x="144.25" y="-210.15" font-family="Times,serif" font-size="14.00">vegetal pole cytoplasm</text>
<text text-anchor="middle" x="144.25" y="-195.15" font-family="Times,serif" font-size="14.00">amphx:1000007</text>
</g>
<!-- amphx:1000007&#45;&gt;go:0005575 -->
<g id="edge10" class="edge">
<title>amphx:1000007&#45;&gt;go:0005575</title>
<path fill="none" stroke="black" d="M174.9,-180.68C187.31,-170.69 201.78,-159.04 214.87,-148.5"/>
<polygon fill="black" stroke="black" points="217.23,-151.1 222.82,-142.1 212.84,-145.64 217.23,-151.1"/>
</g>
<!-- amphx:0000014 -->
<g id="node14" class="node">
<title>amphx:0000014</title>
<ellipse fill="none" stroke="orange" cx="1925.25" cy="-206.35" rx="86.03" ry="26.74"/>
<text text-anchor="middle" x="1925.25" y="-210.15" font-family="Times,serif" font-size="14.00">larval development</text>
<text text-anchor="middle" x="1925.25" y="-195.15" font-family="Times,serif" font-size="14.00">amphx:0000014</text>
</g>
<!-- amphx:0000014&#45;&gt;uberon:0000105 -->
<g id="edge11" class="edge">
<title>amphx:0000014&#45;&gt;uberon:0000105</title>
<path fill="none" stroke="black" d="M1925.25,-179.03C1925.25,-171.06 1925.25,-162.17 1925.25,-153.68"/>
<polygon fill="black" stroke="black" points="1928.75,-153.61 1925.25,-143.61 1921.75,-153.61 1928.75,-153.61"/>
</g>
<!-- amphx:1000084 -->
<g id="node15" class="node">
<title>amphx:1000084</title>
<ellipse fill="none" stroke="orange" cx="802.25" cy="-116.61" rx="111.95" ry="26.74"/>
<text text-anchor="middle" x="802.25" y="-120.41" font-family="Times,serif" font-size="14.00">epidermal sensory neuron</text>
<text text-anchor="middle" x="802.25" y="-105.41" font-family="Times,serif" font-size="14.00">amphx:1000084</text>
</g>
<!-- amphx:1000084&#45;&gt;cl:0000000 -->
<g id="edge12" class="edge">
<title>amphx:1000084&#45;&gt;cl:0000000</title>
<path fill="none" stroke="black" d="M724.68,-97.22C654.78,-80.64 553.57,-56.64 490.41,-41.66"/>
<polygon fill="black" stroke="black" points="491.14,-38.24 480.61,-39.34 489.53,-45.05 491.14,-38.24"/>
</g>
<!-- amphx:0000007 -->
<g id="node16" class="node">
<title>amphx:0000007</title>
<ellipse fill="none" stroke="orange" cx="2135.25" cy="-206.35" rx="105.22" ry="26.74"/>
<text text-anchor="middle" x="2135.25" y="-210.15" font-family="Times,serif" font-size="14.00">embryonic development</text>
<text text-anchor="middle" x="2135.25" y="-195.15" font-family="Times,serif" font-size="14.00">amphx:0000007</text>
</g>
<!-- amphx:0000007&#45;&gt;uberon:0000105 -->
<g id="edge13" class="edge">
<title>amphx:0000007&#45;&gt;uberon:0000105</title>
<path fill="none" stroke="black" d="M2081.98,-183.1C2051.48,-170.35 2013.21,-154.36 1982.12,-141.37"/>
<polygon fill="black" stroke="black" points="1983.3,-138.07 1972.72,-137.45 1980.6,-144.53 1983.3,-138.07"/>
</g>
<!-- amphx:1000010 -->
<g id="node17" class="node">
<title>amphx:1000010</title>
<ellipse fill="none" stroke="orange" cx="363.25" cy="-206.35" rx="99.9" ry="26.74"/>
<text text-anchor="middle" x="363.25" y="-210.15" font-family="Times,serif" font-size="14.00">animal pole cytoplasm</text>
<text text-anchor="middle" x="363.25" y="-195.15" font-family="Times,serif" font-size="14.00">amphx:1000010</text>
</g>
<!-- amphx:1000010&#45;&gt;go:0005575 -->
<g id="edge14" class="edge">
<title>amphx:1000010&#45;&gt;go:0005575</title>
<path fill="none" stroke="black" d="M332.31,-180.68C319.68,-170.6 304.94,-158.85 291.64,-148.23"/>
<polygon fill="black" stroke="black" points="293.57,-145.3 283.57,-141.8 289.2,-150.77 293.57,-145.3"/>
</g>
<!-- amphx:0000016 -->
<g id="node18" class="node">
<title>amphx:0000016</title>
<ellipse fill="none" stroke="orange" cx="2333.25" cy="-206.35" rx="74.49" ry="26.74"/>
<text text-anchor="middle" x="2333.25" y="-210.15" font-family="Times,serif" font-size="14.00">metamorphosis</text>
<text text-anchor="middle" x="2333.25" y="-195.15" font-family="Times,serif" font-size="14.00">amphx:0000016</text>
</g>
<!-- amphx:0000016&#45;&gt;uberon:0000105 -->
<g id="edge15" class="edge">
<title>amphx:0000016&#45;&gt;uberon:0000105</title>
<path fill="none" stroke="black" d="M2279.27,-187.77C2269.34,-184.81 2259.02,-181.91 2249.25,-179.48 2165.59,-158.68 2068.3,-140.95 2002.33,-129.87"/>
<polygon fill="black" stroke="black" points="2002.86,-126.41 1992.42,-128.22 2001.71,-133.32 2002.86,-126.41"/>
</g>
<!-- amphx:0000017 -->
<g id="node19" class="node">
<title>amphx:0000017</title>
<ellipse fill="none" stroke="orange" cx="2499.25" cy="-206.35" rx="74.49" ry="26.74"/>
<text text-anchor="middle" x="2499.25" y="-210.15" font-family="Times,serif" font-size="14.00">juvenile</text>
<text text-anchor="middle" x="2499.25" y="-195.15" font-family="Times,serif" font-size="14.00">amphx:0000017</text>
</g>
<!-- amphx:0000017&#45;&gt;uberon:0000105 -->
<g id="edge16" class="edge">
<title>amphx:0000017&#45;&gt;uberon:0000105</title>
<path fill="none" stroke="black" d="M2446.49,-187.38C2436.52,-184.42 2426.13,-181.63 2416.25,-179.48 2274.54,-148.72 2106.27,-131.63 2008.05,-123.55"/>
<polygon fill="black" stroke="black" points="2008.14,-120.05 1997.89,-122.73 2007.57,-127.02 2008.14,-120.05"/>
</g>
<!-- amphx:1000222 -->
<g id="node20" class="node">
<title>amphx:1000222</title>
<ellipse fill="none" stroke="orange" cx="1218.25" cy="-206.35" rx="103.89" ry="26.74"/>
<text text-anchor="middle" x="1218.25" y="-210.15" font-family="Times,serif" font-size="14.00">posterior somite pair 13</text>
<text text-anchor="middle" x="1218.25" y="-195.15" font-family="Times,serif" font-size="14.00">amphx:1000222</text>
</g>
<!-- amphx:1000222&#45;&gt;uberon:0000061 -->
<g id="edge17" class="edge">
<title>amphx:1000222&#45;&gt;uberon:0000061</title>
<path fill="none" stroke="black" d="M1167.77,-182.76C1140.97,-170.76 1107.91,-155.96 1080.08,-143.5"/>
<polygon fill="black" stroke="black" points="1081.42,-140.26 1070.86,-139.37 1078.56,-146.65 1081.42,-140.26"/>
</g>
</g>
</svg>
