<?xml version="1.0" encoding="UTF-8" standalone="no"?>
<!DOCTYPE svg PUBLIC "-//W3C//DTD SVG 1.1//EN"
 "http://www.w3.org/Graphics/SVG/1.1/DTD/svg11.dtd">
<!-- Generated by graphviz version 3.0.0 (20220226.1711)
 -->
<!-- Pages: 1 -->
<svg width="1243pt" height="600pt"
 viewBox="0.00 0.00 1242.97 600.18" xmlns="http://www.w3.org/2000/svg" xmlns:xlink="http://www.w3.org/1999/xlink">
<g id="graph0" class="graph" transform="scale(1 1) rotate(0) translate(4 596.18)">
<polygon fill="white" stroke="transparent" points="-4,4 -4,-596.18 1238.97,-596.18 1238.97,4 -4,4"/>
<!-- bfo:0000004 -->
<g id="node1" class="node">
<title>bfo:0000004</title>
<ellipse fill="none" stroke="black" cx="863.78" cy="-116.61" rx="101.23" ry="26.74"/>
<text text-anchor="middle" x="863.78" y="-120.41" font-family="Times,serif" font-size="14.00">independent continuant</text>
<text text-anchor="middle" x="863.78" y="-105.41" font-family="Times,serif" font-size="14.00">bfo:0000004</text>
</g>
<!-- bfo:0000002 -->
<g id="node2" class="node">
<title>bfo:0000002</title>
<ellipse fill="none" stroke="black" cx="863.78" cy="-26.87" rx="60.62" ry="26.74"/>
<text text-anchor="middle" x="863.78" y="-30.67" font-family="Times,serif" font-size="14.00">continuant</text>
<text text-anchor="middle" x="863.78" y="-15.67" font-family="Times,serif" font-size="14.00">bfo:0000002</text>
</g>
<!-- bfo:0000004&#45;&gt;bfo:0000002 -->
<g id="edge1" class="edge">
<title>bfo:0000004&#45;&gt;bfo:0000002</title>
<path fill="none" stroke="black" d="M863.78,-89.29C863.78,-81.32 863.78,-72.43 863.78,-63.94"/>
<polygon fill="black" stroke="black" points="867.28,-63.87 863.78,-53.87 860.28,-63.87 867.28,-63.87"/>
</g>
<!-- caro:0000000 -->
<g id="node3" class="node">
<title>caro:0000000</title>
<ellipse fill="none" stroke="black" cx="801.78" cy="-296.09" rx="78.48" ry="26.74"/>
<text text-anchor="middle" x="801.78" y="-299.89" font-family="Times,serif" font-size="14.00">anatomical entity</text>
<text text-anchor="middle" x="801.78" y="-284.89" font-family="Times,serif" font-size="14.00">caro:0000000</text>
</g>
<!-- caro:0030000 -->
<g id="node4" class="node">
<title>caro:0030000</title>
<ellipse fill="none" stroke="black" cx="863.78" cy="-206.35" rx="74.49" ry="26.74"/>
<text text-anchor="middle" x="863.78" y="-210.15" font-family="Times,serif" font-size="14.00">biological entity</text>
<text text-anchor="middle" x="863.78" y="-195.15" font-family="Times,serif" font-size="14.00">caro:0030000</text>
</g>
<!-- caro:0000000&#45;&gt;caro:0030000 -->
<g id="edge2" class="edge">
<title>caro:0000000&#45;&gt;caro:0030000</title>
<path fill="none" stroke="black" d="M819.71,-269.71C826.08,-260.71 833.34,-250.43 840.1,-240.86"/>
<polygon fill="black" stroke="black" points="842.98,-242.86 845.89,-232.67 837.26,-238.82 842.98,-242.86"/>
</g>
<!-- caro:0030000&#45;&gt;bfo:0000004 -->
<g id="edge16" class="edge">
<title>caro:0030000&#45;&gt;bfo:0000004</title>
<path fill="none" stroke="black" d="M863.78,-179.03C863.78,-171.06 863.78,-162.17 863.78,-153.68"/>
<polygon fill="black" stroke="black" points="867.28,-153.61 863.78,-143.61 860.28,-153.61 867.28,-153.61"/>
</g>
<!-- caro:0000007 -->
<g id="node5" class="node">
<title>caro:0000007</title>
<ellipse fill="none" stroke="black" cx="701.78" cy="-385.83" rx="123.99" ry="26.74"/>
<text text-anchor="middle" x="701.78" y="-389.63" font-family="Times,serif" font-size="14.00">immaterial anatomical entity</text>
<text text-anchor="middle" x="701.78" y="-374.63" font-family="Times,serif" font-size="14.00">caro:0000007</text>
</g>
<!-- caro:0000007&#45;&gt;caro:0000000 -->
<g id="edge3" class="edge">
<title>caro:0000007&#45;&gt;caro:0000000</title>
<path fill="none" stroke="black" d="M730.44,-359.69C741.71,-349.8 754.75,-338.35 766.59,-327.97"/>
<polygon fill="black" stroke="black" points="768.95,-330.56 774.16,-321.33 764.33,-325.29 768.95,-330.56"/>
</g>
<!-- bfo:0000141 -->
<g id="node6" class="node">
<title>bfo:0000141</title>
<ellipse fill="none" stroke="black" cx="692.78" cy="-206.35" rx="78.48" ry="26.74"/>
<text text-anchor="middle" x="692.78" y="-210.15" font-family="Times,serif" font-size="14.00">immaterial entity</text>
<text text-anchor="middle" x="692.78" y="-195.15" font-family="Times,serif" font-size="14.00">bfo:0000141</text>
</g>
<!-- caro:0000007&#45;&gt;bfo:0000141 -->
<g id="edge4" class="edge">
<title>caro:0000007&#45;&gt;bfo:0000141</title>
<path fill="none" stroke="black" d="M700.45,-358.64C698.91,-328.15 696.34,-277.59 694.61,-243.4"/>
<polygon fill="black" stroke="black" points="698.1,-243.17 694.1,-233.36 691.11,-243.52 698.1,-243.17"/>
</g>
<!-- bfo:0000141&#45;&gt;bfo:0000004 -->
<g id="edge6" class="edge">
<title>bfo:0000141&#45;&gt;bfo:0000004</title>
<path fill="none" stroke="black" d="M735.05,-183.66C757.59,-172.1 785.57,-157.74 809.68,-145.37"/>
<polygon fill="black" stroke="black" points="811.41,-148.42 818.71,-140.74 808.21,-142.19 811.41,-148.42"/>
</g>
<!-- caro:0000010 -->
<g id="node7" class="node">
<title>caro:0000010</title>
<ellipse fill="none" stroke="blue" cx="382.78" cy="-475.57" rx="92.76" ry="26.74"/>
<text text-anchor="middle" x="382.78" y="-479.37" font-family="Times,serif" font-size="14.00">anatomical boundary</text>
<text text-anchor="middle" x="382.78" y="-464.37" font-family="Times,serif" font-size="14.00">caro:0000010</text>
</g>
<!-- caro:0000010&#45;&gt;caro:0000007 -->
<g id="edge5" class="edge">
<title>caro:0000010&#45;&gt;caro:0000007</title>
<path fill="none" stroke="black" d="M448.49,-456.5C497.43,-443.04 564.63,-424.55 617.52,-410.01"/>
<polygon fill="black" stroke="black" points="618.5,-413.37 627.22,-407.34 616.65,-406.62 618.5,-413.37"/>
</g>
<!-- bspo:0000070 -->
<g id="node8" class="node">
<title>bspo:0000070</title>
<ellipse fill="none" stroke="red" cx="918.78" cy="-565.31" rx="81.13" ry="26.74"/>
<text text-anchor="middle" x="918.78" y="-569.11" font-family="Times,serif" font-size="14.00">anatomical region</text>
<text text-anchor="middle" x="918.78" y="-554.11" font-family="Times,serif" font-size="14.00">bspo:0000070</text>
</g>
<!-- caro:0000003 -->
<g id="node9" class="node">
<title>caro:0000003</title>
<ellipse fill="none" stroke="blue" cx="939.78" cy="-475.57" rx="90.52" ry="26.74"/>
<text text-anchor="middle" x="939.78" y="-479.37" font-family="Times,serif" font-size="14.00">anatomical structure</text>
<text text-anchor="middle" x="939.78" y="-464.37" font-family="Times,serif" font-size="14.00">caro:0000003</text>
</g>
<!-- bspo:0000070&#45;&gt;caro:0000003 -->
<g id="edge7" class="edge">
<title>bspo:0000070&#45;&gt;caro:0000003</title>
<path fill="none" stroke="black" d="M924.97,-538.46C926.92,-530.32 929.1,-521.18 931.19,-512.48"/>
<polygon fill="black" stroke="black" points="934.64,-513.08 933.57,-502.54 927.83,-511.45 934.64,-513.08"/>
</g>
<!-- caro:0000006 -->
<g id="node16" class="node">
<title>caro:0000006</title>
<ellipse fill="none" stroke="blue" cx="960.78" cy="-385.83" rx="113.27" ry="26.74"/>
<text text-anchor="middle" x="960.78" y="-389.63" font-family="Times,serif" font-size="14.00">material anatomical entity</text>
<text text-anchor="middle" x="960.78" y="-374.63" font-family="Times,serif" font-size="14.00">caro:0000006</text>
</g>
<!-- caro:0000003&#45;&gt;caro:0000006 -->
<g id="edge17" class="edge">
<title>caro:0000003&#45;&gt;caro:0000006</title>
<path fill="none" stroke="black" d="M945.97,-448.72C947.92,-440.58 950.1,-431.44 952.19,-422.74"/>
<polygon fill="black" stroke="black" points="955.64,-423.34 954.57,-412.8 948.83,-421.71 955.64,-423.34"/>
</g>
<!-- bspo:0000010 -->
<g id="node10" class="node">
<title>bspo:0000010</title>
<ellipse fill="none" stroke="red" cx="743.78" cy="-565.31" rx="72.25" ry="26.74"/>
<text text-anchor="middle" x="743.78" y="-569.11" font-family="Times,serif" font-size="14.00">anatomical axis</text>
<text text-anchor="middle" x="743.78" y="-554.11" font-family="Times,serif" font-size="14.00">bspo:0000010</text>
</g>
<!-- caro:0000008 -->
<g id="node11" class="node">
<title>caro:0000008</title>
<ellipse fill="none" stroke="blue" cx="722.78" cy="-475.57" rx="71.34" ry="26.74"/>
<text text-anchor="middle" x="722.78" y="-479.37" font-family="Times,serif" font-size="14.00">anatomical line</text>
<text text-anchor="middle" x="722.78" y="-464.37" font-family="Times,serif" font-size="14.00">caro:0000008</text>
</g>
<!-- bspo:0000010&#45;&gt;caro:0000008 -->
<g id="edge8" class="edge">
<title>bspo:0000010&#45;&gt;caro:0000008</title>
<path fill="none" stroke="black" d="M737.59,-538.46C735.65,-530.32 733.46,-521.18 731.38,-512.48"/>
<polygon fill="black" stroke="black" points="734.73,-511.45 729,-502.54 727.92,-513.08 734.73,-511.45"/>
</g>
<!-- caro:0000008&#45;&gt;caro:0000007 -->
<g id="edge18" class="edge">
<title>caro:0000008&#45;&gt;caro:0000007</title>
<path fill="none" stroke="black" d="M716.59,-448.72C714.65,-440.58 712.46,-431.44 710.38,-422.74"/>
<polygon fill="black" stroke="black" points="713.73,-421.71 708,-412.8 706.92,-423.34 713.73,-421.71"/>
</g>
<!-- bspo:0000086 -->
<g id="node12" class="node">
<title>bspo:0000086</title>
<ellipse fill="none" stroke="red" cx="1126.78" cy="-565.31" rx="108.38" ry="26.74"/>
<text text-anchor="middle" x="1126.78" y="-569.11" font-family="Times,serif" font-size="14.00">anatomical compartment</text>
<text text-anchor="middle" x="1126.78" y="-554.11" font-family="Times,serif" font-size="14.00">bspo:0000086</text>
</g>
<!-- bspo:0000086&#45;&gt;caro:0000003 -->
<g id="edge9" class="edge">
<title>bspo:0000086&#45;&gt;caro:0000003</title>
<path fill="none" stroke="black" d="M1077.65,-541.26C1052.59,-529.5 1022,-515.15 996,-502.95"/>
<polygon fill="black" stroke="black" points="997.19,-499.64 986.65,-498.56 994.22,-505.98 997.19,-499.64"/>
</g>
<!-- bfo:0000040 -->
<g id="node13" class="node">
<title>bfo:0000040</title>
<ellipse fill="none" stroke="black" cx="965.78" cy="-296.09" rx="67.76" ry="26.74"/>
<text text-anchor="middle" x="965.78" y="-299.89" font-family="Times,serif" font-size="14.00">material entity</text>
<text text-anchor="middle" x="965.78" y="-284.89" font-family="Times,serif" font-size="14.00">bfo:0000040</text>
</g>
<!-- bfo:0000040&#45;&gt;bfo:0000004 -->
<g id="edge10" class="edge">
<title>bfo:0000040&#45;&gt;bfo:0000004</title>
<path fill="none" stroke="black" d="M966.9,-268.83C966.77,-244.06 963.38,-206.76 946.78,-179.48 939.12,-166.88 927.84,-156 916.05,-147.03"/>
<polygon fill="black" stroke="black" points="918,-144.13 907.84,-141.13 913.92,-149.81 918,-144.13"/>
</g>
<!-- bspo:0000400 -->
<g id="node14" class="node">
<title>bspo:0000400</title>
<ellipse fill="none" stroke="red" cx="77.78" cy="-565.31" rx="77.56" ry="26.74"/>
<text text-anchor="middle" x="77.78" y="-569.11" font-family="Times,serif" font-size="14.00">anatomical plane</text>
<text text-anchor="middle" x="77.78" y="-554.11" font-family="Times,serif" font-size="14.00">bspo:0000400</text>
</g>
<!-- bspo:0000400&#45;&gt;caro:0000010 -->
<g id="edge11" class="edge">
<title>bspo:0000400&#45;&gt;caro:0000010</title>
<path fill="none" stroke="black" d="M135.31,-547.09C145.14,-544.18 155.25,-541.21 164.78,-538.44 212.45,-524.59 266.08,-509.36 308.23,-497.48"/>
<polygon fill="black" stroke="black" points="309.18,-500.85 317.86,-494.77 307.28,-494.11 309.18,-500.85"/>
</g>
<!-- bspo:0000051 -->
<g id="node15" class="node">
<title>bspo:0000051</title>
<ellipse fill="none" stroke="red" cx="1136.78" cy="-475.57" rx="88.28" ry="26.74"/>
<text text-anchor="middle" x="1136.78" y="-479.37" font-family="Times,serif" font-size="14.00">anatomical gradient</text>
<text text-anchor="middle" x="1136.78" y="-464.37" font-family="Times,serif" font-size="14.00">bspo:0000051</text>
</g>
<!-- bspo:0000051&#45;&gt;caro:0000006 -->
<g id="edge12" class="edge">
<title>bspo:0000051&#45;&gt;caro:0000006</title>
<path fill="none" stroke="black" d="M1091.91,-452.2C1069.16,-440.86 1041.29,-426.96 1017.1,-414.91"/>
<polygon fill="black" stroke="black" points="1018.54,-411.71 1008.03,-410.38 1015.42,-417.98 1018.54,-411.71"/>
</g>
<!-- caro:0000006&#45;&gt;caro:0000000 -->
<g id="edge14" class="edge">
<title>caro:0000006&#45;&gt;caro:0000000</title>
<path fill="none" stroke="black" d="M917.33,-360.86C896.74,-349.49 872.05,-335.86 850.78,-324.13"/>
<polygon fill="black" stroke="black" points="852.35,-321 841.9,-319.23 848.97,-327.13 852.35,-321"/>
</g>
<!-- caro:0000006&#45;&gt;bfo:0000040 -->
<g id="edge15" class="edge">
<title>caro:0000006&#45;&gt;bfo:0000040</title>
<path fill="none" stroke="black" d="M962.28,-358.51C962.74,-350.54 963.24,-341.65 963.73,-333.16"/>
<polygon fill="black" stroke="black" points="967.23,-333.28 964.3,-323.09 960.24,-332.88 967.23,-333.28"/>
</g>
<!-- bspo:0000005 -->
<g id="node17" class="node">
<title>bspo:0000005</title>
<ellipse fill="none" stroke="red" cx="257.78" cy="-565.31" rx="84.29" ry="26.74"/>
<text text-anchor="middle" x="257.78" y="-569.11" font-family="Times,serif" font-size="14.00">anatomical surface</text>
<text text-anchor="middle" x="257.78" y="-554.11" font-family="Times,serif" font-size="14.00">bspo:0000005</text>
</g>
<!-- bspo:0000005&#45;&gt;caro:0000010 -->
<g id="edge13" class="edge">
<title>bspo:0000005&#45;&gt;caro:0000010</title>
<path fill="none" stroke="black" d="M291.61,-540.57C306.49,-530.12 324.15,-517.73 339.94,-506.64"/>
<polygon fill="black" stroke="black" points="342.32,-509.25 348.49,-500.64 338.3,-503.52 342.32,-509.25"/>
</g>
<!-- bspo:0000092 -->
<g id="node18" class="node">
<title>bspo:0000092</title>
<ellipse fill="none" stroke="red" cx="506.78" cy="-565.31" rx="147.16" ry="26.74"/>
<text text-anchor="middle" x="506.78" y="-569.11" font-family="Times,serif" font-size="14.00">anatomical compartment boundary</text>
<text text-anchor="middle" x="506.78" y="-554.11" font-family="Times,serif" font-size="14.00">bspo:0000092</text>
</g>
<!-- bspo:0000092&#45;&gt;caro:0000010 -->
<g id="edge19" class="edge">
<title>bspo:0000092&#45;&gt;caro:0000010</title>
<path fill="none" stroke="black" d="M471.25,-539.17C457.01,-529.09 440.48,-517.4 425.59,-506.86"/>
<polygon fill="black" stroke="black" points="427.22,-503.73 417.04,-500.81 423.18,-509.44 427.22,-503.73"/>
</g>
</g>
</svg>
