<?xml version="1.0" encoding="UTF-8" standalone="no"?>
<!DOCTYPE svg PUBLIC "-//W3C//DTD SVG 1.1//EN"
 "http://www.w3.org/Graphics/SVG/1.1/DTD/svg11.dtd">
<!-- Generated by graphviz version 3.0.0 (20220226.1711)
 -->
<!-- Pages: 1 -->
<svg width="1239pt" height="600pt"
 viewBox="0.00 0.00 1239.44 600.18" xmlns="http://www.w3.org/2000/svg" xmlns:xlink="http://www.w3.org/1999/xlink">
<g id="graph0" class="graph" transform="scale(1 1) rotate(0) translate(4 596.18)">
<polygon fill="white" stroke="transparent" points="-4,4 -4,-596.18 1235.44,-596.18 1235.44,4 -4,4"/>
<!-- bspo:0000070 -->
<g id="node1" class="node">
<title>bspo:0000070</title>
<ellipse fill="none" stroke="red" cx="81.32" cy="-565.31" rx="81.13" ry="26.74"/>
<text text-anchor="middle" x="81.32" y="-569.11" font-family="Times,serif" font-size="14.00">anatomical region</text>
<text text-anchor="middle" x="81.32" y="-554.11" font-family="Times,serif" font-size="14.00">bspo:0000070</text>
</g>
<!-- caro:0000003 -->
<g id="node2" class="node">
<title>caro:0000003</title>
<ellipse fill="none" stroke="blue" cx="289.32" cy="-475.57" rx="90.52" ry="26.74"/>
<text text-anchor="middle" x="289.32" y="-479.37" font-family="Times,serif" font-size="14.00">anatomical structure</text>
<text text-anchor="middle" x="289.32" y="-464.37" font-family="Times,serif" font-size="14.00">caro:0000003</text>
</g>
<!-- bspo:0000070&#45;&gt;caro:0000003 -->
<g id="edge1" class="edge">
<title>bspo:0000070&#45;&gt;caro:0000003</title>
<path fill="none" stroke="black" d="M130.08,-543.74C159.68,-531.25 197.69,-515.22 229.15,-501.95"/>
<polygon fill="black" stroke="black" points="230.83,-505.04 238.68,-497.93 228.11,-498.59 230.83,-505.04"/>
</g>
<!-- caro:0000006 -->
<g id="node8" class="node">
<title>caro:0000006</title>
<ellipse fill="none" stroke="blue" cx="500.32" cy="-385.83" rx="113.27" ry="26.74"/>
<text text-anchor="middle" x="500.32" y="-389.63" font-family="Times,serif" font-size="14.00">material anatomical entity</text>
<text text-anchor="middle" x="500.32" y="-374.63" font-family="Times,serif" font-size="14.00">caro:0000006</text>
</g>
<!-- caro:0000003&#45;&gt;caro:0000006 -->
<g id="edge5" class="edge">
<title>caro:0000003&#45;&gt;caro:0000006</title>
<path fill="none" stroke="black" d="M340.39,-453.33C369.35,-441.29 405.85,-426.11 436.66,-413.3"/>
<polygon fill="black" stroke="black" points="438.13,-416.48 446.02,-409.41 435.44,-410.02 438.13,-416.48"/>
</g>
<!-- caro:0000010 -->
<g id="node3" class="node">
<title>caro:0000010</title>
<ellipse fill="none" stroke="blue" cx="805.32" cy="-475.57" rx="92.76" ry="26.74"/>
<text text-anchor="middle" x="805.32" y="-479.37" font-family="Times,serif" font-size="14.00">anatomical boundary</text>
<text text-anchor="middle" x="805.32" y="-464.37" font-family="Times,serif" font-size="14.00">caro:0000010</text>
</g>
<!-- caro:0000007 -->
<g id="node4" class="node">
<title>caro:0000007</title>
<ellipse fill="none" stroke="black" cx="805.32" cy="-385.83" rx="123.99" ry="26.74"/>
<text text-anchor="middle" x="805.32" y="-389.63" font-family="Times,serif" font-size="14.00">immaterial anatomical entity</text>
<text text-anchor="middle" x="805.32" y="-374.63" font-family="Times,serif" font-size="14.00">caro:0000007</text>
</g>
<!-- caro:0000010&#45;&gt;caro:0000007 -->
<g id="edge2" class="edge">
<title>caro:0000010&#45;&gt;caro:0000007</title>
<path fill="none" stroke="black" d="M805.32,-448.25C805.32,-440.28 805.32,-431.39 805.32,-422.9"/>
<polygon fill="black" stroke="black" points="808.82,-422.83 805.32,-412.83 801.82,-422.83 808.82,-422.83"/>
</g>
<!-- caro:0000000 -->
<g id="node10" class="node">
<title>caro:0000000</title>
<ellipse fill="none" stroke="black" cx="630.32" cy="-296.09" rx="78.48" ry="26.74"/>
<text text-anchor="middle" x="630.32" y="-299.89" font-family="Times,serif" font-size="14.00">anatomical entity</text>
<text text-anchor="middle" x="630.32" y="-284.89" font-family="Times,serif" font-size="14.00">caro:0000000</text>
</g>
<!-- caro:0000007&#45;&gt;caro:0000000 -->
<g id="edge7" class="edge">
<title>caro:0000007&#45;&gt;caro:0000000</title>
<path fill="none" stroke="black" d="M757.5,-360.86C734.27,-349.21 706.31,-335.19 682.52,-323.27"/>
<polygon fill="black" stroke="black" points="683.8,-319.99 673.3,-318.64 680.67,-326.25 683.8,-319.99"/>
</g>
<!-- bfo:0000141 -->
<g id="node11" class="node">
<title>bfo:0000141</title>
<ellipse fill="none" stroke="black" cx="805.32" cy="-296.09" rx="78.48" ry="26.74"/>
<text text-anchor="middle" x="805.32" y="-299.89" font-family="Times,serif" font-size="14.00">immaterial entity</text>
<text text-anchor="middle" x="805.32" y="-284.89" font-family="Times,serif" font-size="14.00">bfo:0000141</text>
</g>
<!-- caro:0000007&#45;&gt;bfo:0000141 -->
<g id="edge8" class="edge">
<title>caro:0000007&#45;&gt;bfo:0000141</title>
<path fill="none" stroke="black" d="M805.32,-358.51C805.32,-350.54 805.32,-341.65 805.32,-333.16"/>
<polygon fill="black" stroke="black" points="808.82,-333.09 805.32,-323.09 801.82,-333.09 808.82,-333.09"/>
</g>
<!-- bspo:0000092 -->
<g id="node5" class="node">
<title>bspo:0000092</title>
<ellipse fill="none" stroke="red" cx="562.32" cy="-565.31" rx="147.16" ry="26.74"/>
<text text-anchor="middle" x="562.32" y="-569.11" font-family="Times,serif" font-size="14.00">anatomical compartment boundary</text>
<text text-anchor="middle" x="562.32" y="-554.11" font-family="Times,serif" font-size="14.00">bspo:0000092</text>
</g>
<!-- bspo:0000092&#45;&gt;caro:0000010 -->
<g id="edge3" class="edge">
<title>bspo:0000092&#45;&gt;caro:0000010</title>
<path fill="none" stroke="black" d="M626.8,-541.03C661.5,-528.5 704.23,-513.07 739.18,-500.45"/>
<polygon fill="black" stroke="black" points="740.6,-503.66 748.82,-496.97 738.22,-497.08 740.6,-503.66"/>
</g>
<!-- bspo:0000010 -->
<g id="node6" class="node">
<title>bspo:0000010</title>
<ellipse fill="none" stroke="red" cx="1159.32" cy="-565.31" rx="72.25" ry="26.74"/>
<text text-anchor="middle" x="1159.32" y="-569.11" font-family="Times,serif" font-size="14.00">anatomical axis</text>
<text text-anchor="middle" x="1159.32" y="-554.11" font-family="Times,serif" font-size="14.00">bspo:0000010</text>
</g>
<!-- caro:0000008 -->
<g id="node7" class="node">
<title>caro:0000008</title>
<ellipse fill="none" stroke="blue" cx="1073.32" cy="-475.57" rx="71.34" ry="26.74"/>
<text text-anchor="middle" x="1073.32" y="-479.37" font-family="Times,serif" font-size="14.00">anatomical line</text>
<text text-anchor="middle" x="1073.32" y="-464.37" font-family="Times,serif" font-size="14.00">caro:0000008</text>
</g>
<!-- bspo:0000010&#45;&gt;caro:0000008 -->
<g id="edge4" class="edge">
<title>bspo:0000010&#45;&gt;caro:0000008</title>
<path fill="none" stroke="black" d="M1135.36,-539.87C1125.84,-530.16 1114.76,-518.86 1104.62,-508.51"/>
<polygon fill="black" stroke="black" points="1106.94,-505.88 1097.44,-501.18 1101.94,-510.78 1106.94,-505.88"/>
</g>
<!-- caro:0000008&#45;&gt;caro:0000007 -->
<g id="edge10" class="edge">
<title>caro:0000008&#45;&gt;caro:0000007</title>
<path fill="none" stroke="black" d="M1020.69,-457.34C980.92,-444.32 925.77,-426.27 881.23,-411.69"/>
<polygon fill="black" stroke="black" points="882.21,-408.32 871.61,-408.53 880.03,-414.97 882.21,-408.32"/>
</g>
<!-- caro:0000006&#45;&gt;caro:0000000 -->
<g id="edge14" class="edge">
<title>caro:0000006&#45;&gt;caro:0000000</title>
<path fill="none" stroke="black" d="M536.88,-360.16C552.61,-349.54 571.11,-337.05 587.48,-326"/>
<polygon fill="black" stroke="black" points="589.49,-328.87 595.82,-320.37 585.57,-323.07 589.49,-328.87"/>
</g>
<!-- bfo:0000040 -->
<g id="node17" class="node">
<title>bfo:0000040</title>
<ellipse fill="none" stroke="black" cx="500.32" cy="-206.35" rx="67.76" ry="26.74"/>
<text text-anchor="middle" x="500.32" y="-210.15" font-family="Times,serif" font-size="14.00">material entity</text>
<text text-anchor="middle" x="500.32" y="-195.15" font-family="Times,serif" font-size="14.00">bfo:0000040</text>
</g>
<!-- caro:0000006&#45;&gt;bfo:0000040 -->
<g id="edge15" class="edge">
<title>caro:0000006&#45;&gt;bfo:0000040</title>
<path fill="none" stroke="black" d="M500.32,-358.64C500.32,-328.15 500.32,-277.59 500.32,-243.4"/>
<polygon fill="black" stroke="black" points="503.82,-243.36 500.32,-233.36 496.82,-243.36 503.82,-243.36"/>
</g>
<!-- bspo:0000400 -->
<g id="node9" class="node">
<title>bspo:0000400</title>
<ellipse fill="none" stroke="red" cx="805.32" cy="-565.31" rx="77.56" ry="26.74"/>
<text text-anchor="middle" x="805.32" y="-569.11" font-family="Times,serif" font-size="14.00">anatomical plane</text>
<text text-anchor="middle" x="805.32" y="-554.11" font-family="Times,serif" font-size="14.00">bspo:0000400</text>
</g>
<!-- bspo:0000400&#45;&gt;caro:0000010 -->
<g id="edge6" class="edge">
<title>bspo:0000400&#45;&gt;caro:0000010</title>
<path fill="none" stroke="black" d="M805.32,-537.99C805.32,-530.02 805.32,-521.13 805.32,-512.64"/>
<polygon fill="black" stroke="black" points="808.82,-512.57 805.32,-502.57 801.82,-512.57 808.82,-512.57"/>
</g>
<!-- caro:0030000 -->
<g id="node13" class="node">
<title>caro:0030000</title>
<ellipse fill="none" stroke="black" cx="660.32" cy="-206.35" rx="74.49" ry="26.74"/>
<text text-anchor="middle" x="660.32" y="-210.15" font-family="Times,serif" font-size="14.00">biological entity</text>
<text text-anchor="middle" x="660.32" y="-195.15" font-family="Times,serif" font-size="14.00">caro:0030000</text>
</g>
<!-- caro:0000000&#45;&gt;caro:0030000 -->
<g id="edge11" class="edge">
<title>caro:0000000&#45;&gt;caro:0030000</title>
<path fill="none" stroke="black" d="M639.16,-269.24C641.97,-261.01 645.13,-251.76 648.14,-242.97"/>
<polygon fill="black" stroke="black" points="651.51,-243.91 651.44,-233.32 644.89,-241.65 651.51,-243.91"/>
</g>
<!-- bfo:0000004 -->
<g id="node14" class="node">
<title>bfo:0000004</title>
<ellipse fill="none" stroke="black" cx="660.32" cy="-116.61" rx="101.23" ry="26.74"/>
<text text-anchor="middle" x="660.32" y="-120.41" font-family="Times,serif" font-size="14.00">independent continuant</text>
<text text-anchor="middle" x="660.32" y="-105.41" font-family="Times,serif" font-size="14.00">bfo:0000004</text>
</g>
<!-- bfo:0000141&#45;&gt;bfo:0000004 -->
<g id="edge12" class="edge">
<title>bfo:0000141&#45;&gt;bfo:0000004</title>
<path fill="none" stroke="black" d="M795.34,-269.22C784.92,-244.39 766.81,-206.74 743.32,-179.48 733.12,-167.64 720.27,-156.71 707.75,-147.43"/>
<polygon fill="black" stroke="black" points="709.77,-144.57 699.6,-141.58 705.68,-150.25 709.77,-144.57"/>
</g>
<!-- bspo:0000086 -->
<g id="node12" class="node">
<title>bspo:0000086</title>
<ellipse fill="none" stroke="red" cx="289.32" cy="-565.31" rx="108.38" ry="26.74"/>
<text text-anchor="middle" x="289.32" y="-569.11" font-family="Times,serif" font-size="14.00">anatomical compartment</text>
<text text-anchor="middle" x="289.32" y="-554.11" font-family="Times,serif" font-size="14.00">bspo:0000086</text>
</g>
<!-- bspo:0000086&#45;&gt;caro:0000003 -->
<g id="edge9" class="edge">
<title>bspo:0000086&#45;&gt;caro:0000003</title>
<path fill="none" stroke="black" d="M289.32,-537.99C289.32,-530.02 289.32,-521.13 289.32,-512.64"/>
<polygon fill="black" stroke="black" points="292.82,-512.57 289.32,-502.57 285.82,-512.57 292.82,-512.57"/>
</g>
<!-- caro:0030000&#45;&gt;bfo:0000004 -->
<g id="edge18" class="edge">
<title>caro:0030000&#45;&gt;bfo:0000004</title>
<path fill="none" stroke="black" d="M660.32,-179.03C660.32,-171.06 660.32,-162.17 660.32,-153.68"/>
<polygon fill="black" stroke="black" points="663.82,-153.61 660.32,-143.61 656.82,-153.61 663.82,-153.61"/>
</g>
<!-- bfo:0000002 -->
<g id="node15" class="node">
<title>bfo:0000002</title>
<ellipse fill="none" stroke="black" cx="660.32" cy="-26.87" rx="60.62" ry="26.74"/>
<text text-anchor="middle" x="660.32" y="-30.67" font-family="Times,serif" font-size="14.00">continuant</text>
<text text-anchor="middle" x="660.32" y="-15.67" font-family="Times,serif" font-size="14.00">bfo:0000002</text>
</g>
<!-- bfo:0000004&#45;&gt;bfo:0000002 -->
<g id="edge19" class="edge">
<title>bfo:0000004&#45;&gt;bfo:0000002</title>
<path fill="none" stroke="black" d="M660.32,-89.29C660.32,-81.32 660.32,-72.43 660.32,-63.94"/>
<polygon fill="black" stroke="black" points="663.82,-63.87 660.32,-53.87 656.82,-63.87 663.82,-63.87"/>
</g>
<!-- bspo:0000051 -->
<g id="node16" class="node">
<title>bspo:0000051</title>
<ellipse fill="none" stroke="red" cx="500.32" cy="-475.57" rx="88.28" ry="26.74"/>
<text text-anchor="middle" x="500.32" y="-479.37" font-family="Times,serif" font-size="14.00">anatomical gradient</text>
<text text-anchor="middle" x="500.32" y="-464.37" font-family="Times,serif" font-size="14.00">bspo:0000051</text>
</g>
<!-- bspo:0000051&#45;&gt;caro:0000006 -->
<g id="edge13" class="edge">
<title>bspo:0000051&#45;&gt;caro:0000006</title>
<path fill="none" stroke="black" d="M500.32,-448.25C500.32,-440.28 500.32,-431.39 500.32,-422.9"/>
<polygon fill="black" stroke="black" points="503.82,-422.83 500.32,-412.83 496.82,-422.83 503.82,-422.83"/>
</g>
<!-- bfo:0000040&#45;&gt;bfo:0000004 -->
<g id="edge16" class="edge">
<title>bfo:0000040&#45;&gt;bfo:0000004</title>
<path fill="none" stroke="black" d="M539.05,-184.11C559.95,-172.65 586.03,-158.35 608.64,-145.95"/>
<polygon fill="black" stroke="black" points="610.35,-149 617.44,-141.12 606.99,-142.86 610.35,-149"/>
</g>
<!-- bspo:0000005 -->
<g id="node18" class="node">
<title>bspo:0000005</title>
<ellipse fill="none" stroke="red" cx="985.32" cy="-565.31" rx="84.29" ry="26.74"/>
<text text-anchor="middle" x="985.32" y="-569.11" font-family="Times,serif" font-size="14.00">anatomical surface</text>
<text text-anchor="middle" x="985.32" y="-554.11" font-family="Times,serif" font-size="14.00">bspo:0000005</text>
</g>
<!-- bspo:0000005&#45;&gt;caro:0000010 -->
<g id="edge17" class="edge">
<title>bspo:0000005&#45;&gt;caro:0000010</title>
<path fill="none" stroke="black" d="M940.36,-542.4C916.15,-530.6 886.09,-515.94 860.48,-503.46"/>
<polygon fill="black" stroke="black" points="861.79,-500.2 851.27,-498.97 858.72,-506.5 861.79,-500.2"/>
</g>
</g>
</svg>
