<?xml version="1.0" encoding="UTF-8" standalone="no"?>
<!DOCTYPE svg PUBLIC "-//W3C//DTD SVG 1.1//EN"
 "http://www.w3.org/Graphics/SVG/1.1/DTD/svg11.dtd">
<!-- Generated by graphviz version 3.0.0 (20220226.1711)
 -->
<!-- Pages: 1 -->
<svg width="1239pt" height="600pt"
 viewBox="0.00 0.00 1239.44 600.18" xmlns="http://www.w3.org/2000/svg" xmlns:xlink="http://www.w3.org/1999/xlink">
<g id="graph0" class="graph" transform="scale(1 1) rotate(0) translate(4 596.18)">
<polygon fill="white" stroke="transparent" points="-4,4 -4,-596.18 1235.44,-596.18 1235.44,4 -4,4"/>
<!-- caro:0000006 -->
<g id="node1" class="node">
<title>caro:0000006</title>
<ellipse fill="none" stroke="blue" cx="938.12" cy="-385.83" rx="113.27" ry="26.74"/>
<text text-anchor="middle" x="938.12" y="-389.63" font-family="Times,serif" font-size="14.00">material anatomical entity</text>
<text text-anchor="middle" x="938.12" y="-374.63" font-family="Times,serif" font-size="14.00">caro:0000006</text>
</g>
<!-- caro:0000000 -->
<g id="node2" class="node">
<title>caro:0000000</title>
<ellipse fill="none" stroke="black" cx="767.12" cy="-296.09" rx="78.48" ry="26.74"/>
<text text-anchor="middle" x="767.12" y="-299.89" font-family="Times,serif" font-size="14.00">anatomical entity</text>
<text text-anchor="middle" x="767.12" y="-284.89" font-family="Times,serif" font-size="14.00">caro:0000000</text>
</g>
<!-- caro:0000006&#45;&gt;caro:0000000 -->
<g id="edge1" class="edge">
<title>caro:0000006&#45;&gt;caro:0000000</title>
<path fill="none" stroke="black" d="M891.85,-361.09C869.15,-349.44 841.73,-335.37 818.39,-323.4"/>
<polygon fill="black" stroke="black" points="819.83,-320.2 809.34,-318.75 816.64,-326.43 819.83,-320.2"/>
</g>
<!-- bfo:0000040 -->
<g id="node3" class="node">
<title>bfo:0000040</title>
<ellipse fill="none" stroke="black" cx="937.12" cy="-296.09" rx="67.76" ry="26.74"/>
<text text-anchor="middle" x="937.12" y="-299.89" font-family="Times,serif" font-size="14.00">material entity</text>
<text text-anchor="middle" x="937.12" y="-284.89" font-family="Times,serif" font-size="14.00">bfo:0000040</text>
</g>
<!-- caro:0000006&#45;&gt;bfo:0000040 -->
<g id="edge2" class="edge">
<title>caro:0000006&#45;&gt;bfo:0000040</title>
<path fill="none" stroke="black" d="M937.82,-358.51C937.73,-350.54 937.63,-341.65 937.54,-333.16"/>
<polygon fill="black" stroke="black" points="941.04,-333.05 937.42,-323.09 934.04,-333.13 941.04,-333.05"/>
</g>
<!-- caro:0030000 -->
<g id="node9" class="node">
<title>caro:0030000</title>
<ellipse fill="none" stroke="black" cx="767.12" cy="-206.35" rx="74.49" ry="26.74"/>
<text text-anchor="middle" x="767.12" y="-210.15" font-family="Times,serif" font-size="14.00">biological entity</text>
<text text-anchor="middle" x="767.12" y="-195.15" font-family="Times,serif" font-size="14.00">caro:0030000</text>
</g>
<!-- caro:0000000&#45;&gt;caro:0030000 -->
<g id="edge5" class="edge">
<title>caro:0000000&#45;&gt;caro:0030000</title>
<path fill="none" stroke="black" d="M767.12,-268.77C767.12,-260.8 767.12,-251.91 767.12,-243.42"/>
<polygon fill="black" stroke="black" points="770.62,-243.35 767.12,-233.35 763.62,-243.35 770.62,-243.35"/>
</g>
<!-- bfo:0000004 -->
<g id="node10" class="node">
<title>bfo:0000004</title>
<ellipse fill="none" stroke="black" cx="767.12" cy="-116.61" rx="101.23" ry="26.74"/>
<text text-anchor="middle" x="767.12" y="-120.41" font-family="Times,serif" font-size="14.00">independent continuant</text>
<text text-anchor="middle" x="767.12" y="-105.41" font-family="Times,serif" font-size="14.00">bfo:0000004</text>
</g>
<!-- bfo:0000040&#45;&gt;bfo:0000004 -->
<g id="edge14" class="edge">
<title>bfo:0000040&#45;&gt;bfo:0000004</title>
<path fill="none" stroke="black" d="M921,-269.55C904.8,-244.96 878.25,-207.48 850.12,-179.48 838.74,-168.14 825.18,-157.18 812.35,-147.71"/>
<polygon fill="black" stroke="black" points="814.22,-144.74 804.06,-141.71 810.12,-150.41 814.22,-144.74"/>
</g>
<!-- bspo:0000086 -->
<g id="node4" class="node">
<title>bspo:0000086</title>
<ellipse fill="none" stroke="orange" cx="942.12" cy="-565.31" rx="108.38" ry="26.74"/>
<text text-anchor="middle" x="942.12" y="-569.11" font-family="Times,serif" font-size="14.00">anatomical compartment</text>
<text text-anchor="middle" x="942.12" y="-554.11" font-family="Times,serif" font-size="14.00">bspo:0000086</text>
</g>
<!-- caro:0000003 -->
<g id="node5" class="node">
<title>caro:0000003</title>
<ellipse fill="none" stroke="blue" cx="941.12" cy="-475.57" rx="90.52" ry="26.74"/>
<text text-anchor="middle" x="941.12" y="-479.37" font-family="Times,serif" font-size="14.00">anatomical structure</text>
<text text-anchor="middle" x="941.12" y="-464.37" font-family="Times,serif" font-size="14.00">caro:0000003</text>
</g>
<!-- bspo:0000086&#45;&gt;caro:0000003 -->
<g id="edge3" class="edge">
<title>bspo:0000086&#45;&gt;caro:0000003</title>
<path fill="none" stroke="black" d="M941.82,-537.99C941.73,-530.02 941.63,-521.13 941.54,-512.64"/>
<polygon fill="black" stroke="black" points="945.04,-512.53 941.42,-502.57 938.04,-512.61 945.04,-512.53"/>
</g>
<!-- caro:0000003&#45;&gt;caro:0000006 -->
<g id="edge10" class="edge">
<title>caro:0000003&#45;&gt;caro:0000006</title>
<path fill="none" stroke="black" d="M940.22,-448.25C939.95,-440.28 939.65,-431.39 939.36,-422.9"/>
<polygon fill="black" stroke="black" points="942.85,-422.71 939.01,-412.83 935.86,-422.95 942.85,-422.71"/>
</g>
<!-- bspo:0000010 -->
<g id="node6" class="node">
<title>bspo:0000010</title>
<ellipse fill="none" stroke="orange" cx="72.12" cy="-565.31" rx="72.25" ry="26.74"/>
<text text-anchor="middle" x="72.12" y="-569.11" font-family="Times,serif" font-size="14.00">anatomical axis</text>
<text text-anchor="middle" x="72.12" y="-554.11" font-family="Times,serif" font-size="14.00">bspo:0000010</text>
</g>
<!-- caro:0000008 -->
<g id="node7" class="node">
<title>caro:0000008</title>
<ellipse fill="none" stroke="blue" cx="156.12" cy="-475.57" rx="71.34" ry="26.74"/>
<text text-anchor="middle" x="156.12" y="-479.37" font-family="Times,serif" font-size="14.00">anatomical line</text>
<text text-anchor="middle" x="156.12" y="-464.37" font-family="Times,serif" font-size="14.00">caro:0000008</text>
</g>
<!-- bspo:0000010&#45;&gt;caro:0000008 -->
<g id="edge4" class="edge">
<title>bspo:0000010&#45;&gt;caro:0000008</title>
<path fill="none" stroke="black" d="M95.52,-539.87C104.82,-530.16 115.64,-518.86 125.55,-508.51"/>
<polygon fill="black" stroke="black" points="128.17,-510.83 132.56,-501.18 123.12,-505.99 128.17,-510.83"/>
</g>
<!-- caro:0000007 -->
<g id="node16" class="node">
<title>caro:0000007</title>
<ellipse fill="none" stroke="black" cx="514.12" cy="-385.83" rx="123.99" ry="26.74"/>
<text text-anchor="middle" x="514.12" y="-389.63" font-family="Times,serif" font-size="14.00">immaterial anatomical entity</text>
<text text-anchor="middle" x="514.12" y="-374.63" font-family="Times,serif" font-size="14.00">caro:0000007</text>
</g>
<!-- caro:0000008&#45;&gt;caro:0000007 -->
<g id="edge19" class="edge">
<title>caro:0000008&#45;&gt;caro:0000007</title>
<path fill="none" stroke="black" d="M214.84,-460.18C271.73,-446.24 358.78,-424.9 424.36,-408.83"/>
<polygon fill="black" stroke="black" points="425.41,-412.18 434.29,-406.4 423.74,-405.38 425.41,-412.18"/>
</g>
<!-- bfo:0000002 -->
<g id="node8" class="node">
<title>bfo:0000002</title>
<ellipse fill="none" stroke="black" cx="767.12" cy="-26.87" rx="60.62" ry="26.74"/>
<text text-anchor="middle" x="767.12" y="-30.67" font-family="Times,serif" font-size="14.00">continuant</text>
<text text-anchor="middle" x="767.12" y="-15.67" font-family="Times,serif" font-size="14.00">bfo:0000002</text>
</g>
<!-- caro:0030000&#45;&gt;bfo:0000004 -->
<g id="edge6" class="edge">
<title>caro:0030000&#45;&gt;bfo:0000004</title>
<path fill="none" stroke="black" d="M767.12,-179.03C767.12,-171.06 767.12,-162.17 767.12,-153.68"/>
<polygon fill="black" stroke="black" points="770.62,-153.61 767.12,-143.61 763.62,-153.61 770.62,-153.61"/>
</g>
<!-- bfo:0000004&#45;&gt;bfo:0000002 -->
<g id="edge15" class="edge">
<title>bfo:0000004&#45;&gt;bfo:0000002</title>
<path fill="none" stroke="black" d="M767.12,-89.29C767.12,-81.32 767.12,-72.43 767.12,-63.94"/>
<polygon fill="black" stroke="black" points="770.62,-63.87 767.12,-53.87 763.62,-63.87 770.62,-63.87"/>
</g>
<!-- bspo:0000400 -->
<g id="node11" class="node">
<title>bspo:0000400</title>
<ellipse fill="none" stroke="orange" cx="240.12" cy="-565.31" rx="77.56" ry="26.74"/>
<text text-anchor="middle" x="240.12" y="-569.11" font-family="Times,serif" font-size="14.00">anatomical plane</text>
<text text-anchor="middle" x="240.12" y="-554.11" font-family="Times,serif" font-size="14.00">bspo:0000400</text>
</g>
<!-- caro:0000010 -->
<g id="node12" class="node">
<title>caro:0000010</title>
<ellipse fill="none" stroke="blue" cx="421.12" cy="-475.57" rx="92.76" ry="26.74"/>
<text text-anchor="middle" x="421.12" y="-479.37" font-family="Times,serif" font-size="14.00">anatomical boundary</text>
<text text-anchor="middle" x="421.12" y="-464.37" font-family="Times,serif" font-size="14.00">caro:0000010</text>
</g>
<!-- bspo:0000400&#45;&gt;caro:0000010 -->
<g id="edge7" class="edge">
<title>bspo:0000400&#45;&gt;caro:0000010</title>
<path fill="none" stroke="black" d="M283.94,-543.07C308.55,-531.14 339.51,-516.13 365.79,-503.4"/>
<polygon fill="black" stroke="black" points="367.4,-506.5 374.87,-498.99 364.34,-500.21 367.4,-506.5"/>
</g>
<!-- caro:0000010&#45;&gt;caro:0000007 -->
<g id="edge17" class="edge">
<title>caro:0000010&#45;&gt;caro:0000007</title>
<path fill="none" stroke="black" d="M447.53,-449.66C457.55,-440.2 469.12,-429.29 479.77,-419.24"/>
<polygon fill="black" stroke="black" points="482.46,-421.51 487.33,-412.11 477.66,-416.42 482.46,-421.51"/>
</g>
<!-- bfo:0000141 -->
<g id="node13" class="node">
<title>bfo:0000141</title>
<ellipse fill="none" stroke="black" cx="584.12" cy="-206.35" rx="78.48" ry="26.74"/>
<text text-anchor="middle" x="584.12" y="-210.15" font-family="Times,serif" font-size="14.00">immaterial entity</text>
<text text-anchor="middle" x="584.12" y="-195.15" font-family="Times,serif" font-size="14.00">bfo:0000141</text>
</g>
<!-- bfo:0000141&#45;&gt;bfo:0000004 -->
<g id="edge8" class="edge">
<title>bfo:0000141&#45;&gt;bfo:0000004</title>
<path fill="none" stroke="black" d="M628.42,-184.11C653.03,-172.32 683.9,-157.51 710.27,-144.87"/>
<polygon fill="black" stroke="black" points="711.88,-147.98 719.39,-140.5 708.86,-141.67 711.88,-147.98"/>
</g>
<!-- bspo:0000051 -->
<g id="node14" class="node">
<title>bspo:0000051</title>
<ellipse fill="none" stroke="orange" cx="1138.12" cy="-475.57" rx="88.28" ry="26.74"/>
<text text-anchor="middle" x="1138.12" y="-479.37" font-family="Times,serif" font-size="14.00">anatomical gradient</text>
<text text-anchor="middle" x="1138.12" y="-464.37" font-family="Times,serif" font-size="14.00">bspo:0000051</text>
</g>
<!-- bspo:0000051&#45;&gt;caro:0000006 -->
<g id="edge9" class="edge">
<title>bspo:0000051&#45;&gt;caro:0000006</title>
<path fill="none" stroke="black" d="M1089.2,-453.11C1062.29,-441.3 1028.63,-426.54 999.92,-413.94"/>
<polygon fill="black" stroke="black" points="1000.96,-410.57 990.39,-409.76 998.15,-416.98 1000.96,-410.57"/>
</g>
<!-- bspo:0000005 -->
<g id="node15" class="node">
<title>bspo:0000005</title>
<ellipse fill="none" stroke="orange" cx="420.12" cy="-565.31" rx="84.29" ry="26.74"/>
<text text-anchor="middle" x="420.12" y="-569.11" font-family="Times,serif" font-size="14.00">anatomical surface</text>
<text text-anchor="middle" x="420.12" y="-554.11" font-family="Times,serif" font-size="14.00">bspo:0000005</text>
</g>
<!-- bspo:0000005&#45;&gt;caro:0000010 -->
<g id="edge11" class="edge">
<title>bspo:0000005&#45;&gt;caro:0000010</title>
<path fill="none" stroke="black" d="M420.42,-537.99C420.52,-530.02 420.62,-521.13 420.71,-512.64"/>
<polygon fill="black" stroke="black" points="424.21,-512.61 420.83,-502.57 417.21,-512.53 424.21,-512.61"/>
</g>
<!-- caro:0000007&#45;&gt;caro:0000000 -->
<g id="edge12" class="edge">
<title>caro:0000007&#45;&gt;caro:0000000</title>
<path fill="none" stroke="black" d="M577.97,-362.69C616.43,-349.35 665.23,-332.43 703.62,-319.11"/>
<polygon fill="black" stroke="black" points="704.85,-322.39 713.15,-315.81 702.56,-315.78 704.85,-322.39"/>
</g>
<!-- caro:0000007&#45;&gt;bfo:0000141 -->
<g id="edge13" class="edge">
<title>caro:0000007&#45;&gt;bfo:0000141</title>
<path fill="none" stroke="black" d="M524.3,-359.02C536.38,-328.4 556.59,-277.17 570.13,-242.83"/>
<polygon fill="black" stroke="black" points="573.52,-243.78 573.93,-233.19 567.01,-241.21 573.52,-243.78"/>
</g>
<!-- bspo:0000070 -->
<g id="node17" class="node">
<title>bspo:0000070</title>
<ellipse fill="none" stroke="orange" cx="1150.12" cy="-565.31" rx="81.13" ry="26.74"/>
<text text-anchor="middle" x="1150.12" y="-569.11" font-family="Times,serif" font-size="14.00">anatomical region</text>
<text text-anchor="middle" x="1150.12" y="-554.11" font-family="Times,serif" font-size="14.00">bspo:0000070</text>
</g>
<!-- bspo:0000070&#45;&gt;caro:0000003 -->
<g id="edge16" class="edge">
<title>bspo:0000070&#45;&gt;caro:0000003</title>
<path fill="none" stroke="black" d="M1101.12,-543.74C1071.38,-531.25 1033.19,-515.22 1001.58,-501.95"/>
<polygon fill="black" stroke="black" points="1002.58,-498.57 992,-497.93 999.87,-505.03 1002.58,-498.57"/>
</g>
<!-- bspo:0000092 -->
<g id="node18" class="node">
<title>bspo:0000092</title>
<ellipse fill="none" stroke="orange" cx="669.12" cy="-565.31" rx="147.16" ry="26.74"/>
<text text-anchor="middle" x="669.12" y="-569.11" font-family="Times,serif" font-size="14.00">anatomical compartment boundary</text>
<text text-anchor="middle" x="669.12" y="-554.11" font-family="Times,serif" font-size="14.00">bspo:0000092</text>
</g>
<!-- bspo:0000092&#45;&gt;caro:0000010 -->
<g id="edge18" class="edge">
<title>bspo:0000092&#45;&gt;caro:0000010</title>
<path fill="none" stroke="black" d="M603.64,-541.14C568.09,-528.57 524.22,-513.04 488.4,-500.37"/>
<polygon fill="black" stroke="black" points="489.12,-496.91 478.52,-496.88 486.78,-503.51 489.12,-496.91"/>
</g>
</g>
</svg>
