<?xml version="1.0" encoding="UTF-8" standalone="no"?>
<!DOCTYPE svg PUBLIC "-//W3C//DTD SVG 1.1//EN"
 "http://www.w3.org/Graphics/SVG/1.1/DTD/svg11.dtd">
<!-- Generated by graphviz version 3.0.0 (20220226.1711)
 -->
<!-- Pages: 1 -->
<svg width="1388pt" height="600pt"
 viewBox="0.00 0.00 1387.78 600.18" xmlns="http://www.w3.org/2000/svg" xmlns:xlink="http://www.w3.org/1999/xlink">
<g id="graph0" class="graph" transform="scale(1 1) rotate(0) translate(4 596.18)">
<polygon fill="white" stroke="transparent" points="-4,4 -4,-596.18 1383.78,-596.18 1383.78,4 -4,4"/>
<!-- caro:0000007 -->
<g id="node1" class="node">
<title>caro:0000007</title>
<ellipse fill="none" stroke="red" cx="687.81" cy="-475.57" rx="123.99" ry="26.74"/>
<text text-anchor="middle" x="687.81" y="-479.37" font-family="Times,serif" font-size="14.00">immaterial anatomical entity</text>
<text text-anchor="middle" x="687.81" y="-464.37" font-family="Times,serif" font-size="14.00">caro:0000007</text>
</g>
<!-- bfo:0000141 -->
<g id="node2" class="node">
<title>bfo:0000141</title>
<ellipse fill="none" stroke="blue" cx="751.81" cy="-296.09" rx="78.48" ry="26.74"/>
<text text-anchor="middle" x="751.81" y="-299.89" font-family="Times,serif" font-size="14.00">immaterial entity</text>
<text text-anchor="middle" x="751.81" y="-284.89" font-family="Times,serif" font-size="14.00">bfo:0000141</text>
</g>
<!-- caro:0000007&#45;&gt;bfo:0000141 -->
<g id="edge1" class="edge">
<title>caro:0000007&#45;&gt;bfo:0000141</title>
<path fill="none" stroke="black" d="M697.12,-448.76C708.16,-418.14 726.64,-366.91 739.02,-332.57"/>
<polygon fill="black" stroke="black" points="742.4,-333.52 742.5,-322.93 735.81,-331.15 742.4,-333.52"/>
</g>
<!-- bfo:0000004 -->
<g id="node11" class="node">
<title>bfo:0000004</title>
<ellipse fill="none" stroke="blue" cx="918.81" cy="-206.35" rx="101.23" ry="26.74"/>
<text text-anchor="middle" x="918.81" y="-210.15" font-family="Times,serif" font-size="14.00">independent continuant</text>
<text text-anchor="middle" x="918.81" y="-195.15" font-family="Times,serif" font-size="14.00">bfo:0000004</text>
</g>
<!-- bfo:0000141&#45;&gt;bfo:0000004 -->
<g id="edge11" class="edge">
<title>bfo:0000141&#45;&gt;bfo:0000004</title>
<path fill="none" stroke="black" d="M793.53,-273.18C815.27,-261.75 842.12,-247.65 865.37,-235.43"/>
<polygon fill="black" stroke="black" points="867.2,-238.42 874.42,-230.67 863.94,-232.23 867.2,-238.42"/>
</g>
<!-- caro:0000005 -->
<g id="node3" class="node">
<title>caro:0000005</title>
<ellipse fill="none" stroke="red" cx="1119.81" cy="-565.31" rx="77.56" ry="26.74"/>
<text text-anchor="middle" x="1119.81" y="-569.11" font-family="Times,serif" font-size="14.00">anatomical space</text>
<text text-anchor="middle" x="1119.81" y="-554.11" font-family="Times,serif" font-size="14.00">caro:0000005</text>
</g>
<!-- caro:0000005&#45;&gt;caro:0000007 -->
<g id="edge2" class="edge">
<title>caro:0000005&#45;&gt;caro:0000007</title>
<path fill="none" stroke="black" d="M1053.73,-550.89C982.3,-536.38 867.71,-513.11 785.79,-496.47"/>
<polygon fill="black" stroke="black" points="786.47,-493.04 775.97,-494.48 785.07,-499.9 786.47,-493.04"/>
</g>
<!-- bfo:0000029 -->
<g id="node4" class="node">
<title>bfo:0000029</title>
<ellipse fill="none" stroke="blue" cx="1004.81" cy="-385.83" rx="60.62" ry="26.74"/>
<text text-anchor="middle" x="1004.81" y="-389.63" font-family="Times,serif" font-size="14.00">site</text>
<text text-anchor="middle" x="1004.81" y="-374.63" font-family="Times,serif" font-size="14.00">bfo:0000029</text>
</g>
<!-- caro:0000005&#45;&gt;bfo:0000029 -->
<g id="edge3" class="edge">
<title>caro:0000005&#45;&gt;bfo:0000029</title>
<path fill="none" stroke="black" d="M1121.34,-538.27C1121.55,-513.31 1118.44,-475.57 1100.81,-448.7 1090.17,-432.47 1073.63,-419.61 1057.26,-409.91"/>
<polygon fill="black" stroke="black" points="1058.66,-406.68 1048.23,-404.85 1055.24,-412.79 1058.66,-406.68"/>
</g>
<!-- caro:0001010 -->
<g id="node5" class="node">
<title>caro:0001010</title>
<ellipse fill="none" stroke="red" cx="1263.81" cy="-475.57" rx="115.93" ry="26.74"/>
<text text-anchor="middle" x="1263.81" y="-479.37" font-family="Times,serif" font-size="14.00">organism or virus or viroid</text>
<text text-anchor="middle" x="1263.81" y="-464.37" font-family="Times,serif" font-size="14.00">caro:0001010</text>
</g>
<!-- caro:0000005&#45;&gt;caro:0001010 -->
<g id="edge4" class="edge">
<title>caro:0000005&#45;&gt;caro:0001010</title>
<path fill="none" stroke="blue" d="M1157.27,-541.49C1174.97,-530.7 1196.32,-517.7 1215.24,-506.17"/>
<polygon fill="blue" stroke="blue" points="1217.31,-509.01 1224.02,-500.82 1213.66,-503.03 1217.31,-509.01"/>
</g>
<!-- bfo:0000029&#45;&gt;bfo:0000141 -->
<g id="edge5" class="edge">
<title>bfo:0000029&#45;&gt;bfo:0000141</title>
<path fill="none" stroke="black" d="M957.82,-368.53C917.61,-354.59 859.39,-334.4 815.09,-319.03"/>
<polygon fill="black" stroke="black" points="816.17,-315.7 805.57,-315.73 813.87,-322.32 816.17,-315.7"/>
</g>
<!-- bfo:0000040 -->
<g id="node14" class="node">
<title>bfo:0000040</title>
<ellipse fill="none" stroke="blue" cx="918.81" cy="-296.09" rx="67.76" ry="26.74"/>
<text text-anchor="middle" x="918.81" y="-299.89" font-family="Times,serif" font-size="14.00">material entity</text>
<text text-anchor="middle" x="918.81" y="-284.89" font-family="Times,serif" font-size="14.00">bfo:0000040</text>
</g>
<!-- caro:0001010&#45;&gt;bfo:0000040 -->
<g id="edge13" class="edge">
<title>caro:0001010&#45;&gt;bfo:0000040</title>
<path fill="none" stroke="black" d="M1227.59,-449.83C1190.31,-424.99 1130.04,-386.55 1074.81,-358.96 1043.9,-343.52 1008.15,-329.11 978.68,-318.08"/>
<polygon fill="black" stroke="black" points="979.54,-314.67 968.94,-314.48 977.11,-321.23 979.54,-314.67"/>
</g>
<!-- bfo:0000026 -->
<g id="node6" class="node">
<title>bfo:0000026</title>
<ellipse fill="none" stroke="blue" cx="130.81" cy="-475.57" rx="130.63" ry="26.74"/>
<text text-anchor="middle" x="130.81" y="-479.37" font-family="Times,serif" font-size="14.00">one&#45;dimensional spatial region</text>
<text text-anchor="middle" x="130.81" y="-464.37" font-family="Times,serif" font-size="14.00">bfo:0000026</text>
</g>
<!-- bfo:0000006 -->
<g id="node7" class="node">
<title>bfo:0000006</title>
<ellipse fill="none" stroke="black" cx="561.81" cy="-385.83" rx="63.78" ry="26.74"/>
<text text-anchor="middle" x="561.81" y="-389.63" font-family="Times,serif" font-size="14.00">spatial region</text>
<text text-anchor="middle" x="561.81" y="-374.63" font-family="Times,serif" font-size="14.00">bfo:0000006</text>
</g>
<!-- bfo:0000026&#45;&gt;bfo:0000006 -->
<g id="edge6" class="edge">
<title>bfo:0000026&#45;&gt;bfo:0000006</title>
<path fill="none" stroke="black" d="M221.43,-456.12C303.26,-439.47 421.77,-415.34 495.19,-400.39"/>
<polygon fill="black" stroke="black" points="496.14,-403.77 505.24,-398.35 494.74,-396.91 496.14,-403.77"/>
</g>
<!-- bfo:0000006&#45;&gt;bfo:0000141 -->
<g id="edge16" class="edge">
<title>bfo:0000006&#45;&gt;bfo:0000141</title>
<path fill="none" stroke="black" d="M603.98,-365.36C631.41,-352.69 667.44,-336.05 697.07,-322.37"/>
<polygon fill="black" stroke="black" points="698.84,-325.41 706.45,-318.04 695.9,-319.06 698.84,-325.41"/>
</g>
<!-- bfo:0000009 -->
<g id="node8" class="node">
<title>bfo:0000009</title>
<ellipse fill="none" stroke="blue" cx="960.81" cy="-475.57" rx="130.63" ry="26.74"/>
<text text-anchor="middle" x="960.81" y="-479.37" font-family="Times,serif" font-size="14.00">two&#45;dimensional spatial region</text>
<text text-anchor="middle" x="960.81" y="-464.37" font-family="Times,serif" font-size="14.00">bfo:0000009</text>
</g>
<!-- bfo:0000009&#45;&gt;bfo:0000006 -->
<g id="edge7" class="edge">
<title>bfo:0000009&#45;&gt;bfo:0000006</title>
<path fill="none" stroke="black" d="M873.75,-455.42C799.59,-439.12 694.66,-416.04 627.42,-401.26"/>
<polygon fill="black" stroke="black" points="627.89,-397.78 617.38,-399.05 626.39,-404.61 627.89,-397.78"/>
</g>
<!-- bfo:0000018 -->
<g id="node9" class="node">
<title>bfo:0000018</title>
<ellipse fill="none" stroke="blue" cx="412.81" cy="-475.57" rx="132.87" ry="26.74"/>
<text text-anchor="middle" x="412.81" y="-479.37" font-family="Times,serif" font-size="14.00">zero&#45;dimensional spatial region</text>
<text text-anchor="middle" x="412.81" y="-464.37" font-family="Times,serif" font-size="14.00">bfo:0000018</text>
</g>
<!-- bfo:0000018&#45;&gt;bfo:0000006 -->
<g id="edge8" class="edge">
<title>bfo:0000018&#45;&gt;bfo:0000006</title>
<path fill="none" stroke="black" d="M454.72,-449.9C474.12,-438.47 497.21,-424.88 516.97,-413.24"/>
<polygon fill="black" stroke="black" points="518.94,-416.14 525.78,-408.05 515.39,-410.11 518.94,-416.14"/>
</g>
<!-- caro:0000009 -->
<g id="node10" class="node">
<title>caro:0000009</title>
<ellipse fill="none" stroke="red" cx="456.81" cy="-565.31" rx="76.24" ry="26.74"/>
<text text-anchor="middle" x="456.81" y="-569.11" font-family="Times,serif" font-size="14.00">anatomical point</text>
<text text-anchor="middle" x="456.81" y="-554.11" font-family="Times,serif" font-size="14.00">caro:0000009</text>
</g>
<!-- caro:0000009&#45;&gt;caro:0000007 -->
<g id="edge9" class="edge">
<title>caro:0000009&#45;&gt;caro:0000007</title>
<path fill="none" stroke="black" d="M507.51,-545.06C540.18,-532.65 583.09,-516.35 618.84,-502.77"/>
<polygon fill="black" stroke="black" points="620.14,-506.02 628.25,-499.2 617.66,-499.48 620.14,-506.02"/>
</g>
<!-- caro:0000009&#45;&gt;bfo:0000018 -->
<g id="edge10" class="edge">
<title>caro:0000009&#45;&gt;bfo:0000018</title>
<path fill="none" stroke="black" d="M443.85,-538.46C439.64,-530.06 434.89,-520.59 430.39,-511.63"/>
<polygon fill="black" stroke="black" points="433.45,-509.91 425.84,-502.54 427.19,-513.05 433.45,-509.91"/>
</g>
<!-- bfo:0000002 -->
<g id="node12" class="node">
<title>bfo:0000002</title>
<ellipse fill="none" stroke="black" cx="918.81" cy="-116.61" rx="60.62" ry="26.74"/>
<text text-anchor="middle" x="918.81" y="-120.41" font-family="Times,serif" font-size="14.00">continuant</text>
<text text-anchor="middle" x="918.81" y="-105.41" font-family="Times,serif" font-size="14.00">bfo:0000002</text>
</g>
<!-- bfo:0000004&#45;&gt;bfo:0000002 -->
<g id="edge21" class="edge">
<title>bfo:0000004&#45;&gt;bfo:0000002</title>
<path fill="none" stroke="black" d="M918.81,-179.03C918.81,-171.06 918.81,-162.17 918.81,-153.68"/>
<polygon fill="black" stroke="black" points="922.31,-153.61 918.81,-143.61 915.31,-153.61 922.31,-153.61"/>
</g>
<!-- bfo:0000001 -->
<g id="node13" class="node">
<title>bfo:0000001</title>
<ellipse fill="none" stroke="black" cx="918.81" cy="-26.87" rx="60.62" ry="26.74"/>
<text text-anchor="middle" x="918.81" y="-30.67" font-family="Times,serif" font-size="14.00">entity</text>
<text text-anchor="middle" x="918.81" y="-15.67" font-family="Times,serif" font-size="14.00">bfo:0000001</text>
</g>
<!-- bfo:0000002&#45;&gt;bfo:0000001 -->
<g id="edge12" class="edge">
<title>bfo:0000002&#45;&gt;bfo:0000001</title>
<path fill="none" stroke="black" d="M918.81,-89.29C918.81,-81.32 918.81,-72.43 918.81,-63.94"/>
<polygon fill="black" stroke="black" points="922.31,-63.87 918.81,-53.87 915.31,-63.87 922.31,-63.87"/>
</g>
<!-- bfo:0000040&#45;&gt;bfo:0000004 -->
<g id="edge17" class="edge">
<title>bfo:0000040&#45;&gt;bfo:0000004</title>
<path fill="none" stroke="black" d="M918.81,-268.77C918.81,-260.8 918.81,-251.91 918.81,-243.42"/>
<polygon fill="black" stroke="black" points="922.31,-243.35 918.81,-233.35 915.31,-243.35 922.31,-243.35"/>
</g>
<!-- caro:0000008 -->
<g id="node15" class="node">
<title>caro:0000008</title>
<ellipse fill="none" stroke="red" cx="232.81" cy="-565.31" rx="71.34" ry="26.74"/>
<text text-anchor="middle" x="232.81" y="-569.11" font-family="Times,serif" font-size="14.00">anatomical line</text>
<text text-anchor="middle" x="232.81" y="-554.11" font-family="Times,serif" font-size="14.00">caro:0000008</text>
</g>
<!-- caro:0000008&#45;&gt;caro:0000007 -->
<g id="edge14" class="edge">
<title>caro:0000008&#45;&gt;caro:0000007</title>
<path fill="none" stroke="black" d="M295.46,-552.32C360.35,-539.89 464.69,-519.86 554.81,-502.44 565.62,-500.35 576.92,-498.16 588.17,-495.98"/>
<polygon fill="black" stroke="black" points="588.89,-499.4 598.03,-494.06 587.55,-492.53 588.89,-499.4"/>
</g>
<!-- caro:0000008&#45;&gt;bfo:0000026 -->
<g id="edge15" class="edge">
<title>caro:0000008&#45;&gt;bfo:0000026</title>
<path fill="none" stroke="black" d="M204.94,-540.34C193.62,-530.6 180.37,-519.2 168.23,-508.75"/>
<polygon fill="black" stroke="black" points="170.3,-505.92 160.44,-502.05 165.74,-511.23 170.3,-505.92"/>
</g>
<!-- caro:0030000 -->
<g id="node16" class="node">
<title>caro:0030000</title>
<ellipse fill="none" stroke="red" cx="1078.81" cy="-296.09" rx="74.49" ry="26.74"/>
<text text-anchor="middle" x="1078.81" y="-299.89" font-family="Times,serif" font-size="14.00">biological entity</text>
<text text-anchor="middle" x="1078.81" y="-284.89" font-family="Times,serif" font-size="14.00">caro:0030000</text>
</g>
<!-- caro:0030000&#45;&gt;bfo:0000004 -->
<g id="edge18" class="edge">
<title>caro:0030000&#45;&gt;bfo:0000004</title>
<path fill="none" stroke="black" d="M1038.85,-273.18C1018.19,-261.84 992.72,-247.88 970.57,-235.73"/>
<polygon fill="black" stroke="black" points="972.08,-232.57 961.63,-230.83 968.71,-238.71 972.08,-232.57"/>
</g>
<!-- caro:0000010 -->
<g id="node17" class="node">
<title>caro:0000010</title>
<ellipse fill="none" stroke="red" cx="809.81" cy="-565.31" rx="92.76" ry="26.74"/>
<text text-anchor="middle" x="809.81" y="-569.11" font-family="Times,serif" font-size="14.00">anatomical boundary</text>
<text text-anchor="middle" x="809.81" y="-554.11" font-family="Times,serif" font-size="14.00">caro:0000010</text>
</g>
<!-- caro:0000010&#45;&gt;caro:0000007 -->
<g id="edge19" class="edge">
<title>caro:0000010&#45;&gt;caro:0000007</title>
<path fill="none" stroke="black" d="M776.15,-540.1C762.24,-530.1 745.93,-518.37 731.14,-507.73"/>
<polygon fill="black" stroke="black" points="732.8,-504.61 722.64,-501.62 728.71,-510.3 732.8,-504.61"/>
</g>
<!-- caro:0000010&#45;&gt;bfo:0000009 -->
<g id="edge20" class="edge">
<title>caro:0000010&#45;&gt;bfo:0000009</title>
<path fill="none" stroke="black" d="M849.88,-541.03C868.3,-530.33 890.34,-517.52 909.91,-506.15"/>
<polygon fill="black" stroke="black" points="911.82,-509.09 918.71,-501.04 908.3,-503.03 911.82,-509.09"/>
</g>
</g>
</svg>
