<?xml version="1.0" encoding="UTF-8" standalone="no"?>
<!DOCTYPE svg PUBLIC "-//W3C//DTD SVG 1.1//EN"
 "http://www.w3.org/Graphics/SVG/1.1/DTD/svg11.dtd">
<!-- Generated by graphviz version 3.0.0 (20220226.1711)
 -->
<!-- Pages: 1 -->
<svg width="1635pt" height="331pt"
 viewBox="0.00 0.00 1635.46 330.96" xmlns="http://www.w3.org/2000/svg" xmlns:xlink="http://www.w3.org/1999/xlink">
<g id="graph0" class="graph" transform="scale(1 1) rotate(0) translate(4 326.96)">
<polygon fill="white" stroke="transparent" points="-4,4 -4,-326.96 1631.46,-326.96 1631.46,4 -4,4"/>
<!-- clyh:0000059 -->
<g id="node1" class="node">
<title>clyh:0000059</title>
<ellipse fill="none" stroke="orange" cx="65.76" cy="-296.09" rx="65.52" ry="26.74"/>
<text text-anchor="middle" x="65.76" y="-299.89" font-family="Times,serif" font-size="14.00">medusa phase</text>
<text text-anchor="middle" x="65.76" y="-284.89" font-family="Times,serif" font-size="14.00">clyh:0000059</text>
</g>
<!-- uberon:0000105 -->
<g id="node2" class="node">
<title>uberon:0000105</title>
<ellipse fill="none" stroke="blue" cx="244.76" cy="-206.35" rx="74.49" ry="26.74"/>
<text text-anchor="middle" x="244.76" y="-210.15" font-family="Times,serif" font-size="14.00">life cycle stage</text>
<text text-anchor="middle" x="244.76" y="-195.15" font-family="Times,serif" font-size="14.00">uberon:0000105</text>
</g>
<!-- clyh:0000059&#45;&gt;uberon:0000105 -->
<g id="edge1" class="edge">
<title>clyh:0000059&#45;&gt;uberon:0000105</title>
<path fill="none" stroke="black" d="M106.83,-274.96C132.33,-262.46 165.34,-246.28 192.67,-232.88"/>
<polygon fill="black" stroke="black" points="194.26,-236 201.7,-228.46 191.18,-229.71 194.26,-236"/>
</g>
<!-- clyh:1000017 -->
<g id="node3" class="node">
<title>clyh:1000017</title>
<ellipse fill="none" stroke="orange" cx="178.76" cy="-116.61" rx="121.74" ry="26.74"/>
<text text-anchor="middle" x="178.76" y="-120.41" font-family="Times,serif" font-size="14.00">oral gastrula ingressing cells</text>
<text text-anchor="middle" x="178.76" y="-105.41" font-family="Times,serif" font-size="14.00">clyh:1000017</text>
</g>
<!-- cl:0000000 -->
<g id="node4" class="node">
<title>cl:0000000</title>
<ellipse fill="none" stroke="blue" cx="488.76" cy="-26.87" rx="54.39" ry="26.74"/>
<text text-anchor="middle" x="488.76" y="-30.67" font-family="Times,serif" font-size="14.00">cell</text>
<text text-anchor="middle" x="488.76" y="-15.67" font-family="Times,serif" font-size="14.00">cl:0000000</text>
</g>
<!-- clyh:1000017&#45;&gt;cl:0000000 -->
<g id="edge2" class="edge">
<title>clyh:1000017&#45;&gt;cl:0000000</title>
<path fill="none" stroke="black" d="M251.44,-95.04C306.64,-79.42 381.46,-58.24 432.23,-43.87"/>
<polygon fill="black" stroke="black" points="433.38,-47.18 442.05,-41.09 431.47,-40.45 433.38,-47.18"/>
</g>
<!-- clyh:1000124 -->
<g id="node5" class="node">
<title>clyh:1000124</title>
<ellipse fill="none" stroke="orange" cx="404.76" cy="-116.61" rx="86.03" ry="26.74"/>
<text text-anchor="middle" x="404.76" y="-120.41" font-family="Times,serif" font-size="14.00">striated muscle cell</text>
<text text-anchor="middle" x="404.76" y="-105.41" font-family="Times,serif" font-size="14.00">clyh:1000124</text>
</g>
<!-- clyh:1000124&#45;&gt;cl:0000000 -->
<g id="edge3" class="edge">
<title>clyh:1000124&#45;&gt;cl:0000000</title>
<path fill="none" stroke="black" d="M428.61,-90.7C438.05,-80.84 449.01,-69.39 458.97,-58.98"/>
<polygon fill="black" stroke="black" points="461.62,-61.28 466.01,-51.63 456.57,-56.43 461.62,-61.28"/>
</g>
<!-- clyh:1000087 -->
<g id="node6" class="node">
<title>clyh:1000087</title>
<ellipse fill="none" stroke="orange" cx="573.76" cy="-116.61" rx="64.19" ry="26.74"/>
<text text-anchor="middle" x="573.76" y="-120.41" font-family="Times,serif" font-size="14.00">gamete</text>
<text text-anchor="middle" x="573.76" y="-105.41" font-family="Times,serif" font-size="14.00">clyh:1000087</text>
</g>
<!-- clyh:1000087&#45;&gt;cl:0000000 -->
<g id="edge4" class="edge">
<title>clyh:1000087&#45;&gt;cl:0000000</title>
<path fill="none" stroke="black" d="M550.08,-91.17C540.44,-81.21 529.17,-69.58 518.95,-59.03"/>
<polygon fill="black" stroke="black" points="521.2,-56.32 511.72,-51.57 516.17,-61.19 521.2,-56.32"/>
</g>
<!-- clyh:1000167 -->
<g id="node7" class="node">
<title>clyh:1000167</title>
<ellipse fill="none" stroke="orange" cx="1033.76" cy="-296.09" rx="64.19" ry="26.74"/>
<text text-anchor="middle" x="1033.76" y="-299.89" font-family="Times,serif" font-size="14.00">statocyst</text>
<text text-anchor="middle" x="1033.76" y="-284.89" font-family="Times,serif" font-size="14.00">clyh:1000167</text>
</g>
<!-- uberon:0000061 -->
<g id="node8" class="node">
<title>uberon:0000061</title>
<ellipse fill="none" stroke="blue" cx="1189.76" cy="-206.35" rx="90.52" ry="26.74"/>
<text text-anchor="middle" x="1189.76" y="-210.15" font-family="Times,serif" font-size="14.00">anatomical structure</text>
<text text-anchor="middle" x="1189.76" y="-195.15" font-family="Times,serif" font-size="14.00">uberon:0000061</text>
</g>
<!-- clyh:1000167&#45;&gt;uberon:0000061 -->
<g id="edge5" class="edge">
<title>clyh:1000167&#45;&gt;uberon:0000061</title>
<path fill="none" stroke="black" d="M1071.13,-274.07C1091.73,-262.49 1117.57,-247.95 1139.87,-235.41"/>
<polygon fill="black" stroke="black" points="1141.87,-238.3 1148.87,-230.35 1138.43,-232.2 1141.87,-238.3"/>
</g>
<!-- clyh:0000002 -->
<g id="node9" class="node">
<title>clyh:0000002</title>
<ellipse fill="none" stroke="orange" cx="244.76" cy="-296.09" rx="95.42" ry="26.74"/>
<text text-anchor="middle" x="244.76" y="-299.89" font-family="Times,serif" font-size="14.00">gametogenesis period</text>
<text text-anchor="middle" x="244.76" y="-284.89" font-family="Times,serif" font-size="14.00">clyh:0000002</text>
</g>
<!-- clyh:0000002&#45;&gt;uberon:0000105 -->
<g id="edge6" class="edge">
<title>clyh:0000002&#45;&gt;uberon:0000105</title>
<path fill="none" stroke="black" d="M244.76,-268.77C244.76,-260.8 244.76,-251.91 244.76,-243.42"/>
<polygon fill="black" stroke="black" points="248.26,-243.35 244.76,-233.35 241.26,-243.35 248.26,-243.35"/>
</g>
<!-- go:0005575 -->
<g id="node10" class="node">
<title>go:0005575</title>
<ellipse fill="none" stroke="blue" cx="742.76" cy="-116.61" rx="86.03" ry="26.74"/>
<text text-anchor="middle" x="742.76" y="-120.41" font-family="Times,serif" font-size="14.00">cellular component</text>
<text text-anchor="middle" x="742.76" y="-105.41" font-family="Times,serif" font-size="14.00">go:0005575</text>
</g>
<!-- go:0005575&#45;&gt;cl:0000000 -->
<g id="edge7" class="edge">
<title>go:0005575&#45;&gt;cl:0000000</title>
<path fill="none" stroke="blue" d="M686.39,-96.14C643.41,-81.29 584.6,-60.98 542.33,-46.37"/>
<polygon fill="blue" stroke="blue" points="543.36,-43.03 532.76,-43.07 541.07,-49.64 543.36,-43.03"/>
</g>
<!-- go:0005938 -->
<g id="node11" class="node">
<title>go:0005938</title>
<ellipse fill="none" stroke="blue" cx="657.76" cy="-206.35" rx="57.05" ry="26.74"/>
<text text-anchor="middle" x="657.76" y="-210.15" font-family="Times,serif" font-size="14.00">cell cortex</text>
<text text-anchor="middle" x="657.76" y="-195.15" font-family="Times,serif" font-size="14.00">go:0005938</text>
</g>
<!-- go:0005938&#45;&gt;go:0005575 -->
<g id="edge8" class="edge">
<title>go:0005938&#45;&gt;go:0005575</title>
<path fill="none" stroke="black" d="M680.99,-181.37C690.4,-171.66 701.42,-160.29 711.52,-149.86"/>
<polygon fill="black" stroke="black" points="714.23,-152.09 718.67,-142.47 709.2,-147.22 714.23,-152.09"/>
</g>
<!-- clyh:1000185 -->
<g id="node12" class="node">
<title>clyh:1000185</title>
<ellipse fill="none" stroke="orange" cx="1189.76" cy="-296.09" rx="73.58" ry="26.74"/>
<text text-anchor="middle" x="1189.76" y="-299.89" font-family="Times,serif" font-size="14.00">inner nerve ring</text>
<text text-anchor="middle" x="1189.76" y="-284.89" font-family="Times,serif" font-size="14.00">clyh:1000185</text>
</g>
<!-- clyh:1000185&#45;&gt;uberon:0000061 -->
<g id="edge9" class="edge">
<title>clyh:1000185&#45;&gt;uberon:0000061</title>
<path fill="none" stroke="black" d="M1189.76,-268.77C1189.76,-260.8 1189.76,-251.91 1189.76,-243.42"/>
<polygon fill="black" stroke="black" points="1193.26,-243.35 1189.76,-233.35 1186.26,-243.35 1193.26,-243.35"/>
</g>
<!-- clyh:1000057 -->
<g id="node13" class="node">
<title>clyh:1000057</title>
<ellipse fill="none" stroke="orange" cx="834.76" cy="-206.35" rx="64.19" ry="26.74"/>
<text text-anchor="middle" x="834.76" y="-210.15" font-family="Times,serif" font-size="14.00">cytoplasm</text>
<text text-anchor="middle" x="834.76" y="-195.15" font-family="Times,serif" font-size="14.00">clyh:1000057</text>
</g>
<!-- clyh:1000057&#45;&gt;go:0005575 -->
<g id="edge10" class="edge">
<title>clyh:1000057&#45;&gt;go:0005575</title>
<path fill="none" stroke="black" d="M809.62,-181.37C799.33,-171.56 787.28,-160.07 776.26,-149.56"/>
<polygon fill="black" stroke="black" points="778.48,-146.84 768.83,-142.47 773.65,-151.91 778.48,-146.84"/>
</g>
<!-- clyh:1000003 -->
<g id="node14" class="node">
<title>clyh:1000003</title>
<ellipse fill="none" stroke="orange" cx="1345.76" cy="-296.09" rx="64.19" ry="26.74"/>
<text text-anchor="middle" x="1345.76" y="-299.89" font-family="Times,serif" font-size="14.00">mouth</text>
<text text-anchor="middle" x="1345.76" y="-284.89" font-family="Times,serif" font-size="14.00">clyh:1000003</text>
</g>
<!-- clyh:1000003&#45;&gt;uberon:0000061 -->
<g id="edge11" class="edge">
<title>clyh:1000003&#45;&gt;uberon:0000061</title>
<path fill="none" stroke="black" d="M1308.4,-274.07C1287.8,-262.49 1261.95,-247.95 1239.65,-235.41"/>
<polygon fill="black" stroke="black" points="1241.09,-232.2 1230.66,-230.35 1237.66,-238.3 1241.09,-232.2"/>
</g>
<!-- clyh:1000050 -->
<g id="node15" class="node">
<title>clyh:1000050</title>
<ellipse fill="none" stroke="orange" cx="998.76" cy="-206.35" rx="82.05" ry="26.74"/>
<text text-anchor="middle" x="998.76" y="-210.15" font-family="Times,serif" font-size="14.00">spindle&#45;associated</text>
<text text-anchor="middle" x="998.76" y="-195.15" font-family="Times,serif" font-size="14.00">clyh:1000050</text>
</g>
<!-- clyh:1000050&#45;&gt;go:0005575 -->
<g id="edge12" class="edge">
<title>clyh:1000050&#45;&gt;go:0005575</title>
<path fill="none" stroke="black" d="M943.53,-186.42C903.98,-172.87 850.56,-154.56 808.77,-140.23"/>
<polygon fill="black" stroke="black" points="809.82,-136.89 799.22,-136.96 807.55,-143.51 809.82,-136.89"/>
</g>
<!-- clyh:1000051 -->
<g id="node16" class="node">
<title>clyh:1000051</title>
<ellipse fill="none" stroke="orange" cx="577.76" cy="-296.09" rx="67.35" ry="26.74"/>
<text text-anchor="middle" x="577.76" y="-299.89" font-family="Times,serif" font-size="14.00">animal cortex </text>
<text text-anchor="middle" x="577.76" y="-284.89" font-family="Times,serif" font-size="14.00">clyh:1000051</text>
</g>
<!-- clyh:1000051&#45;&gt;go:0005575 -->
<g id="edge13" class="edge">
<title>clyh:1000051&#45;&gt;go:0005575</title>
<path fill="none" stroke="blue" d="M573.88,-268.89C571.59,-243.45 572.28,-205.05 591.76,-179.48 602.4,-165.53 638.08,-150.59 672.1,-138.89"/>
<polygon fill="blue" stroke="blue" points="673.26,-142.19 681.62,-135.68 671.03,-135.56 673.26,-142.19"/>
</g>
<!-- clyh:1000051&#45;&gt;go:0005938 -->
<g id="edge14" class="edge">
<title>clyh:1000051&#45;&gt;go:0005938</title>
<path fill="none" stroke="black" d="M600.05,-270.65C609.05,-260.78 619.55,-249.26 629.11,-238.77"/>
<polygon fill="black" stroke="black" points="631.72,-241.1 635.87,-231.36 626.55,-236.39 631.72,-241.1"/>
</g>
<!-- clyh:1000054 -->
<g id="node17" class="node">
<title>clyh:1000054</title>
<ellipse fill="none" stroke="orange" cx="737.76" cy="-296.09" rx="65.52" ry="26.74"/>
<text text-anchor="middle" x="737.76" y="-299.89" font-family="Times,serif" font-size="14.00">vegetal cortex</text>
<text text-anchor="middle" x="737.76" y="-284.89" font-family="Times,serif" font-size="14.00">clyh:1000054</text>
</g>
<!-- clyh:1000054&#45;&gt;go:0005575 -->
<g id="edge15" class="edge">
<title>clyh:1000054&#45;&gt;go:0005575</title>
<path fill="none" stroke="blue" d="M738.5,-268.9C739.36,-238.41 740.78,-187.85 741.75,-153.66"/>
<polygon fill="blue" stroke="blue" points="745.25,-153.71 742.03,-143.62 738.25,-153.51 745.25,-153.71"/>
</g>
<!-- clyh:1000054&#45;&gt;go:0005938 -->
<g id="edge16" class="edge">
<title>clyh:1000054&#45;&gt;go:0005938</title>
<path fill="none" stroke="black" d="M715.48,-270.65C706.47,-260.78 695.97,-249.26 686.41,-238.77"/>
<polygon fill="black" stroke="black" points="688.97,-236.39 679.65,-231.36 683.8,-241.1 688.97,-236.39"/>
</g>
<!-- clyh:1000001 -->
<g id="node18" class="node">
<title>clyh:1000001</title>
<ellipse fill="none" stroke="red" cx="1527.76" cy="-296.09" rx="99.9" ry="26.74"/>
<text text-anchor="middle" x="1527.76" y="-299.89" font-family="Times,serif" font-size="14.00">multicellular organism</text>
<text text-anchor="middle" x="1527.76" y="-284.89" font-family="Times,serif" font-size="14.00">clyh:1000001</text>
</g>
<!-- clyh:0000034 -->
<g id="node19" class="node">
<title>clyh:0000034</title>
<ellipse fill="none" stroke="orange" cx="425.76" cy="-296.09" rx="67.35" ry="26.74"/>
<text text-anchor="middle" x="425.76" y="-299.89" font-family="Times,serif" font-size="14.00">planula period</text>
<text text-anchor="middle" x="425.76" y="-284.89" font-family="Times,serif" font-size="14.00">clyh:0000034</text>
</g>
<!-- clyh:0000034&#45;&gt;uberon:0000105 -->
<g id="edge17" class="edge">
<title>clyh:0000034&#45;&gt;uberon:0000105</title>
<path fill="none" stroke="black" d="M384.24,-274.96C358.36,-262.42 324.83,-246.16 297.13,-232.74"/>
<polygon fill="black" stroke="black" points="298.51,-229.51 287.98,-228.3 295.45,-235.81 298.51,-229.51"/>
</g>
</g>
</svg>
