<?xml version="1.0" encoding="UTF-8" standalone="no"?>
<!DOCTYPE svg PUBLIC "-//W3C//DTD SVG 1.1//EN"
 "http://www.w3.org/Graphics/SVG/1.1/DTD/svg11.dtd">
<!-- Generated by graphviz version 3.0.0 (20220226.1711)
 -->
<!-- Pages: 1 -->
<svg width="1645pt" height="331pt"
 viewBox="0.00 0.00 1644.88 330.96" xmlns="http://www.w3.org/2000/svg" xmlns:xlink="http://www.w3.org/1999/xlink">
<g id="graph0" class="graph" transform="scale(1 1) rotate(0) translate(4 326.96)">
<polygon fill="white" stroke="transparent" points="-4,4 -4,-326.96 1640.88,-326.96 1640.88,4 -4,4"/>
<!-- uberon:0000105 -->
<g id="node1" class="node">
<title>uberon:0000105</title>
<ellipse fill="none" stroke="blue" cx="218.18" cy="-206.35" rx="74.49" ry="26.74"/>
<text text-anchor="middle" x="218.18" y="-210.15" font-family="Times,serif" font-size="14.00">life cycle stage</text>
<text text-anchor="middle" x="218.18" y="-195.15" font-family="Times,serif" font-size="14.00">uberon:0000105</text>
</g>
<!-- clyh:0000034 -->
<g id="node2" class="node">
<title>clyh:0000034</title>
<ellipse fill="none" stroke="red" cx="67.18" cy="-296.09" rx="67.35" ry="26.74"/>
<text text-anchor="middle" x="67.18" y="-299.89" font-family="Times,serif" font-size="14.00">planula period</text>
<text text-anchor="middle" x="67.18" y="-284.89" font-family="Times,serif" font-size="14.00">clyh:0000034</text>
</g>
<!-- clyh:0000034&#45;&gt;uberon:0000105 -->
<g id="edge1" class="edge">
<title>clyh:0000034&#45;&gt;uberon:0000105</title>
<path fill="none" stroke="black" d="M104.11,-273.63C124.37,-261.86 149.7,-247.14 171.33,-234.57"/>
<polygon fill="black" stroke="black" points="173.15,-237.56 180.04,-229.51 169.64,-231.51 173.15,-237.56"/>
</g>
<!-- go:0005575 -->
<g id="node3" class="node">
<title>go:0005575</title>
<ellipse fill="none" stroke="blue" cx="743.18" cy="-116.61" rx="86.03" ry="26.74"/>
<text text-anchor="middle" x="743.18" y="-120.41" font-family="Times,serif" font-size="14.00">cellular component</text>
<text text-anchor="middle" x="743.18" y="-105.41" font-family="Times,serif" font-size="14.00">go:0005575</text>
</g>
<!-- cl:0000000 -->
<g id="node4" class="node">
<title>cl:0000000</title>
<ellipse fill="none" stroke="blue" cx="472.18" cy="-26.87" rx="54.39" ry="26.74"/>
<text text-anchor="middle" x="472.18" y="-30.67" font-family="Times,serif" font-size="14.00">cell</text>
<text text-anchor="middle" x="472.18" y="-15.67" font-family="Times,serif" font-size="14.00">cl:0000000</text>
</g>
<!-- go:0005575&#45;&gt;cl:0000000 -->
<g id="edge2" class="edge">
<title>go:0005575&#45;&gt;cl:0000000</title>
<path fill="none" stroke="blue" d="M684.71,-96.68C637.88,-81.52 572.68,-60.41 526.88,-45.58"/>
<polygon fill="blue" stroke="blue" points="527.72,-42.18 517.13,-42.42 525.57,-48.84 527.72,-42.18"/>
</g>
<!-- go:0005938 -->
<g id="node5" class="node">
<title>go:0005938</title>
<ellipse fill="none" stroke="blue" cx="658.18" cy="-206.35" rx="57.05" ry="26.74"/>
<text text-anchor="middle" x="658.18" y="-210.15" font-family="Times,serif" font-size="14.00">cell cortex</text>
<text text-anchor="middle" x="658.18" y="-195.15" font-family="Times,serif" font-size="14.00">go:0005938</text>
</g>
<!-- go:0005938&#45;&gt;go:0005575 -->
<g id="edge3" class="edge">
<title>go:0005938&#45;&gt;go:0005575</title>
<path fill="none" stroke="black" d="M681.4,-181.37C690.82,-171.66 701.83,-160.29 711.93,-149.86"/>
<polygon fill="black" stroke="black" points="714.64,-152.09 719.09,-142.47 709.62,-147.22 714.64,-152.09"/>
</g>
<!-- uberon:0000061 -->
<g id="node6" class="node">
<title>uberon:0000061</title>
<ellipse fill="none" stroke="blue" cx="1190.18" cy="-206.35" rx="90.52" ry="26.74"/>
<text text-anchor="middle" x="1190.18" y="-210.15" font-family="Times,serif" font-size="14.00">anatomical structure</text>
<text text-anchor="middle" x="1190.18" y="-195.15" font-family="Times,serif" font-size="14.00">uberon:0000061</text>
</g>
<!-- clyh:1000124 -->
<g id="node7" class="node">
<title>clyh:1000124</title>
<ellipse fill="none" stroke="red" cx="144.18" cy="-116.61" rx="86.03" ry="26.74"/>
<text text-anchor="middle" x="144.18" y="-120.41" font-family="Times,serif" font-size="14.00">striated muscle cell</text>
<text text-anchor="middle" x="144.18" y="-105.41" font-family="Times,serif" font-size="14.00">clyh:1000124</text>
</g>
<!-- clyh:1000124&#45;&gt;cl:0000000 -->
<g id="edge4" class="edge">
<title>clyh:1000124&#45;&gt;cl:0000000</title>
<path fill="none" stroke="black" d="M207.53,-98.3C218.09,-95.43 228.94,-92.49 239.18,-89.74 299.17,-73.61 367.93,-55.38 415.12,-42.91"/>
<polygon fill="black" stroke="black" points="416.07,-46.28 424.85,-40.34 414.29,-39.51 416.07,-46.28"/>
</g>
<!-- clyh:1000167 -->
<g id="node8" class="node">
<title>clyh:1000167</title>
<ellipse fill="none" stroke="red" cx="1043.18" cy="-296.09" rx="64.19" ry="26.74"/>
<text text-anchor="middle" x="1043.18" y="-299.89" font-family="Times,serif" font-size="14.00">statocyst</text>
<text text-anchor="middle" x="1043.18" y="-284.89" font-family="Times,serif" font-size="14.00">clyh:1000167</text>
</g>
<!-- clyh:1000167&#45;&gt;uberon:0000061 -->
<g id="edge5" class="edge">
<title>clyh:1000167&#45;&gt;uberon:0000061</title>
<path fill="none" stroke="black" d="M1079.14,-273.63C1098.18,-262.26 1121.81,-248.16 1142.37,-235.88"/>
<polygon fill="black" stroke="black" points="1144.18,-238.88 1150.97,-230.75 1140.59,-232.87 1144.18,-238.88"/>
</g>
<!-- clyh:1000050 -->
<g id="node9" class="node">
<title>clyh:1000050</title>
<ellipse fill="none" stroke="red" cx="853.18" cy="-206.35" rx="82.05" ry="26.74"/>
<text text-anchor="middle" x="853.18" y="-210.15" font-family="Times,serif" font-size="14.00">spindle&#45;associated</text>
<text text-anchor="middle" x="853.18" y="-195.15" font-family="Times,serif" font-size="14.00">clyh:1000050</text>
</g>
<!-- clyh:1000050&#45;&gt;go:0005575 -->
<g id="edge6" class="edge">
<title>clyh:1000050&#45;&gt;go:0005575</title>
<path fill="none" stroke="black" d="M822.83,-181.14C810.19,-171.06 795.36,-159.23 781.94,-148.53"/>
<polygon fill="black" stroke="black" points="783.81,-145.54 773.81,-142.04 779.44,-151.02 783.81,-145.54"/>
</g>
<!-- clyh:0000059 -->
<g id="node10" class="node">
<title>clyh:0000059</title>
<ellipse fill="none" stroke="red" cx="218.18" cy="-296.09" rx="65.52" ry="26.74"/>
<text text-anchor="middle" x="218.18" y="-299.89" font-family="Times,serif" font-size="14.00">medusa phase</text>
<text text-anchor="middle" x="218.18" y="-284.89" font-family="Times,serif" font-size="14.00">clyh:0000059</text>
</g>
<!-- clyh:0000059&#45;&gt;uberon:0000105 -->
<g id="edge7" class="edge">
<title>clyh:0000059&#45;&gt;uberon:0000105</title>
<path fill="none" stroke="black" d="M218.18,-268.77C218.18,-260.8 218.18,-251.91 218.18,-243.42"/>
<polygon fill="black" stroke="black" points="221.68,-243.35 218.18,-233.35 214.68,-243.35 221.68,-243.35"/>
</g>
<!-- clyh:1000017 -->
<g id="node11" class="node">
<title>clyh:1000017</title>
<ellipse fill="none" stroke="red" cx="370.18" cy="-116.61" rx="121.74" ry="26.74"/>
<text text-anchor="middle" x="370.18" y="-120.41" font-family="Times,serif" font-size="14.00">oral gastrula ingressing cells</text>
<text text-anchor="middle" x="370.18" y="-105.41" font-family="Times,serif" font-size="14.00">clyh:1000017</text>
</g>
<!-- clyh:1000017&#45;&gt;cl:0000000 -->
<g id="edge8" class="edge">
<title>clyh:1000017&#45;&gt;cl:0000000</title>
<path fill="none" stroke="black" d="M399.4,-90.47C411.49,-80.07 425.59,-67.94 438.15,-57.14"/>
<polygon fill="black" stroke="black" points="440.43,-59.79 445.73,-50.62 435.87,-54.49 440.43,-59.79"/>
</g>
<!-- clyh:1000051 -->
<g id="node12" class="node">
<title>clyh:1000051</title>
<ellipse fill="none" stroke="red" cx="578.18" cy="-296.09" rx="67.35" ry="26.74"/>
<text text-anchor="middle" x="578.18" y="-299.89" font-family="Times,serif" font-size="14.00">animal cortex </text>
<text text-anchor="middle" x="578.18" y="-284.89" font-family="Times,serif" font-size="14.00">clyh:1000051</text>
</g>
<!-- clyh:1000051&#45;&gt;go:0005575 -->
<g id="edge9" class="edge">
<title>clyh:1000051&#45;&gt;go:0005575</title>
<path fill="none" stroke="blue" d="M574.29,-268.89C572.01,-243.45 572.69,-205.05 592.18,-179.48 602.81,-165.53 638.5,-150.59 672.51,-138.89"/>
<polygon fill="blue" stroke="blue" points="673.68,-142.19 682.04,-135.68 671.44,-135.56 673.68,-142.19"/>
</g>
<!-- clyh:1000051&#45;&gt;go:0005938 -->
<g id="edge10" class="edge">
<title>clyh:1000051&#45;&gt;go:0005938</title>
<path fill="none" stroke="black" d="M600.46,-270.65C609.46,-260.78 619.97,-249.26 629.53,-238.77"/>
<polygon fill="black" stroke="black" points="632.14,-241.1 636.29,-231.36 626.96,-236.39 632.14,-241.1"/>
</g>
<!-- clyh:1000001 -->
<g id="node13" class="node">
<title>clyh:1000001</title>
<ellipse fill="none" stroke="red" cx="1537.18" cy="-296.09" rx="99.9" ry="26.74"/>
<text text-anchor="middle" x="1537.18" y="-299.89" font-family="Times,serif" font-size="14.00">multicellular organism</text>
<text text-anchor="middle" x="1537.18" y="-284.89" font-family="Times,serif" font-size="14.00">clyh:1000001</text>
</g>
<!-- clyh:1000003 -->
<g id="node14" class="node">
<title>clyh:1000003</title>
<ellipse fill="none" stroke="red" cx="1190.18" cy="-296.09" rx="64.19" ry="26.74"/>
<text text-anchor="middle" x="1190.18" y="-299.89" font-family="Times,serif" font-size="14.00">mouth</text>
<text text-anchor="middle" x="1190.18" y="-284.89" font-family="Times,serif" font-size="14.00">clyh:1000003</text>
</g>
<!-- clyh:1000003&#45;&gt;uberon:0000061 -->
<g id="edge11" class="edge">
<title>clyh:1000003&#45;&gt;uberon:0000061</title>
<path fill="none" stroke="black" d="M1190.18,-268.77C1190.18,-260.8 1190.18,-251.91 1190.18,-243.42"/>
<polygon fill="black" stroke="black" points="1193.68,-243.35 1190.18,-233.35 1186.68,-243.35 1193.68,-243.35"/>
</g>
<!-- clyh:0000002 -->
<g id="node15" class="node">
<title>clyh:0000002</title>
<ellipse fill="none" stroke="red" cx="397.18" cy="-296.09" rx="95.42" ry="26.74"/>
<text text-anchor="middle" x="397.18" y="-299.89" font-family="Times,serif" font-size="14.00">gametogenesis period</text>
<text text-anchor="middle" x="397.18" y="-284.89" font-family="Times,serif" font-size="14.00">clyh:0000002</text>
</g>
<!-- clyh:0000002&#45;&gt;uberon:0000105 -->
<g id="edge12" class="edge">
<title>clyh:0000002&#45;&gt;uberon:0000105</title>
<path fill="none" stroke="black" d="M351.08,-272.5C326.35,-260.38 295.8,-245.4 270.22,-232.86"/>
<polygon fill="black" stroke="black" points="271.56,-229.62 261.04,-228.36 268.48,-235.91 271.56,-229.62"/>
</g>
<!-- clyh:1000054 -->
<g id="node16" class="node">
<title>clyh:1000054</title>
<ellipse fill="none" stroke="red" cx="738.18" cy="-296.09" rx="65.52" ry="26.74"/>
<text text-anchor="middle" x="738.18" y="-299.89" font-family="Times,serif" font-size="14.00">vegetal cortex</text>
<text text-anchor="middle" x="738.18" y="-284.89" font-family="Times,serif" font-size="14.00">clyh:1000054</text>
</g>
<!-- clyh:1000054&#45;&gt;go:0005575 -->
<g id="edge13" class="edge">
<title>clyh:1000054&#45;&gt;go:0005575</title>
<path fill="none" stroke="blue" d="M738.91,-268.9C739.77,-238.41 741.2,-187.85 742.16,-153.66"/>
<polygon fill="blue" stroke="blue" points="745.66,-153.71 742.44,-143.62 738.66,-153.51 745.66,-153.71"/>
</g>
<!-- clyh:1000054&#45;&gt;go:0005938 -->
<g id="edge14" class="edge">
<title>clyh:1000054&#45;&gt;go:0005938</title>
<path fill="none" stroke="black" d="M715.89,-270.65C706.89,-260.78 696.38,-249.26 686.82,-238.77"/>
<polygon fill="black" stroke="black" points="689.39,-236.39 680.06,-231.36 684.21,-241.1 689.39,-236.39"/>
</g>
<!-- clyh:1000057 -->
<g id="node17" class="node">
<title>clyh:1000057</title>
<ellipse fill="none" stroke="red" cx="1017.18" cy="-206.35" rx="64.19" ry="26.74"/>
<text text-anchor="middle" x="1017.18" y="-210.15" font-family="Times,serif" font-size="14.00">cytoplasm</text>
<text text-anchor="middle" x="1017.18" y="-195.15" font-family="Times,serif" font-size="14.00">clyh:1000057</text>
</g>
<!-- clyh:1000057&#45;&gt;go:0005575 -->
<g id="edge15" class="edge">
<title>clyh:1000057&#45;&gt;go:0005575</title>
<path fill="none" stroke="black" d="M969.37,-188.08C960.99,-185.15 952.34,-182.18 944.18,-179.48 901.2,-165.26 852.7,-150.3 814.11,-138.65"/>
<polygon fill="black" stroke="black" points="815.11,-135.3 804.52,-135.76 813.09,-142 815.11,-135.3"/>
</g>
<!-- clyh:1000185 -->
<g id="node18" class="node">
<title>clyh:1000185</title>
<ellipse fill="none" stroke="red" cx="1346.18" cy="-296.09" rx="73.58" ry="26.74"/>
<text text-anchor="middle" x="1346.18" y="-299.89" font-family="Times,serif" font-size="14.00">inner nerve ring</text>
<text text-anchor="middle" x="1346.18" y="-284.89" font-family="Times,serif" font-size="14.00">clyh:1000185</text>
</g>
<!-- clyh:1000185&#45;&gt;uberon:0000061 -->
<g id="edge16" class="edge">
<title>clyh:1000185&#45;&gt;uberon:0000061</title>
<path fill="none" stroke="black" d="M1307.21,-273.18C1286.83,-261.71 1261.65,-247.55 1239.88,-235.3"/>
<polygon fill="black" stroke="black" points="1241.52,-232.21 1231.09,-230.36 1238.09,-238.32 1241.52,-232.21"/>
</g>
<!-- clyh:1000087 -->
<g id="node19" class="node">
<title>clyh:1000087</title>
<ellipse fill="none" stroke="red" cx="574.18" cy="-116.61" rx="64.19" ry="26.74"/>
<text text-anchor="middle" x="574.18" y="-120.41" font-family="Times,serif" font-size="14.00">gamete</text>
<text text-anchor="middle" x="574.18" y="-105.41" font-family="Times,serif" font-size="14.00">clyh:1000087</text>
</g>
<!-- clyh:1000087&#45;&gt;cl:0000000 -->
<g id="edge17" class="edge">
<title>clyh:1000087&#45;&gt;cl:0000000</title>
<path fill="none" stroke="black" d="M546.84,-92.1C534.43,-81.42 519.61,-68.68 506.46,-57.36"/>
<polygon fill="black" stroke="black" points="508.39,-54.41 498.53,-50.54 503.83,-59.71 508.39,-54.41"/>
</g>
</g>
</svg>
