<?xml version="1.0" encoding="UTF-8" standalone="no"?>
<!DOCTYPE svg PUBLIC "-//W3C//DTD SVG 1.1//EN"
 "http://www.w3.org/Graphics/SVG/1.1/DTD/svg11.dtd">
<!-- Generated by graphviz version 3.0.0 (20220226.1711)
 -->
<!-- Pages: 1 -->
<svg width="1814pt" height="331pt"
 viewBox="0.00 0.00 1814.05 330.96" xmlns="http://www.w3.org/2000/svg" xmlns:xlink="http://www.w3.org/1999/xlink">
<g id="graph0" class="graph" transform="scale(1 1) rotate(0) translate(4 326.96)">
<polygon fill="white" stroke="transparent" points="-4,4 -4,-326.96 1810.05,-326.96 1810.05,4 -4,4"/>
<!-- clyh:1000087 -->
<g id="node1" class="node">
<title>clyh:1000087</title>
<ellipse fill="none" stroke="red" cx="64.35" cy="-116.61" rx="64.19" ry="26.74"/>
<text text-anchor="middle" x="64.35" y="-120.41" font-family="Times,serif" font-size="14.00">gamete</text>
<text text-anchor="middle" x="64.35" y="-105.41" font-family="Times,serif" font-size="14.00">clyh:1000087</text>
</g>
<!-- cl:0000000 -->
<g id="node2" class="node">
<title>cl:0000000</title>
<ellipse fill="none" stroke="blue" cx="328.35" cy="-26.87" rx="54.39" ry="26.74"/>
<text text-anchor="middle" x="328.35" y="-30.67" font-family="Times,serif" font-size="14.00">cell</text>
<text text-anchor="middle" x="328.35" y="-15.67" font-family="Times,serif" font-size="14.00">cl:0000000</text>
</g>
<!-- clyh:1000087&#45;&gt;cl:0000000 -->
<g id="edge1" class="edge">
<title>clyh:1000087&#45;&gt;cl:0000000</title>
<path fill="none" stroke="black" d="M112.46,-98.62C121.07,-95.63 129.97,-92.57 138.35,-89.74 183.76,-74.41 235.49,-57.61 273.5,-45.39"/>
<polygon fill="black" stroke="black" points="274.89,-48.61 283.34,-42.22 272.75,-41.95 274.89,-48.61"/>
</g>
<!-- clyh:1000124 -->
<g id="node3" class="node">
<title>clyh:1000124</title>
<ellipse fill="none" stroke="red" cx="233.35" cy="-116.61" rx="86.03" ry="26.74"/>
<text text-anchor="middle" x="233.35" y="-120.41" font-family="Times,serif" font-size="14.00">striated muscle cell</text>
<text text-anchor="middle" x="233.35" y="-105.41" font-family="Times,serif" font-size="14.00">clyh:1000124</text>
</g>
<!-- clyh:1000124&#45;&gt;cl:0000000 -->
<g id="edge2" class="edge">
<title>clyh:1000124&#45;&gt;cl:0000000</title>
<path fill="none" stroke="black" d="M260.06,-90.94C271.23,-80.62 284.3,-68.55 296,-57.74"/>
<polygon fill="black" stroke="black" points="298.49,-60.21 303.46,-50.85 293.74,-55.07 298.49,-60.21"/>
</g>
<!-- clyh:0000034 -->
<g id="node4" class="node">
<title>clyh:0000034</title>
<ellipse fill="none" stroke="red" cx="704.35" cy="-296.09" rx="67.35" ry="26.74"/>
<text text-anchor="middle" x="704.35" y="-299.89" font-family="Times,serif" font-size="14.00">planula period</text>
<text text-anchor="middle" x="704.35" y="-284.89" font-family="Times,serif" font-size="14.00">clyh:0000034</text>
</g>
<!-- uberon:0000105 -->
<g id="node5" class="node">
<title>uberon:0000105</title>
<ellipse fill="none" stroke="blue" cx="855.35" cy="-206.35" rx="74.49" ry="26.74"/>
<text text-anchor="middle" x="855.35" y="-210.15" font-family="Times,serif" font-size="14.00">life cycle stage</text>
<text text-anchor="middle" x="855.35" y="-195.15" font-family="Times,serif" font-size="14.00">uberon:0000105</text>
</g>
<!-- clyh:0000034&#45;&gt;uberon:0000105 -->
<g id="edge3" class="edge">
<title>clyh:0000034&#45;&gt;uberon:0000105</title>
<path fill="none" stroke="black" d="M741.29,-273.63C761.54,-261.86 786.87,-247.14 808.5,-234.57"/>
<polygon fill="black" stroke="black" points="810.32,-237.56 817.21,-229.51 806.81,-231.51 810.32,-237.56"/>
</g>
<!-- go:0005938 -->
<g id="node6" class="node">
<title>go:0005938</title>
<ellipse fill="none" stroke="blue" cx="339.35" cy="-206.35" rx="57.05" ry="26.74"/>
<text text-anchor="middle" x="339.35" y="-210.15" font-family="Times,serif" font-size="14.00">cell cortex</text>
<text text-anchor="middle" x="339.35" y="-195.15" font-family="Times,serif" font-size="14.00">go:0005938</text>
</g>
<!-- go:0005575 -->
<g id="node7" class="node">
<title>go:0005575</title>
<ellipse fill="none" stroke="blue" cx="424.35" cy="-116.61" rx="86.03" ry="26.74"/>
<text text-anchor="middle" x="424.35" y="-120.41" font-family="Times,serif" font-size="14.00">cellular component</text>
<text text-anchor="middle" x="424.35" y="-105.41" font-family="Times,serif" font-size="14.00">go:0005575</text>
</g>
<!-- go:0005938&#45;&gt;go:0005575 -->
<g id="edge4" class="edge">
<title>go:0005938&#45;&gt;go:0005575</title>
<path fill="none" stroke="black" d="M362.57,-181.37C371.99,-171.66 383,-160.29 393.1,-149.86"/>
<polygon fill="black" stroke="black" points="395.81,-152.09 400.26,-142.47 390.79,-147.22 395.81,-152.09"/>
</g>
<!-- go:0005575&#45;&gt;cl:0000000 -->
<g id="edge17" class="edge">
<title>go:0005575&#45;&gt;cl:0000000</title>
<path fill="none" stroke="blue" d="M397.35,-90.94C386.07,-80.62 372.86,-68.55 361.03,-57.74"/>
<polygon fill="blue" stroke="blue" points="363.24,-55.02 353.5,-50.85 358.52,-60.18 363.24,-55.02"/>
</g>
<!-- clyh:1000017 -->
<g id="node8" class="node">
<title>clyh:1000017</title>
<ellipse fill="none" stroke="red" cx="650.35" cy="-116.61" rx="121.74" ry="26.74"/>
<text text-anchor="middle" x="650.35" y="-120.41" font-family="Times,serif" font-size="14.00">oral gastrula ingressing cells</text>
<text text-anchor="middle" x="650.35" y="-105.41" font-family="Times,serif" font-size="14.00">clyh:1000017</text>
</g>
<!-- clyh:1000017&#45;&gt;cl:0000000 -->
<g id="edge5" class="edge">
<title>clyh:1000017&#45;&gt;cl:0000000</title>
<path fill="none" stroke="black" d="M575.66,-95.26C517.54,-79.42 438.12,-57.78 385.12,-43.34"/>
<polygon fill="black" stroke="black" points="385.78,-39.89 375.21,-40.64 383.94,-46.65 385.78,-39.89"/>
</g>
<!-- clyh:0000059 -->
<g id="node9" class="node">
<title>clyh:0000059</title>
<ellipse fill="none" stroke="red" cx="855.35" cy="-296.09" rx="65.52" ry="26.74"/>
<text text-anchor="middle" x="855.35" y="-299.89" font-family="Times,serif" font-size="14.00">medusa phase</text>
<text text-anchor="middle" x="855.35" y="-284.89" font-family="Times,serif" font-size="14.00">clyh:0000059</text>
</g>
<!-- clyh:0000059&#45;&gt;uberon:0000105 -->
<g id="edge6" class="edge">
<title>clyh:0000059&#45;&gt;uberon:0000105</title>
<path fill="none" stroke="black" d="M855.35,-268.77C855.35,-260.8 855.35,-251.91 855.35,-243.42"/>
<polygon fill="black" stroke="black" points="858.85,-243.35 855.35,-233.35 851.85,-243.35 858.85,-243.35"/>
</g>
<!-- clyh:1000185 -->
<g id="node10" class="node">
<title>clyh:1000185</title>
<ellipse fill="none" stroke="red" cx="1221.35" cy="-296.09" rx="73.58" ry="26.74"/>
<text text-anchor="middle" x="1221.35" y="-299.89" font-family="Times,serif" font-size="14.00">inner nerve ring</text>
<text text-anchor="middle" x="1221.35" y="-284.89" font-family="Times,serif" font-size="14.00">clyh:1000185</text>
</g>
<!-- uberon:0000061 -->
<g id="node11" class="node">
<title>uberon:0000061</title>
<ellipse fill="none" stroke="blue" cx="1377.35" cy="-206.35" rx="90.52" ry="26.74"/>
<text text-anchor="middle" x="1377.35" y="-210.15" font-family="Times,serif" font-size="14.00">anatomical structure</text>
<text text-anchor="middle" x="1377.35" y="-195.15" font-family="Times,serif" font-size="14.00">uberon:0000061</text>
</g>
<!-- clyh:1000185&#45;&gt;uberon:0000061 -->
<g id="edge7" class="edge">
<title>clyh:1000185&#45;&gt;uberon:0000061</title>
<path fill="none" stroke="black" d="M1260.31,-273.18C1280.69,-261.71 1305.87,-247.55 1327.65,-235.3"/>
<polygon fill="black" stroke="black" points="1329.43,-238.32 1336.43,-230.36 1326,-232.21 1329.43,-238.32"/>
</g>
<!-- clyh:1000050 -->
<g id="node12" class="node">
<title>clyh:1000050</title>
<ellipse fill="none" stroke="red" cx="534.35" cy="-206.35" rx="82.05" ry="26.74"/>
<text text-anchor="middle" x="534.35" y="-210.15" font-family="Times,serif" font-size="14.00">spindle&#45;associated</text>
<text text-anchor="middle" x="534.35" y="-195.15" font-family="Times,serif" font-size="14.00">clyh:1000050</text>
</g>
<!-- clyh:1000050&#45;&gt;go:0005575 -->
<g id="edge8" class="edge">
<title>clyh:1000050&#45;&gt;go:0005575</title>
<path fill="none" stroke="black" d="M504,-181.14C491.36,-171.06 476.53,-159.23 463.12,-148.53"/>
<polygon fill="black" stroke="black" points="464.98,-145.54 454.98,-142.04 460.61,-151.02 464.98,-145.54"/>
</g>
<!-- clyh:0000002 -->
<g id="node13" class="node">
<title>clyh:0000002</title>
<ellipse fill="none" stroke="red" cx="1034.35" cy="-296.09" rx="95.42" ry="26.74"/>
<text text-anchor="middle" x="1034.35" y="-299.89" font-family="Times,serif" font-size="14.00">gametogenesis period</text>
<text text-anchor="middle" x="1034.35" y="-284.89" font-family="Times,serif" font-size="14.00">clyh:0000002</text>
</g>
<!-- clyh:0000002&#45;&gt;uberon:0000105 -->
<g id="edge9" class="edge">
<title>clyh:0000002&#45;&gt;uberon:0000105</title>
<path fill="none" stroke="black" d="M988.25,-272.5C963.52,-260.38 932.97,-245.4 907.39,-232.86"/>
<polygon fill="black" stroke="black" points="908.73,-229.62 898.21,-228.36 905.65,-235.91 908.73,-229.62"/>
</g>
<!-- clyh:1000054 -->
<g id="node14" class="node">
<title>clyh:1000054</title>
<ellipse fill="none" stroke="red" cx="259.35" cy="-296.09" rx="65.52" ry="26.74"/>
<text text-anchor="middle" x="259.35" y="-299.89" font-family="Times,serif" font-size="14.00">vegetal cortex</text>
<text text-anchor="middle" x="259.35" y="-284.89" font-family="Times,serif" font-size="14.00">clyh:1000054</text>
</g>
<!-- clyh:1000054&#45;&gt;go:0005938 -->
<g id="edge10" class="edge">
<title>clyh:1000054&#45;&gt;go:0005938</title>
<path fill="none" stroke="black" d="M281.63,-270.65C290.63,-260.78 301.14,-249.26 310.7,-238.77"/>
<polygon fill="black" stroke="black" points="313.31,-241.1 317.46,-231.36 308.13,-236.39 313.31,-241.1"/>
</g>
<!-- clyh:1000054&#45;&gt;go:0005575 -->
<g id="edge11" class="edge">
<title>clyh:1000054&#45;&gt;go:0005575</title>
<path fill="none" stroke="blue" d="M255.46,-268.89C253.18,-243.45 253.86,-205.05 273.35,-179.48 283.98,-165.53 319.67,-150.59 353.68,-138.89"/>
<polygon fill="blue" stroke="blue" points="354.85,-142.19 363.21,-135.68 352.61,-135.56 354.85,-142.19"/>
</g>
<!-- clyh:1000051 -->
<g id="node15" class="node">
<title>clyh:1000051</title>
<ellipse fill="none" stroke="red" cx="415.35" cy="-296.09" rx="67.35" ry="26.74"/>
<text text-anchor="middle" x="415.35" y="-299.89" font-family="Times,serif" font-size="14.00">animal cortex </text>
<text text-anchor="middle" x="415.35" y="-284.89" font-family="Times,serif" font-size="14.00">clyh:1000051</text>
</g>
<!-- clyh:1000051&#45;&gt;go:0005938 -->
<g id="edge12" class="edge">
<title>clyh:1000051&#45;&gt;go:0005938</title>
<path fill="none" stroke="black" d="M393.77,-270.18C385.38,-260.49 375.66,-249.28 366.78,-239.02"/>
<polygon fill="black" stroke="black" points="369.38,-236.68 360.19,-231.41 364.09,-241.26 369.38,-236.68"/>
</g>
<!-- clyh:1000051&#45;&gt;go:0005575 -->
<g id="edge13" class="edge">
<title>clyh:1000051&#45;&gt;go:0005575</title>
<path fill="none" stroke="blue" d="M416.67,-268.9C418.22,-238.41 420.78,-187.85 422.52,-153.66"/>
<polygon fill="blue" stroke="blue" points="426.02,-153.78 423.03,-143.62 419.03,-153.43 426.02,-153.78"/>
</g>
<!-- clyh:1000003 -->
<g id="node16" class="node">
<title>clyh:1000003</title>
<ellipse fill="none" stroke="red" cx="1377.35" cy="-296.09" rx="64.19" ry="26.74"/>
<text text-anchor="middle" x="1377.35" y="-299.89" font-family="Times,serif" font-size="14.00">mouth</text>
<text text-anchor="middle" x="1377.35" y="-284.89" font-family="Times,serif" font-size="14.00">clyh:1000003</text>
</g>
<!-- clyh:1000003&#45;&gt;uberon:0000061 -->
<g id="edge14" class="edge">
<title>clyh:1000003&#45;&gt;uberon:0000061</title>
<path fill="none" stroke="black" d="M1377.35,-268.77C1377.35,-260.8 1377.35,-251.91 1377.35,-243.42"/>
<polygon fill="black" stroke="black" points="1380.85,-243.35 1377.35,-233.35 1373.85,-243.35 1380.85,-243.35"/>
</g>
<!-- clyh:1000057 -->
<g id="node17" class="node">
<title>clyh:1000057</title>
<ellipse fill="none" stroke="red" cx="698.35" cy="-206.35" rx="64.19" ry="26.74"/>
<text text-anchor="middle" x="698.35" y="-210.15" font-family="Times,serif" font-size="14.00">cytoplasm</text>
<text text-anchor="middle" x="698.35" y="-195.15" font-family="Times,serif" font-size="14.00">clyh:1000057</text>
</g>
<!-- clyh:1000057&#45;&gt;go:0005575 -->
<g id="edge15" class="edge">
<title>clyh:1000057&#45;&gt;go:0005575</title>
<path fill="none" stroke="black" d="M650.54,-188.08C642.16,-185.15 633.52,-182.18 625.35,-179.48 582.37,-165.26 533.87,-150.3 495.28,-138.65"/>
<polygon fill="black" stroke="black" points="496.28,-135.3 485.69,-135.76 494.26,-142 496.28,-135.3"/>
</g>
<!-- clyh:1000167 -->
<g id="node18" class="node">
<title>clyh:1000167</title>
<ellipse fill="none" stroke="red" cx="1524.35" cy="-296.09" rx="64.19" ry="26.74"/>
<text text-anchor="middle" x="1524.35" y="-299.89" font-family="Times,serif" font-size="14.00">statocyst</text>
<text text-anchor="middle" x="1524.35" y="-284.89" font-family="Times,serif" font-size="14.00">clyh:1000167</text>
</g>
<!-- clyh:1000167&#45;&gt;uberon:0000061 -->
<g id="edge16" class="edge">
<title>clyh:1000167&#45;&gt;uberon:0000061</title>
<path fill="none" stroke="black" d="M1488.39,-273.63C1469.35,-262.26 1445.71,-248.16 1425.15,-235.88"/>
<polygon fill="black" stroke="black" points="1426.93,-232.87 1416.55,-230.75 1423.34,-238.88 1426.93,-232.87"/>
</g>
<!-- clyh:1000001 -->
<g id="node19" class="node">
<title>clyh:1000001</title>
<ellipse fill="none" stroke="red" cx="1706.35" cy="-296.09" rx="99.9" ry="26.74"/>
<text text-anchor="middle" x="1706.35" y="-299.89" font-family="Times,serif" font-size="14.00">multicellular organism</text>
<text text-anchor="middle" x="1706.35" y="-284.89" font-family="Times,serif" font-size="14.00">clyh:1000001</text>
</g>
</g>
</svg>
