<?xml version="1.0" encoding="UTF-8" standalone="no"?>
<!DOCTYPE svg PUBLIC "-//W3C//DTD SVG 1.1//EN"
 "http://www.w3.org/Graphics/SVG/1.1/DTD/svg11.dtd">
<!-- Generated by graphviz version 3.0.0 (20220226.1711)
 -->
<!-- Pages: 1 -->
<svg width="1949pt" height="510pt"
 viewBox="0.00 0.00 1948.61 510.44" xmlns="http://www.w3.org/2000/svg" xmlns:xlink="http://www.w3.org/1999/xlink">
<g id="graph0" class="graph" transform="scale(1 1) rotate(0) translate(4 506.44)">
<polygon fill="white" stroke="transparent" points="-4,4 -4,-506.44 1944.61,-506.44 1944.61,4 -4,4"/>
<!-- ecao:0106280 -->
<g id="node1" class="node">
<title>ecao:0106280</title>
<ellipse fill="none" stroke="orange" cx="716.27" cy="-475.57" rx="165.43" ry="26.74"/>
<text text-anchor="middle" x="716.27" y="-479.37" font-family="Times,serif" font-size="14.00">ventral skeletogenic mesenchyme chain</text>
<text text-anchor="middle" x="716.27" y="-464.37" font-family="Times,serif" font-size="14.00">ecao:0106280</text>
</g>
<!-- caro:0000000 -->
<g id="node2" class="node">
<title>caro:0000000</title>
<ellipse fill="none" stroke="blue" cx="445.27" cy="-385.83" rx="78.48" ry="26.74"/>
<text text-anchor="middle" x="445.27" y="-389.63" font-family="Times,serif" font-size="14.00">anatomical entity</text>
<text text-anchor="middle" x="445.27" y="-374.63" font-family="Times,serif" font-size="14.00">caro:0000000</text>
</g>
<!-- ecao:0106280&#45;&gt;caro:0000000 -->
<g id="edge1" class="edge">
<title>ecao:0106280&#45;&gt;caro:0000000</title>
<path fill="none" stroke="black" d="M644.36,-451.29C602.92,-437.87 551.24,-421.14 510.91,-408.08"/>
<polygon fill="black" stroke="black" points="511.77,-404.68 501.18,-404.93 509.62,-411.34 511.77,-404.68"/>
</g>
<!-- ecao:0104070 -->
<g id="node3" class="node">
<title>ecao:0104070</title>
<ellipse fill="none" stroke="orange" cx="673.27" cy="-385.83" rx="89.19" ry="26.74"/>
<text text-anchor="middle" x="673.27" y="-389.63" font-family="Times,serif" font-size="14.00">embryonic structure</text>
<text text-anchor="middle" x="673.27" y="-374.63" font-family="Times,serif" font-size="14.00">ecao:0104070</text>
</g>
<!-- ecao:0106280&#45;&gt;ecao:0104070 -->
<g id="edge2" class="edge">
<title>ecao:0106280&#45;&gt;ecao:0104070</title>
<path fill="none" stroke="black" d="M703.6,-448.72C699.44,-440.24 694.75,-430.68 690.33,-421.65"/>
<polygon fill="black" stroke="black" points="693.39,-419.94 685.85,-412.5 687.1,-423.02 693.39,-419.94"/>
</g>
<!-- caro:0030000 -->
<g id="node12" class="node">
<title>caro:0030000</title>
<ellipse fill="none" stroke="black" cx="526.27" cy="-296.09" rx="74.49" ry="26.74"/>
<text text-anchor="middle" x="526.27" y="-299.89" font-family="Times,serif" font-size="14.00">biological entity</text>
<text text-anchor="middle" x="526.27" y="-284.89" font-family="Times,serif" font-size="14.00">caro:0030000</text>
</g>
<!-- caro:0000000&#45;&gt;caro:0030000 -->
<g id="edge8" class="edge">
<title>caro:0000000&#45;&gt;caro:0030000</title>
<path fill="none" stroke="black" d="M468.26,-359.92C477.06,-350.39 487.22,-339.39 496.55,-329.28"/>
<polygon fill="black" stroke="black" points="499.28,-331.48 503.5,-321.76 494.14,-326.73 499.28,-331.48"/>
</g>
<!-- bfo:0000004 -->
<g id="node13" class="node">
<title>bfo:0000004</title>
<ellipse fill="none" stroke="blue" cx="684.27" cy="-206.35" rx="101.23" ry="26.74"/>
<text text-anchor="middle" x="684.27" y="-210.15" font-family="Times,serif" font-size="14.00">independent continuant</text>
<text text-anchor="middle" x="684.27" y="-195.15" font-family="Times,serif" font-size="14.00">bfo:0000004</text>
</g>
<!-- ecao:0104070&#45;&gt;bfo:0000004 -->
<g id="edge30" class="edge">
<title>ecao:0104070&#45;&gt;bfo:0000004</title>
<path fill="none" stroke="black" d="M664.18,-358.94C657.17,-335.39 649.68,-299.76 656.27,-269.22 658.22,-260.18 661.6,-250.86 665.36,-242.3"/>
<polygon fill="black" stroke="black" points="668.64,-243.54 669.71,-233 662.3,-240.58 668.64,-243.54"/>
</g>
<!-- ecao:0000450 -->
<g id="node4" class="node">
<title>ecao:0000450</title>
<ellipse fill="none" stroke="orange" cx="1401.27" cy="-475.57" rx="111.03" ry="26.74"/>
<text text-anchor="middle" x="1401.27" y="-479.37" font-family="Times,serif" font-size="14.00">early feeding larva period</text>
<text text-anchor="middle" x="1401.27" y="-464.37" font-family="Times,serif" font-size="14.00">ecao:0000450</text>
</g>
<!-- ecao:0000440 -->
<g id="node5" class="node">
<title>ecao:0000440</title>
<ellipse fill="none" stroke="orange" cx="1401.27" cy="-385.83" rx="86.03" ry="26.74"/>
<text text-anchor="middle" x="1401.27" y="-389.63" font-family="Times,serif" font-size="14.00">larval development</text>
<text text-anchor="middle" x="1401.27" y="-374.63" font-family="Times,serif" font-size="14.00">ecao:0000440</text>
</g>
<!-- ecao:0000450&#45;&gt;ecao:0000440 -->
<g id="edge3" class="edge">
<title>ecao:0000450&#45;&gt;ecao:0000440</title>
<path fill="none" stroke="blue" d="M1401.27,-448.25C1401.27,-440.28 1401.27,-431.39 1401.27,-422.9"/>
<polygon fill="blue" stroke="blue" points="1404.77,-422.83 1401.27,-412.83 1397.77,-422.83 1404.77,-422.83"/>
</g>
<!-- uberon:0000105 -->
<g id="node6" class="node">
<title>uberon:0000105</title>
<ellipse fill="none" stroke="blue" cx="1040.27" cy="-296.09" rx="74.49" ry="26.74"/>
<text text-anchor="middle" x="1040.27" y="-299.89" font-family="Times,serif" font-size="14.00">life cycle stage</text>
<text text-anchor="middle" x="1040.27" y="-284.89" font-family="Times,serif" font-size="14.00">uberon:0000105</text>
</g>
<!-- ecao:0000450&#45;&gt;uberon:0000105 -->
<g id="edge4" class="edge">
<title>ecao:0000450&#45;&gt;uberon:0000105</title>
<path fill="none" stroke="black" d="M1292.34,-470.12C1138.91,-462.72 874.49,-445.36 845.27,-412.7 829.34,-394.9 831.16,-378.23 845.27,-358.96 847.3,-356.18 918.74,-333.97 974.56,-316.95"/>
<polygon fill="black" stroke="black" points="975.88,-320.21 984.43,-313.94 973.84,-313.51 975.88,-320.21"/>
</g>
<!-- bfo:0000003 -->
<g id="node7" class="node">
<title>bfo:0000003</title>
<ellipse fill="none" stroke="blue" cx="1458.27" cy="-296.09" rx="60.62" ry="26.74"/>
<text text-anchor="middle" x="1458.27" y="-299.89" font-family="Times,serif" font-size="14.00">occurrent</text>
<text text-anchor="middle" x="1458.27" y="-284.89" font-family="Times,serif" font-size="14.00">bfo:0000003</text>
</g>
<!-- ecao:0000450&#45;&gt;bfo:0000003 -->
<g id="edge5" class="edge">
<title>ecao:0000450&#45;&gt;bfo:0000003</title>
<path fill="none" stroke="black" d="M1455.16,-452.04C1471.33,-442.43 1487.17,-429.48 1496.27,-412.7 1510.37,-386.68 1497.66,-354.51 1483.25,-330.72"/>
<polygon fill="black" stroke="black" points="1486.04,-328.58 1477.7,-322.04 1480.14,-332.35 1486.04,-328.58"/>
</g>
<!-- ecao:0000440&#45;&gt;bfo:0000003 -->
<g id="edge14" class="edge">
<title>ecao:0000440&#45;&gt;bfo:0000003</title>
<path fill="none" stroke="black" d="M1417.75,-359.45C1423.59,-350.46 1430.26,-340.2 1436.47,-330.64"/>
<polygon fill="black" stroke="black" points="1439.5,-332.4 1442.01,-322.11 1433.63,-328.59 1439.5,-332.4"/>
</g>
<!-- ecao:0000010 -->
<g id="node10" class="node">
<title>ecao:0000010</title>
<ellipse fill="none" stroke="red" cx="1208.27" cy="-296.09" rx="74.49" ry="26.74"/>
<text text-anchor="middle" x="1208.27" y="-299.89" font-family="Times,serif" font-size="14.00">life cycle period</text>
<text text-anchor="middle" x="1208.27" y="-284.89" font-family="Times,serif" font-size="14.00">ecao:0000010</text>
</g>
<!-- ecao:0000440&#45;&gt;ecao:0000010 -->
<g id="edge13" class="edge">
<title>ecao:0000440&#45;&gt;ecao:0000010</title>
<path fill="none" stroke="blue" d="M1353.56,-363.14C1326.08,-350.65 1291.44,-334.9 1262.87,-321.91"/>
<polygon fill="blue" stroke="blue" points="1263.99,-318.58 1253.44,-317.63 1261.09,-324.95 1263.99,-318.58"/>
</g>
<!-- uberon:0000104 -->
<g id="node8" class="node">
<title>uberon:0000104</title>
<ellipse fill="none" stroke="black" cx="989.27" cy="-206.35" rx="74.49" ry="26.74"/>
<text text-anchor="middle" x="989.27" y="-210.15" font-family="Times,serif" font-size="14.00">life cycle</text>
<text text-anchor="middle" x="989.27" y="-195.15" font-family="Times,serif" font-size="14.00">uberon:0000104</text>
</g>
<!-- uberon:0000105&#45;&gt;uberon:0000104 -->
<g id="edge15" class="edge">
<title>uberon:0000105&#45;&gt;uberon:0000104</title>
<path fill="none" stroke="blue" d="M1025.52,-269.71C1020.43,-260.97 1014.65,-251.02 1009.22,-241.68"/>
<polygon fill="blue" stroke="blue" points="1012.21,-239.86 1004.16,-232.98 1006.16,-243.38 1012.21,-239.86"/>
</g>
<!-- uberon:0000000 -->
<g id="node9" class="node">
<title>uberon:0000000</title>
<ellipse fill="none" stroke="black" cx="1040.27" cy="-116.61" rx="76.24" ry="26.74"/>
<text text-anchor="middle" x="1040.27" y="-120.41" font-family="Times,serif" font-size="14.00">processual entity</text>
<text text-anchor="middle" x="1040.27" y="-105.41" font-family="Times,serif" font-size="14.00">uberon:0000000</text>
</g>
<!-- uberon:0000105&#45;&gt;uberon:0000000 -->
<g id="edge16" class="edge">
<title>uberon:0000105&#45;&gt;uberon:0000000</title>
<path fill="none" stroke="black" d="M1056.89,-269.69C1063,-258.9 1069.18,-245.91 1072.27,-233.22 1077.91,-210.01 1077.91,-202.69 1072.27,-179.48 1070,-170.16 1066.07,-160.68 1061.72,-152.03"/>
<polygon fill="black" stroke="black" points="1064.7,-150.18 1056.89,-143.01 1058.52,-153.48 1064.7,-150.18"/>
</g>
<!-- uberon:0000104&#45;&gt;uberon:0000000 -->
<g id="edge6" class="edge">
<title>uberon:0000104&#45;&gt;uberon:0000000</title>
<path fill="none" stroke="black" d="M1004.02,-179.97C1009.1,-171.23 1014.88,-161.28 1020.31,-151.94"/>
<polygon fill="black" stroke="black" points="1023.37,-153.64 1025.37,-143.24 1017.32,-150.12 1023.37,-153.64"/>
</g>
<!-- ecao:0105140 -->
<g id="node11" class="node">
<title>ecao:0105140</title>
<ellipse fill="none" stroke="orange" cx="86.27" cy="-475.57" rx="86.03" ry="26.74"/>
<text text-anchor="middle" x="86.27" y="-479.37" font-family="Times,serif" font-size="14.00">vegetal tier 2 lower</text>
<text text-anchor="middle" x="86.27" y="-464.37" font-family="Times,serif" font-size="14.00">ecao:0105140</text>
</g>
<!-- ecao:0105140&#45;&gt;caro:0000000 -->
<g id="edge7" class="edge">
<title>ecao:0105140&#45;&gt;caro:0000000</title>
<path fill="none" stroke="black" d="M149.04,-457.14C159.77,-454.25 170.83,-451.34 181.27,-448.7 245.04,-432.55 317.85,-415.6 370.84,-403.53"/>
<polygon fill="black" stroke="black" points="371.85,-406.89 380.83,-401.26 370.3,-400.06 371.85,-406.89"/>
</g>
<!-- caro:0030000&#45;&gt;bfo:0000004 -->
<g id="edge24" class="edge">
<title>caro:0030000&#45;&gt;bfo:0000004</title>
<path fill="none" stroke="black" d="M565.73,-273.18C586.13,-261.84 611.28,-247.88 633.16,-235.73"/>
<polygon fill="black" stroke="black" points="634.95,-238.74 641.99,-230.83 631.55,-232.62 634.95,-238.74"/>
</g>
<!-- bfo:0000002 -->
<g id="node14" class="node">
<title>bfo:0000002</title>
<ellipse fill="none" stroke="black" cx="684.27" cy="-116.61" rx="60.62" ry="26.74"/>
<text text-anchor="middle" x="684.27" y="-120.41" font-family="Times,serif" font-size="14.00">continuant</text>
<text text-anchor="middle" x="684.27" y="-105.41" font-family="Times,serif" font-size="14.00">bfo:0000002</text>
</g>
<!-- bfo:0000004&#45;&gt;bfo:0000002 -->
<g id="edge9" class="edge">
<title>bfo:0000004&#45;&gt;bfo:0000002</title>
<path fill="none" stroke="black" d="M684.27,-179.03C684.27,-171.06 684.27,-162.17 684.27,-153.68"/>
<polygon fill="black" stroke="black" points="687.77,-153.61 684.27,-143.61 680.77,-153.61 687.77,-153.61"/>
</g>
<!-- bfo:0000001 -->
<g id="node19" class="node">
<title>bfo:0000001</title>
<ellipse fill="none" stroke="black" cx="684.27" cy="-26.87" rx="60.62" ry="26.74"/>
<text text-anchor="middle" x="684.27" y="-30.67" font-family="Times,serif" font-size="14.00">entity</text>
<text text-anchor="middle" x="684.27" y="-15.67" font-family="Times,serif" font-size="14.00">bfo:0000001</text>
</g>
<!-- bfo:0000002&#45;&gt;bfo:0000001 -->
<g id="edge22" class="edge">
<title>bfo:0000002&#45;&gt;bfo:0000001</title>
<path fill="none" stroke="black" d="M684.27,-89.29C684.27,-81.32 684.27,-72.43 684.27,-63.94"/>
<polygon fill="black" stroke="black" points="687.77,-63.87 684.27,-53.87 680.77,-63.87 687.77,-63.87"/>
</g>
<!-- ecao:0000130 -->
<g id="node15" class="node">
<title>ecao:0000130</title>
<ellipse fill="none" stroke="orange" cx="1227.27" cy="-385.83" rx="69.09" ry="26.74"/>
<text text-anchor="middle" x="1227.27" y="-389.63" font-family="Times,serif" font-size="14.00">embryogenesis</text>
<text text-anchor="middle" x="1227.27" y="-374.63" font-family="Times,serif" font-size="14.00">ecao:0000130</text>
</g>
<!-- ecao:0000130&#45;&gt;uberon:0000105 -->
<g id="edge11" class="edge">
<title>ecao:0000130&#45;&gt;uberon:0000105</title>
<path fill="none" stroke="black" d="M1184.37,-364.7C1157.32,-352.01 1122.18,-335.52 1093.38,-322.01"/>
<polygon fill="black" stroke="black" points="1094.81,-318.81 1084.27,-317.74 1091.83,-325.15 1094.81,-318.81"/>
</g>
<!-- ecao:0000130&#45;&gt;bfo:0000003 -->
<g id="edge12" class="edge">
<title>ecao:0000130&#45;&gt;bfo:0000003</title>
<path fill="none" stroke="black" d="M1275.69,-366.44C1313.01,-352.26 1364.63,-332.66 1403.46,-317.91"/>
<polygon fill="black" stroke="black" points="1404.94,-321.09 1413.04,-314.27 1402.45,-314.55 1404.94,-321.09"/>
</g>
<!-- ecao:0000130&#45;&gt;ecao:0000010 -->
<g id="edge10" class="edge">
<title>ecao:0000130&#45;&gt;ecao:0000010</title>
<path fill="none" stroke="blue" d="M1221.67,-358.98C1219.91,-350.84 1217.93,-341.7 1216.04,-333"/>
<polygon fill="blue" stroke="blue" points="1219.43,-332.09 1213.89,-323.06 1212.59,-333.57 1219.43,-332.09"/>
</g>
<!-- ecao:0103500 -->
<g id="node16" class="node">
<title>ecao:0103500</title>
<ellipse fill="none" stroke="red" cx="1847.27" cy="-475.57" rx="93.18" ry="26.74"/>
<text text-anchor="middle" x="1847.27" y="-479.37" font-family="Times,serif" font-size="14.00">echinoderm anatomy</text>
<text text-anchor="middle" x="1847.27" y="-464.37" font-family="Times,serif" font-size="14.00">ecao:0103500</text>
</g>
<!-- ecao:0000020 -->
<g id="node17" class="node">
<title>ecao:0000020</title>
<ellipse fill="none" stroke="orange" cx="923.27" cy="-385.83" rx="68.68" ry="26.74"/>
<text text-anchor="middle" x="923.27" y="-389.63" font-family="Times,serif" font-size="14.00">gametogenesis</text>
<text text-anchor="middle" x="923.27" y="-374.63" font-family="Times,serif" font-size="14.00">ecao:0000020</text>
</g>
<!-- ecao:0000020&#45;&gt;uberon:0000105 -->
<g id="edge18" class="edge">
<title>ecao:0000020&#45;&gt;uberon:0000105</title>
<path fill="none" stroke="black" d="M954.01,-361.78C968.29,-351.07 985.44,-338.2 1000.68,-326.78"/>
<polygon fill="black" stroke="black" points="1003.02,-329.4 1008.92,-320.6 998.82,-323.8 1003.02,-329.4"/>
</g>
<!-- ecao:0000020&#45;&gt;ecao:0000010 -->
<g id="edge17" class="edge">
<title>ecao:0000020&#45;&gt;ecao:0000010</title>
<path fill="none" stroke="blue" d="M974.38,-367.61C983.32,-364.67 992.55,-361.69 1001.27,-358.96 1055.22,-342.06 1069.11,-339.19 1123.27,-322.96 1129.62,-321.06 1136.24,-319.06 1142.85,-317.06"/>
<polygon fill="blue" stroke="blue" points="1143.95,-320.39 1152.51,-314.14 1141.92,-313.69 1143.95,-320.39"/>
</g>
<!-- ecao:0000530 -->
<g id="node18" class="node">
<title>ecao:0000530</title>
<ellipse fill="none" stroke="orange" cx="1075.27" cy="-385.83" rx="65.11" ry="26.74"/>
<text text-anchor="middle" x="1075.27" y="-389.63" font-family="Times,serif" font-size="14.00">adulthood</text>
<text text-anchor="middle" x="1075.27" y="-374.63" font-family="Times,serif" font-size="14.00">ecao:0000530</text>
</g>
<!-- ecao:0000530&#45;&gt;uberon:0000105 -->
<g id="edge20" class="edge">
<title>ecao:0000530&#45;&gt;uberon:0000105</title>
<path fill="none" stroke="black" d="M1064.96,-358.98C1061.61,-350.59 1057.84,-341.14 1054.27,-332.19"/>
<polygon fill="black" stroke="black" points="1057.46,-330.75 1050.51,-322.76 1050.96,-333.34 1057.46,-330.75"/>
</g>
<!-- ecao:0000530&#45;&gt;bfo:0000003 -->
<g id="edge21" class="edge">
<title>ecao:0000530&#45;&gt;bfo:0000003</title>
<path fill="none" stroke="black" d="M1122.73,-367.15C1131.49,-364.2 1140.6,-361.33 1149.27,-358.96 1231.62,-336.44 1328.4,-318.38 1391.41,-307.72"/>
<polygon fill="black" stroke="black" points="1392.33,-311.11 1401.62,-306.01 1391.17,-304.21 1392.33,-311.11"/>
</g>
<!-- ecao:0000530&#45;&gt;ecao:0000010 -->
<g id="edge19" class="edge">
<title>ecao:0000530&#45;&gt;ecao:0000010</title>
<path fill="none" stroke="blue" d="M1108.83,-362.69C1125.76,-351.52 1146.5,-337.84 1164.65,-325.87"/>
<polygon fill="blue" stroke="blue" points="1166.9,-328.57 1173.32,-320.14 1163.05,-322.73 1166.9,-328.57"/>
</g>
<!-- ecao:0105460 -->
<g id="node20" class="node">
<title>ecao:0105460</title>
<ellipse fill="none" stroke="orange" cx="730.27" cy="-296.09" rx="65.11" ry="26.74"/>
<text text-anchor="middle" x="730.27" y="-299.89" font-family="Times,serif" font-size="14.00">ciliary band</text>
<text text-anchor="middle" x="730.27" y="-284.89" font-family="Times,serif" font-size="14.00">ecao:0105460</text>
</g>
<!-- ecao:0105460&#45;&gt;bfo:0000004 -->
<g id="edge23" class="edge">
<title>ecao:0105460&#45;&gt;bfo:0000004</title>
<path fill="none" stroke="black" d="M716.96,-269.71C712.46,-261.13 707.36,-251.4 702.55,-242.22"/>
<polygon fill="black" stroke="black" points="705.6,-240.51 697.86,-233.28 699.4,-243.76 705.6,-240.51"/>
</g>
<!-- ecao:0104040 -->
<g id="node21" class="node">
<title>ecao:0104040</title>
<ellipse fill="none" stroke="orange" cx="878.27" cy="-296.09" rx="65.11" ry="26.74"/>
<text text-anchor="middle" x="878.27" y="-299.89" font-family="Times,serif" font-size="14.00">cell part</text>
<text text-anchor="middle" x="878.27" y="-284.89" font-family="Times,serif" font-size="14.00">ecao:0104040</text>
</g>
<!-- ecao:0104040&#45;&gt;bfo:0000004 -->
<g id="edge25" class="edge">
<title>ecao:0104040&#45;&gt;bfo:0000004</title>
<path fill="none" stroke="black" d="M835.21,-275.62C808.22,-263.41 773.05,-247.5 743.45,-234.12"/>
<polygon fill="black" stroke="black" points="744.61,-230.8 734.05,-229.87 741.72,-237.18 744.61,-230.8"/>
</g>
<!-- ecao:0000560 -->
<g id="node22" class="node">
<title>ecao:0000560</title>
<ellipse fill="none" stroke="orange" cx="1624.27" cy="-385.83" rx="81.13" ry="26.74"/>
<text text-anchor="middle" x="1624.27" y="-389.63" font-family="Times,serif" font-size="14.00">late juvenile stage</text>
<text text-anchor="middle" x="1624.27" y="-374.63" font-family="Times,serif" font-size="14.00">ecao:0000560</text>
</g>
<!-- ecao:0000560&#45;&gt;bfo:0000003 -->
<g id="edge26" class="edge">
<title>ecao:0000560&#45;&gt;bfo:0000003</title>
<path fill="none" stroke="black" d="M1582.38,-362.69C1558.87,-350.27 1529.48,-334.73 1505.2,-321.9"/>
<polygon fill="black" stroke="black" points="1506.65,-318.7 1496.17,-317.12 1503.37,-324.89 1506.65,-318.7"/>
</g>
<!-- ecao:0106410 -->
<g id="node23" class="node">
<title>ecao:0106410</title>
<ellipse fill="none" stroke="orange" cx="361.27" cy="-475.57" rx="171.24" ry="26.74"/>
<text text-anchor="middle" x="361.27" y="-479.37" font-family="Times,serif" font-size="14.00">larval non&#45;skeletogenic mesenchyme cell</text>
<text text-anchor="middle" x="361.27" y="-464.37" font-family="Times,serif" font-size="14.00">ecao:0106410</text>
</g>
<!-- ecao:0106410&#45;&gt;caro:0000000 -->
<g id="edge27" class="edge">
<title>ecao:0106410&#45;&gt;caro:0000000</title>
<path fill="none" stroke="black" d="M386.02,-448.72C394.96,-439.37 405.17,-428.71 414.57,-418.9"/>
<polygon fill="black" stroke="black" points="417.17,-421.24 421.56,-411.59 412.12,-416.4 417.17,-421.24"/>
</g>
<!-- ecao:0000320 -->
<g id="node24" class="node">
<title>ecao:0000320</title>
<ellipse fill="none" stroke="orange" cx="1666.27" cy="-475.57" rx="69.09" ry="26.74"/>
<text text-anchor="middle" x="1666.27" y="-479.37" font-family="Times,serif" font-size="14.00">gastrula period</text>
<text text-anchor="middle" x="1666.27" y="-464.37" font-family="Times,serif" font-size="14.00">ecao:0000320</text>
</g>
<!-- ecao:0000320&#45;&gt;bfo:0000003 -->
<g id="edge29" class="edge">
<title>ecao:0000320&#45;&gt;bfo:0000003</title>
<path fill="none" stroke="black" d="M1690.13,-449.98C1711.34,-425.09 1735.91,-386.45 1714.27,-358.96 1691.37,-329.87 1595,-312.83 1527.28,-304.23"/>
<polygon fill="black" stroke="black" points="1527.44,-300.72 1517.09,-302.97 1526.59,-307.67 1527.44,-300.72"/>
</g>
<!-- ecao:0000320&#45;&gt;ecao:0000130 -->
<g id="edge28" class="edge">
<title>ecao:0000320&#45;&gt;ecao:0000130</title>
<path fill="none" stroke="blue" d="M1604.2,-463.35C1578.54,-458.75 1548.48,-453.41 1521.27,-448.7 1425.8,-432.19 1400.35,-435.84 1306.27,-412.7 1300.11,-411.18 1293.73,-409.43 1287.4,-407.55"/>
<polygon fill="blue" stroke="blue" points="1288.1,-404.11 1277.51,-404.54 1286.05,-410.8 1288.1,-404.11"/>
</g>
</g>
</svg>
