<?xml version="1.0" encoding="UTF-8" standalone="no"?>
<!DOCTYPE svg PUBLIC "-//W3C//DTD SVG 1.1//EN"
 "http://www.w3.org/Graphics/SVG/1.1/DTD/svg11.dtd">
<!-- Generated by graphviz version 3.0.0 (20220226.1711)
 -->
<!-- Pages: 1 -->
<svg width="1970pt" height="510pt"
 viewBox="0.00 0.00 1970.46 510.44" xmlns="http://www.w3.org/2000/svg" xmlns:xlink="http://www.w3.org/1999/xlink">
<g id="graph0" class="graph" transform="scale(1 1) rotate(0) translate(4 506.44)">
<polygon fill="white" stroke="transparent" points="-4,4 -4,-506.44 1966.46,-506.44 1966.46,4 -4,4"/>
<!-- ecao:0106410 -->
<g id="node1" class="node">
<title>ecao:0106410</title>
<ellipse fill="none" stroke="red" cx="171.12" cy="-475.57" rx="171.24" ry="26.74"/>
<text text-anchor="middle" x="171.12" y="-479.37" font-family="Times,serif" font-size="14.00">larval non&#45;skeletogenic mesenchyme cell</text>
<text text-anchor="middle" x="171.12" y="-464.37" font-family="Times,serif" font-size="14.00">ecao:0106410</text>
</g>
<!-- caro:0000000 -->
<g id="node2" class="node">
<title>caro:0000000</title>
<ellipse fill="none" stroke="blue" cx="488.12" cy="-385.83" rx="78.48" ry="26.74"/>
<text text-anchor="middle" x="488.12" y="-389.63" font-family="Times,serif" font-size="14.00">anatomical entity</text>
<text text-anchor="middle" x="488.12" y="-374.63" font-family="Times,serif" font-size="14.00">caro:0000000</text>
</g>
<!-- ecao:0106410&#45;&gt;caro:0000000 -->
<g id="edge1" class="edge">
<title>ecao:0106410&#45;&gt;caro:0000000</title>
<path fill="none" stroke="black" d="M253.17,-451.86C304.48,-437.66 369.86,-419.56 418.61,-406.07"/>
<polygon fill="black" stroke="black" points="419.74,-409.39 428.44,-403.35 417.87,-402.64 419.74,-409.39"/>
</g>
<!-- caro:0030000 -->
<g id="node14" class="node">
<title>caro:0030000</title>
<ellipse fill="none" stroke="black" cx="548.12" cy="-296.09" rx="74.49" ry="26.74"/>
<text text-anchor="middle" x="548.12" y="-299.89" font-family="Times,serif" font-size="14.00">biological entity</text>
<text text-anchor="middle" x="548.12" y="-284.89" font-family="Times,serif" font-size="14.00">caro:0030000</text>
</g>
<!-- caro:0000000&#45;&gt;caro:0030000 -->
<g id="edge12" class="edge">
<title>caro:0000000&#45;&gt;caro:0030000</title>
<path fill="none" stroke="black" d="M505.47,-359.45C511.57,-350.54 518.52,-340.38 525.01,-330.89"/>
<polygon fill="black" stroke="black" points="528.05,-332.64 530.8,-322.41 522.27,-328.69 528.05,-332.64"/>
</g>
<!-- uberon:0000105 -->
<g id="node3" class="node">
<title>uberon:0000105</title>
<ellipse fill="none" stroke="blue" cx="1062.12" cy="-296.09" rx="74.49" ry="26.74"/>
<text text-anchor="middle" x="1062.12" y="-299.89" font-family="Times,serif" font-size="14.00">life cycle stage</text>
<text text-anchor="middle" x="1062.12" y="-284.89" font-family="Times,serif" font-size="14.00">uberon:0000105</text>
</g>
<!-- uberon:0000000 -->
<g id="node4" class="node">
<title>uberon:0000000</title>
<ellipse fill="none" stroke="black" cx="1062.12" cy="-116.61" rx="76.24" ry="26.74"/>
<text text-anchor="middle" x="1062.12" y="-120.41" font-family="Times,serif" font-size="14.00">processual entity</text>
<text text-anchor="middle" x="1062.12" y="-105.41" font-family="Times,serif" font-size="14.00">uberon:0000000</text>
</g>
<!-- uberon:0000105&#45;&gt;uberon:0000000 -->
<g id="edge2" class="edge">
<title>uberon:0000105&#45;&gt;uberon:0000000</title>
<path fill="none" stroke="black" d="M1045.5,-269.69C1039.39,-258.9 1033.21,-245.91 1030.12,-233.22 1024.47,-210.01 1024.47,-202.69 1030.12,-179.48 1032.39,-170.16 1036.32,-160.68 1040.67,-152.03"/>
<polygon fill="black" stroke="black" points="1043.86,-153.48 1045.5,-143.01 1037.69,-150.18 1043.86,-153.48"/>
</g>
<!-- uberon:0000104 -->
<g id="node5" class="node">
<title>uberon:0000104</title>
<ellipse fill="none" stroke="black" cx="1113.12" cy="-206.35" rx="74.49" ry="26.74"/>
<text text-anchor="middle" x="1113.12" y="-210.15" font-family="Times,serif" font-size="14.00">life cycle</text>
<text text-anchor="middle" x="1113.12" y="-195.15" font-family="Times,serif" font-size="14.00">uberon:0000104</text>
</g>
<!-- uberon:0000105&#45;&gt;uberon:0000104 -->
<g id="edge3" class="edge">
<title>uberon:0000105&#45;&gt;uberon:0000104</title>
<path fill="none" stroke="blue" d="M1076.87,-269.71C1081.95,-260.97 1087.73,-251.02 1093.16,-241.68"/>
<polygon fill="blue" stroke="blue" points="1096.23,-243.38 1098.22,-232.98 1090.17,-239.86 1096.23,-243.38"/>
</g>
<!-- uberon:0000104&#45;&gt;uberon:0000000 -->
<g id="edge29" class="edge">
<title>uberon:0000104&#45;&gt;uberon:0000000</title>
<path fill="none" stroke="black" d="M1098.37,-179.97C1093.29,-171.23 1087.51,-161.28 1082.08,-151.94"/>
<polygon fill="black" stroke="black" points="1085.07,-150.12 1077.01,-143.24 1079.01,-153.64 1085.07,-150.12"/>
</g>
<!-- bfo:0000001 -->
<g id="node6" class="node">
<title>bfo:0000001</title>
<ellipse fill="none" stroke="black" cx="706.12" cy="-26.87" rx="60.62" ry="26.74"/>
<text text-anchor="middle" x="706.12" y="-30.67" font-family="Times,serif" font-size="14.00">entity</text>
<text text-anchor="middle" x="706.12" y="-15.67" font-family="Times,serif" font-size="14.00">bfo:0000001</text>
</g>
<!-- ecao:0104070 -->
<g id="node7" class="node">
<title>ecao:0104070</title>
<ellipse fill="none" stroke="red" cx="695.12" cy="-385.83" rx="89.19" ry="26.74"/>
<text text-anchor="middle" x="695.12" y="-389.63" font-family="Times,serif" font-size="14.00">embryonic structure</text>
<text text-anchor="middle" x="695.12" y="-374.63" font-family="Times,serif" font-size="14.00">ecao:0104070</text>
</g>
<!-- bfo:0000004 -->
<g id="node8" class="node">
<title>bfo:0000004</title>
<ellipse fill="none" stroke="blue" cx="706.12" cy="-206.35" rx="101.23" ry="26.74"/>
<text text-anchor="middle" x="706.12" y="-210.15" font-family="Times,serif" font-size="14.00">independent continuant</text>
<text text-anchor="middle" x="706.12" y="-195.15" font-family="Times,serif" font-size="14.00">bfo:0000004</text>
</g>
<!-- ecao:0104070&#45;&gt;bfo:0000004 -->
<g id="edge4" class="edge">
<title>ecao:0104070&#45;&gt;bfo:0000004</title>
<path fill="none" stroke="black" d="M686.04,-358.94C679.02,-335.39 671.53,-299.76 678.12,-269.22 680.07,-260.18 683.46,-250.86 687.21,-242.3"/>
<polygon fill="black" stroke="black" points="690.5,-243.54 691.56,-233 684.16,-240.58 690.5,-243.54"/>
</g>
<!-- bfo:0000002 -->
<g id="node20" class="node">
<title>bfo:0000002</title>
<ellipse fill="none" stroke="black" cx="706.12" cy="-116.61" rx="60.62" ry="26.74"/>
<text text-anchor="middle" x="706.12" y="-120.41" font-family="Times,serif" font-size="14.00">continuant</text>
<text text-anchor="middle" x="706.12" y="-105.41" font-family="Times,serif" font-size="14.00">bfo:0000002</text>
</g>
<!-- bfo:0000004&#45;&gt;bfo:0000002 -->
<g id="edge30" class="edge">
<title>bfo:0000004&#45;&gt;bfo:0000002</title>
<path fill="none" stroke="black" d="M706.12,-179.03C706.12,-171.06 706.12,-162.17 706.12,-153.68"/>
<polygon fill="black" stroke="black" points="709.62,-153.61 706.12,-143.61 702.62,-153.61 709.62,-153.61"/>
</g>
<!-- bfo:0000003 -->
<g id="node9" class="node">
<title>bfo:0000003</title>
<ellipse fill="none" stroke="blue" cx="1480.12" cy="-296.09" rx="60.62" ry="26.74"/>
<text text-anchor="middle" x="1480.12" y="-299.89" font-family="Times,serif" font-size="14.00">occurrent</text>
<text text-anchor="middle" x="1480.12" y="-284.89" font-family="Times,serif" font-size="14.00">bfo:0000003</text>
</g>
<!-- ecao:0000020 -->
<g id="node10" class="node">
<title>ecao:0000020</title>
<ellipse fill="none" stroke="red" cx="945.12" cy="-385.83" rx="68.68" ry="26.74"/>
<text text-anchor="middle" x="945.12" y="-389.63" font-family="Times,serif" font-size="14.00">gametogenesis</text>
<text text-anchor="middle" x="945.12" y="-374.63" font-family="Times,serif" font-size="14.00">ecao:0000020</text>
</g>
<!-- ecao:0000020&#45;&gt;uberon:0000105 -->
<g id="edge5" class="edge">
<title>ecao:0000020&#45;&gt;uberon:0000105</title>
<path fill="none" stroke="black" d="M975.86,-361.78C990.14,-351.07 1007.3,-338.2 1022.53,-326.78"/>
<polygon fill="black" stroke="black" points="1024.87,-329.4 1030.77,-320.6 1020.67,-323.8 1024.87,-329.4"/>
</g>
<!-- ecao:0000010 -->
<g id="node11" class="node">
<title>ecao:0000010</title>
<ellipse fill="none" stroke="red" cx="1230.12" cy="-296.09" rx="74.49" ry="26.74"/>
<text text-anchor="middle" x="1230.12" y="-299.89" font-family="Times,serif" font-size="14.00">life cycle period</text>
<text text-anchor="middle" x="1230.12" y="-284.89" font-family="Times,serif" font-size="14.00">ecao:0000010</text>
</g>
<!-- ecao:0000020&#45;&gt;ecao:0000010 -->
<g id="edge6" class="edge">
<title>ecao:0000020&#45;&gt;ecao:0000010</title>
<path fill="none" stroke="blue" d="M996.23,-367.61C1005.17,-364.67 1014.41,-361.69 1023.12,-358.96 1077.07,-342.06 1090.97,-339.19 1145.12,-322.96 1151.47,-321.06 1158.09,-319.06 1164.7,-317.06"/>
<polygon fill="blue" stroke="blue" points="1165.8,-320.39 1174.36,-314.14 1163.77,-313.69 1165.8,-320.39"/>
</g>
<!-- ecao:0000450 -->
<g id="node12" class="node">
<title>ecao:0000450</title>
<ellipse fill="none" stroke="red" cx="1423.12" cy="-475.57" rx="111.03" ry="26.74"/>
<text text-anchor="middle" x="1423.12" y="-479.37" font-family="Times,serif" font-size="14.00">early feeding larva period</text>
<text text-anchor="middle" x="1423.12" y="-464.37" font-family="Times,serif" font-size="14.00">ecao:0000450</text>
</g>
<!-- ecao:0000450&#45;&gt;uberon:0000105 -->
<g id="edge7" class="edge">
<title>ecao:0000450&#45;&gt;uberon:0000105</title>
<path fill="none" stroke="black" d="M1314.19,-470.12C1160.77,-462.72 896.35,-445.36 867.12,-412.7 851.19,-394.9 853.01,-378.23 867.12,-358.96 869.16,-356.18 940.59,-333.97 996.41,-316.95"/>
<polygon fill="black" stroke="black" points="997.73,-320.21 1006.28,-313.94 995.69,-313.51 997.73,-320.21"/>
</g>
<!-- ecao:0000450&#45;&gt;bfo:0000003 -->
<g id="edge8" class="edge">
<title>ecao:0000450&#45;&gt;bfo:0000003</title>
<path fill="none" stroke="black" d="M1477.01,-452.04C1493.18,-442.43 1509.02,-429.48 1518.12,-412.7 1532.23,-386.68 1519.51,-354.51 1505.11,-330.72"/>
<polygon fill="black" stroke="black" points="1507.89,-328.58 1499.56,-322.04 1502,-332.35 1507.89,-328.58"/>
</g>
<!-- ecao:0000440 -->
<g id="node13" class="node">
<title>ecao:0000440</title>
<ellipse fill="none" stroke="red" cx="1423.12" cy="-385.83" rx="86.03" ry="26.74"/>
<text text-anchor="middle" x="1423.12" y="-389.63" font-family="Times,serif" font-size="14.00">larval development</text>
<text text-anchor="middle" x="1423.12" y="-374.63" font-family="Times,serif" font-size="14.00">ecao:0000440</text>
</g>
<!-- ecao:0000450&#45;&gt;ecao:0000440 -->
<g id="edge9" class="edge">
<title>ecao:0000450&#45;&gt;ecao:0000440</title>
<path fill="none" stroke="blue" d="M1423.12,-448.25C1423.12,-440.28 1423.12,-431.39 1423.12,-422.9"/>
<polygon fill="blue" stroke="blue" points="1426.62,-422.83 1423.12,-412.83 1419.62,-422.83 1426.62,-422.83"/>
</g>
<!-- ecao:0000440&#45;&gt;bfo:0000003 -->
<g id="edge10" class="edge">
<title>ecao:0000440&#45;&gt;bfo:0000003</title>
<path fill="none" stroke="black" d="M1439.61,-359.45C1445.45,-350.46 1452.11,-340.2 1458.32,-330.64"/>
<polygon fill="black" stroke="black" points="1461.35,-332.4 1463.87,-322.11 1455.48,-328.59 1461.35,-332.4"/>
</g>
<!-- ecao:0000440&#45;&gt;ecao:0000010 -->
<g id="edge11" class="edge">
<title>ecao:0000440&#45;&gt;ecao:0000010</title>
<path fill="none" stroke="blue" d="M1375.41,-363.14C1347.93,-350.65 1313.29,-334.9 1284.72,-321.91"/>
<polygon fill="blue" stroke="blue" points="1285.84,-318.58 1275.29,-317.63 1282.94,-324.95 1285.84,-318.58"/>
</g>
<!-- caro:0030000&#45;&gt;bfo:0000004 -->
<g id="edge18" class="edge">
<title>caro:0030000&#45;&gt;bfo:0000004</title>
<path fill="none" stroke="black" d="M587.58,-273.18C607.99,-261.84 633.13,-247.88 655.01,-235.73"/>
<polygon fill="black" stroke="black" points="656.8,-238.74 663.84,-230.83 653.4,-232.62 656.8,-238.74"/>
</g>
<!-- ecao:0000530 -->
<g id="node15" class="node">
<title>ecao:0000530</title>
<ellipse fill="none" stroke="red" cx="1097.12" cy="-385.83" rx="65.11" ry="26.74"/>
<text text-anchor="middle" x="1097.12" y="-389.63" font-family="Times,serif" font-size="14.00">adulthood</text>
<text text-anchor="middle" x="1097.12" y="-374.63" font-family="Times,serif" font-size="14.00">ecao:0000530</text>
</g>
<!-- ecao:0000530&#45;&gt;uberon:0000105 -->
<g id="edge13" class="edge">
<title>ecao:0000530&#45;&gt;uberon:0000105</title>
<path fill="none" stroke="black" d="M1086.81,-358.98C1083.46,-350.59 1079.69,-341.14 1076.12,-332.19"/>
<polygon fill="black" stroke="black" points="1079.31,-330.75 1072.36,-322.76 1072.81,-333.34 1079.31,-330.75"/>
</g>
<!-- ecao:0000530&#45;&gt;bfo:0000003 -->
<g id="edge14" class="edge">
<title>ecao:0000530&#45;&gt;bfo:0000003</title>
<path fill="none" stroke="black" d="M1144.58,-367.15C1153.34,-364.2 1162.46,-361.33 1171.12,-358.96 1253.48,-336.44 1350.26,-318.38 1413.27,-307.72"/>
<polygon fill="black" stroke="black" points="1414.19,-311.11 1423.47,-306.01 1413.03,-304.21 1414.19,-311.11"/>
</g>
<!-- ecao:0000530&#45;&gt;ecao:0000010 -->
<g id="edge15" class="edge">
<title>ecao:0000530&#45;&gt;ecao:0000010</title>
<path fill="none" stroke="blue" d="M1130.68,-362.69C1147.61,-351.52 1168.35,-337.84 1186.5,-325.87"/>
<polygon fill="blue" stroke="blue" points="1188.76,-328.57 1195.18,-320.14 1184.9,-322.73 1188.76,-328.57"/>
</g>
<!-- ecao:0104040 -->
<g id="node16" class="node">
<title>ecao:0104040</title>
<ellipse fill="none" stroke="red" cx="752.12" cy="-296.09" rx="65.11" ry="26.74"/>
<text text-anchor="middle" x="752.12" y="-299.89" font-family="Times,serif" font-size="14.00">cell part</text>
<text text-anchor="middle" x="752.12" y="-284.89" font-family="Times,serif" font-size="14.00">ecao:0104040</text>
</g>
<!-- ecao:0104040&#45;&gt;bfo:0000004 -->
<g id="edge16" class="edge">
<title>ecao:0104040&#45;&gt;bfo:0000004</title>
<path fill="none" stroke="black" d="M738.81,-269.71C734.32,-261.13 729.21,-251.4 724.4,-242.22"/>
<polygon fill="black" stroke="black" points="727.46,-240.51 719.71,-233.28 721.26,-243.76 727.46,-240.51"/>
</g>
<!-- ecao:0105140 -->
<g id="node17" class="node">
<title>ecao:0105140</title>
<ellipse fill="none" stroke="red" cx="446.12" cy="-475.57" rx="86.03" ry="26.74"/>
<text text-anchor="middle" x="446.12" y="-479.37" font-family="Times,serif" font-size="14.00">vegetal tier 2 lower</text>
<text text-anchor="middle" x="446.12" y="-464.37" font-family="Times,serif" font-size="14.00">ecao:0105140</text>
</g>
<!-- ecao:0105140&#45;&gt;caro:0000000 -->
<g id="edge17" class="edge">
<title>ecao:0105140&#45;&gt;caro:0000000</title>
<path fill="none" stroke="black" d="M458.49,-448.72C462.55,-440.24 467.13,-430.68 471.45,-421.65"/>
<polygon fill="black" stroke="black" points="474.67,-423.03 475.83,-412.5 468.36,-420 474.67,-423.03"/>
</g>
<!-- ecao:0000320 -->
<g id="node18" class="node">
<title>ecao:0000320</title>
<ellipse fill="none" stroke="red" cx="1688.12" cy="-475.57" rx="69.09" ry="26.74"/>
<text text-anchor="middle" x="1688.12" y="-479.37" font-family="Times,serif" font-size="14.00">gastrula period</text>
<text text-anchor="middle" x="1688.12" y="-464.37" font-family="Times,serif" font-size="14.00">ecao:0000320</text>
</g>
<!-- ecao:0000320&#45;&gt;bfo:0000003 -->
<g id="edge19" class="edge">
<title>ecao:0000320&#45;&gt;bfo:0000003</title>
<path fill="none" stroke="black" d="M1711.98,-449.98C1733.2,-425.09 1757.76,-386.45 1736.12,-358.96 1713.22,-329.87 1616.86,-312.83 1549.13,-304.23"/>
<polygon fill="black" stroke="black" points="1549.3,-300.72 1538.94,-302.97 1548.44,-307.67 1549.3,-300.72"/>
</g>
<!-- ecao:0000130 -->
<g id="node19" class="node">
<title>ecao:0000130</title>
<ellipse fill="none" stroke="red" cx="1249.12" cy="-385.83" rx="69.09" ry="26.74"/>
<text text-anchor="middle" x="1249.12" y="-389.63" font-family="Times,serif" font-size="14.00">embryogenesis</text>
<text text-anchor="middle" x="1249.12" y="-374.63" font-family="Times,serif" font-size="14.00">ecao:0000130</text>
</g>
<!-- ecao:0000320&#45;&gt;ecao:0000130 -->
<g id="edge20" class="edge">
<title>ecao:0000320&#45;&gt;ecao:0000130</title>
<path fill="none" stroke="blue" d="M1626.05,-463.35C1600.39,-458.75 1570.33,-453.41 1543.12,-448.7 1447.65,-432.19 1422.2,-435.84 1328.12,-412.7 1321.96,-411.18 1315.58,-409.43 1309.25,-407.55"/>
<polygon fill="blue" stroke="blue" points="1309.95,-404.11 1299.37,-404.54 1307.91,-410.8 1309.95,-404.11"/>
</g>
<!-- ecao:0000130&#45;&gt;uberon:0000105 -->
<g id="edge25" class="edge">
<title>ecao:0000130&#45;&gt;uberon:0000105</title>
<path fill="none" stroke="black" d="M1206.22,-364.7C1179.17,-352.01 1144.03,-335.52 1115.23,-322.01"/>
<polygon fill="black" stroke="black" points="1116.66,-318.81 1106.12,-317.74 1113.69,-325.15 1116.66,-318.81"/>
</g>
<!-- ecao:0000130&#45;&gt;bfo:0000003 -->
<g id="edge26" class="edge">
<title>ecao:0000130&#45;&gt;bfo:0000003</title>
<path fill="none" stroke="black" d="M1297.55,-366.44C1334.87,-352.26 1386.48,-332.66 1425.32,-317.91"/>
<polygon fill="black" stroke="black" points="1426.79,-321.09 1434.9,-314.27 1424.31,-314.55 1426.79,-321.09"/>
</g>
<!-- ecao:0000130&#45;&gt;ecao:0000010 -->
<g id="edge27" class="edge">
<title>ecao:0000130&#45;&gt;ecao:0000010</title>
<path fill="none" stroke="blue" d="M1243.52,-358.98C1241.76,-350.84 1239.78,-341.7 1237.89,-333"/>
<polygon fill="blue" stroke="blue" points="1241.28,-332.09 1235.74,-323.06 1234.44,-333.57 1241.28,-332.09"/>
</g>
<!-- bfo:0000002&#45;&gt;bfo:0000001 -->
<g id="edge21" class="edge">
<title>bfo:0000002&#45;&gt;bfo:0000001</title>
<path fill="none" stroke="black" d="M706.12,-89.29C706.12,-81.32 706.12,-72.43 706.12,-63.94"/>
<polygon fill="black" stroke="black" points="709.62,-63.87 706.12,-53.87 702.62,-63.87 709.62,-63.87"/>
</g>
<!-- ecao:0103500 -->
<g id="node21" class="node">
<title>ecao:0103500</title>
<ellipse fill="none" stroke="red" cx="1869.12" cy="-475.57" rx="93.18" ry="26.74"/>
<text text-anchor="middle" x="1869.12" y="-479.37" font-family="Times,serif" font-size="14.00">echinoderm anatomy</text>
<text text-anchor="middle" x="1869.12" y="-464.37" font-family="Times,serif" font-size="14.00">ecao:0103500</text>
</g>
<!-- ecao:0000560 -->
<g id="node22" class="node">
<title>ecao:0000560</title>
<ellipse fill="none" stroke="red" cx="1646.12" cy="-385.83" rx="81.13" ry="26.74"/>
<text text-anchor="middle" x="1646.12" y="-389.63" font-family="Times,serif" font-size="14.00">late juvenile stage</text>
<text text-anchor="middle" x="1646.12" y="-374.63" font-family="Times,serif" font-size="14.00">ecao:0000560</text>
</g>
<!-- ecao:0000560&#45;&gt;bfo:0000003 -->
<g id="edge22" class="edge">
<title>ecao:0000560&#45;&gt;bfo:0000003</title>
<path fill="none" stroke="black" d="M1604.23,-362.69C1580.72,-350.27 1551.33,-334.73 1527.05,-321.9"/>
<polygon fill="black" stroke="black" points="1528.5,-318.7 1518.02,-317.12 1525.23,-324.89 1528.5,-318.7"/>
</g>
<!-- ecao:0106280 -->
<g id="node23" class="node">
<title>ecao:0106280</title>
<ellipse fill="none" stroke="red" cx="716.12" cy="-475.57" rx="165.43" ry="26.74"/>
<text text-anchor="middle" x="716.12" y="-479.37" font-family="Times,serif" font-size="14.00">ventral skeletogenic mesenchyme chain</text>
<text text-anchor="middle" x="716.12" y="-464.37" font-family="Times,serif" font-size="14.00">ecao:0106280</text>
</g>
<!-- ecao:0106280&#45;&gt;caro:0000000 -->
<g id="edge24" class="edge">
<title>ecao:0106280&#45;&gt;caro:0000000</title>
<path fill="none" stroke="black" d="M653.82,-450.6C620.94,-437.94 580.78,-422.49 548.23,-409.96"/>
<polygon fill="black" stroke="black" points="549.42,-406.67 538.83,-406.34 546.9,-413.2 549.42,-406.67"/>
</g>
<!-- ecao:0106280&#45;&gt;ecao:0104070 -->
<g id="edge23" class="edge">
<title>ecao:0106280&#45;&gt;ecao:0104070</title>
<path fill="none" stroke="black" d="M709.82,-448.25C707.89,-440.19 705.74,-431.19 703.69,-422.62"/>
<polygon fill="black" stroke="black" points="707.08,-421.75 701.34,-412.83 700.27,-423.37 707.08,-421.75"/>
</g>
<!-- ecao:0105460 -->
<g id="node24" class="node">
<title>ecao:0105460</title>
<ellipse fill="none" stroke="red" cx="900.12" cy="-296.09" rx="65.11" ry="26.74"/>
<text text-anchor="middle" x="900.12" y="-299.89" font-family="Times,serif" font-size="14.00">ciliary band</text>
<text text-anchor="middle" x="900.12" y="-284.89" font-family="Times,serif" font-size="14.00">ecao:0105460</text>
</g>
<!-- ecao:0105460&#45;&gt;bfo:0000004 -->
<g id="edge28" class="edge">
<title>ecao:0105460&#45;&gt;bfo:0000004</title>
<path fill="none" stroke="black" d="M857.06,-275.62C830.07,-263.41 794.9,-247.5 765.3,-234.12"/>
<polygon fill="black" stroke="black" points="766.46,-230.8 755.91,-229.87 763.58,-237.18 766.46,-230.8"/>
</g>
</g>
</svg>
