<?xml version="1.0" encoding="UTF-8" standalone="no"?>
<!DOCTYPE svg PUBLIC "-//W3C//DTD SVG 1.1//EN"
 "http://www.w3.org/Graphics/SVG/1.1/DTD/svg11.dtd">
<!-- Generated by graphviz version 3.0.0 (20220226.1711)
 -->
<!-- Pages: 1 -->
<svg width="1817pt" height="510pt"
 viewBox="0.00 0.00 1816.61 510.44" xmlns="http://www.w3.org/2000/svg" xmlns:xlink="http://www.w3.org/1999/xlink">
<g id="graph0" class="graph" transform="scale(1 1) rotate(0) translate(4 506.44)">
<polygon fill="white" stroke="transparent" points="-4,4 -4,-506.44 1812.61,-506.44 1812.61,4 -4,4"/>
<!-- caro:0000000 -->
<g id="node1" class="node">
<title>caro:0000000</title>
<ellipse fill="none" stroke="blue" cx="445.27" cy="-385.83" rx="78.48" ry="26.74"/>
<text text-anchor="middle" x="445.27" y="-389.63" font-family="Times,serif" font-size="14.00">anatomical entity</text>
<text text-anchor="middle" x="445.27" y="-374.63" font-family="Times,serif" font-size="14.00">caro:0000000</text>
</g>
<!-- caro:0030000 -->
<g id="node2" class="node">
<title>caro:0030000</title>
<ellipse fill="none" stroke="black" cx="549.27" cy="-296.09" rx="74.49" ry="26.74"/>
<text text-anchor="middle" x="549.27" y="-299.89" font-family="Times,serif" font-size="14.00">biological entity</text>
<text text-anchor="middle" x="549.27" y="-284.89" font-family="Times,serif" font-size="14.00">caro:0030000</text>
</g>
<!-- caro:0000000&#45;&gt;caro:0030000 -->
<g id="edge1" class="edge">
<title>caro:0000000&#45;&gt;caro:0030000</title>
<path fill="none" stroke="black" d="M473.96,-360.62C486.01,-350.46 500.16,-338.52 512.93,-327.75"/>
<polygon fill="black" stroke="black" points="515.28,-330.34 520.67,-321.22 510.77,-324.99 515.28,-330.34"/>
</g>
<!-- bfo:0000004 -->
<g id="node12" class="node">
<title>bfo:0000004</title>
<ellipse fill="none" stroke="blue" cx="648.27" cy="-206.35" rx="101.23" ry="26.74"/>
<text text-anchor="middle" x="648.27" y="-210.15" font-family="Times,serif" font-size="14.00">independent continuant</text>
<text text-anchor="middle" x="648.27" y="-195.15" font-family="Times,serif" font-size="14.00">bfo:0000004</text>
</g>
<!-- caro:0030000&#45;&gt;bfo:0000004 -->
<g id="edge12" class="edge">
<title>caro:0030000&#45;&gt;bfo:0000004</title>
<path fill="none" stroke="black" d="M576.58,-270.88C587.66,-261.06 600.61,-249.59 612.43,-239.11"/>
<polygon fill="black" stroke="black" points="614.84,-241.65 620.01,-232.4 610.2,-236.41 614.84,-241.65"/>
</g>
<!-- ecao:0000530 -->
<g id="node3" class="node">
<title>ecao:0000530</title>
<ellipse fill="none" stroke="red" cx="1213.27" cy="-385.83" rx="65.11" ry="26.74"/>
<text text-anchor="middle" x="1213.27" y="-389.63" font-family="Times,serif" font-size="14.00">adulthood</text>
<text text-anchor="middle" x="1213.27" y="-374.63" font-family="Times,serif" font-size="14.00">ecao:0000530</text>
</g>
<!-- ecao:0000010 -->
<g id="node4" class="node">
<title>ecao:0000010</title>
<ellipse fill="none" stroke="red" cx="1164.27" cy="-296.09" rx="74.49" ry="26.74"/>
<text text-anchor="middle" x="1164.27" y="-299.89" font-family="Times,serif" font-size="14.00">life cycle period</text>
<text text-anchor="middle" x="1164.27" y="-284.89" font-family="Times,serif" font-size="14.00">ecao:0000010</text>
</g>
<!-- ecao:0000530&#45;&gt;ecao:0000010 -->
<g id="edge2" class="edge">
<title>ecao:0000530&#45;&gt;ecao:0000010</title>
<path fill="none" stroke="blue" d="M1199.09,-359.45C1194.26,-350.8 1188.77,-340.97 1183.6,-331.71"/>
<polygon fill="blue" stroke="blue" points="1186.51,-329.74 1178.58,-322.72 1180.4,-333.15 1186.51,-329.74"/>
</g>
<!-- uberon:0000105 -->
<g id="node5" class="node">
<title>uberon:0000105</title>
<ellipse fill="none" stroke="blue" cx="927.27" cy="-296.09" rx="74.49" ry="26.74"/>
<text text-anchor="middle" x="927.27" y="-299.89" font-family="Times,serif" font-size="14.00">life cycle stage</text>
<text text-anchor="middle" x="927.27" y="-284.89" font-family="Times,serif" font-size="14.00">uberon:0000105</text>
</g>
<!-- ecao:0000530&#45;&gt;uberon:0000105 -->
<g id="edge3" class="edge">
<title>ecao:0000530&#45;&gt;uberon:0000105</title>
<path fill="none" stroke="black" d="M1165.22,-367.63C1156.61,-364.66 1147.69,-361.66 1139.27,-358.96 1091.27,-343.58 1036.66,-327.68 994.89,-315.85"/>
<polygon fill="black" stroke="black" points="995.68,-312.43 985.1,-313.09 993.77,-319.17 995.68,-312.43"/>
</g>
<!-- bfo:0000003 -->
<g id="node6" class="node">
<title>bfo:0000003</title>
<ellipse fill="none" stroke="blue" cx="1439.27" cy="-296.09" rx="60.62" ry="26.74"/>
<text text-anchor="middle" x="1439.27" y="-299.89" font-family="Times,serif" font-size="14.00">occurrent</text>
<text text-anchor="middle" x="1439.27" y="-284.89" font-family="Times,serif" font-size="14.00">bfo:0000003</text>
</g>
<!-- ecao:0000530&#45;&gt;bfo:0000003 -->
<g id="edge4" class="edge">
<title>ecao:0000530&#45;&gt;bfo:0000003</title>
<path fill="none" stroke="black" d="M1259.55,-366.86C1295.98,-352.72 1346.82,-332.98 1385.13,-318.11"/>
<polygon fill="black" stroke="black" points="1386.53,-321.32 1394.59,-314.44 1384,-314.79 1386.53,-321.32"/>
</g>
<!-- uberon:0000104 -->
<g id="node7" class="node">
<title>uberon:0000104</title>
<ellipse fill="none" stroke="black" cx="940.27" cy="-206.35" rx="74.49" ry="26.74"/>
<text text-anchor="middle" x="940.27" y="-210.15" font-family="Times,serif" font-size="14.00">life cycle</text>
<text text-anchor="middle" x="940.27" y="-195.15" font-family="Times,serif" font-size="14.00">uberon:0000104</text>
</g>
<!-- uberon:0000105&#45;&gt;uberon:0000104 -->
<g id="edge19" class="edge">
<title>uberon:0000105&#45;&gt;uberon:0000104</title>
<path fill="none" stroke="blue" d="M931.1,-269.24C932.3,-261.1 933.66,-251.96 934.95,-243.26"/>
<polygon fill="blue" stroke="blue" points="938.42,-243.72 936.42,-233.32 931.49,-242.7 938.42,-243.72"/>
</g>
<!-- uberon:0000000 -->
<g id="node8" class="node">
<title>uberon:0000000</title>
<ellipse fill="none" stroke="black" cx="852.27" cy="-116.61" rx="76.24" ry="26.74"/>
<text text-anchor="middle" x="852.27" y="-120.41" font-family="Times,serif" font-size="14.00">processual entity</text>
<text text-anchor="middle" x="852.27" y="-105.41" font-family="Times,serif" font-size="14.00">uberon:0000000</text>
</g>
<!-- uberon:0000105&#45;&gt;uberon:0000000 -->
<g id="edge20" class="edge">
<title>uberon:0000105&#45;&gt;uberon:0000000</title>
<path fill="none" stroke="black" d="M891.32,-272.53C878.19,-262.26 864.74,-248.88 857.27,-233.22 845.51,-208.58 844.83,-177.52 846.77,-153.8"/>
<polygon fill="black" stroke="black" points="850.26,-154.1 847.78,-143.8 843.3,-153.4 850.26,-154.1"/>
</g>
<!-- uberon:0000104&#45;&gt;uberon:0000000 -->
<g id="edge5" class="edge">
<title>uberon:0000104&#45;&gt;uberon:0000000</title>
<path fill="none" stroke="black" d="M915.75,-180.91C906.01,-171.2 894.68,-159.9 884.3,-149.55"/>
<polygon fill="black" stroke="black" points="886.51,-146.81 876.95,-142.22 881.56,-151.76 886.51,-146.81"/>
</g>
<!-- ecao:0000440 -->
<g id="node9" class="node">
<title>ecao:0000440</title>
<ellipse fill="none" stroke="red" cx="1382.27" cy="-385.83" rx="86.03" ry="26.74"/>
<text text-anchor="middle" x="1382.27" y="-389.63" font-family="Times,serif" font-size="14.00">larval development</text>
<text text-anchor="middle" x="1382.27" y="-374.63" font-family="Times,serif" font-size="14.00">ecao:0000440</text>
</g>
<!-- ecao:0000440&#45;&gt;ecao:0000010 -->
<g id="edge6" class="edge">
<title>ecao:0000440&#45;&gt;ecao:0000010</title>
<path fill="none" stroke="blue" d="M1330.88,-364.15C1298.2,-351 1255.83,-333.94 1221.99,-320.32"/>
<polygon fill="blue" stroke="blue" points="1223.28,-317.07 1212.69,-316.58 1220.66,-323.56 1223.28,-317.07"/>
</g>
<!-- ecao:0000440&#45;&gt;bfo:0000003 -->
<g id="edge7" class="edge">
<title>ecao:0000440&#45;&gt;bfo:0000003</title>
<path fill="none" stroke="black" d="M1398.75,-359.45C1404.59,-350.46 1411.26,-340.2 1417.47,-330.64"/>
<polygon fill="black" stroke="black" points="1420.5,-332.4 1423.01,-322.11 1414.63,-328.59 1420.5,-332.4"/>
</g>
<!-- ecao:0105140 -->
<g id="node10" class="node">
<title>ecao:0105140</title>
<ellipse fill="none" stroke="red" cx="86.27" cy="-475.57" rx="86.03" ry="26.74"/>
<text text-anchor="middle" x="86.27" y="-479.37" font-family="Times,serif" font-size="14.00">vegetal tier 2 lower</text>
<text text-anchor="middle" x="86.27" y="-464.37" font-family="Times,serif" font-size="14.00">ecao:0105140</text>
</g>
<!-- ecao:0105140&#45;&gt;caro:0000000 -->
<g id="edge8" class="edge">
<title>ecao:0105140&#45;&gt;caro:0000000</title>
<path fill="none" stroke="black" d="M149.04,-457.14C159.77,-454.25 170.83,-451.34 181.27,-448.7 245.04,-432.55 317.85,-415.6 370.84,-403.53"/>
<polygon fill="black" stroke="black" points="371.85,-406.89 380.83,-401.26 370.3,-400.06 371.85,-406.89"/>
</g>
<!-- ecao:0105460 -->
<g id="node11" class="node">
<title>ecao:0105460</title>
<ellipse fill="none" stroke="red" cx="392.27" cy="-296.09" rx="65.11" ry="26.74"/>
<text text-anchor="middle" x="392.27" y="-299.89" font-family="Times,serif" font-size="14.00">ciliary band</text>
<text text-anchor="middle" x="392.27" y="-284.89" font-family="Times,serif" font-size="14.00">ecao:0105460</text>
</g>
<!-- ecao:0105460&#45;&gt;bfo:0000004 -->
<g id="edge9" class="edge">
<title>ecao:0105460&#45;&gt;bfo:0000004</title>
<path fill="none" stroke="black" d="M440.81,-278.05C449.29,-275.1 458.03,-272.06 466.27,-269.22 503.02,-256.55 544.02,-242.6 577.78,-231.15"/>
<polygon fill="black" stroke="black" points="579.21,-234.37 587.56,-227.84 576.96,-227.74 579.21,-234.37"/>
</g>
<!-- bfo:0000002 -->
<g id="node13" class="node">
<title>bfo:0000002</title>
<ellipse fill="none" stroke="black" cx="648.27" cy="-116.61" rx="60.62" ry="26.74"/>
<text text-anchor="middle" x="648.27" y="-120.41" font-family="Times,serif" font-size="14.00">continuant</text>
<text text-anchor="middle" x="648.27" y="-105.41" font-family="Times,serif" font-size="14.00">bfo:0000002</text>
</g>
<!-- bfo:0000004&#45;&gt;bfo:0000002 -->
<g id="edge10" class="edge">
<title>bfo:0000004&#45;&gt;bfo:0000002</title>
<path fill="none" stroke="black" d="M648.27,-179.03C648.27,-171.06 648.27,-162.17 648.27,-153.68"/>
<polygon fill="black" stroke="black" points="651.77,-153.61 648.27,-143.61 644.77,-153.61 651.77,-153.61"/>
</g>
<!-- bfo:0000001 -->
<g id="node17" class="node">
<title>bfo:0000001</title>
<ellipse fill="none" stroke="black" cx="648.27" cy="-26.87" rx="60.62" ry="26.74"/>
<text text-anchor="middle" x="648.27" y="-30.67" font-family="Times,serif" font-size="14.00">entity</text>
<text text-anchor="middle" x="648.27" y="-15.67" font-family="Times,serif" font-size="14.00">bfo:0000001</text>
</g>
<!-- bfo:0000002&#45;&gt;bfo:0000001 -->
<g id="edge24" class="edge">
<title>bfo:0000002&#45;&gt;bfo:0000001</title>
<path fill="none" stroke="black" d="M648.27,-89.29C648.27,-81.32 648.27,-72.43 648.27,-63.94"/>
<polygon fill="black" stroke="black" points="651.77,-63.87 648.27,-53.87 644.77,-63.87 651.77,-63.87"/>
</g>
<!-- ecao:0106410 -->
<g id="node14" class="node">
<title>ecao:0106410</title>
<ellipse fill="none" stroke="red" cx="361.27" cy="-475.57" rx="171.24" ry="26.74"/>
<text text-anchor="middle" x="361.27" y="-479.37" font-family="Times,serif" font-size="14.00">larval non&#45;skeletogenic mesenchyme cell</text>
<text text-anchor="middle" x="361.27" y="-464.37" font-family="Times,serif" font-size="14.00">ecao:0106410</text>
</g>
<!-- ecao:0106410&#45;&gt;caro:0000000 -->
<g id="edge11" class="edge">
<title>ecao:0106410&#45;&gt;caro:0000000</title>
<path fill="none" stroke="black" d="M386.02,-448.72C394.96,-439.37 405.17,-428.71 414.57,-418.9"/>
<polygon fill="black" stroke="black" points="417.17,-421.24 421.56,-411.59 412.12,-416.4 417.17,-421.24"/>
</g>
<!-- ecao:0000130 -->
<g id="node15" class="node">
<title>ecao:0000130</title>
<ellipse fill="none" stroke="red" cx="1061.27" cy="-385.83" rx="69.09" ry="26.74"/>
<text text-anchor="middle" x="1061.27" y="-389.63" font-family="Times,serif" font-size="14.00">embryogenesis</text>
<text text-anchor="middle" x="1061.27" y="-374.63" font-family="Times,serif" font-size="14.00">ecao:0000130</text>
</g>
<!-- ecao:0000130&#45;&gt;ecao:0000010 -->
<g id="edge13" class="edge">
<title>ecao:0000130&#45;&gt;ecao:0000010</title>
<path fill="none" stroke="blue" d="M1089.14,-361.09C1101.18,-350.83 1115.42,-338.7 1128.24,-327.78"/>
<polygon fill="blue" stroke="blue" points="1130.67,-330.31 1136.01,-321.16 1126.13,-324.98 1130.67,-330.31"/>
</g>
<!-- ecao:0000130&#45;&gt;uberon:0000105 -->
<g id="edge14" class="edge">
<title>ecao:0000130&#45;&gt;uberon:0000105</title>
<path fill="none" stroke="black" d="M1026.76,-362.24C1009.7,-351.06 988.93,-337.47 970.79,-325.59"/>
<polygon fill="black" stroke="black" points="972.41,-322.46 962.12,-319.91 968.57,-328.32 972.41,-322.46"/>
</g>
<!-- ecao:0000130&#45;&gt;bfo:0000003 -->
<g id="edge15" class="edge">
<title>ecao:0000130&#45;&gt;bfo:0000003</title>
<path fill="none" stroke="black" d="M1111.36,-367.26C1120.58,-364.3 1130.17,-361.4 1139.27,-358.96 1218.95,-337.61 1312.21,-319.42 1373.34,-308.4"/>
<polygon fill="black" stroke="black" points="1374.02,-311.83 1383.24,-306.62 1372.78,-304.94 1374.02,-311.83"/>
</g>
<!-- ecao:0104070 -->
<g id="node16" class="node">
<title>ecao:0104070</title>
<ellipse fill="none" stroke="red" cx="673.27" cy="-385.83" rx="89.19" ry="26.74"/>
<text text-anchor="middle" x="673.27" y="-389.63" font-family="Times,serif" font-size="14.00">embryonic structure</text>
<text text-anchor="middle" x="673.27" y="-374.63" font-family="Times,serif" font-size="14.00">ecao:0104070</text>
</g>
<!-- ecao:0104070&#45;&gt;bfo:0000004 -->
<g id="edge16" class="edge">
<title>ecao:0104070&#45;&gt;bfo:0000004</title>
<path fill="none" stroke="black" d="M669.58,-358.64C665.28,-328.15 658.16,-277.59 653.35,-243.4"/>
<polygon fill="black" stroke="black" points="656.79,-242.77 651.93,-233.36 649.86,-243.75 656.79,-242.77"/>
</g>
<!-- ecao:0000320 -->
<g id="node18" class="node">
<title>ecao:0000320</title>
<ellipse fill="none" stroke="red" cx="1534.27" cy="-475.57" rx="69.09" ry="26.74"/>
<text text-anchor="middle" x="1534.27" y="-479.37" font-family="Times,serif" font-size="14.00">gastrula period</text>
<text text-anchor="middle" x="1534.27" y="-464.37" font-family="Times,serif" font-size="14.00">ecao:0000320</text>
</g>
<!-- ecao:0000320&#45;&gt;bfo:0000003 -->
<g id="edge18" class="edge">
<title>ecao:0000320&#45;&gt;bfo:0000003</title>
<path fill="none" stroke="black" d="M1533.57,-448.54C1531.86,-423.93 1526.52,-386.74 1510.27,-358.96 1502.83,-346.24 1491.82,-334.81 1480.69,-325.34"/>
<polygon fill="black" stroke="black" points="1482.59,-322.37 1472.61,-318.79 1478.18,-327.81 1482.59,-322.37"/>
</g>
<!-- ecao:0000320&#45;&gt;ecao:0000130 -->
<g id="edge17" class="edge">
<title>ecao:0000320&#45;&gt;ecao:0000130</title>
<path fill="none" stroke="blue" d="M1485.18,-456.58C1475.69,-453.59 1465.74,-450.79 1456.27,-448.7 1317.79,-418.22 1277.75,-443.18 1139.27,-412.7 1133.05,-411.33 1126.63,-409.65 1120.27,-407.82"/>
<polygon fill="blue" stroke="blue" points="1120.94,-404.36 1110.35,-404.82 1118.91,-411.06 1120.94,-404.36"/>
</g>
<!-- ecao:0000450 -->
<g id="node19" class="node">
<title>ecao:0000450</title>
<ellipse fill="none" stroke="red" cx="1336.27" cy="-475.57" rx="111.03" ry="26.74"/>
<text text-anchor="middle" x="1336.27" y="-479.37" font-family="Times,serif" font-size="14.00">early feeding larva period</text>
<text text-anchor="middle" x="1336.27" y="-464.37" font-family="Times,serif" font-size="14.00">ecao:0000450</text>
</g>
<!-- ecao:0000450&#45;&gt;uberon:0000105 -->
<g id="edge22" class="edge">
<title>ecao:0000450&#45;&gt;uberon:0000105</title>
<path fill="none" stroke="black" d="M1228.53,-468.97C1087.04,-460.5 853.4,-442.21 827.27,-412.7 811.43,-394.82 815.64,-379.82 827.27,-358.96 836.36,-342.63 851.74,-330.07 867.75,-320.67"/>
<polygon fill="black" stroke="black" points="869.59,-323.65 876.67,-315.77 866.22,-317.52 869.59,-323.65"/>
</g>
<!-- ecao:0000450&#45;&gt;bfo:0000003 -->
<g id="edge23" class="edge">
<title>ecao:0000450&#45;&gt;bfo:0000003</title>
<path fill="none" stroke="black" d="M1417.32,-457.02C1440.62,-447.82 1463.45,-433.85 1477.27,-412.7 1493.73,-387.5 1480.09,-354.53 1464.76,-330.25"/>
<polygon fill="black" stroke="black" points="1467.54,-328.12 1459.09,-321.73 1461.72,-331.99 1467.54,-328.12"/>
</g>
<!-- ecao:0000450&#45;&gt;ecao:0000440 -->
<g id="edge21" class="edge">
<title>ecao:0000450&#45;&gt;ecao:0000440</title>
<path fill="none" stroke="blue" d="M1349.82,-448.72C1354.31,-440.15 1359.39,-430.47 1364.16,-421.36"/>
<polygon fill="blue" stroke="blue" points="1367.27,-422.98 1368.81,-412.5 1361.07,-419.73 1367.27,-422.98"/>
</g>
<!-- ecao:0103500 -->
<g id="node20" class="node">
<title>ecao:0103500</title>
<ellipse fill="none" stroke="red" cx="1715.27" cy="-475.57" rx="93.18" ry="26.74"/>
<text text-anchor="middle" x="1715.27" y="-479.37" font-family="Times,serif" font-size="14.00">echinoderm anatomy</text>
<text text-anchor="middle" x="1715.27" y="-464.37" font-family="Times,serif" font-size="14.00">ecao:0103500</text>
</g>
<!-- ecao:0000560 -->
<g id="node21" class="node">
<title>ecao:0000560</title>
<ellipse fill="none" stroke="red" cx="1643.27" cy="-385.83" rx="81.13" ry="26.74"/>
<text text-anchor="middle" x="1643.27" y="-389.63" font-family="Times,serif" font-size="14.00">late juvenile stage</text>
<text text-anchor="middle" x="1643.27" y="-374.63" font-family="Times,serif" font-size="14.00">ecao:0000560</text>
</g>
<!-- ecao:0000560&#45;&gt;bfo:0000003 -->
<g id="edge25" class="edge">
<title>ecao:0000560&#45;&gt;bfo:0000003</title>
<path fill="none" stroke="black" d="M1595.18,-364.15C1563.87,-350.68 1523.06,-333.13 1491.04,-319.36"/>
<polygon fill="black" stroke="black" points="1492.41,-316.14 1481.84,-315.4 1489.64,-322.57 1492.41,-316.14"/>
</g>
<!-- ecao:0000020 -->
<g id="node22" class="node">
<title>ecao:0000020</title>
<ellipse fill="none" stroke="red" cx="905.27" cy="-385.83" rx="68.68" ry="26.74"/>
<text text-anchor="middle" x="905.27" y="-389.63" font-family="Times,serif" font-size="14.00">gametogenesis</text>
<text text-anchor="middle" x="905.27" y="-374.63" font-family="Times,serif" font-size="14.00">ecao:0000020</text>
</g>
<!-- ecao:0000020&#45;&gt;ecao:0000010 -->
<g id="edge26" class="edge">
<title>ecao:0000020&#45;&gt;ecao:0000010</title>
<path fill="none" stroke="blue" d="M956.13,-367.6C997.85,-353.47 1057.1,-333.39 1101.72,-318.28"/>
<polygon fill="blue" stroke="blue" points="1102.95,-321.56 1111.3,-315.03 1100.7,-314.93 1102.95,-321.56"/>
</g>
<!-- ecao:0000020&#45;&gt;uberon:0000105 -->
<g id="edge27" class="edge">
<title>ecao:0000020&#45;&gt;uberon:0000105</title>
<path fill="none" stroke="black" d="M911.75,-358.98C913.79,-350.84 916.08,-341.7 918.26,-333"/>
<polygon fill="black" stroke="black" points="921.72,-333.61 920.76,-323.06 914.93,-331.91 921.72,-333.61"/>
</g>
<!-- ecao:0104040 -->
<g id="node23" class="node">
<title>ecao:0104040</title>
<ellipse fill="none" stroke="red" cx="744.27" cy="-296.09" rx="65.11" ry="26.74"/>
<text text-anchor="middle" x="744.27" y="-299.89" font-family="Times,serif" font-size="14.00">cell part</text>
<text text-anchor="middle" x="744.27" y="-284.89" font-family="Times,serif" font-size="14.00">ecao:0104040</text>
</g>
<!-- ecao:0104040&#45;&gt;bfo:0000004 -->
<g id="edge28" class="edge">
<title>ecao:0104040&#45;&gt;bfo:0000004</title>
<path fill="none" stroke="black" d="M718.29,-271.35C707.45,-261.44 694.69,-249.78 683.06,-239.15"/>
<polygon fill="black" stroke="black" points="685.35,-236.5 675.61,-232.34 680.63,-241.67 685.35,-236.5"/>
</g>
<!-- ecao:0106280 -->
<g id="node24" class="node">
<title>ecao:0106280</title>
<ellipse fill="none" stroke="red" cx="716.27" cy="-475.57" rx="165.43" ry="26.74"/>
<text text-anchor="middle" x="716.27" y="-479.37" font-family="Times,serif" font-size="14.00">ventral skeletogenic mesenchyme chain</text>
<text text-anchor="middle" x="716.27" y="-464.37" font-family="Times,serif" font-size="14.00">ecao:0106280</text>
</g>
<!-- ecao:0106280&#45;&gt;caro:0000000 -->
<g id="edge29" class="edge">
<title>ecao:0106280&#45;&gt;caro:0000000</title>
<path fill="none" stroke="black" d="M644.36,-451.29C602.92,-437.87 551.24,-421.14 510.91,-408.08"/>
<polygon fill="black" stroke="black" points="511.77,-404.68 501.18,-404.93 509.62,-411.34 511.77,-404.68"/>
</g>
<!-- ecao:0106280&#45;&gt;ecao:0104070 -->
<g id="edge30" class="edge">
<title>ecao:0106280&#45;&gt;ecao:0104070</title>
<path fill="none" stroke="black" d="M703.6,-448.72C699.44,-440.24 694.75,-430.68 690.33,-421.65"/>
<polygon fill="black" stroke="black" points="693.39,-419.94 685.85,-412.5 687.1,-423.02 693.39,-419.94"/>
</g>
</g>
</svg>
