<?xml version="1.0" encoding="UTF-8" standalone="no"?>
<!DOCTYPE svg PUBLIC "-//W3C//DTD SVG 1.1//EN"
 "http://www.w3.org/Graphics/SVG/1.1/DTD/svg11.dtd">
<!-- Generated by graphviz version 3.0.0 (20220226.1711)
 -->
<!-- Pages: 1 -->
<svg width="395pt" height="116pt"
 viewBox="0.00 0.00 394.99 116.00" xmlns="http://www.w3.org/2000/svg" xmlns:xlink="http://www.w3.org/1999/xlink">
<g id="graph0" class="graph" transform="scale(1 1) rotate(0) translate(4 112)">
<polygon fill="white" stroke="transparent" points="-4,4 -4,-112 390.99,-112 390.99,4 -4,4"/>
<!-- emapa:18476 -->
<g id="node1" class="node">
<title>emapa:18476</title>
<ellipse fill="none" stroke="red" cx="58.49" cy="-90" rx="58.49" ry="18"/>
<text text-anchor="middle" x="58.49" y="-86.3" font-family="Times,serif" font-size="14.00">emapa:18476</text>
</g>
<!-- owl:Thing -->
<g id="node2" class="node">
<title>owl:Thing</title>
<ellipse fill="none" stroke="blue" cx="193.49" cy="-18" rx="47.39" ry="18"/>
<text text-anchor="middle" x="193.49" y="-14.3" font-family="Times,serif" font-size="14.00">owl:Thing</text>
</g>
<!-- emapa:18476&#45;&gt;owl:Thing -->
<g id="edge1" class="edge">
<title>emapa:18476&#45;&gt;owl:Thing</title>
<path fill="none" stroke="black" d="M87.12,-74.15C107.71,-63.48 135.62,-49.01 157.68,-37.57"/>
<polygon fill="black" stroke="black" points="159.48,-40.58 166.74,-32.87 156.25,-34.37 159.48,-40.58"/>
</g>
<!-- emapa:18475 -->
<g id="node3" class="node">
<title>emapa:18475</title>
<ellipse fill="none" stroke="red" cx="193.49" cy="-90" rx="58.49" ry="18"/>
<text text-anchor="middle" x="193.49" y="-86.3" font-family="Times,serif" font-size="14.00">emapa:18475</text>
</g>
<!-- emapa:18475&#45;&gt;owl:Thing -->
<g id="edge2" class="edge">
<title>emapa:18475&#45;&gt;owl:Thing</title>
<path fill="none" stroke="black" d="M193.49,-71.7C193.49,-63.98 193.49,-54.71 193.49,-46.11"/>
<polygon fill="black" stroke="black" points="196.99,-46.1 193.49,-36.1 189.99,-46.1 196.99,-46.1"/>
</g>
<!-- emapa:27644 -->
<g id="node4" class="node">
<title>emapa:27644</title>
<ellipse fill="none" stroke="red" cx="328.49" cy="-90" rx="58.49" ry="18"/>
<text text-anchor="middle" x="328.49" y="-86.3" font-family="Times,serif" font-size="14.00">emapa:27644</text>
</g>
<!-- emapa:27644&#45;&gt;owl:Thing -->
<g id="edge3" class="edge">
<title>emapa:27644&#45;&gt;owl:Thing</title>
<path fill="none" stroke="black" d="M299.86,-74.15C279.28,-63.48 251.37,-49.01 229.31,-37.57"/>
<polygon fill="black" stroke="black" points="230.74,-34.37 220.25,-32.87 227.51,-40.58 230.74,-34.37"/>
</g>
</g>
</svg>
