<?xml version="1.0" encoding="UTF-8" standalone="no"?>
<!DOCTYPE svg PUBLIC "-//W3C//DTD SVG 1.1//EN"
 "http://www.w3.org/Graphics/SVG/1.1/DTD/svg11.dtd">
<!-- Generated by graphviz version 3.0.0 (20220226.1711)
 -->
<!-- Pages: 1 -->
<svg width="700pt" height="151pt"
 viewBox="0.00 0.00 699.62 151.48" xmlns="http://www.w3.org/2000/svg" xmlns:xlink="http://www.w3.org/1999/xlink">
<g id="graph0" class="graph" transform="scale(1 1) rotate(0) translate(4 147.48)">
<polygon fill="white" stroke="transparent" points="-4,4 -4,-147.48 695.62,-147.48 695.62,4 -4,4"/>
<!-- hsapdv:0000239 -->
<g id="node1" class="node">
<title>hsapdv:0000239</title>
<ellipse fill="none" stroke="orange" cx="108.89" cy="-116.61" rx="108.79" ry="26.74"/>
<text text-anchor="middle" x="108.89" y="-120.41" font-family="Times,serif" font-size="14.00">fifth decade human stage</text>
<text text-anchor="middle" x="108.89" y="-105.41" font-family="Times,serif" font-size="14.00">hsapdv:0000239</text>
</g>
<!-- uberon:0000105 -->
<g id="node2" class="node">
<title>uberon:0000105</title>
<ellipse fill="none" stroke="blue" cx="249.89" cy="-26.87" rx="68.49" ry="18"/>
<text text-anchor="middle" x="249.89" y="-23.17" font-family="Times,serif" font-size="14.00">uberon:0000105</text>
</g>
<!-- hsapdv:0000239&#45;&gt;uberon:0000105 -->
<g id="edge1" class="edge">
<title>hsapdv:0000239&#45;&gt;uberon:0000105</title>
<path fill="none" stroke="black" d="M147.8,-91.4C169.1,-78.15 195.25,-61.87 215.76,-49.11"/>
<polygon fill="black" stroke="black" points="217.81,-51.96 224.45,-43.7 214.12,-46.01 217.81,-51.96"/>
</g>
<!-- hsapdv:0000000 -->
<g id="node3" class="node">
<title>hsapdv:0000000</title>
<ellipse fill="none" stroke="red" cx="434.89" cy="-26.87" rx="98.99" ry="26.74"/>
<text text-anchor="middle" x="434.89" y="-30.67" font-family="Times,serif" font-size="14.00">human life cycle stage</text>
<text text-anchor="middle" x="434.89" y="-15.67" font-family="Times,serif" font-size="14.00">hsapdv:0000000</text>
</g>
<!-- hsapdv:0000239&#45;&gt;hsapdv:0000000 -->
<g id="edge2" class="edge">
<title>hsapdv:0000239&#45;&gt;hsapdv:0000000</title>
<path fill="none" stroke="black" d="M180.84,-96.25C232.83,-82.26 303,-63.37 356.43,-48.99"/>
<polygon fill="black" stroke="black" points="357.46,-52.34 366.2,-46.36 355.64,-45.58 357.46,-52.34"/>
</g>
<!-- hsapdv:0000235 -->
<g id="node4" class="node">
<title>hsapdv:0000235</title>
<ellipse fill="none" stroke="orange" cx="342.89" cy="-116.61" rx="107.46" ry="26.74"/>
<text text-anchor="middle" x="342.89" y="-120.41" font-family="Times,serif" font-size="14.00">first decade human stage</text>
<text text-anchor="middle" x="342.89" y="-105.41" font-family="Times,serif" font-size="14.00">hsapdv:0000235</text>
</g>
<!-- hsapdv:0000235&#45;&gt;uberon:0000105 -->
<g id="edge3" class="edge">
<title>hsapdv:0000235&#45;&gt;uberon:0000105</title>
<path fill="none" stroke="black" d="M315.99,-90.23C303.02,-77.99 287.56,-63.41 274.85,-51.42"/>
<polygon fill="black" stroke="black" points="277.02,-48.65 267.34,-44.33 272.21,-53.74 277.02,-48.65"/>
</g>
<!-- hsapdv:0000235&#45;&gt;hsapdv:0000000 -->
<g id="edge4" class="edge">
<title>hsapdv:0000235&#45;&gt;hsapdv:0000000</title>
<path fill="none" stroke="black" d="M369.5,-90.23C379.41,-80.78 390.79,-69.93 401.24,-59.96"/>
<polygon fill="black" stroke="black" points="403.84,-62.32 408.66,-52.89 399.01,-57.26 403.84,-62.32"/>
</g>
<!-- hsapdv:0000244 -->
<g id="node5" class="node">
<title>hsapdv:0000244</title>
<ellipse fill="none" stroke="orange" cx="579.89" cy="-116.61" rx="111.95" ry="26.74"/>
<text text-anchor="middle" x="579.89" y="-120.41" font-family="Times,serif" font-size="14.00">tenth decade human stage</text>
<text text-anchor="middle" x="579.89" y="-105.41" font-family="Times,serif" font-size="14.00">hsapdv:0000244</text>
</g>
<!-- hsapdv:0000244&#45;&gt;uberon:0000105 -->
<g id="edge5" class="edge">
<title>hsapdv:0000244&#45;&gt;uberon:0000105</title>
<path fill="none" stroke="black" d="M499.67,-97.81C449.7,-86.28 384.22,-70.35 326.89,-53.74 317.65,-51.06 307.85,-47.97 298.46,-44.88"/>
<polygon fill="black" stroke="black" points="299.46,-41.52 288.87,-41.67 297.24,-48.16 299.46,-41.52"/>
</g>
<!-- hsapdv:0000244&#45;&gt;hsapdv:0000000 -->
<g id="edge6" class="edge">
<title>hsapdv:0000244&#45;&gt;hsapdv:0000000</title>
<path fill="none" stroke="black" d="M539.89,-91.4C522.23,-80.72 501.33,-68.07 482.85,-56.89"/>
<polygon fill="black" stroke="black" points="484.64,-53.88 474.27,-51.7 481.01,-59.87 484.64,-53.88"/>
</g>
</g>
</svg>
