<?xml version="1.0" encoding="UTF-8" standalone="no"?>
<!DOCTYPE svg PUBLIC "-//W3C//DTD SVG 1.1//EN"
 "http://www.w3.org/Graphics/SVG/1.1/DTD/svg11.dtd">
<!-- Generated by graphviz version 3.0.0 (20220226.1711)
 -->
<!-- Pages: 1 -->
<svg width="1232pt" height="780pt"
 viewBox="0.00 0.00 1231.86 779.66" xmlns="http://www.w3.org/2000/svg" xmlns:xlink="http://www.w3.org/1999/xlink">
<g id="graph0" class="graph" transform="scale(1 1) rotate(0) translate(4 775.66)">
<polygon fill="white" stroke="transparent" points="-4,4 -4,-775.66 1227.86,-775.66 1227.86,4 -4,4"/>
<!-- lepao:0000040 -->
<g id="node1" class="node">
<title>lepao:0000040</title>
<ellipse fill="none" stroke="red" cx="259.27" cy="-744.79" rx="68.68" ry="26.74"/>
<text text-anchor="middle" x="259.27" y="-748.59" font-family="Times,serif" font-size="14.00">leg trachea</text>
<text text-anchor="middle" x="259.27" y="-733.59" font-family="Times,serif" font-size="14.00">lepao:0000040</text>
</g>
<!-- aism:0000091 -->
<g id="node2" class="node">
<title>aism:0000091</title>
<ellipse fill="none" stroke="blue" cx="507.27" cy="-655.05" rx="66.44" ry="26.74"/>
<text text-anchor="middle" x="507.27" y="-658.85" font-family="Times,serif" font-size="14.00">trachea</text>
<text text-anchor="middle" x="507.27" y="-643.85" font-family="Times,serif" font-size="14.00">aism:0000091</text>
</g>
<!-- lepao:0000040&#45;&gt;aism:0000091 -->
<g id="edge1" class="edge">
<title>lepao:0000040&#45;&gt;aism:0000091</title>
<path fill="none" stroke="black" d="M309.16,-726.14C349.44,-711.89 406.21,-691.8 448.66,-676.79"/>
<polygon fill="black" stroke="black" points="450.04,-680.01 458.3,-673.37 447.71,-673.41 450.04,-680.01"/>
</g>
<!-- aism:0000136 -->
<g id="node4" class="node">
<title>aism:0000136</title>
<ellipse fill="none" stroke="black" cx="425.27" cy="-565.31" rx="136.44" ry="26.74"/>
<text text-anchor="middle" x="425.27" y="-569.11" font-family="Times,serif" font-size="14.00">branching cuticular invagination</text>
<text text-anchor="middle" x="425.27" y="-554.11" font-family="Times,serif" font-size="14.00">aism:0000136</text>
</g>
<!-- aism:0000091&#45;&gt;aism:0000136 -->
<g id="edge17" class="edge">
<title>aism:0000091&#45;&gt;aism:0000136</title>
<path fill="none" stroke="black" d="M484.43,-629.61C475.66,-620.24 465.52,-609.38 456.13,-599.33"/>
<polygon fill="black" stroke="black" points="458.51,-596.76 449.13,-591.84 453.4,-601.54 458.51,-596.76"/>
</g>
<!-- aism:0000007 -->
<g id="node21" class="node">
<title>aism:0000007</title>
<ellipse fill="none" stroke="black" cx="597.27" cy="-475.57" rx="66.44" ry="26.74"/>
<text text-anchor="middle" x="597.27" y="-479.37" font-family="Times,serif" font-size="14.00">elastic cuticle</text>
<text text-anchor="middle" x="597.27" y="-464.37" font-family="Times,serif" font-size="14.00">aism:0000007</text>
</g>
<!-- aism:0000091&#45;&gt;aism:0000007 -->
<g id="edge18" class="edge">
<title>aism:0000091&#45;&gt;aism:0000007</title>
<path fill="none" stroke="black" d="M537.31,-630.98C549.21,-620.37 562.01,-606.88 570.27,-592.18 583.99,-567.76 590.75,-536.69 594.07,-512.91"/>
<polygon fill="black" stroke="black" points="597.56,-513.24 595.34,-502.88 590.62,-512.36 597.56,-513.24"/>
</g>
<!-- lepao:0000035 -->
<g id="node3" class="node">
<title>lepao:0000035</title>
<ellipse fill="none" stroke="red" cx="420.27" cy="-744.79" rx="74.49" ry="26.74"/>
<text text-anchor="middle" x="420.27" y="-748.59" font-family="Times,serif" font-size="14.00">antennal trachea</text>
<text text-anchor="middle" x="420.27" y="-733.59" font-family="Times,serif" font-size="14.00">lepao:0000035</text>
</g>
<!-- lepao:0000035&#45;&gt;aism:0000091 -->
<g id="edge2" class="edge">
<title>lepao:0000035&#45;&gt;aism:0000091</title>
<path fill="none" stroke="black" d="M444.5,-719.35C454.21,-709.56 465.53,-698.15 475.85,-687.73"/>
<polygon fill="black" stroke="black" points="478.61,-689.93 483.16,-680.36 473.64,-685 478.61,-689.93"/>
</g>
<!-- aism:0000006 -->
<g id="node5" class="node">
<title>aism:0000006</title>
<ellipse fill="none" stroke="black" cx="417.27" cy="-475.57" rx="95.42" ry="26.74"/>
<text text-anchor="middle" x="417.27" y="-479.37" font-family="Times,serif" font-size="14.00">cuticular invagination</text>
<text text-anchor="middle" x="417.27" y="-464.37" font-family="Times,serif" font-size="14.00">aism:0000006</text>
</g>
<!-- aism:0000136&#45;&gt;aism:0000006 -->
<g id="edge3" class="edge">
<title>aism:0000136&#45;&gt;aism:0000006</title>
<path fill="none" stroke="black" d="M422.87,-537.99C422.14,-530.02 421.33,-521.13 420.56,-512.64"/>
<polygon fill="black" stroke="black" points="424.03,-512.22 419.64,-502.57 417.06,-512.85 424.03,-512.22"/>
</g>
<!-- aism:0000174 -->
<g id="node6" class="node">
<title>aism:0000174</title>
<ellipse fill="none" stroke="black" cx="507.27" cy="-385.83" rx="74.91" ry="26.74"/>
<text text-anchor="middle" x="507.27" y="-389.63" font-family="Times,serif" font-size="14.00">region of cuticle</text>
<text text-anchor="middle" x="507.27" y="-374.63" font-family="Times,serif" font-size="14.00">aism:0000174</text>
</g>
<!-- aism:0000006&#45;&gt;aism:0000174 -->
<g id="edge19" class="edge">
<title>aism:0000006&#45;&gt;aism:0000174</title>
<path fill="none" stroke="black" d="M442.82,-449.66C452.77,-439.96 464.29,-428.72 474.82,-418.46"/>
<polygon fill="black" stroke="black" points="477.56,-420.68 482.28,-411.19 472.67,-415.67 477.56,-420.68"/>
</g>
<!-- uberon:0001001 -->
<g id="node7" class="node">
<title>uberon:0001001</title>
<ellipse fill="none" stroke="black" cx="86.27" cy="-296.09" rx="86.03" ry="26.74"/>
<text text-anchor="middle" x="86.27" y="-299.89" font-family="Times,serif" font-size="14.00">chitin&#45;based cuticle</text>
<text text-anchor="middle" x="86.27" y="-284.89" font-family="Times,serif" font-size="14.00">uberon:0001001</text>
</g>
<!-- aism:0000174&#45;&gt;uberon:0001001 -->
<g id="edge4" class="edge">
<title>aism:0000174&#45;&gt;uberon:0001001</title>
<path fill="none" stroke="blue" d="M440.14,-373.67C374.01,-362.31 270.24,-343.48 181.27,-322.96 173.77,-321.23 165.98,-319.31 158.22,-317.32"/>
<polygon fill="blue" stroke="blue" points="158.99,-313.91 148.43,-314.77 157.23,-320.68 158.99,-313.91"/>
</g>
<!-- uberon:6007284 -->
<g id="node8" class="node">
<title>uberon:6007284</title>
<ellipse fill="none" stroke="black" cx="929.27" cy="-296.09" rx="118.17" ry="26.74"/>
<text text-anchor="middle" x="929.27" y="-299.89" font-family="Times,serif" font-size="14.00">insect region of integument</text>
<text text-anchor="middle" x="929.27" y="-284.89" font-family="Times,serif" font-size="14.00">uberon:6007284</text>
</g>
<!-- aism:0000174&#45;&gt;uberon:6007284 -->
<g id="edge5" class="edge">
<title>aism:0000174&#45;&gt;uberon:6007284</title>
<path fill="none" stroke="blue" d="M570.9,-371.6C640.79,-357.07 753.75,-333.58 834.16,-316.86"/>
<polygon fill="blue" stroke="blue" points="835.22,-320.22 844.3,-314.76 833.79,-313.37 835.22,-320.22"/>
</g>
<!-- uberon:0001002 -->
<g id="node13" class="node">
<title>uberon:0001002</title>
<ellipse fill="none" stroke="blue" cx="447.27" cy="-206.35" rx="74.49" ry="26.74"/>
<text text-anchor="middle" x="447.27" y="-210.15" font-family="Times,serif" font-size="14.00">cuticle</text>
<text text-anchor="middle" x="447.27" y="-195.15" font-family="Times,serif" font-size="14.00">uberon:0001002</text>
</g>
<!-- uberon:0001001&#45;&gt;uberon:0001002 -->
<g id="edge12" class="edge">
<title>uberon:0001001&#45;&gt;uberon:0001002</title>
<path fill="none" stroke="black" d="M149.03,-277.64C159.77,-274.76 170.83,-271.86 181.27,-269.22 246.73,-252.7 321.66,-235.42 375.27,-223.33"/>
<polygon fill="black" stroke="black" points="376.04,-226.75 385.03,-221.14 374.51,-219.92 376.04,-226.75"/>
</g>
<!-- lepao:0000079 -->
<g id="node18" class="node">
<title>lepao:0000079</title>
<ellipse fill="none" stroke="black" cx="896.27" cy="-116.61" rx="109.7" ry="26.74"/>
<text text-anchor="middle" x="896.27" y="-120.41" font-family="Times,serif" font-size="14.00">organ system subdivision</text>
<text text-anchor="middle" x="896.27" y="-105.41" font-family="Times,serif" font-size="14.00">lepao:0000079</text>
</g>
<!-- uberon:6007284&#45;&gt;lepao:0000079 -->
<g id="edge14" class="edge">
<title>uberon:6007284&#45;&gt;lepao:0000079</title>
<path fill="none" stroke="black" d="M924.4,-268.9C918.73,-238.41 909.33,-187.85 902.97,-153.66"/>
<polygon fill="black" stroke="black" points="906.37,-152.81 901.1,-143.62 899.49,-154.09 906.37,-152.81"/>
</g>
<!-- lepao:0000014 -->
<g id="node9" class="node">
<title>lepao:0000014</title>
<ellipse fill="none" stroke="black" cx="578.27" cy="-116.61" rx="125.73" ry="26.74"/>
<text text-anchor="middle" x="578.27" y="-120.41" font-family="Times,serif" font-size="14.00">acellular anatomical structure</text>
<text text-anchor="middle" x="578.27" y="-105.41" font-family="Times,serif" font-size="14.00">lepao:0000014</text>
</g>
<!-- lepao:0000006 -->
<g id="node10" class="node">
<title>lepao:0000006</title>
<ellipse fill="none" stroke="red" cx="896.27" cy="-26.87" rx="78.48" ry="26.74"/>
<text text-anchor="middle" x="896.27" y="-30.67" font-family="Times,serif" font-size="14.00">anatomical entity</text>
<text text-anchor="middle" x="896.27" y="-15.67" font-family="Times,serif" font-size="14.00">lepao:0000006</text>
</g>
<!-- lepao:0000014&#45;&gt;lepao:0000006 -->
<g id="edge6" class="edge">
<title>lepao:0000014&#45;&gt;lepao:0000006</title>
<path fill="none" stroke="black" d="M653.23,-94.93C705.75,-80.44 775.45,-61.2 826.74,-47.05"/>
<polygon fill="black" stroke="black" points="827.71,-50.42 836.42,-44.38 825.85,-43.67 827.71,-50.42"/>
</g>
<!-- lepao:0000034 -->
<g id="node11" class="node">
<title>lepao:0000034</title>
<ellipse fill="none" stroke="red" cx="594.27" cy="-744.79" rx="82.05" ry="26.74"/>
<text text-anchor="middle" x="594.27" y="-748.59" font-family="Times,serif" font-size="14.00">labial palp trachea</text>
<text text-anchor="middle" x="594.27" y="-733.59" font-family="Times,serif" font-size="14.00">lepao:0000034</text>
</g>
<!-- lepao:0000034&#45;&gt;aism:0000091 -->
<g id="edge7" class="edge">
<title>lepao:0000034&#45;&gt;aism:0000091</title>
<path fill="none" stroke="black" d="M569.57,-718.88C559.95,-709.18 548.81,-697.94 538.63,-687.68"/>
<polygon fill="black" stroke="black" points="540.95,-685.05 531.43,-680.41 535.98,-689.98 540.95,-685.05"/>
</g>
<!-- lepao:0000082 -->
<g id="node12" class="node">
<title>lepao:0000082</title>
<ellipse fill="none" stroke="red" cx="259.27" cy="-296.09" rx="68.68" ry="26.74"/>
<text text-anchor="middle" x="259.27" y="-299.89" font-family="Times,serif" font-size="14.00">epicuticle</text>
<text text-anchor="middle" x="259.27" y="-284.89" font-family="Times,serif" font-size="14.00">lepao:0000082</text>
</g>
<!-- lepao:0000082&#45;&gt;uberon:0001002 -->
<g id="edge8" class="edge">
<title>lepao:0000082&#45;&gt;uberon:0001002</title>
<path fill="none" stroke="black" d="M302.4,-274.96C329.59,-262.27 364.91,-245.78 393.87,-232.27"/>
<polygon fill="black" stroke="black" points="395.45,-235.4 403.03,-228 392.49,-229.05 395.45,-235.4"/>
</g>
<!-- uberon:0001002&#45;&gt;lepao:0000014 -->
<g id="edge11" class="edge">
<title>uberon:0001002&#45;&gt;lepao:0000014</title>
<path fill="none" stroke="black" d="M481.69,-182.3C497.31,-171.83 516,-159.31 532.76,-148.09"/>
<polygon fill="black" stroke="black" points="534.96,-150.83 541.32,-142.35 531.07,-145.01 534.96,-150.83"/>
</g>
<!-- lepao:0000083 -->
<g id="node14" class="node">
<title>lepao:0000083</title>
<ellipse fill="none" stroke="red" cx="414.27" cy="-296.09" rx="68.68" ry="26.74"/>
<text text-anchor="middle" x="414.27" y="-299.89" font-family="Times,serif" font-size="14.00">exocuticle</text>
<text text-anchor="middle" x="414.27" y="-284.89" font-family="Times,serif" font-size="14.00">lepao:0000083</text>
</g>
<!-- lepao:0000083&#45;&gt;uberon:0001002 -->
<g id="edge9" class="edge">
<title>lepao:0000083&#45;&gt;uberon:0001002</title>
<path fill="none" stroke="black" d="M423.99,-269.24C427.15,-260.85 430.7,-251.4 434.07,-242.45"/>
<polygon fill="black" stroke="black" points="437.37,-243.61 437.61,-233.02 430.82,-241.14 437.37,-243.61"/>
</g>
<!-- lepao:0000108 -->
<g id="node15" class="node">
<title>lepao:0000108</title>
<ellipse fill="none" stroke="red" cx="1098.27" cy="-206.35" rx="78.48" ry="26.74"/>
<text text-anchor="middle" x="1098.27" y="-210.15" font-family="Times,serif" font-size="14.00">cerebral ganglion</text>
<text text-anchor="middle" x="1098.27" y="-195.15" font-family="Times,serif" font-size="14.00">lepao:0000108</text>
</g>
<!-- uberon:0000955 -->
<g id="node16" class="node">
<title>uberon:0000955</title>
<ellipse fill="none" stroke="blue" cx="1098.27" cy="-116.61" rx="74.49" ry="26.74"/>
<text text-anchor="middle" x="1098.27" y="-120.41" font-family="Times,serif" font-size="14.00">brain</text>
<text text-anchor="middle" x="1098.27" y="-105.41" font-family="Times,serif" font-size="14.00">uberon:0000955</text>
</g>
<!-- lepao:0000108&#45;&gt;uberon:0000955 -->
<g id="edge10" class="edge">
<title>lepao:0000108&#45;&gt;uberon:0000955</title>
<path fill="none" stroke="blue" d="M1098.27,-179.03C1098.27,-171.06 1098.27,-162.17 1098.27,-153.68"/>
<polygon fill="blue" stroke="blue" points="1101.77,-153.61 1098.27,-143.61 1094.77,-153.61 1101.77,-153.61"/>
</g>
<!-- uberon:0000955&#45;&gt;lepao:0000006 -->
<g id="edge16" class="edge">
<title>uberon:0000955&#45;&gt;lepao:0000006</title>
<path fill="none" stroke="black" d="M1051.92,-95.48C1022.47,-82.69 984.15,-66.04 952.9,-52.47"/>
<polygon fill="black" stroke="black" points="954.01,-49.14 943.44,-48.36 951.22,-55.56 954.01,-49.14"/>
</g>
<!-- lepao:0000081 -->
<g id="node17" class="node">
<title>lepao:0000081</title>
<ellipse fill="none" stroke="red" cx="569.27" cy="-296.09" rx="68.68" ry="26.74"/>
<text text-anchor="middle" x="569.27" y="-299.89" font-family="Times,serif" font-size="14.00">endocuticle</text>
<text text-anchor="middle" x="569.27" y="-284.89" font-family="Times,serif" font-size="14.00">lepao:0000081</text>
</g>
<!-- lepao:0000081&#45;&gt;uberon:0001002 -->
<g id="edge13" class="edge">
<title>lepao:0000081&#45;&gt;uberon:0001002</title>
<path fill="none" stroke="black" d="M537.53,-272.27C522.38,-261.37 504.07,-248.2 487.92,-236.59"/>
<polygon fill="black" stroke="black" points="489.86,-233.67 479.69,-230.67 485.77,-239.35 489.86,-233.67"/>
</g>
<!-- lepao:0000079&#45;&gt;lepao:0000006 -->
<g id="edge21" class="edge">
<title>lepao:0000079&#45;&gt;lepao:0000006</title>
<path fill="none" stroke="black" d="M896.27,-89.29C896.27,-81.32 896.27,-72.43 896.27,-63.94"/>
<polygon fill="black" stroke="black" points="899.77,-63.87 896.27,-53.87 892.77,-63.87 899.77,-63.87"/>
</g>
<!-- lepao:0000031 -->
<g id="node19" class="node">
<title>lepao:0000031</title>
<ellipse fill="none" stroke="red" cx="763.27" cy="-744.79" rx="68.68" ry="26.74"/>
<text text-anchor="middle" x="763.27" y="-748.59" font-family="Times,serif" font-size="14.00">galeal trachea</text>
<text text-anchor="middle" x="763.27" y="-733.59" font-family="Times,serif" font-size="14.00">lepao:0000031</text>
</g>
<!-- lepao:0000031&#45;&gt;aism:0000091 -->
<g id="edge15" class="edge">
<title>lepao:0000031&#45;&gt;aism:0000091</title>
<path fill="none" stroke="black" d="M712.69,-726.46C670.61,-712.03 610.64,-691.48 566.35,-676.3"/>
<polygon fill="black" stroke="black" points="567.46,-672.98 556.87,-673.05 565.19,-679.6 567.46,-672.98"/>
</g>
<!-- lepao:0000004 -->
<g id="node20" class="node">
<title>lepao:0000004</title>
<ellipse fill="none" stroke="red" cx="959.27" cy="-744.79" rx="109.7" ry="26.74"/>
<text text-anchor="middle" x="959.27" y="-748.59" font-family="Times,serif" font-size="14.00">cellular anatomical entity</text>
<text text-anchor="middle" x="959.27" y="-733.59" font-family="Times,serif" font-size="14.00">lepao:0000004</text>
</g>
<!-- aism:0000007&#45;&gt;aism:0000174 -->
<g id="edge20" class="edge">
<title>aism:0000007&#45;&gt;aism:0000174</title>
<path fill="none" stroke="black" d="M572.67,-450.6C562.53,-440.7 550.62,-429.09 539.77,-418.51"/>
<polygon fill="black" stroke="black" points="542.06,-415.86 532.46,-411.39 537.17,-420.87 542.06,-415.86"/>
</g>
<!-- lepao:0000001 -->
<g id="node22" class="node">
<title>lepao:0000001</title>
<ellipse fill="none" stroke="red" cx="1155.27" cy="-744.79" rx="68.68" ry="26.74"/>
<text text-anchor="middle" x="1155.27" y="-748.59" font-family="Times,serif" font-size="14.00">muscle tissue</text>
<text text-anchor="middle" x="1155.27" y="-733.59" font-family="Times,serif" font-size="14.00">lepao:0000001</text>
</g>
<!-- lepao:0000084 -->
<g id="node23" class="node">
<title>lepao:0000084</title>
<ellipse fill="none" stroke="red" cx="724.27" cy="-296.09" rx="68.68" ry="26.74"/>
<text text-anchor="middle" x="724.27" y="-299.89" font-family="Times,serif" font-size="14.00">procuticle</text>
<text text-anchor="middle" x="724.27" y="-284.89" font-family="Times,serif" font-size="14.00">lepao:0000084</text>
</g>
<!-- lepao:0000084&#45;&gt;uberon:0001002 -->
<g id="edge22" class="edge">
<title>lepao:0000084&#45;&gt;uberon:0001002</title>
<path fill="none" stroke="black" d="M673.38,-277.8C664.68,-274.9 655.72,-271.95 647.27,-269.22 602.46,-254.77 551.8,-239.1 512.68,-227.15"/>
<polygon fill="black" stroke="black" points="513.57,-223.76 502.99,-224.19 511.53,-230.46 513.57,-223.76"/>
</g>
</g>
</svg>
