<?xml version="1.0" encoding="UTF-8" standalone="no"?>
<!DOCTYPE svg PUBLIC "-//W3C//DTD SVG 1.1//EN"
 "http://www.w3.org/Graphics/SVG/1.1/DTD/svg11.dtd">
<!-- Generated by graphviz version 3.0.0 (20220226.1711)
 -->
<!-- Pages: 1 -->
<svg width="1550pt" height="780pt"
 viewBox="0.00 0.00 1550.19 779.66" xmlns="http://www.w3.org/2000/svg" xmlns:xlink="http://www.w3.org/1999/xlink">
<g id="graph0" class="graph" transform="scale(1 1) rotate(0) translate(4 775.66)">
<polygon fill="white" stroke="transparent" points="-4,4 -4,-775.66 1546.19,-775.66 1546.19,4 -4,4"/>
<!-- aism:0000006 -->
<g id="node1" class="node">
<title>aism:0000006</title>
<ellipse fill="none" stroke="black" cx="907.59" cy="-475.57" rx="95.42" ry="26.74"/>
<text text-anchor="middle" x="907.59" y="-479.37" font-family="Times,serif" font-size="14.00">cuticular invagination</text>
<text text-anchor="middle" x="907.59" y="-464.37" font-family="Times,serif" font-size="14.00">aism:0000006</text>
</g>
<!-- aism:0000174 -->
<g id="node2" class="node">
<title>aism:0000174</title>
<ellipse fill="none" stroke="black" cx="817.59" cy="-385.83" rx="74.91" ry="26.74"/>
<text text-anchor="middle" x="817.59" y="-389.63" font-family="Times,serif" font-size="14.00">region of cuticle</text>
<text text-anchor="middle" x="817.59" y="-374.63" font-family="Times,serif" font-size="14.00">aism:0000174</text>
</g>
<!-- aism:0000006&#45;&gt;aism:0000174 -->
<g id="edge1" class="edge">
<title>aism:0000006&#45;&gt;aism:0000174</title>
<path fill="none" stroke="black" d="M882.04,-449.66C872.09,-439.96 860.56,-428.72 850.03,-418.46"/>
<polygon fill="black" stroke="black" points="852.18,-415.67 842.58,-411.19 847.3,-420.68 852.18,-415.67"/>
</g>
<!-- uberon:0001001 -->
<g id="node8" class="node">
<title>uberon:0001001</title>
<ellipse fill="none" stroke="black" cx="706.59" cy="-296.09" rx="86.03" ry="26.74"/>
<text text-anchor="middle" x="706.59" y="-299.89" font-family="Times,serif" font-size="14.00">chitin&#45;based cuticle</text>
<text text-anchor="middle" x="706.59" y="-284.89" font-family="Times,serif" font-size="14.00">uberon:0001001</text>
</g>
<!-- aism:0000174&#45;&gt;uberon:0001001 -->
<g id="edge8" class="edge">
<title>aism:0000174&#45;&gt;uberon:0001001</title>
<path fill="none" stroke="blue" d="M787.55,-361.09C774.56,-350.82 759.2,-338.68 745.36,-327.74"/>
<polygon fill="blue" stroke="blue" points="747.44,-324.92 737.42,-321.46 743.1,-330.41 747.44,-324.92"/>
</g>
<!-- uberon:6007284 -->
<g id="node12" class="node">
<title>uberon:6007284</title>
<ellipse fill="none" stroke="black" cx="928.59" cy="-296.09" rx="118.17" ry="26.74"/>
<text text-anchor="middle" x="928.59" y="-299.89" font-family="Times,serif" font-size="14.00">insect region of integument</text>
<text text-anchor="middle" x="928.59" y="-284.89" font-family="Times,serif" font-size="14.00">uberon:6007284</text>
</g>
<!-- aism:0000174&#45;&gt;uberon:6007284 -->
<g id="edge9" class="edge">
<title>aism:0000174&#45;&gt;uberon:6007284</title>
<path fill="none" stroke="blue" d="M847.63,-361.09C860.4,-350.99 875.47,-339.08 889.13,-328.28"/>
<polygon fill="blue" stroke="blue" points="891.3,-331.03 896.97,-322.08 886.96,-325.54 891.3,-331.03"/>
</g>
<!-- lepao:0000083 -->
<g id="node3" class="node">
<title>lepao:0000083</title>
<ellipse fill="none" stroke="red" cx="68.59" cy="-296.09" rx="68.68" ry="26.74"/>
<text text-anchor="middle" x="68.59" y="-299.89" font-family="Times,serif" font-size="14.00">exocuticle</text>
<text text-anchor="middle" x="68.59" y="-284.89" font-family="Times,serif" font-size="14.00">lepao:0000083</text>
</g>
<!-- uberon:0001002 -->
<g id="node4" class="node">
<title>uberon:0001002</title>
<ellipse fill="none" stroke="blue" cx="456.59" cy="-206.35" rx="74.49" ry="26.74"/>
<text text-anchor="middle" x="456.59" y="-210.15" font-family="Times,serif" font-size="14.00">cuticle</text>
<text text-anchor="middle" x="456.59" y="-195.15" font-family="Times,serif" font-size="14.00">uberon:0001002</text>
</g>
<!-- lepao:0000083&#45;&gt;uberon:0001002 -->
<g id="edge2" class="edge">
<title>lepao:0000083&#45;&gt;uberon:0001002</title>
<path fill="none" stroke="black" d="M117.97,-277.29C127.08,-274.36 136.57,-271.52 145.59,-269.22 234.37,-246.57 258.88,-251.9 348.59,-233.22 360.95,-230.65 374.06,-227.7 386.72,-224.73"/>
<polygon fill="black" stroke="black" points="387.82,-228.06 396.75,-222.36 386.21,-221.25 387.82,-228.06"/>
</g>
<!-- lepao:0000014 -->
<g id="node5" class="node">
<title>lepao:0000014</title>
<ellipse fill="none" stroke="black" cx="479.59" cy="-116.61" rx="125.73" ry="26.74"/>
<text text-anchor="middle" x="479.59" y="-120.41" font-family="Times,serif" font-size="14.00">acellular anatomical structure</text>
<text text-anchor="middle" x="479.59" y="-105.41" font-family="Times,serif" font-size="14.00">lepao:0000014</text>
</g>
<!-- uberon:0001002&#45;&gt;lepao:0000014 -->
<g id="edge3" class="edge">
<title>uberon:0001002&#45;&gt;lepao:0000014</title>
<path fill="none" stroke="black" d="M463.37,-179.5C465.5,-171.36 467.89,-162.22 470.18,-153.51"/>
<polygon fill="black" stroke="black" points="473.63,-154.14 472.78,-143.58 466.86,-152.36 473.63,-154.14"/>
</g>
<!-- lepao:0000006 -->
<g id="node11" class="node">
<title>lepao:0000006</title>
<ellipse fill="none" stroke="red" cx="479.59" cy="-26.87" rx="78.48" ry="26.74"/>
<text text-anchor="middle" x="479.59" y="-30.67" font-family="Times,serif" font-size="14.00">anatomical entity</text>
<text text-anchor="middle" x="479.59" y="-15.67" font-family="Times,serif" font-size="14.00">lepao:0000006</text>
</g>
<!-- lepao:0000014&#45;&gt;lepao:0000006 -->
<g id="edge18" class="edge">
<title>lepao:0000014&#45;&gt;lepao:0000006</title>
<path fill="none" stroke="black" d="M479.59,-89.29C479.59,-81.32 479.59,-72.43 479.59,-63.94"/>
<polygon fill="black" stroke="black" points="483.09,-63.87 479.59,-53.87 476.09,-63.87 483.09,-63.87"/>
</g>
<!-- lepao:0000108 -->
<g id="node6" class="node">
<title>lepao:0000108</title>
<ellipse fill="none" stroke="red" cx="261.59" cy="-206.35" rx="78.48" ry="26.74"/>
<text text-anchor="middle" x="261.59" y="-210.15" font-family="Times,serif" font-size="14.00">cerebral ganglion</text>
<text text-anchor="middle" x="261.59" y="-195.15" font-family="Times,serif" font-size="14.00">lepao:0000108</text>
</g>
<!-- uberon:0000955 -->
<g id="node7" class="node">
<title>uberon:0000955</title>
<ellipse fill="none" stroke="blue" cx="261.59" cy="-116.61" rx="74.49" ry="26.74"/>
<text text-anchor="middle" x="261.59" y="-120.41" font-family="Times,serif" font-size="14.00">brain</text>
<text text-anchor="middle" x="261.59" y="-105.41" font-family="Times,serif" font-size="14.00">uberon:0000955</text>
</g>
<!-- lepao:0000108&#45;&gt;uberon:0000955 -->
<g id="edge4" class="edge">
<title>lepao:0000108&#45;&gt;uberon:0000955</title>
<path fill="none" stroke="blue" d="M261.59,-179.03C261.59,-171.06 261.59,-162.17 261.59,-153.68"/>
<polygon fill="blue" stroke="blue" points="265.09,-153.61 261.59,-143.61 258.09,-153.61 265.09,-153.61"/>
</g>
<!-- uberon:0000955&#45;&gt;lepao:0000006 -->
<g id="edge17" class="edge">
<title>uberon:0000955&#45;&gt;lepao:0000006</title>
<path fill="none" stroke="black" d="M309.97,-96.14C342.53,-83.03 385.68,-65.67 420.31,-51.73"/>
<polygon fill="black" stroke="black" points="421.86,-54.88 429.83,-47.9 419.25,-48.38 421.86,-54.88"/>
</g>
<!-- uberon:0001001&#45;&gt;uberon:0001002 -->
<g id="edge5" class="edge">
<title>uberon:0001001&#45;&gt;uberon:0001002</title>
<path fill="none" stroke="black" d="M650.8,-275.51C611.49,-261.72 558.86,-243.24 518.31,-229.01"/>
<polygon fill="black" stroke="black" points="519.39,-225.68 508.8,-225.67 517.07,-232.29 519.39,-225.68"/>
</g>
<!-- aism:0000007 -->
<g id="node9" class="node">
<title>aism:0000007</title>
<ellipse fill="none" stroke="black" cx="727.59" cy="-475.57" rx="66.44" ry="26.74"/>
<text text-anchor="middle" x="727.59" y="-479.37" font-family="Times,serif" font-size="14.00">elastic cuticle</text>
<text text-anchor="middle" x="727.59" y="-464.37" font-family="Times,serif" font-size="14.00">aism:0000007</text>
</g>
<!-- aism:0000007&#45;&gt;aism:0000174 -->
<g id="edge6" class="edge">
<title>aism:0000007&#45;&gt;aism:0000174</title>
<path fill="none" stroke="black" d="M752.18,-450.6C762.33,-440.7 774.24,-429.09 785.09,-418.51"/>
<polygon fill="black" stroke="black" points="787.68,-420.87 792.4,-411.39 782.8,-415.86 787.68,-420.87"/>
</g>
<!-- lepao:0000079 -->
<g id="node10" class="node">
<title>lepao:0000079</title>
<ellipse fill="none" stroke="black" cx="791.59" cy="-116.61" rx="109.7" ry="26.74"/>
<text text-anchor="middle" x="791.59" y="-120.41" font-family="Times,serif" font-size="14.00">organ system subdivision</text>
<text text-anchor="middle" x="791.59" y="-105.41" font-family="Times,serif" font-size="14.00">lepao:0000079</text>
</g>
<!-- lepao:0000079&#45;&gt;lepao:0000006 -->
<g id="edge7" class="edge">
<title>lepao:0000079&#45;&gt;lepao:0000006</title>
<path fill="none" stroke="black" d="M721.57,-95.92C669.92,-81.4 599.99,-61.73 548.58,-47.27"/>
<polygon fill="black" stroke="black" points="549.46,-43.88 538.88,-44.55 547.56,-50.62 549.46,-43.88"/>
</g>
<!-- uberon:6007284&#45;&gt;lepao:0000079 -->
<g id="edge21" class="edge">
<title>uberon:6007284&#45;&gt;lepao:0000079</title>
<path fill="none" stroke="black" d="M908.67,-269.28C884.65,-238.17 844.23,-185.81 817.73,-151.48"/>
<polygon fill="black" stroke="black" points="820.19,-148.94 811.31,-143.16 814.65,-153.22 820.19,-148.94"/>
</g>
<!-- lepao:0000084 -->
<g id="node13" class="node">
<title>lepao:0000084</title>
<ellipse fill="none" stroke="red" cx="223.59" cy="-296.09" rx="68.68" ry="26.74"/>
<text text-anchor="middle" x="223.59" y="-299.89" font-family="Times,serif" font-size="14.00">procuticle</text>
<text text-anchor="middle" x="223.59" y="-284.89" font-family="Times,serif" font-size="14.00">lepao:0000084</text>
</g>
<!-- lepao:0000084&#45;&gt;uberon:0001002 -->
<g id="edge10" class="edge">
<title>lepao:0000084&#45;&gt;uberon:0001002</title>
<path fill="none" stroke="black" d="M271.87,-276.91C308.12,-263.26 357.97,-244.49 396.76,-229.88"/>
<polygon fill="black" stroke="black" points="398.24,-233.06 406.36,-226.26 395.77,-226.51 398.24,-233.06"/>
</g>
<!-- lepao:0000081 -->
<g id="node14" class="node">
<title>lepao:0000081</title>
<ellipse fill="none" stroke="red" cx="378.59" cy="-296.09" rx="68.68" ry="26.74"/>
<text text-anchor="middle" x="378.59" y="-299.89" font-family="Times,serif" font-size="14.00">endocuticle</text>
<text text-anchor="middle" x="378.59" y="-284.89" font-family="Times,serif" font-size="14.00">lepao:0000081</text>
</g>
<!-- lepao:0000081&#45;&gt;uberon:0001002 -->
<g id="edge11" class="edge">
<title>lepao:0000081&#45;&gt;uberon:0001002</title>
<path fill="none" stroke="black" d="M400.73,-270.18C409.05,-260.83 418.63,-250.05 427.48,-240.09"/>
<polygon fill="black" stroke="black" points="430.36,-242.12 434.39,-232.32 425.13,-237.47 430.36,-242.12"/>
</g>
<!-- lepao:0000082 -->
<g id="node15" class="node">
<title>lepao:0000082</title>
<ellipse fill="none" stroke="red" cx="533.59" cy="-296.09" rx="68.68" ry="26.74"/>
<text text-anchor="middle" x="533.59" y="-299.89" font-family="Times,serif" font-size="14.00">epicuticle</text>
<text text-anchor="middle" x="533.59" y="-284.89" font-family="Times,serif" font-size="14.00">lepao:0000082</text>
</g>
<!-- lepao:0000082&#45;&gt;uberon:0001002 -->
<g id="edge12" class="edge">
<title>lepao:0000082&#45;&gt;uberon:0001002</title>
<path fill="none" stroke="black" d="M511.73,-270.18C503.52,-260.83 494.06,-250.05 485.32,-240.09"/>
<polygon fill="black" stroke="black" points="487.73,-237.53 478.5,-232.32 482.47,-242.15 487.73,-237.53"/>
</g>
<!-- aism:0000091 -->
<g id="node16" class="node">
<title>aism:0000091</title>
<ellipse fill="none" stroke="blue" cx="817.59" cy="-655.05" rx="66.44" ry="26.74"/>
<text text-anchor="middle" x="817.59" y="-658.85" font-family="Times,serif" font-size="14.00">trachea</text>
<text text-anchor="middle" x="817.59" y="-643.85" font-family="Times,serif" font-size="14.00">aism:0000091</text>
</g>
<!-- aism:0000091&#45;&gt;aism:0000007 -->
<g id="edge13" class="edge">
<title>aism:0000091&#45;&gt;aism:0000007</title>
<path fill="none" stroke="black" d="M789.71,-630.52C778.6,-619.84 766.59,-606.42 758.59,-592.18 744.76,-567.56 736.88,-536.5 732.52,-512.78"/>
<polygon fill="black" stroke="black" points="735.95,-512.04 730.82,-502.77 729.05,-513.22 735.95,-512.04"/>
</g>
<!-- aism:0000136 -->
<g id="node17" class="node">
<title>aism:0000136</title>
<ellipse fill="none" stroke="black" cx="903.59" cy="-565.31" rx="136.44" ry="26.74"/>
<text text-anchor="middle" x="903.59" y="-569.11" font-family="Times,serif" font-size="14.00">branching cuticular invagination</text>
<text text-anchor="middle" x="903.59" y="-554.11" font-family="Times,serif" font-size="14.00">aism:0000136</text>
</g>
<!-- aism:0000091&#45;&gt;aism:0000136 -->
<g id="edge14" class="edge">
<title>aism:0000091&#45;&gt;aism:0000136</title>
<path fill="none" stroke="black" d="M841.55,-629.61C850.82,-620.14 861.58,-609.17 871.51,-599.04"/>
<polygon fill="black" stroke="black" points="874.06,-601.44 878.56,-591.84 869.06,-596.54 874.06,-601.44"/>
</g>
<!-- aism:0000136&#45;&gt;aism:0000006 -->
<g id="edge16" class="edge">
<title>aism:0000136&#45;&gt;aism:0000006</title>
<path fill="none" stroke="black" d="M904.79,-537.99C905.15,-530.02 905.56,-521.13 905.94,-512.64"/>
<polygon fill="black" stroke="black" points="909.44,-512.72 906.4,-502.57 902.45,-512.4 909.44,-512.72"/>
</g>
<!-- lepao:0000040 -->
<g id="node18" class="node">
<title>lepao:0000040</title>
<ellipse fill="none" stroke="red" cx="576.59" cy="-744.79" rx="68.68" ry="26.74"/>
<text text-anchor="middle" x="576.59" y="-748.59" font-family="Times,serif" font-size="14.00">leg trachea</text>
<text text-anchor="middle" x="576.59" y="-733.59" font-family="Times,serif" font-size="14.00">lepao:0000040</text>
</g>
<!-- lepao:0000040&#45;&gt;aism:0000091 -->
<g id="edge15" class="edge">
<title>lepao:0000040&#45;&gt;aism:0000091</title>
<path fill="none" stroke="black" d="M625.65,-725.93C664.51,-711.78 718.89,-691.99 759.84,-677.07"/>
<polygon fill="black" stroke="black" points="761.22,-680.3 769.42,-673.59 758.83,-673.72 761.22,-680.3"/>
</g>
<!-- lepao:0000001 -->
<g id="node19" class="node">
<title>lepao:0000001</title>
<ellipse fill="none" stroke="red" cx="1236.59" cy="-744.79" rx="68.68" ry="26.74"/>
<text text-anchor="middle" x="1236.59" y="-748.59" font-family="Times,serif" font-size="14.00">muscle tissue</text>
<text text-anchor="middle" x="1236.59" y="-733.59" font-family="Times,serif" font-size="14.00">lepao:0000001</text>
</g>
<!-- lepao:0000035 -->
<g id="node20" class="node">
<title>lepao:0000035</title>
<ellipse fill="none" stroke="red" cx="737.59" cy="-744.79" rx="74.49" ry="26.74"/>
<text text-anchor="middle" x="737.59" y="-748.59" font-family="Times,serif" font-size="14.00">antennal trachea</text>
<text text-anchor="middle" x="737.59" y="-733.59" font-family="Times,serif" font-size="14.00">lepao:0000035</text>
</g>
<!-- lepao:0000035&#45;&gt;aism:0000091 -->
<g id="edge19" class="edge">
<title>lepao:0000035&#45;&gt;aism:0000091</title>
<path fill="none" stroke="black" d="M760.3,-718.88C769.06,-709.27 779.19,-698.16 788.48,-687.98"/>
<polygon fill="black" stroke="black" points="791.22,-690.16 795.37,-680.41 786.05,-685.45 791.22,-690.16"/>
</g>
<!-- lepao:0000031 -->
<g id="node21" class="node">
<title>lepao:0000031</title>
<ellipse fill="none" stroke="red" cx="898.59" cy="-744.79" rx="68.68" ry="26.74"/>
<text text-anchor="middle" x="898.59" y="-748.59" font-family="Times,serif" font-size="14.00">galeal trachea</text>
<text text-anchor="middle" x="898.59" y="-733.59" font-family="Times,serif" font-size="14.00">lepao:0000031</text>
</g>
<!-- lepao:0000031&#45;&gt;aism:0000091 -->
<g id="edge20" class="edge">
<title>lepao:0000031&#45;&gt;aism:0000091</title>
<path fill="none" stroke="black" d="M876.03,-719.35C866.99,-709.56 856.45,-698.15 846.84,-687.73"/>
<polygon fill="black" stroke="black" points="849.39,-685.33 840.03,-680.36 844.24,-690.08 849.39,-685.33"/>
</g>
<!-- lepao:0000004 -->
<g id="node22" class="node">
<title>lepao:0000004</title>
<ellipse fill="none" stroke="red" cx="1432.59" cy="-744.79" rx="109.7" ry="26.74"/>
<text text-anchor="middle" x="1432.59" y="-748.59" font-family="Times,serif" font-size="14.00">cellular anatomical entity</text>
<text text-anchor="middle" x="1432.59" y="-733.59" font-family="Times,serif" font-size="14.00">lepao:0000004</text>
</g>
<!-- lepao:0000034 -->
<g id="node23" class="node">
<title>lepao:0000034</title>
<ellipse fill="none" stroke="red" cx="1067.59" cy="-744.79" rx="82.05" ry="26.74"/>
<text text-anchor="middle" x="1067.59" y="-748.59" font-family="Times,serif" font-size="14.00">labial palp trachea</text>
<text text-anchor="middle" x="1067.59" y="-733.59" font-family="Times,serif" font-size="14.00">lepao:0000034</text>
</g>
<!-- lepao:0000034&#45;&gt;aism:0000091 -->
<g id="edge22" class="edge">
<title>lepao:0000034&#45;&gt;aism:0000091</title>
<path fill="none" stroke="black" d="M1013.03,-724.64C972.73,-710.5 917.93,-691.27 876.6,-676.76"/>
<polygon fill="black" stroke="black" points="877.54,-673.38 866.94,-673.37 875.22,-679.99 877.54,-673.38"/>
</g>
</g>
</svg>
