<?xml version="1.0" encoding="UTF-8" standalone="no"?>
<!DOCTYPE svg PUBLIC "-//W3C//DTD SVG 1.1//EN"
 "http://www.w3.org/Graphics/SVG/1.1/DTD/svg11.dtd">
<!-- Generated by graphviz version 14.1.5 (20260411.2331)
 -->
<!-- Pages: 1 -->
<svg width="1156pt" height="377pt"
 viewBox="0.00 0.00 1156.00 377.00" xmlns="http://www.w3.org/2000/svg" xmlns:xlink="http://www.w3.org/1999/xlink">
<g id="graph0" class="graph" transform="scale(1 1) rotate(0) translate(4 372.74)">
<polygon fill="white" stroke="none" points="-4,4 -4,-372.74 1152.07,-372.74 1152.07,4 -4,4"/>
<!-- prefix=&#39;IAO&#39; identifier=&#39;0000088&#39; -->
<g id="node1" class="node">
<title>prefix=&#39;IAO&#39; identifier=&#39;0000088&#39;</title>
<ellipse fill="none" stroke="blue" cx="159.14" cy="-263.82" rx="59.23" ry="18"/>
<text xml:space="preserve" text-anchor="middle" x="159.14" y="-259.62" font-family="Times,serif" font-size="14.00">IAO:0000088</text>
</g>
<!-- prefix=&#39;IAO&#39; identifier=&#39;0000038&#39; -->
<g id="node2" class="node">
<title>prefix=&#39;IAO&#39; identifier=&#39;0000038&#39;</title>
<ellipse fill="none" stroke="blue" cx="359.14" cy="-263.82" rx="59.23" ry="18"/>
<text xml:space="preserve" text-anchor="middle" x="359.14" y="-259.62" font-family="Times,serif" font-size="14.00">IAO:0000038</text>
</g>
<!-- prefix=&#39;MCRO&#39; identifier=&#39;0000001&#39; -->
<g id="node3" class="node">
<title>prefix=&#39;MCRO&#39; identifier=&#39;0000001&#39;</title>
<ellipse fill="none" stroke="red" cx="159.14" cy="-343.28" rx="88.3" ry="25.46"/>
<text xml:space="preserve" text-anchor="middle" x="159.14" y="-346.08" font-family="Times,serif" font-size="14.00">Model Card Report</text>
<text xml:space="preserve" text-anchor="middle" x="159.14" y="-332.08" font-family="Times,serif" font-size="14.00">MCRO:0000001</text>
</g>
<!-- prefix=&#39;MCRO&#39; identifier=&#39;0000001&#39;&#45;&gt;prefix=&#39;IAO&#39; identifier=&#39;0000088&#39; -->
<g id="edge1" class="edge">
<title>prefix=&#39;MCRO&#39; identifier=&#39;0000001&#39;&#45;&gt;prefix=&#39;IAO&#39; identifier=&#39;0000088&#39;</title>
<path fill="none" stroke="black" d="M159.14,-317.35C159.14,-309.71 159.14,-301.25 159.14,-293.39"/>
<polygon fill="black" stroke="black" points="162.64,-293.63 159.14,-283.63 155.64,-293.63 162.64,-293.63"/>
</g>
<!-- prefix=&#39;MCRO&#39; identifier=&#39;0000004&#39; -->
<g id="node4" class="node">
<title>prefix=&#39;MCRO&#39; identifier=&#39;0000004&#39;</title>
<ellipse fill="none" stroke="red" cx="125.14" cy="-97.46" rx="125.14" ry="25.46"/>
<text xml:space="preserve" text-anchor="middle" x="125.14" y="-100.26" font-family="Times,serif" font-size="14.00">Citation Information Section</text>
<text xml:space="preserve" text-anchor="middle" x="125.14" y="-86.26" font-family="Times,serif" font-size="14.00">MCRO:0000004</text>
</g>
<!-- prefix=&#39;IAO&#39; identifier=&#39;0000314&#39; -->
<g id="node10" class="node">
<title>prefix=&#39;IAO&#39; identifier=&#39;0000314&#39;</title>
<ellipse fill="none" stroke="blue" cx="669.14" cy="-18" rx="59.23" ry="18"/>
<text xml:space="preserve" text-anchor="middle" x="669.14" y="-13.8" font-family="Times,serif" font-size="14.00">IAO:0000314</text>
</g>
<!-- prefix=&#39;MCRO&#39; identifier=&#39;0000004&#39;&#45;&gt;prefix=&#39;IAO&#39; identifier=&#39;0000314&#39; -->
<g id="edge2" class="edge">
<title>prefix=&#39;MCRO&#39; identifier=&#39;0000004&#39;&#45;&gt;prefix=&#39;IAO&#39; identifier=&#39;0000314&#39;</title>
<path fill="none" stroke="black" d="M215.13,-79.37C229.82,-76.77 244.89,-74.22 259.14,-72 380.21,-53.14 522.14,-35.86 603.26,-26.45"/>
<polygon fill="black" stroke="black" points="603.26,-29.97 612.79,-25.34 602.46,-23.02 603.26,-29.97"/>
</g>
<!-- prefix=&#39;MCRO&#39; identifier=&#39;0000005&#39; -->
<g id="node5" class="node">
<title>prefix=&#39;MCRO&#39; identifier=&#39;0000005&#39;</title>
<ellipse fill="none" stroke="red" cx="417.14" cy="-97.46" rx="148.78" ry="25.46"/>
<text xml:space="preserve" text-anchor="middle" x="417.14" y="-100.26" font-family="Times,serif" font-size="14.00">Consideration Information Section</text>
<text xml:space="preserve" text-anchor="middle" x="417.14" y="-86.26" font-family="Times,serif" font-size="14.00">MCRO:0000005</text>
</g>
<!-- prefix=&#39;MCRO&#39; identifier=&#39;0000005&#39;&#45;&gt;prefix=&#39;IAO&#39; identifier=&#39;0000314&#39; -->
<g id="edge3" class="edge">
<title>prefix=&#39;MCRO&#39; identifier=&#39;0000005&#39;&#45;&gt;prefix=&#39;IAO&#39; identifier=&#39;0000314&#39;</title>
<path fill="none" stroke="black" d="M488.01,-74.67C529.34,-61.97 580.55,-46.23 617.95,-34.73"/>
<polygon fill="black" stroke="black" points="618.63,-38.19 627.16,-31.9 616.57,-31.5 618.63,-38.19"/>
</g>
<!-- prefix=&#39;MCRO&#39; identifier=&#39;0000020&#39; -->
<g id="node6" class="node">
<title>prefix=&#39;MCRO&#39; identifier=&#39;0000020&#39;</title>
<ellipse fill="none" stroke="red" cx="359.14" cy="-343.28" rx="93.24" ry="25.46"/>
<text xml:space="preserve" text-anchor="middle" x="359.14" y="-346.08" font-family="Times,serif" font-size="14.00">Model Card Graphic</text>
<text xml:space="preserve" text-anchor="middle" x="359.14" y="-332.08" font-family="Times,serif" font-size="14.00">MCRO:0000020</text>
</g>
<!-- prefix=&#39;MCRO&#39; identifier=&#39;0000020&#39;&#45;&gt;prefix=&#39;IAO&#39; identifier=&#39;0000038&#39; -->
<g id="edge4" class="edge">
<title>prefix=&#39;MCRO&#39; identifier=&#39;0000020&#39;&#45;&gt;prefix=&#39;IAO&#39; identifier=&#39;0000038&#39;</title>
<path fill="none" stroke="black" d="M359.14,-317.35C359.14,-309.71 359.14,-301.25 359.14,-293.39"/>
<polygon fill="black" stroke="black" points="362.64,-293.63 359.14,-283.63 355.64,-293.63 362.64,-293.63"/>
</g>
<!-- prefix=&#39;MCRO&#39; identifier=&#39;0000014&#39; -->
<g id="node7" class="node">
<title>prefix=&#39;MCRO&#39; identifier=&#39;0000014&#39;</title>
<ellipse fill="none" stroke="red" cx="683.14" cy="-343.28" rx="119.08" ry="25.46"/>
<text xml:space="preserve" text-anchor="middle" x="683.14" y="-346.08" font-family="Times,serif" font-size="14.00">Graphic Collection Section</text>
<text xml:space="preserve" text-anchor="middle" x="683.14" y="-332.08" font-family="Times,serif" font-size="14.00">MCRO:0000014</text>
</g>
<!-- prefix=&#39;skos&#39; identifier=&#39;Collection&#39; -->
<g id="node8" class="node">
<title>prefix=&#39;skos&#39; identifier=&#39;Collection&#39;</title>
<ellipse fill="none" stroke="blue" cx="501.14" cy="-263.82" rx="65.13" ry="18"/>
<text xml:space="preserve" text-anchor="middle" x="501.14" y="-259.62" font-family="Times,serif" font-size="14.00">skos:Collection</text>
</g>
<!-- prefix=&#39;MCRO&#39; identifier=&#39;0000014&#39;&#45;&gt;prefix=&#39;skos&#39; identifier=&#39;Collection&#39; -->
<g id="edge5" class="edge">
<title>prefix=&#39;MCRO&#39; identifier=&#39;0000014&#39;&#45;&gt;prefix=&#39;skos&#39; identifier=&#39;Collection&#39;</title>
<path fill="none" stroke="black" d="M630.98,-320.08C604.15,-308.66 571.76,-294.88 546.04,-283.93"/>
<polygon fill="black" stroke="black" points="547.43,-280.72 536.86,-280.03 544.69,-287.16 547.43,-280.72"/>
</g>
<!-- prefix=&#39;MCRO&#39; identifier=&#39;0000031&#39; -->
<g id="node9" class="node">
<title>prefix=&#39;MCRO&#39; identifier=&#39;0000031&#39;</title>
<ellipse fill="none" stroke="black" cx="745.14" cy="-97.46" rx="123.5" ry="25.46"/>
<text xml:space="preserve" text-anchor="middle" x="745.14" y="-100.26" font-family="Times,serif" font-size="14.00">Quantative Analysis Section</text>
<text xml:space="preserve" text-anchor="middle" x="745.14" y="-86.26" font-family="Times,serif" font-size="14.00">MCRO:0000031</text>
</g>
<!-- prefix=&#39;MCRO&#39; identifier=&#39;0000014&#39;&#45;&gt;prefix=&#39;MCRO&#39; identifier=&#39;0000031&#39; -->
<g id="edge6" class="edge">
<title>prefix=&#39;MCRO&#39; identifier=&#39;0000014&#39;&#45;&gt;prefix=&#39;MCRO&#39; identifier=&#39;0000031&#39;</title>
<path fill="none" stroke="blue" d="M687.38,-317.57C690.89,-298 696.23,-270.03 702.14,-245.82 711.55,-207.25 724.56,-163.67 733.81,-133.97"/>
<polygon fill="blue" stroke="blue" points="737.05,-135.34 736.7,-124.75 730.37,-133.24 737.05,-135.34"/>
</g>
<!-- prefix=&#39;MCRO&#39; identifier=&#39;0000014&#39;&#45;&gt;prefix=&#39;IAO&#39; identifier=&#39;0000314&#39; -->
<g id="edge7" class="edge">
<title>prefix=&#39;MCRO&#39; identifier=&#39;0000014&#39;&#45;&gt;prefix=&#39;IAO&#39; identifier=&#39;0000314&#39;</title>
<path fill="none" stroke="black" d="M672.46,-317.56C655.84,-277.56 624.48,-195.79 613.14,-122.91 609.66,-100.55 604.19,-92.78 613.14,-72 618.07,-60.54 626.84,-50.4 635.99,-42.13"/>
<polygon fill="black" stroke="black" points="638.17,-44.87 643.61,-35.78 633.69,-39.5 638.17,-44.87"/>
</g>
<!-- prefix=&#39;IAO&#39; identifier=&#39;0000622&#39; -->
<g id="node11" class="node">
<title>prefix=&#39;IAO&#39; identifier=&#39;0000622&#39;</title>
<ellipse fill="none" stroke="blue" cx="770.14" cy="-263.82" rx="59.23" ry="18"/>
<text xml:space="preserve" text-anchor="middle" x="770.14" y="-259.62" font-family="Times,serif" font-size="14.00">IAO:0000622</text>
</g>
<!-- prefix=&#39;MCRO&#39; identifier=&#39;0000014&#39;&#45;&gt;prefix=&#39;IAO&#39; identifier=&#39;0000622&#39; -->
<g id="edge8" class="edge">
<title>prefix=&#39;MCRO&#39; identifier=&#39;0000014&#39;&#45;&gt;prefix=&#39;IAO&#39; identifier=&#39;0000622&#39;</title>
<path fill="none" stroke="blue" d="M710.19,-318.2C720.71,-308.83 732.74,-298.12 743.25,-288.77"/>
<polygon fill="blue" stroke="blue" points="745.37,-291.56 750.52,-282.29 740.72,-286.33 745.37,-291.56"/>
</g>
<!-- prefix=&#39;MCRO&#39; identifier=&#39;0000006&#39; -->
<g id="node13" class="node">
<title>prefix=&#39;MCRO&#39; identifier=&#39;0000006&#39;</title>
<ellipse fill="none" stroke="red" cx="896.14" cy="-184.37" rx="122.92" ry="25.46"/>
<text xml:space="preserve" text-anchor="middle" x="896.14" y="-187.17" font-family="Times,serif" font-size="14.00">Dataset Information Section</text>
<text xml:space="preserve" text-anchor="middle" x="896.14" y="-173.17" font-family="Times,serif" font-size="14.00">MCRO:0000006</text>
</g>
<!-- prefix=&#39;MCRO&#39; identifier=&#39;0000014&#39;&#45;&gt;prefix=&#39;MCRO&#39; identifier=&#39;0000006&#39; -->
<g id="edge9" class="edge">
<title>prefix=&#39;MCRO&#39; identifier=&#39;0000014&#39;&#45;&gt;prefix=&#39;MCRO&#39; identifier=&#39;0000006&#39;</title>
<path fill="none" stroke="blue" d="M759.87,-323.45C786.72,-314.14 815.73,-300.72 838.14,-281.82 857.64,-265.38 872.33,-240.62 882.05,-220.31"/>
<polygon fill="blue" stroke="blue" points="885.22,-221.79 886.18,-211.24 878.85,-218.89 885.22,-221.79"/>
</g>
<!-- prefix=&#39;MCRO&#39; identifier=&#39;0000031&#39;&#45;&gt;prefix=&#39;IAO&#39; identifier=&#39;0000314&#39; -->
<g id="edge10" class="edge">
<title>prefix=&#39;MCRO&#39; identifier=&#39;0000031&#39;&#45;&gt;prefix=&#39;IAO&#39; identifier=&#39;0000314&#39;</title>
<path fill="none" stroke="black" d="M721.51,-72.37C712.57,-63.26 702.38,-52.88 693.39,-43.71"/>
<polygon fill="black" stroke="black" points="696.09,-41.47 686.59,-36.78 691.09,-46.37 696.09,-41.47"/>
</g>
<!-- prefix=&#39;IAO&#39; identifier=&#39;0000622&#39;&#45;&gt;prefix=&#39;MCRO&#39; identifier=&#39;0000031&#39; -->
<g id="edge11" class="edge">
<title>prefix=&#39;IAO&#39; identifier=&#39;0000622&#39;&#45;&gt;prefix=&#39;MCRO&#39; identifier=&#39;0000031&#39;</title>
<path fill="none" stroke="blue" d="M767.51,-245.54C763.51,-219.26 755.81,-168.64 750.58,-134.21"/>
<polygon fill="blue" stroke="blue" points="754.1,-134.07 749.13,-124.71 747.17,-135.12 754.1,-134.07"/>
</g>
<!-- prefix=&#39;IAO&#39; identifier=&#39;0000622&#39;&#45;&gt;prefix=&#39;MCRO&#39; identifier=&#39;0000006&#39; -->
<g id="edge12" class="edge">
<title>prefix=&#39;IAO&#39; identifier=&#39;0000622&#39;&#45;&gt;prefix=&#39;MCRO&#39; identifier=&#39;0000006&#39;</title>
<path fill="none" stroke="blue" d="M795.64,-247.15C810.68,-237.9 830.22,-225.89 848.06,-214.92"/>
<polygon fill="blue" stroke="blue" points="849.78,-217.97 856.47,-209.75 846.12,-212.01 849.78,-217.97"/>
</g>
<!-- prefix=&#39;MCRO&#39; identifier=&#39;0000022&#39; -->
<g id="node12" class="node">
<title>prefix=&#39;MCRO&#39; identifier=&#39;0000022&#39;</title>
<ellipse fill="none" stroke="black" cx="1036.14" cy="-97.46" rx="111.93" ry="25.46"/>
<text xml:space="preserve" text-anchor="middle" x="1036.14" y="-100.26" font-family="Times,serif" font-size="14.00">Model Parameter Section</text>
<text xml:space="preserve" text-anchor="middle" x="1036.14" y="-86.26" font-family="Times,serif" font-size="14.00">MCRO:0000022</text>
</g>
<!-- prefix=&#39;MCRO&#39; identifier=&#39;0000022&#39;&#45;&gt;prefix=&#39;IAO&#39; identifier=&#39;0000314&#39; -->
<g id="edge13" class="edge">
<title>prefix=&#39;MCRO&#39; identifier=&#39;0000022&#39;&#45;&gt;prefix=&#39;IAO&#39; identifier=&#39;0000314&#39;</title>
<path fill="none" stroke="black" d="M955.6,-79.46C886.87,-64.95 789.65,-44.43 728.01,-31.42"/>
<polygon fill="black" stroke="black" points="728.91,-28.04 718.41,-29.4 727.47,-34.89 728.91,-28.04"/>
</g>
<!-- prefix=&#39;MCRO&#39; identifier=&#39;0000006&#39;&#45;&gt;prefix=&#39;MCRO&#39; identifier=&#39;0000031&#39; -->
<g id="edge14" class="edge">
<title>prefix=&#39;MCRO&#39; identifier=&#39;0000006&#39;&#45;&gt;prefix=&#39;MCRO&#39; identifier=&#39;0000031&#39;</title>
<path fill="none" stroke="blue" d="M854.48,-159.94C836.57,-149.87 815.46,-138 796.59,-127.39"/>
<polygon fill="blue" stroke="blue" points="798.41,-124.4 787.98,-122.55 794.98,-130.5 798.41,-124.4"/>
</g>
<!-- prefix=&#39;MCRO&#39; identifier=&#39;0000006&#39;&#45;&gt;prefix=&#39;IAO&#39; identifier=&#39;0000314&#39; -->
<g id="edge15" class="edge">
<title>prefix=&#39;MCRO&#39; identifier=&#39;0000006&#39;&#45;&gt;prefix=&#39;IAO&#39; identifier=&#39;0000314&#39;</title>
<path fill="none" stroke="black" d="M899.05,-158.79C900.57,-133.75 898.68,-95.35 877.14,-72 857.85,-51.1 787.62,-36.28 734.05,-27.72"/>
<polygon fill="black" stroke="black" points="734.81,-24.3 724.39,-26.22 733.73,-31.21 734.81,-24.3"/>
</g>
<!-- prefix=&#39;MCRO&#39; identifier=&#39;0000006&#39;&#45;&gt;prefix=&#39;MCRO&#39; identifier=&#39;0000022&#39; -->
<g id="edge16" class="edge">
<title>prefix=&#39;MCRO&#39; identifier=&#39;0000006&#39;&#45;&gt;prefix=&#39;MCRO&#39; identifier=&#39;0000022&#39;</title>
<path fill="none" stroke="blue" d="M934.76,-159.94C951.29,-149.92 970.76,-138.11 988.19,-127.54"/>
<polygon fill="blue" stroke="blue" points="989.61,-130.77 996.34,-122.59 985.98,-124.78 989.61,-130.77"/>
</g>
</g>
</svg>
