<?xml version="1.0" encoding="UTF-8" standalone="no"?>
<!DOCTYPE svg PUBLIC "-//W3C//DTD SVG 1.1//EN"
 "http://www.w3.org/Graphics/SVG/1.1/DTD/svg11.dtd">
<!-- Generated by graphviz version 3.0.0 (20220226.1711)
 -->
<!-- Pages: 1 -->
<svg width="4277pt" height="421pt"
 viewBox="0.00 0.00 4277.03 420.70" xmlns="http://www.w3.org/2000/svg" xmlns:xlink="http://www.w3.org/1999/xlink">
<g id="graph0" class="graph" transform="scale(1 1) rotate(0) translate(4 416.7)">
<polygon fill="white" stroke="transparent" points="-4,4 -4,-416.7 4273.03,-416.7 4273.03,4 -4,4"/>
<!-- mfmo:0000007 -->
<g id="node1" class="node">
<title>mfmo:0000007</title>
<ellipse fill="none" stroke="red" cx="912.51" cy="-385.83" rx="191.75" ry="26.74"/>
<text text-anchor="middle" x="912.51" y="-389.63" font-family="Times,serif" font-size="14.00">muscles innervated by glossopharyngeal nerve</text>
<text text-anchor="middle" x="912.51" y="-374.63" font-family="Times,serif" font-size="14.00">mfmo:0000007</text>
</g>
<!-- uberon:0000465 -->
<g id="node2" class="node">
<title>uberon:0000465</title>
<ellipse fill="none" stroke="blue" cx="931.51" cy="-26.87" rx="113.27" ry="26.74"/>
<text text-anchor="middle" x="931.51" y="-30.67" font-family="Times,serif" font-size="14.00">material anatomical entity</text>
<text text-anchor="middle" x="931.51" y="-15.67" font-family="Times,serif" font-size="14.00">uberon:0000465</text>
</g>
<!-- mfmo:0000060 -->
<g id="node3" class="node">
<title>mfmo:0000060</title>
<ellipse fill="none" stroke="red" cx="1860.51" cy="-385.83" rx="111.95" ry="26.74"/>
<text text-anchor="middle" x="1860.51" y="-389.63" font-family="Times,serif" font-size="14.00">posterior digastric muscle</text>
<text text-anchor="middle" x="1860.51" y="-374.63" font-family="Times,serif" font-size="14.00">mfmo:0000060</text>
</g>
<!-- mfmo:0000062 -->
<g id="node4" class="node">
<title>mfmo:0000062</title>
<ellipse fill="none" stroke="red" cx="2160.51" cy="-385.83" rx="170.33" ry="26.74"/>
<text text-anchor="middle" x="2160.51" y="-389.63" font-family="Times,serif" font-size="14.00">muscles innervated by hypoglossal nerve</text>
<text text-anchor="middle" x="2160.51" y="-374.63" font-family="Times,serif" font-size="14.00">mfmo:0000062</text>
</g>
<!-- mfmo:0000010 -->
<g id="node5" class="node">
<title>mfmo:0000010</title>
<ellipse fill="none" stroke="red" cx="2495.51" cy="-385.83" rx="147.16" ry="26.74"/>
<text text-anchor="middle" x="2495.51" y="-389.63" font-family="Times,serif" font-size="14.00">muscles innervated by vagus nerve</text>
<text text-anchor="middle" x="2495.51" y="-374.63" font-family="Times,serif" font-size="14.00">mfmo:0000010</text>
</g>
<!-- mfmo:0000108 -->
<g id="node6" class="node">
<title>mfmo:0000108</title>
<ellipse fill="none" stroke="orange" cx="1250.51" cy="-296.09" rx="71.34" ry="26.74"/>
<text text-anchor="middle" x="1250.51" y="-299.89" font-family="Times,serif" font-size="14.00">zygomatic arch</text>
<text text-anchor="middle" x="1250.51" y="-284.89" font-family="Times,serif" font-size="14.00">mfmo:0000108</text>
</g>
<!-- uberon:0001474 -->
<g id="node7" class="node">
<title>uberon:0001474</title>
<ellipse fill="none" stroke="blue" cx="1561.51" cy="-206.35" rx="74.49" ry="26.74"/>
<text text-anchor="middle" x="1561.51" y="-210.15" font-family="Times,serif" font-size="14.00">bone element</text>
<text text-anchor="middle" x="1561.51" y="-195.15" font-family="Times,serif" font-size="14.00">uberon:0001474</text>
</g>
<!-- mfmo:0000108&#45;&gt;uberon:0001474 -->
<g id="edge1" class="edge">
<title>mfmo:0000108&#45;&gt;uberon:0001474</title>
<path fill="none" stroke="black" d="M1303.13,-277.9C1312.55,-274.93 1322.31,-271.93 1331.51,-269.22 1385.1,-253.46 1446.18,-237.11 1491.92,-225.17"/>
<polygon fill="black" stroke="black" points="1492.94,-228.53 1501.73,-222.62 1491.17,-221.75 1492.94,-228.53"/>
</g>
<!-- obo:uberon_0004765 -->
<g id="node31" class="node">
<title>obo:uberon_0004765</title>
<ellipse fill="none" stroke="black" cx="1561.51" cy="-116.61" rx="93.18" ry="26.74"/>
<text text-anchor="middle" x="1561.51" y="-120.41" font-family="Times,serif" font-size="14.00">skeletal element</text>
<text text-anchor="middle" x="1561.51" y="-105.41" font-family="Times,serif" font-size="14.00">obo:uberon_0004765</text>
</g>
<!-- uberon:0001474&#45;&gt;obo:uberon_0004765 -->
<g id="edge25" class="edge">
<title>uberon:0001474&#45;&gt;obo:uberon_0004765</title>
<path fill="none" stroke="black" d="M1561.51,-179.03C1561.51,-171.06 1561.51,-162.17 1561.51,-153.68"/>
<polygon fill="black" stroke="black" points="1565.01,-153.61 1561.51,-143.61 1558.01,-153.61 1565.01,-153.61"/>
</g>
<!-- mfmo:0000147 -->
<g id="node8" class="node">
<title>mfmo:0000147</title>
<ellipse fill="none" stroke="orange" cx="1206.51" cy="-385.83" rx="84.29" ry="26.74"/>
<text text-anchor="middle" x="1206.51" y="-389.63" font-family="Times,serif" font-size="14.00">symphyseal region</text>
<text text-anchor="middle" x="1206.51" y="-374.63" font-family="Times,serif" font-size="14.00">mfmo:0000147</text>
</g>
<!-- uberon:0001684 -->
<g id="node9" class="node">
<title>uberon:0001684</title>
<ellipse fill="none" stroke="blue" cx="1414.51" cy="-296.09" rx="74.49" ry="26.74"/>
<text text-anchor="middle" x="1414.51" y="-299.89" font-family="Times,serif" font-size="14.00">mandible bone</text>
<text text-anchor="middle" x="1414.51" y="-284.89" font-family="Times,serif" font-size="14.00">uberon:0001684</text>
</g>
<!-- mfmo:0000147&#45;&gt;uberon:0001684 -->
<g id="edge2" class="edge">
<title>mfmo:0000147&#45;&gt;uberon:0001684</title>
<path fill="none" stroke="black" d="M1255.81,-364.04C1286.53,-351.08 1326.16,-334.36 1358.13,-320.87"/>
<polygon fill="black" stroke="black" points="1359.51,-324.09 1367.36,-316.98 1356.79,-317.64 1359.51,-324.09"/>
</g>
<!-- uberon:0001684&#45;&gt;uberon:0001474 -->
<g id="edge18" class="edge">
<title>uberon:0001684&#45;&gt;uberon:0001474</title>
<path fill="none" stroke="black" d="M1451.99,-272.72C1471.25,-261.22 1494.91,-247.11 1515.29,-234.94"/>
<polygon fill="black" stroke="black" points="1517.31,-237.81 1524.11,-229.68 1513.73,-231.8 1517.31,-237.81"/>
</g>
<!-- mfmo:0000095 -->
<g id="node10" class="node">
<title>mfmo:0000095</title>
<ellipse fill="none" stroke="orange" cx="489.51" cy="-116.61" rx="73.58" ry="26.74"/>
<text text-anchor="middle" x="489.51" y="-120.41" font-family="Times,serif" font-size="14.00">branchial arch 1</text>
<text text-anchor="middle" x="489.51" y="-105.41" font-family="Times,serif" font-size="14.00">mfmo:0000095</text>
</g>
<!-- mfmo:0000095&#45;&gt;uberon:0000465 -->
<g id="edge3" class="edge">
<title>mfmo:0000095&#45;&gt;uberon:0000465</title>
<path fill="none" stroke="black" d="M542.8,-97.87C552.62,-94.92 562.83,-92.07 572.51,-89.74 656.49,-69.51 753.04,-53.26 824.85,-42.49"/>
<polygon fill="black" stroke="black" points="825.44,-45.94 834.82,-41.01 824.41,-39.02 825.44,-45.94"/>
</g>
<!-- uberon:0001685 -->
<g id="node11" class="node">
<title>uberon:0001685</title>
<ellipse fill="none" stroke="blue" cx="655.51" cy="-116.61" rx="74.49" ry="26.74"/>
<text text-anchor="middle" x="655.51" y="-120.41" font-family="Times,serif" font-size="14.00">hyoid apparatus</text>
<text text-anchor="middle" x="655.51" y="-105.41" font-family="Times,serif" font-size="14.00">uberon:0001685</text>
</g>
<!-- uberon:0001685&#45;&gt;uberon:0000465 -->
<g id="edge4" class="edge">
<title>uberon:0001685&#45;&gt;uberon:0000465</title>
<path fill="none" stroke="black" d="M710.04,-98.28C751.7,-85.03 809.6,-66.63 855.75,-51.95"/>
<polygon fill="black" stroke="black" points="856.95,-55.25 865.42,-48.88 854.82,-48.58 856.95,-55.25"/>
</g>
<!-- mfmo:0000092 -->
<g id="node12" class="node">
<title>mfmo:0000092</title>
<ellipse fill="none" stroke="orange" cx="877.51" cy="-296.09" rx="84.29" ry="26.74"/>
<text text-anchor="middle" x="877.51" y="-299.89" font-family="Times,serif" font-size="14.00">first cervical nerve</text>
<text text-anchor="middle" x="877.51" y="-284.89" font-family="Times,serif" font-size="14.00">mfmo:0000092</text>
</g>
<!-- http://purl.obolibrary.org/obo/mfmo.owl#MFMO_0000300 -->
<g id="node13" class="node">
<title>http://purl.obolibrary.org/obo/mfmo.owl#MFMO_0000300</title>
<ellipse fill="none" stroke="blue" cx="1089.51" cy="-206.35" rx="221.76" ry="18"/>
<text text-anchor="middle" x="1089.51" y="-202.65" font-family="Times,serif" font-size="14.00">http://purl.obolibrary.org/obo/mfmo.owl#MFMO_0000300</text>
</g>
<!-- mfmo:0000092&#45;&gt;http://purl.obolibrary.org/obo/mfmo.owl#MFMO_0000300 -->
<g id="edge5" class="edge">
<title>mfmo:0000092&#45;&gt;http://purl.obolibrary.org/obo/mfmo.owl#MFMO_0000300</title>
<path fill="none" stroke="black" d="M927.49,-274.41C961.25,-260.44 1005.64,-242.06 1039.43,-228.08"/>
<polygon fill="black" stroke="black" points="1041.2,-231.13 1049.1,-224.08 1038.52,-224.67 1041.2,-231.13"/>
</g>
<!-- mfmo:0000090 -->
<g id="node14" class="node">
<title>mfmo:0000090</title>
<ellipse fill="none" stroke="black" cx="848.51" cy="-116.61" rx="71.34" ry="26.74"/>
<text text-anchor="middle" x="848.51" y="-120.41" font-family="Times,serif" font-size="14.00">nerve</text>
<text text-anchor="middle" x="848.51" y="-105.41" font-family="Times,serif" font-size="14.00">mfmo:0000090</text>
</g>
<!-- mfmo:0000092&#45;&gt;mfmo:0000090 -->
<g id="edge6" class="edge">
<title>mfmo:0000092&#45;&gt;mfmo:0000090</title>
<path fill="none" stroke="black" d="M868.23,-269.21C864.64,-258.24 860.85,-245.24 858.51,-233.22 853.38,-206.81 850.88,-176.49 849.66,-153.53"/>
<polygon fill="black" stroke="black" points="853.16,-153.36 849.19,-143.54 846.17,-153.7 853.16,-153.36"/>
</g>
<!-- http://purl.obolibrary.org/obo/mfmo.owl#MFMO_0000300&#45;&gt;mfmo:0000090 -->
<g id="edge9" class="edge">
<title>http://purl.obolibrary.org/obo/mfmo.owl#MFMO_0000300&#45;&gt;mfmo:0000090</title>
<path fill="none" stroke="black" d="M1043.62,-188.64C1005.23,-174.66 950.18,-154.62 908.34,-139.39"/>
<polygon fill="black" stroke="black" points="909.41,-136.06 898.82,-135.92 907.02,-142.63 909.41,-136.06"/>
</g>
<!-- mfmo:0000090&#45;&gt;uberon:0000465 -->
<g id="edge10" class="edge">
<title>mfmo:0000090&#45;&gt;uberon:0000465</title>
<path fill="none" stroke="black" d="M871.63,-91.17C880.5,-81.8 890.77,-70.94 900.28,-60.89"/>
<polygon fill="black" stroke="black" points="903.03,-63.07 907.36,-53.4 897.95,-58.26 903.03,-63.07"/>
</g>
<!-- mfmo:0000075 -->
<g id="node15" class="node">
<title>mfmo:0000075</title>
<ellipse fill="none" stroke="red" cx="2736.51" cy="-385.83" rx="75.82" ry="26.74"/>
<text text-anchor="middle" x="2736.51" y="-389.63" font-family="Times,serif" font-size="14.00">masseter muscle</text>
<text text-anchor="middle" x="2736.51" y="-374.63" font-family="Times,serif" font-size="14.00">mfmo:0000075</text>
</g>
<!-- mfmo:0000091 -->
<g id="node16" class="node">
<title>mfmo:0000091</title>
<ellipse fill="none" stroke="orange" cx="1089.51" cy="-296.09" rx="71.34" ry="26.74"/>
<text text-anchor="middle" x="1089.51" y="-299.89" font-family="Times,serif" font-size="14.00">cervical plexus</text>
<text text-anchor="middle" x="1089.51" y="-284.89" font-family="Times,serif" font-size="14.00">mfmo:0000091</text>
</g>
<!-- mfmo:0000091&#45;&gt;http://purl.obolibrary.org/obo/mfmo.owl#MFMO_0000300 -->
<g id="edge7" class="edge">
<title>mfmo:0000091&#45;&gt;http://purl.obolibrary.org/obo/mfmo.owl#MFMO_0000300</title>
<path fill="none" stroke="black" d="M1089.51,-268.77C1089.51,-258.01 1089.51,-245.58 1089.51,-234.72"/>
<polygon fill="black" stroke="black" points="1093.01,-234.51 1089.51,-224.51 1086.01,-234.51 1093.01,-234.51"/>
</g>
<!-- mfmo:0000091&#45;&gt;mfmo:0000090 -->
<g id="edge8" class="edge">
<title>mfmo:0000091&#45;&gt;mfmo:0000090</title>
<path fill="none" stroke="black" d="M1142.07,-277.69C1151.5,-274.74 1161.27,-271.8 1170.51,-269.22 1236.55,-250.78 1278.07,-287.06 1320.51,-233.22 1335.3,-214.46 1336.61,-197.12 1320.51,-179.48 1261.55,-114.86 1014.21,-161.05 928.51,-143.48 921.98,-142.14 915.23,-140.46 908.55,-138.59"/>
<polygon fill="black" stroke="black" points="909.43,-135.2 898.85,-135.75 907.46,-141.92 909.43,-135.2"/>
</g>
<!-- uberon:0000166 -->
<g id="node17" class="node">
<title>uberon:0000166</title>
<ellipse fill="none" stroke="blue" cx="2924.51" cy="-296.09" rx="74.49" ry="26.74"/>
<text text-anchor="middle" x="2924.51" y="-299.89" font-family="Times,serif" font-size="14.00">oral opening</text>
<text text-anchor="middle" x="2924.51" y="-284.89" font-family="Times,serif" font-size="14.00">uberon:0000166</text>
</g>
<!-- mfmo:0000098 -->
<g id="node18" class="node">
<title>mfmo:0000098</title>
<ellipse fill="none" stroke="orange" cx="1578.51" cy="-296.09" rx="71.34" ry="26.74"/>
<text text-anchor="middle" x="1578.51" y="-299.89" font-family="Times,serif" font-size="14.00">scapula bone</text>
<text text-anchor="middle" x="1578.51" y="-284.89" font-family="Times,serif" font-size="14.00">mfmo:0000098</text>
</g>
<!-- mfmo:0000098&#45;&gt;uberon:0001474 -->
<g id="edge11" class="edge">
<title>mfmo:0000098&#45;&gt;uberon:0001474</title>
<path fill="none" stroke="black" d="M1573.5,-269.24C1571.93,-261.1 1570.16,-251.96 1568.47,-243.26"/>
<polygon fill="black" stroke="black" points="1571.88,-242.47 1566.54,-233.32 1565.01,-243.8 1571.88,-242.47"/>
</g>
<!-- mfmo:0000146 -->
<g id="node19" class="node">
<title>mfmo:0000146</title>
<ellipse fill="none" stroke="orange" cx="1741.51" cy="-296.09" rx="73.58" ry="26.74"/>
<text text-anchor="middle" x="1741.51" y="-299.89" font-family="Times,serif" font-size="14.00">zygomatic bone</text>
<text text-anchor="middle" x="1741.51" y="-284.89" font-family="Times,serif" font-size="14.00">mfmo:0000146</text>
</g>
<!-- mfmo:0000146&#45;&gt;uberon:0001474 -->
<g id="edge12" class="edge">
<title>mfmo:0000146&#45;&gt;uberon:0001474</title>
<path fill="none" stroke="black" d="M1698.4,-274.07C1673,-261.69 1640.69,-245.94 1613.84,-232.86"/>
<polygon fill="black" stroke="black" points="1615.11,-229.58 1604.59,-228.35 1612.04,-235.87 1615.11,-229.58"/>
</g>
<!-- mfmo:0000065 -->
<g id="node20" class="node">
<title>mfmo:0000065</title>
<ellipse fill="none" stroke="red" cx="3138.51" cy="-385.83" rx="101.65" ry="26.74"/>
<text text-anchor="middle" x="3138.51" y="-389.63" font-family="Times,serif" font-size="14.00">intrinsic tongue muscle</text>
<text text-anchor="middle" x="3138.51" y="-374.63" font-family="Times,serif" font-size="14.00">mfmo:0000065</text>
</g>
<!-- mfmo:0000106 -->
<g id="node21" class="node">
<title>mfmo:0000106</title>
<ellipse fill="none" stroke="orange" cx="1907.51" cy="-296.09" rx="74.91" ry="26.74"/>
<text text-anchor="middle" x="1907.51" y="-299.89" font-family="Times,serif" font-size="14.00">thyroid cartilage</text>
<text text-anchor="middle" x="1907.51" y="-284.89" font-family="Times,serif" font-size="14.00">mfmo:0000106</text>
</g>
<!-- uberon:0007844 -->
<g id="node22" class="node">
<title>uberon:0007844</title>
<ellipse fill="none" stroke="blue" cx="1819.51" cy="-206.35" rx="77.56" ry="26.74"/>
<text text-anchor="middle" x="1819.51" y="-210.15" font-family="Times,serif" font-size="14.00">cartilage element</text>
<text text-anchor="middle" x="1819.51" y="-195.15" font-family="Times,serif" font-size="14.00">uberon:0007844</text>
</g>
<!-- mfmo:0000106&#45;&gt;uberon:0007844 -->
<g id="edge13" class="edge">
<title>mfmo:0000106&#45;&gt;uberon:0007844</title>
<path fill="none" stroke="black" d="M1883,-270.65C1873.26,-260.94 1861.92,-249.64 1851.55,-239.29"/>
<polygon fill="black" stroke="black" points="1853.75,-236.55 1844.2,-231.96 1848.81,-241.5 1853.75,-236.55"/>
</g>
<!-- uberon:0007844&#45;&gt;obo:uberon_0004765 -->
<g id="edge22" class="edge">
<title>uberon:0007844&#45;&gt;obo:uberon_0004765</title>
<path fill="none" stroke="black" d="M1765.43,-186.96C1726.09,-173.58 1672.52,-155.36 1630.16,-140.95"/>
<polygon fill="black" stroke="black" points="1631.07,-137.57 1620.47,-137.66 1628.81,-144.19 1631.07,-137.57"/>
</g>
<!-- mfmo:0000105 -->
<g id="node23" class="node">
<title>mfmo:0000105</title>
<ellipse fill="none" stroke="orange" cx="1015.51" cy="-116.61" rx="77.56" ry="26.74"/>
<text text-anchor="middle" x="1015.51" y="-120.41" font-family="Times,serif" font-size="14.00">temporalis fascia</text>
<text text-anchor="middle" x="1015.51" y="-105.41" font-family="Times,serif" font-size="14.00">mfmo:0000105</text>
</g>
<!-- mfmo:0000105&#45;&gt;uberon:0000465 -->
<g id="edge14" class="edge">
<title>mfmo:0000105&#45;&gt;uberon:0000465</title>
<path fill="none" stroke="black" d="M991.67,-90.7C982.7,-81.34 972.37,-70.54 962.82,-60.57"/>
<polygon fill="black" stroke="black" points="965.15,-57.95 955.71,-53.15 960.1,-62.79 965.15,-57.95"/>
</g>
<!-- mfmo:0000046 -->
<g id="node24" class="node">
<title>mfmo:0000046</title>
<ellipse fill="none" stroke="orange" cx="1276.51" cy="-116.61" rx="164.51" ry="26.74"/>
<text text-anchor="middle" x="1276.51" y="-120.41" font-family="Times,serif" font-size="14.00">capsule of the temporomandibular joint</text>
<text text-anchor="middle" x="1276.51" y="-105.41" font-family="Times,serif" font-size="14.00">mfmo:0000046</text>
</g>
<!-- mfmo:0000046&#45;&gt;uberon:0000465 -->
<g id="edge15" class="edge">
<title>mfmo:0000046&#45;&gt;uberon:0000465</title>
<path fill="none" stroke="black" d="M1190.35,-93.7C1137.17,-80.17 1069.25,-62.9 1016.33,-49.44"/>
<polygon fill="black" stroke="black" points="1017.19,-46.05 1006.63,-46.97 1015.46,-52.83 1017.19,-46.05"/>
</g>
<!-- mfmo:0000056 -->
<g id="node25" class="node">
<title>mfmo:0000056</title>
<ellipse fill="none" stroke="orange" cx="1414.51" cy="-385.83" rx="105.22" ry="26.74"/>
<text text-anchor="middle" x="1414.51" y="-389.63" font-family="Times,serif" font-size="14.00">condyle of the mandible</text>
<text text-anchor="middle" x="1414.51" y="-374.63" font-family="Times,serif" font-size="14.00">mfmo:0000056</text>
</g>
<!-- mfmo:0000056&#45;&gt;uberon:0001684 -->
<g id="edge16" class="edge">
<title>mfmo:0000056&#45;&gt;uberon:0001684</title>
<path fill="none" stroke="black" d="M1414.51,-358.51C1414.51,-350.54 1414.51,-341.65 1414.51,-333.16"/>
<polygon fill="black" stroke="black" points="1418.01,-333.09 1414.51,-323.09 1411.01,-333.09 1418.01,-333.09"/>
</g>
<!-- mfmo:0000004 -->
<g id="node26" class="node">
<title>mfmo:0000004</title>
<ellipse fill="none" stroke="orange" cx="160.51" cy="-206.35" rx="160.53" ry="26.74"/>
<text text-anchor="middle" x="160.51" y="-210.15" font-family="Times,serif" font-size="14.00">non ceratohyal part of hyoid apparatus</text>
<text text-anchor="middle" x="160.51" y="-195.15" font-family="Times,serif" font-size="14.00">mfmo:0000004</text>
</g>
<!-- mfmo:0000004&#45;&gt;uberon:0001685 -->
<g id="edge17" class="edge">
<title>mfmo:0000004&#45;&gt;uberon:0001685</title>
<path fill="none" stroke="blue" d="M276.18,-187.69C294.36,-184.94 312.95,-182.12 330.51,-179.48 438.04,-163.3 466.51,-167.73 572.51,-143.48 579.04,-141.99 585.79,-140.24 592.5,-138.36"/>
<polygon fill="blue" stroke="blue" points="593.63,-141.68 602.27,-135.54 591.69,-134.95 593.63,-141.68"/>
</g>
<!-- mfmo:0000072 -->
<g id="node27" class="node">
<title>mfmo:0000072</title>
<ellipse fill="none" stroke="red" cx="3437.51" cy="-385.83" rx="178.8" ry="26.74"/>
<text text-anchor="middle" x="3437.51" y="-389.63" font-family="Times,serif" font-size="14.00">muscles innervated by the trigeminal nerve</text>
<text text-anchor="middle" x="3437.51" y="-374.63" font-family="Times,serif" font-size="14.00">mfmo:0000072</text>
</g>
<!-- mfmo:0000145 -->
<g id="node28" class="node">
<title>mfmo:0000145</title>
<ellipse fill="none" stroke="orange" cx="2924.51" cy="-385.83" rx="94.09" ry="26.74"/>
<text text-anchor="middle" x="2924.51" y="-389.63" font-family="Times,serif" font-size="14.00">angle of oral opening</text>
<text text-anchor="middle" x="2924.51" y="-374.63" font-family="Times,serif" font-size="14.00">mfmo:0000145</text>
</g>
<!-- mfmo:0000145&#45;&gt;uberon:0000166 -->
<g id="edge19" class="edge">
<title>mfmo:0000145&#45;&gt;uberon:0000166</title>
<path fill="none" stroke="black" d="M2924.51,-358.51C2924.51,-350.54 2924.51,-341.65 2924.51,-333.16"/>
<polygon fill="black" stroke="black" points="2928.01,-333.09 2924.51,-323.09 2921.01,-333.09 2928.01,-333.09"/>
</g>
<!-- mfmo:0000053 -->
<g id="node29" class="node">
<title>mfmo:0000053</title>
<ellipse fill="none" stroke="orange" cx="410.51" cy="-206.35" rx="71.34" ry="26.74"/>
<text text-anchor="middle" x="410.51" y="-210.15" font-family="Times,serif" font-size="14.00">stylohyal bone</text>
<text text-anchor="middle" x="410.51" y="-195.15" font-family="Times,serif" font-size="14.00">mfmo:0000053</text>
</g>
<!-- mfmo:0000053&#45;&gt;uberon:0001685 -->
<g id="edge20" class="edge">
<title>mfmo:0000053&#45;&gt;uberon:0001685</title>
<path fill="none" stroke="black" d="M460.98,-187.28C499.63,-173.44 553.11,-154.28 594.21,-139.56"/>
<polygon fill="black" stroke="black" points="595.61,-142.78 603.85,-136.11 593.25,-136.19 595.61,-142.78"/>
</g>
<!-- mfmo:0000055 -->
<g id="node30" class="node">
<title>mfmo:0000055</title>
<ellipse fill="none" stroke="orange" cx="1634.51" cy="-385.83" rx="96.33" ry="26.74"/>
<text text-anchor="middle" x="1634.51" y="-389.63" font-family="Times,serif" font-size="14.00">angle of the mandible</text>
<text text-anchor="middle" x="1634.51" y="-374.63" font-family="Times,serif" font-size="14.00">mfmo:0000055</text>
</g>
<!-- mfmo:0000055&#45;&gt;uberon:0001684 -->
<g id="edge21" class="edge">
<title>mfmo:0000055&#45;&gt;uberon:0001684</title>
<path fill="none" stroke="black" d="M1580.98,-363.48C1548.22,-350.41 1506.29,-333.69 1472.71,-320.3"/>
<polygon fill="black" stroke="black" points="1473.61,-316.89 1463.02,-316.44 1471.02,-323.39 1473.61,-316.89"/>
</g>
<!-- obo:uberon_0004765&#45;&gt;uberon:0000465 -->
<g id="edge24" class="edge">
<title>obo:uberon_0004765&#45;&gt;uberon:0000465</title>
<path fill="none" stroke="black" d="M1492.77,-98.35C1478.84,-95.2 1464.25,-92.15 1450.51,-89.74 1312.63,-65.53 1152.45,-48.03 1046.92,-37.95"/>
<polygon fill="black" stroke="black" points="1047.17,-34.45 1036.88,-36.99 1046.51,-41.42 1047.17,-34.45"/>
</g>
<!-- mfmo:0000052 -->
<g id="node32" class="node">
<title>mfmo:0000052</title>
<ellipse fill="none" stroke="orange" cx="655.51" cy="-206.35" rx="155.63" ry="26.74"/>
<text text-anchor="middle" x="655.51" y="-210.15" font-family="Times,serif" font-size="14.00">non stylohyal part of hyoid apparatus</text>
<text text-anchor="middle" x="655.51" y="-195.15" font-family="Times,serif" font-size="14.00">mfmo:0000052</text>
</g>
<!-- mfmo:0000052&#45;&gt;uberon:0001685 -->
<g id="edge23" class="edge">
<title>mfmo:0000052&#45;&gt;uberon:0001685</title>
<path fill="none" stroke="blue" d="M655.51,-179.03C655.51,-171.06 655.51,-162.17 655.51,-153.68"/>
<polygon fill="blue" stroke="blue" points="659.01,-153.61 655.51,-143.61 652.01,-153.61 659.01,-153.61"/>
</g>
<!-- mfmo:0000067 -->
<g id="node33" class="node">
<title>mfmo:0000067</title>
<ellipse fill="none" stroke="red" cx="3782.51" cy="-385.83" rx="147.57" ry="26.74"/>
<text text-anchor="middle" x="3782.51" y="-389.63" font-family="Times,serif" font-size="14.00">muscles innervated by spinal nerve</text>
<text text-anchor="middle" x="3782.51" y="-374.63" font-family="Times,serif" font-size="14.00">mfmo:0000067</text>
</g>
<!-- mfmo:0000005 -->
<g id="node34" class="node">
<title>mfmo:0000005</title>
<ellipse fill="none" stroke="red" cx="4108.51" cy="-385.83" rx="160.53" ry="26.74"/>
<text text-anchor="middle" x="4108.51" y="-389.63" font-family="Times,serif" font-size="14.00">muscles innervated by the facial nerve</text>
<text text-anchor="middle" x="4108.51" y="-374.63" font-family="Times,serif" font-size="14.00">mfmo:0000005</text>
</g>
</g>
</svg>
