<?xml version="1.0" encoding="UTF-8" standalone="no"?>
<!DOCTYPE svg PUBLIC "-//W3C//DTD SVG 1.1//EN"
 "http://www.w3.org/Graphics/SVG/1.1/DTD/svg11.dtd">
<!-- Generated by graphviz version 3.0.0 (20220226.1711)
 -->
<!-- Pages: 1 -->
<svg width="4634pt" height="421pt"
 viewBox="0.00 0.00 4633.66 420.70" xmlns="http://www.w3.org/2000/svg" xmlns:xlink="http://www.w3.org/1999/xlink">
<g id="graph0" class="graph" transform="scale(1 1) rotate(0) translate(4 416.7)">
<polygon fill="white" stroke="transparent" points="-4,4 -4,-416.7 4629.66,-416.7 4629.66,4 -4,4"/>
<!-- mfmo:0000095 -->
<g id="node1" class="node">
<title>mfmo:0000095</title>
<ellipse fill="none" stroke="red" cx="873.15" cy="-116.61" rx="73.58" ry="26.74"/>
<text text-anchor="middle" x="873.15" y="-120.41" font-family="Times,serif" font-size="14.00">branchial arch 1</text>
<text text-anchor="middle" x="873.15" y="-105.41" font-family="Times,serif" font-size="14.00">mfmo:0000095</text>
</g>
<!-- uberon:0000465 -->
<g id="node2" class="node">
<title>uberon:0000465</title>
<ellipse fill="none" stroke="blue" cx="1490.15" cy="-26.87" rx="113.27" ry="26.74"/>
<text text-anchor="middle" x="1490.15" y="-30.67" font-family="Times,serif" font-size="14.00">material anatomical entity</text>
<text text-anchor="middle" x="1490.15" y="-15.67" font-family="Times,serif" font-size="14.00">uberon:0000465</text>
</g>
<!-- mfmo:0000095&#45;&gt;uberon:0000465 -->
<g id="edge1" class="edge">
<title>mfmo:0000095&#45;&gt;uberon:0000465</title>
<path fill="none" stroke="black" d="M925.44,-97.69C935.54,-94.69 946.1,-91.87 956.15,-89.74 1097.25,-59.85 1262.61,-43.5 1371.51,-35.24"/>
<polygon fill="black" stroke="black" points="1371.83,-38.72 1381.54,-34.48 1371.31,-31.74 1371.83,-38.72"/>
</g>
<!-- mfmo:0000147 -->
<g id="node3" class="node">
<title>mfmo:0000147</title>
<ellipse fill="none" stroke="red" cx="84.15" cy="-385.83" rx="84.29" ry="26.74"/>
<text text-anchor="middle" x="84.15" y="-389.63" font-family="Times,serif" font-size="14.00">symphyseal region</text>
<text text-anchor="middle" x="84.15" y="-374.63" font-family="Times,serif" font-size="14.00">mfmo:0000147</text>
</g>
<!-- uberon:0001684 -->
<g id="node4" class="node">
<title>uberon:0001684</title>
<ellipse fill="none" stroke="blue" cx="282.15" cy="-296.09" rx="74.49" ry="26.74"/>
<text text-anchor="middle" x="282.15" y="-299.89" font-family="Times,serif" font-size="14.00">mandible bone</text>
<text text-anchor="middle" x="282.15" y="-284.89" font-family="Times,serif" font-size="14.00">uberon:0001684</text>
</g>
<!-- mfmo:0000147&#45;&gt;uberon:0001684 -->
<g id="edge2" class="edge">
<title>mfmo:0000147&#45;&gt;uberon:0001684</title>
<path fill="none" stroke="black" d="M132.08,-363.59C160.68,-350.91 197.12,-334.77 226.93,-321.56"/>
<polygon fill="black" stroke="black" points="228.63,-324.63 236.36,-317.38 225.8,-318.23 228.63,-324.63"/>
</g>
<!-- uberon:0001474 -->
<g id="node7" class="node">
<title>uberon:0001474</title>
<ellipse fill="none" stroke="blue" cx="611.15" cy="-206.35" rx="74.49" ry="26.74"/>
<text text-anchor="middle" x="611.15" y="-210.15" font-family="Times,serif" font-size="14.00">bone element</text>
<text text-anchor="middle" x="611.15" y="-195.15" font-family="Times,serif" font-size="14.00">uberon:0001474</text>
</g>
<!-- uberon:0001684&#45;&gt;uberon:0001474 -->
<g id="edge5" class="edge">
<title>uberon:0001684&#45;&gt;uberon:0001474</title>
<path fill="none" stroke="black" d="M336.49,-277.68C346.01,-274.76 355.85,-271.84 365.15,-269.22 423.74,-252.73 490.78,-236.01 540.06,-224.12"/>
<polygon fill="black" stroke="black" points="541.08,-227.47 549.99,-221.73 539.44,-220.67 541.08,-227.47"/>
</g>
<!-- mfmo:0000072 -->
<g id="node5" class="node">
<title>mfmo:0000072</title>
<ellipse fill="none" stroke="red" cx="1225.15" cy="-385.83" rx="178.8" ry="26.74"/>
<text text-anchor="middle" x="1225.15" y="-389.63" font-family="Times,serif" font-size="14.00">muscles innervated by the trigeminal nerve</text>
<text text-anchor="middle" x="1225.15" y="-374.63" font-family="Times,serif" font-size="14.00">mfmo:0000072</text>
</g>
<!-- mfmo:0000146 -->
<g id="node6" class="node">
<title>mfmo:0000146</title>
<ellipse fill="none" stroke="red" cx="448.15" cy="-296.09" rx="73.58" ry="26.74"/>
<text text-anchor="middle" x="448.15" y="-299.89" font-family="Times,serif" font-size="14.00">zygomatic bone</text>
<text text-anchor="middle" x="448.15" y="-284.89" font-family="Times,serif" font-size="14.00">mfmo:0000146</text>
</g>
<!-- mfmo:0000146&#45;&gt;uberon:0001474 -->
<g id="edge3" class="edge">
<title>mfmo:0000146&#45;&gt;uberon:0001474</title>
<path fill="none" stroke="black" d="M488.44,-273.4C510.58,-261.49 538.22,-246.6 561.66,-233.99"/>
<polygon fill="black" stroke="black" points="563.61,-236.92 570.75,-229.09 560.29,-230.75 563.61,-236.92"/>
</g>
<!-- obo:uberon_0004765 -->
<g id="node9" class="node">
<title>obo:uberon_0004765</title>
<ellipse fill="none" stroke="black" cx="1058.15" cy="-116.61" rx="93.18" ry="26.74"/>
<text text-anchor="middle" x="1058.15" y="-120.41" font-family="Times,serif" font-size="14.00">skeletal element</text>
<text text-anchor="middle" x="1058.15" y="-105.41" font-family="Times,serif" font-size="14.00">obo:uberon_0004765</text>
</g>
<!-- uberon:0001474&#45;&gt;obo:uberon_0004765 -->
<g id="edge11" class="edge">
<title>uberon:0001474&#45;&gt;obo:uberon_0004765</title>
<path fill="none" stroke="black" d="M678.21,-194.77C747.93,-183.44 860.09,-164.25 956.15,-143.48 964.3,-141.72 972.78,-139.76 981.22,-137.74"/>
<polygon fill="black" stroke="black" points="982.2,-141.1 991.09,-135.34 980.55,-134.3 982.2,-141.1"/>
</g>
<!-- uberon:0007844 -->
<g id="node8" class="node">
<title>uberon:0007844</title>
<ellipse fill="none" stroke="blue" cx="858.15" cy="-206.35" rx="77.56" ry="26.74"/>
<text text-anchor="middle" x="858.15" y="-210.15" font-family="Times,serif" font-size="14.00">cartilage element</text>
<text text-anchor="middle" x="858.15" y="-195.15" font-family="Times,serif" font-size="14.00">uberon:0007844</text>
</g>
<!-- uberon:0007844&#45;&gt;obo:uberon_0004765 -->
<g id="edge4" class="edge">
<title>uberon:0007844&#45;&gt;obo:uberon_0004765</title>
<path fill="none" stroke="black" d="M905.04,-184.78C933.06,-172.48 968.93,-156.75 998.9,-143.6"/>
<polygon fill="black" stroke="black" points="1000.65,-146.65 1008.41,-139.43 997.84,-140.24 1000.65,-146.65"/>
</g>
<!-- obo:uberon_0004765&#45;&gt;uberon:0000465 -->
<g id="edge23" class="edge">
<title>obo:uberon_0004765&#45;&gt;uberon:0000465</title>
<path fill="none" stroke="black" d="M1132.9,-100.43C1205.85,-85.61 1317.08,-63.02 1396.02,-46.99"/>
<polygon fill="black" stroke="black" points="1396.86,-50.39 1405.97,-44.97 1395.47,-43.53 1396.86,-50.39"/>
</g>
<!-- mfmo:0000075 -->
<g id="node10" class="node">
<title>mfmo:0000075</title>
<ellipse fill="none" stroke="red" cx="1936.15" cy="-385.83" rx="75.82" ry="26.74"/>
<text text-anchor="middle" x="1936.15" y="-389.63" font-family="Times,serif" font-size="14.00">masseter muscle</text>
<text text-anchor="middle" x="1936.15" y="-374.63" font-family="Times,serif" font-size="14.00">mfmo:0000075</text>
</g>
<!-- mfmo:0000145 -->
<g id="node11" class="node">
<title>mfmo:0000145</title>
<ellipse fill="none" stroke="red" cx="2343.15" cy="-385.83" rx="94.09" ry="26.74"/>
<text text-anchor="middle" x="2343.15" y="-389.63" font-family="Times,serif" font-size="14.00">angle of oral opening</text>
<text text-anchor="middle" x="2343.15" y="-374.63" font-family="Times,serif" font-size="14.00">mfmo:0000145</text>
</g>
<!-- uberon:0000166 -->
<g id="node12" class="node">
<title>uberon:0000166</title>
<ellipse fill="none" stroke="blue" cx="2343.15" cy="-296.09" rx="74.49" ry="26.74"/>
<text text-anchor="middle" x="2343.15" y="-299.89" font-family="Times,serif" font-size="14.00">oral opening</text>
<text text-anchor="middle" x="2343.15" y="-284.89" font-family="Times,serif" font-size="14.00">uberon:0000166</text>
</g>
<!-- mfmo:0000145&#45;&gt;uberon:0000166 -->
<g id="edge6" class="edge">
<title>mfmo:0000145&#45;&gt;uberon:0000166</title>
<path fill="none" stroke="black" d="M2343.15,-358.51C2343.15,-350.54 2343.15,-341.65 2343.15,-333.16"/>
<polygon fill="black" stroke="black" points="2346.65,-333.09 2343.15,-323.09 2339.65,-333.09 2346.65,-333.09"/>
</g>
<!-- uberon:0001685 -->
<g id="node13" class="node">
<title>uberon:0001685</title>
<ellipse fill="none" stroke="blue" cx="1362.15" cy="-116.61" rx="74.49" ry="26.74"/>
<text text-anchor="middle" x="1362.15" y="-120.41" font-family="Times,serif" font-size="14.00">hyoid apparatus</text>
<text text-anchor="middle" x="1362.15" y="-105.41" font-family="Times,serif" font-size="14.00">uberon:0001685</text>
</g>
<!-- uberon:0001685&#45;&gt;uberon:0000465 -->
<g id="edge7" class="edge">
<title>uberon:0001685&#45;&gt;uberon:0000465</title>
<path fill="none" stroke="black" d="M1395.78,-92.56C1411.04,-82.09 1429.31,-69.57 1445.68,-58.35"/>
<polygon fill="black" stroke="black" points="1447.78,-61.15 1454.05,-52.61 1443.82,-55.38 1447.78,-61.15"/>
</g>
<!-- mfmo:0000052 -->
<g id="node14" class="node">
<title>mfmo:0000052</title>
<ellipse fill="none" stroke="red" cx="1109.15" cy="-206.35" rx="155.63" ry="26.74"/>
<text text-anchor="middle" x="1109.15" y="-210.15" font-family="Times,serif" font-size="14.00">non stylohyal part of hyoid apparatus</text>
<text text-anchor="middle" x="1109.15" y="-195.15" font-family="Times,serif" font-size="14.00">mfmo:0000052</text>
</g>
<!-- mfmo:0000052&#45;&gt;uberon:0001685 -->
<g id="edge8" class="edge">
<title>mfmo:0000052&#45;&gt;uberon:0001685</title>
<path fill="none" stroke="blue" d="M1176.28,-182.07C1214.58,-168.79 1262.27,-152.25 1299.75,-139.25"/>
<polygon fill="blue" stroke="blue" points="1301.24,-142.44 1309.54,-135.85 1298.95,-135.82 1301.24,-142.44"/>
</g>
<!-- mfmo:0000046 -->
<g id="node15" class="node">
<title>mfmo:0000046</title>
<ellipse fill="none" stroke="red" cx="1619.15" cy="-116.61" rx="164.51" ry="26.74"/>
<text text-anchor="middle" x="1619.15" y="-120.41" font-family="Times,serif" font-size="14.00">capsule of the temporomandibular joint</text>
<text text-anchor="middle" x="1619.15" y="-105.41" font-family="Times,serif" font-size="14.00">mfmo:0000046</text>
</g>
<!-- mfmo:0000046&#45;&gt;uberon:0000465 -->
<g id="edge9" class="edge">
<title>mfmo:0000046&#45;&gt;uberon:0000465</title>
<path fill="none" stroke="black" d="M1581.83,-90.23C1567.14,-80.24 1550.15,-68.68 1534.81,-58.25"/>
<polygon fill="black" stroke="black" points="1536.72,-55.32 1526.48,-52.59 1532.78,-61.1 1536.72,-55.32"/>
</g>
<!-- mfmo:0000062 -->
<g id="node16" class="node">
<title>mfmo:0000062</title>
<ellipse fill="none" stroke="red" cx="2625.15" cy="-385.83" rx="170.33" ry="26.74"/>
<text text-anchor="middle" x="2625.15" y="-389.63" font-family="Times,serif" font-size="14.00">muscles innervated by hypoglossal nerve</text>
<text text-anchor="middle" x="2625.15" y="-374.63" font-family="Times,serif" font-size="14.00">mfmo:0000062</text>
</g>
<!-- mfmo:0000108 -->
<g id="node17" class="node">
<title>mfmo:0000108</title>
<ellipse fill="none" stroke="red" cx="611.15" cy="-296.09" rx="71.34" ry="26.74"/>
<text text-anchor="middle" x="611.15" y="-299.89" font-family="Times,serif" font-size="14.00">zygomatic arch</text>
<text text-anchor="middle" x="611.15" y="-284.89" font-family="Times,serif" font-size="14.00">mfmo:0000108</text>
</g>
<!-- mfmo:0000108&#45;&gt;uberon:0001474 -->
<g id="edge10" class="edge">
<title>mfmo:0000108&#45;&gt;uberon:0001474</title>
<path fill="none" stroke="black" d="M611.15,-268.77C611.15,-260.8 611.15,-251.91 611.15,-243.42"/>
<polygon fill="black" stroke="black" points="614.65,-243.35 611.15,-233.35 607.65,-243.35 614.65,-243.35"/>
</g>
<!-- mfmo:0000106 -->
<g id="node18" class="node">
<title>mfmo:0000106</title>
<ellipse fill="none" stroke="red" cx="936.15" cy="-296.09" rx="74.91" ry="26.74"/>
<text text-anchor="middle" x="936.15" y="-299.89" font-family="Times,serif" font-size="14.00">thyroid cartilage</text>
<text text-anchor="middle" x="936.15" y="-284.89" font-family="Times,serif" font-size="14.00">mfmo:0000106</text>
</g>
<!-- mfmo:0000106&#45;&gt;uberon:0007844 -->
<g id="edge12" class="edge">
<title>mfmo:0000106&#45;&gt;uberon:0007844</title>
<path fill="none" stroke="black" d="M914,-270.18C905.69,-260.83 896.1,-250.05 887.25,-240.09"/>
<polygon fill="black" stroke="black" points="889.6,-237.47 880.34,-232.32 884.37,-242.12 889.6,-237.47"/>
</g>
<!-- mfmo:0000091 -->
<g id="node19" class="node">
<title>mfmo:0000091</title>
<ellipse fill="none" stroke="red" cx="1830.15" cy="-296.09" rx="71.34" ry="26.74"/>
<text text-anchor="middle" x="1830.15" y="-299.89" font-family="Times,serif" font-size="14.00">cervical plexus</text>
<text text-anchor="middle" x="1830.15" y="-284.89" font-family="Times,serif" font-size="14.00">mfmo:0000091</text>
</g>
<!-- http://purl.obolibrary.org/obo/mfmo.owl#MFMO_0000300 -->
<g id="node20" class="node">
<title>http://purl.obolibrary.org/obo/mfmo.owl#MFMO_0000300</title>
<ellipse fill="none" stroke="blue" cx="2042.15" cy="-206.35" rx="221.76" ry="18"/>
<text text-anchor="middle" x="2042.15" y="-202.65" font-family="Times,serif" font-size="14.00">http://purl.obolibrary.org/obo/mfmo.owl#MFMO_0000300</text>
</g>
<!-- mfmo:0000091&#45;&gt;http://purl.obolibrary.org/obo/mfmo.owl#MFMO_0000300 -->
<g id="edge13" class="edge">
<title>mfmo:0000091&#45;&gt;http://purl.obolibrary.org/obo/mfmo.owl#MFMO_0000300</title>
<path fill="none" stroke="black" d="M1876.93,-275.73C1911.04,-261.61 1957.19,-242.51 1992.04,-228.09"/>
<polygon fill="black" stroke="black" points="1993.65,-231.21 2001.55,-224.15 1990.97,-224.74 1993.65,-231.21"/>
</g>
<!-- mfmo:0000090 -->
<g id="node21" class="node">
<title>mfmo:0000090</title>
<ellipse fill="none" stroke="black" cx="1873.15" cy="-116.61" rx="71.34" ry="26.74"/>
<text text-anchor="middle" x="1873.15" y="-120.41" font-family="Times,serif" font-size="14.00">nerve</text>
<text text-anchor="middle" x="1873.15" y="-105.41" font-family="Times,serif" font-size="14.00">mfmo:0000090</text>
</g>
<!-- mfmo:0000091&#45;&gt;mfmo:0000090 -->
<g id="edge14" class="edge">
<title>mfmo:0000091&#45;&gt;mfmo:0000090</title>
<path fill="none" stroke="black" d="M1818.15,-269.37C1808.7,-245.31 1798.99,-208.79 1811.15,-179.48 1816.07,-167.62 1824.48,-156.85 1833.56,-147.75"/>
<polygon fill="black" stroke="black" points="1836.04,-150.22 1840.92,-140.82 1831.24,-145.12 1836.04,-150.22"/>
</g>
<!-- http://purl.obolibrary.org/obo/mfmo.owl#MFMO_0000300&#45;&gt;mfmo:0000090 -->
<g id="edge19" class="edge">
<title>http://purl.obolibrary.org/obo/mfmo.owl#MFMO_0000300&#45;&gt;mfmo:0000090</title>
<path fill="none" stroke="black" d="M2009.56,-188.43C1985.09,-175.73 1951.13,-158.1 1923.21,-143.6"/>
<polygon fill="black" stroke="black" points="1924.49,-140.32 1914,-138.82 1921.26,-146.54 1924.49,-140.32"/>
</g>
<!-- mfmo:0000090&#45;&gt;uberon:0000465 -->
<g id="edge21" class="edge">
<title>mfmo:0000090&#45;&gt;uberon:0000465</title>
<path fill="none" stroke="black" d="M1821.32,-97.93C1812,-95.01 1802.32,-92.15 1793.15,-89.74 1725.9,-72.06 1649.15,-56.43 1589.71,-45.31"/>
<polygon fill="black" stroke="black" points="1590.05,-41.81 1579.58,-43.42 1588.77,-48.69 1590.05,-41.81"/>
</g>
<!-- mfmo:0000055 -->
<g id="node22" class="node">
<title>mfmo:0000055</title>
<ellipse fill="none" stroke="red" cx="282.15" cy="-385.83" rx="96.33" ry="26.74"/>
<text text-anchor="middle" x="282.15" y="-389.63" font-family="Times,serif" font-size="14.00">angle of the mandible</text>
<text text-anchor="middle" x="282.15" y="-374.63" font-family="Times,serif" font-size="14.00">mfmo:0000055</text>
</g>
<!-- mfmo:0000055&#45;&gt;uberon:0001684 -->
<g id="edge15" class="edge">
<title>mfmo:0000055&#45;&gt;uberon:0001684</title>
<path fill="none" stroke="black" d="M282.15,-358.51C282.15,-350.54 282.15,-341.65 282.15,-333.16"/>
<polygon fill="black" stroke="black" points="285.65,-333.09 282.15,-323.09 278.65,-333.09 285.65,-333.09"/>
</g>
<!-- mfmo:0000004 -->
<g id="node23" class="node">
<title>mfmo:0000004</title>
<ellipse fill="none" stroke="red" cx="1443.15" cy="-206.35" rx="160.53" ry="26.74"/>
<text text-anchor="middle" x="1443.15" y="-210.15" font-family="Times,serif" font-size="14.00">non ceratohyal part of hyoid apparatus</text>
<text text-anchor="middle" x="1443.15" y="-195.15" font-family="Times,serif" font-size="14.00">mfmo:0000004</text>
</g>
<!-- mfmo:0000004&#45;&gt;uberon:0001685 -->
<g id="edge16" class="edge">
<title>mfmo:0000004&#45;&gt;uberon:0001685</title>
<path fill="none" stroke="blue" d="M1419.28,-179.5C1410.74,-170.25 1401,-159.7 1392.01,-149.96"/>
<polygon fill="blue" stroke="blue" points="1394.36,-147.35 1385.01,-142.37 1389.22,-152.09 1394.36,-147.35"/>
</g>
<!-- mfmo:0000092 -->
<g id="node24" class="node">
<title>mfmo:0000092</title>
<ellipse fill="none" stroke="red" cx="2167.15" cy="-296.09" rx="84.29" ry="26.74"/>
<text text-anchor="middle" x="2167.15" y="-299.89" font-family="Times,serif" font-size="14.00">first cervical nerve</text>
<text text-anchor="middle" x="2167.15" y="-284.89" font-family="Times,serif" font-size="14.00">mfmo:0000092</text>
</g>
<!-- mfmo:0000092&#45;&gt;http://purl.obolibrary.org/obo/mfmo.owl#MFMO_0000300 -->
<g id="edge17" class="edge">
<title>mfmo:0000092&#45;&gt;http://purl.obolibrary.org/obo/mfmo.owl#MFMO_0000300</title>
<path fill="none" stroke="black" d="M2133.32,-271.35C2115.18,-258.61 2092.92,-242.99 2074.93,-230.36"/>
<polygon fill="black" stroke="black" points="2076.68,-227.32 2066.49,-224.44 2072.66,-233.04 2076.68,-227.32"/>
</g>
<!-- mfmo:0000092&#45;&gt;mfmo:0000090 -->
<g id="edge18" class="edge">
<title>mfmo:0000092&#45;&gt;mfmo:0000090</title>
<path fill="none" stroke="black" d="M2223.21,-275.88C2242.55,-266.25 2262.11,-252.44 2273.15,-233.22 2285.04,-212.51 2289.06,-197.29 2273.15,-179.48 2225.46,-126.13 2023.1,-158.57 1953.15,-143.48 1946.87,-142.13 1940.39,-140.48 1933.97,-138.67"/>
<polygon fill="black" stroke="black" points="1934.52,-135.18 1923.94,-135.72 1932.55,-141.9 1934.52,-135.18"/>
</g>
<!-- mfmo:0000098 -->
<g id="node25" class="node">
<title>mfmo:0000098</title>
<ellipse fill="none" stroke="red" cx="772.15" cy="-296.09" rx="71.34" ry="26.74"/>
<text text-anchor="middle" x="772.15" y="-299.89" font-family="Times,serif" font-size="14.00">scapula bone</text>
<text text-anchor="middle" x="772.15" y="-284.89" font-family="Times,serif" font-size="14.00">mfmo:0000098</text>
</g>
<!-- mfmo:0000098&#45;&gt;uberon:0001474 -->
<g id="edge20" class="edge">
<title>mfmo:0000098&#45;&gt;uberon:0001474</title>
<path fill="none" stroke="black" d="M732.76,-273.63C710.82,-261.67 683.3,-246.67 660,-233.97"/>
<polygon fill="black" stroke="black" points="661.42,-230.76 650.96,-229.05 658.07,-236.91 661.42,-230.76"/>
</g>
<!-- mfmo:0000007 -->
<g id="node26" class="node">
<title>mfmo:0000007</title>
<ellipse fill="none" stroke="red" cx="3005.15" cy="-385.83" rx="191.75" ry="26.74"/>
<text text-anchor="middle" x="3005.15" y="-389.63" font-family="Times,serif" font-size="14.00">muscles innervated by glossopharyngeal nerve</text>
<text text-anchor="middle" x="3005.15" y="-374.63" font-family="Times,serif" font-size="14.00">mfmo:0000007</text>
</g>
<!-- mfmo:0000010 -->
<g id="node27" class="node">
<title>mfmo:0000010</title>
<ellipse fill="none" stroke="red" cx="3362.15" cy="-385.83" rx="147.16" ry="26.74"/>
<text text-anchor="middle" x="3362.15" y="-389.63" font-family="Times,serif" font-size="14.00">muscles innervated by vagus nerve</text>
<text text-anchor="middle" x="3362.15" y="-374.63" font-family="Times,serif" font-size="14.00">mfmo:0000010</text>
</g>
<!-- mfmo:0000067 -->
<g id="node28" class="node">
<title>mfmo:0000067</title>
<ellipse fill="none" stroke="red" cx="3675.15" cy="-385.83" rx="147.57" ry="26.74"/>
<text text-anchor="middle" x="3675.15" y="-389.63" font-family="Times,serif" font-size="14.00">muscles innervated by spinal nerve</text>
<text text-anchor="middle" x="3675.15" y="-374.63" font-family="Times,serif" font-size="14.00">mfmo:0000067</text>
</g>
<!-- mfmo:0000056 -->
<g id="node29" class="node">
<title>mfmo:0000056</title>
<ellipse fill="none" stroke="red" cx="502.15" cy="-385.83" rx="105.22" ry="26.74"/>
<text text-anchor="middle" x="502.15" y="-389.63" font-family="Times,serif" font-size="14.00">condyle of the mandible</text>
<text text-anchor="middle" x="502.15" y="-374.63" font-family="Times,serif" font-size="14.00">mfmo:0000056</text>
</g>
<!-- mfmo:0000056&#45;&gt;uberon:0001684 -->
<g id="edge22" class="edge">
<title>mfmo:0000056&#45;&gt;uberon:0001684</title>
<path fill="none" stroke="black" d="M446.91,-362.8C414.36,-349.82 373.22,-333.41 340.19,-320.24"/>
<polygon fill="black" stroke="black" points="341.24,-316.89 330.66,-316.44 338.65,-323.39 341.24,-316.89"/>
</g>
<!-- mfmo:0000060 -->
<g id="node30" class="node">
<title>mfmo:0000060</title>
<ellipse fill="none" stroke="red" cx="3953.15" cy="-385.83" rx="111.95" ry="26.74"/>
<text text-anchor="middle" x="3953.15" y="-389.63" font-family="Times,serif" font-size="14.00">posterior digastric muscle</text>
<text text-anchor="middle" x="3953.15" y="-374.63" font-family="Times,serif" font-size="14.00">mfmo:0000060</text>
</g>
<!-- mfmo:0000105 -->
<g id="node31" class="node">
<title>mfmo:0000105</title>
<ellipse fill="none" stroke="red" cx="2040.15" cy="-116.61" rx="77.56" ry="26.74"/>
<text text-anchor="middle" x="2040.15" y="-120.41" font-family="Times,serif" font-size="14.00">temporalis fascia</text>
<text text-anchor="middle" x="2040.15" y="-105.41" font-family="Times,serif" font-size="14.00">mfmo:0000105</text>
</g>
<!-- mfmo:0000105&#45;&gt;uberon:0000465 -->
<g id="edge24" class="edge">
<title>mfmo:0000105&#45;&gt;uberon:0000465</title>
<path fill="none" stroke="black" d="M1984.32,-97.61C1974.02,-94.69 1963.32,-91.92 1953.15,-89.74 1835.7,-64.59 1699.18,-47.83 1604.97,-38.18"/>
<polygon fill="black" stroke="black" points="1605.14,-34.68 1594.84,-37.15 1604.44,-41.64 1605.14,-34.68"/>
</g>
<!-- mfmo:0000065 -->
<g id="node32" class="node">
<title>mfmo:0000065</title>
<ellipse fill="none" stroke="red" cx="4185.15" cy="-385.83" rx="101.65" ry="26.74"/>
<text text-anchor="middle" x="4185.15" y="-389.63" font-family="Times,serif" font-size="14.00">intrinsic tongue muscle</text>
<text text-anchor="middle" x="4185.15" y="-374.63" font-family="Times,serif" font-size="14.00">mfmo:0000065</text>
</g>
<!-- mfmo:0000005 -->
<g id="node33" class="node">
<title>mfmo:0000005</title>
<ellipse fill="none" stroke="red" cx="4465.15" cy="-385.83" rx="160.53" ry="26.74"/>
<text text-anchor="middle" x="4465.15" y="-389.63" font-family="Times,serif" font-size="14.00">muscles innervated by the facial nerve</text>
<text text-anchor="middle" x="4465.15" y="-374.63" font-family="Times,serif" font-size="14.00">mfmo:0000005</text>
</g>
<!-- mfmo:0000053 -->
<g id="node34" class="node">
<title>mfmo:0000053</title>
<ellipse fill="none" stroke="red" cx="1693.15" cy="-206.35" rx="71.34" ry="26.74"/>
<text text-anchor="middle" x="1693.15" y="-210.15" font-family="Times,serif" font-size="14.00">stylohyal bone</text>
<text text-anchor="middle" x="1693.15" y="-195.15" font-family="Times,serif" font-size="14.00">mfmo:0000053</text>
</g>
<!-- mfmo:0000053&#45;&gt;uberon:0001685 -->
<g id="edge25" class="edge">
<title>mfmo:0000053&#45;&gt;uberon:0001685</title>
<path fill="none" stroke="black" d="M1641.3,-187.74C1631.98,-184.81 1622.31,-181.94 1613.15,-179.48 1539.39,-159.71 1519.01,-162.86 1445.15,-143.48 1438.77,-141.81 1432.15,-139.95 1425.57,-138.03"/>
<polygon fill="black" stroke="black" points="1426.55,-134.67 1415.96,-135.17 1424.55,-141.37 1426.55,-134.67"/>
</g>
</g>
</svg>
