<?xml version="1.0" encoding="UTF-8" standalone="no"?>
<!DOCTYPE svg PUBLIC "-//W3C//DTD SVG 1.1//EN"
 "http://www.w3.org/Graphics/SVG/1.1/DTD/svg11.dtd">
<!-- Generated by graphviz version 3.0.0 (20220226.1711)
 -->
<!-- Pages: 1 -->
<svg width="5190pt" height="421pt"
 viewBox="0.00 0.00 5189.64 420.70" xmlns="http://www.w3.org/2000/svg" xmlns:xlink="http://www.w3.org/1999/xlink">
<g id="graph0" class="graph" transform="scale(1 1) rotate(0) translate(4 416.7)">
<polygon fill="white" stroke="transparent" points="-4,4 -4,-416.7 5185.64,-416.7 5185.64,4 -4,4"/>
<!-- obo:uberon_0004765 -->
<g id="node1" class="node">
<title>obo:uberon_0004765</title>
<ellipse fill="none" stroke="black" cx="1833.56" cy="-116.61" rx="93.18" ry="26.74"/>
<text text-anchor="middle" x="1833.56" y="-120.41" font-family="Times,serif" font-size="14.00">skeletal element</text>
<text text-anchor="middle" x="1833.56" y="-105.41" font-family="Times,serif" font-size="14.00">obo:uberon_0004765</text>
</g>
<!-- uberon:0000465 -->
<g id="node2" class="node">
<title>uberon:0000465</title>
<ellipse fill="none" stroke="blue" cx="1211.56" cy="-26.87" rx="113.27" ry="26.74"/>
<text text-anchor="middle" x="1211.56" y="-30.67" font-family="Times,serif" font-size="14.00">material anatomical entity</text>
<text text-anchor="middle" x="1211.56" y="-15.67" font-family="Times,serif" font-size="14.00">uberon:0000465</text>
</g>
<!-- obo:uberon_0004765&#45;&gt;uberon:0000465 -->
<g id="edge1" class="edge">
<title>obo:uberon_0004765&#45;&gt;uberon:0000465</title>
<path fill="none" stroke="black" d="M1767.45,-97.51C1755.56,-94.64 1743.24,-91.91 1731.56,-89.74 1593.88,-64.2 1433.62,-47 1327.81,-37.34"/>
<polygon fill="black" stroke="black" points="1328.02,-33.85 1317.74,-36.43 1327.38,-40.82 1328.02,-33.85"/>
</g>
<!-- mfmo:0000062 -->
<g id="node3" class="node">
<title>mfmo:0000062</title>
<ellipse fill="none" stroke="red" cx="2430.56" cy="-385.83" rx="170.33" ry="26.74"/>
<text text-anchor="middle" x="2430.56" y="-389.63" font-family="Times,serif" font-size="14.00">muscles innervated by hypoglossal nerve</text>
<text text-anchor="middle" x="2430.56" y="-374.63" font-family="Times,serif" font-size="14.00">mfmo:0000062</text>
</g>
<!-- uberon:0001685 -->
<g id="node4" class="node">
<title>uberon:0001685</title>
<ellipse fill="none" stroke="blue" cx="525.56" cy="-116.61" rx="74.49" ry="26.74"/>
<text text-anchor="middle" x="525.56" y="-120.41" font-family="Times,serif" font-size="14.00">hyoid apparatus</text>
<text text-anchor="middle" x="525.56" y="-105.41" font-family="Times,serif" font-size="14.00">uberon:0001685</text>
</g>
<!-- uberon:0001685&#45;&gt;uberon:0000465 -->
<g id="edge2" class="edge">
<title>uberon:0001685&#45;&gt;uberon:0000465</title>
<path fill="none" stroke="black" d="M594.8,-106.76C714.56,-91.44 961.23,-59.89 1103.66,-41.67"/>
<polygon fill="black" stroke="black" points="1104.26,-45.12 1113.73,-40.38 1103.37,-38.18 1104.26,-45.12"/>
</g>
<!-- mfmo:0000065 -->
<g id="node5" class="node">
<title>mfmo:0000065</title>
<ellipse fill="none" stroke="red" cx="2720.56" cy="-385.83" rx="101.65" ry="26.74"/>
<text text-anchor="middle" x="2720.56" y="-389.63" font-family="Times,serif" font-size="14.00">intrinsic tongue muscle</text>
<text text-anchor="middle" x="2720.56" y="-374.63" font-family="Times,serif" font-size="14.00">mfmo:0000065</text>
</g>
<!-- mfmo:0000091 -->
<g id="node6" class="node">
<title>mfmo:0000091</title>
<ellipse fill="none" stroke="red" cx="983.56" cy="-296.09" rx="71.34" ry="26.74"/>
<text text-anchor="middle" x="983.56" y="-299.89" font-family="Times,serif" font-size="14.00">cervical plexus</text>
<text text-anchor="middle" x="983.56" y="-284.89" font-family="Times,serif" font-size="14.00">mfmo:0000091</text>
</g>
<!-- http://purl.obolibrary.org/obo/mfmo.owl#MFMO_0000300 -->
<g id="node7" class="node">
<title>http://purl.obolibrary.org/obo/mfmo.owl#MFMO_0000300</title>
<ellipse fill="none" stroke="blue" cx="1089.56" cy="-206.35" rx="221.76" ry="18"/>
<text text-anchor="middle" x="1089.56" y="-202.65" font-family="Times,serif" font-size="14.00">http://purl.obolibrary.org/obo/mfmo.owl#MFMO_0000300</text>
</g>
<!-- mfmo:0000091&#45;&gt;http://purl.obolibrary.org/obo/mfmo.owl#MFMO_0000300 -->
<g id="edge3" class="edge">
<title>mfmo:0000091&#45;&gt;http://purl.obolibrary.org/obo/mfmo.owl#MFMO_0000300</title>
<path fill="none" stroke="black" d="M1012.25,-271.35C1027.35,-258.84 1045.83,-243.55 1060.92,-231.06"/>
<polygon fill="black" stroke="black" points="1063.45,-233.51 1068.92,-224.44 1058.99,-228.12 1063.45,-233.51"/>
</g>
<!-- mfmo:0000090 -->
<g id="node8" class="node">
<title>mfmo:0000090</title>
<ellipse fill="none" stroke="black" cx="964.56" cy="-116.61" rx="71.34" ry="26.74"/>
<text text-anchor="middle" x="964.56" y="-120.41" font-family="Times,serif" font-size="14.00">nerve</text>
<text text-anchor="middle" x="964.56" y="-105.41" font-family="Times,serif" font-size="14.00">mfmo:0000090</text>
</g>
<!-- mfmo:0000091&#45;&gt;mfmo:0000090 -->
<g id="edge4" class="edge">
<title>mfmo:0000091&#45;&gt;mfmo:0000090</title>
<path fill="none" stroke="black" d="M924.62,-280.87C899.74,-271.64 873.19,-256.78 858.56,-233.22 845.97,-212.93 846.67,-200.19 858.56,-179.48 868.55,-162.09 885.51,-149.13 902.98,-139.68"/>
<polygon fill="black" stroke="black" points="904.78,-142.7 912.12,-135.06 901.62,-136.45 904.78,-142.7"/>
</g>
<!-- http://purl.obolibrary.org/obo/mfmo.owl#MFMO_0000300&#45;&gt;mfmo:0000090 -->
<g id="edge14" class="edge">
<title>http://purl.obolibrary.org/obo/mfmo.owl#MFMO_0000300&#45;&gt;mfmo:0000090</title>
<path fill="none" stroke="black" d="M1065.46,-188.43C1048.58,-176.58 1025.59,-160.44 1005.82,-146.57"/>
<polygon fill="black" stroke="black" points="1007.77,-143.66 997.57,-140.78 1003.74,-149.39 1007.77,-143.66"/>
</g>
<!-- mfmo:0000090&#45;&gt;uberon:0000465 -->
<g id="edge18" class="edge">
<title>mfmo:0000090&#45;&gt;uberon:0000465</title>
<path fill="none" stroke="black" d="M1015.44,-97.54C1051.66,-84.67 1100.79,-67.22 1140.82,-53"/>
<polygon fill="black" stroke="black" points="1142.01,-56.29 1150.26,-49.64 1139.67,-49.69 1142.01,-56.29"/>
</g>
<!-- mfmo:0000146 -->
<g id="node9" class="node">
<title>mfmo:0000146</title>
<ellipse fill="none" stroke="red" cx="1440.56" cy="-296.09" rx="73.58" ry="26.74"/>
<text text-anchor="middle" x="1440.56" y="-299.89" font-family="Times,serif" font-size="14.00">zygomatic bone</text>
<text text-anchor="middle" x="1440.56" y="-284.89" font-family="Times,serif" font-size="14.00">mfmo:0000146</text>
</g>
<!-- uberon:0001474 -->
<g id="node10" class="node">
<title>uberon:0001474</title>
<ellipse fill="none" stroke="blue" cx="1764.56" cy="-206.35" rx="74.49" ry="26.74"/>
<text text-anchor="middle" x="1764.56" y="-210.15" font-family="Times,serif" font-size="14.00">bone element</text>
<text text-anchor="middle" x="1764.56" y="-195.15" font-family="Times,serif" font-size="14.00">uberon:0001474</text>
</g>
<!-- mfmo:0000146&#45;&gt;uberon:0001474 -->
<g id="edge5" class="edge">
<title>mfmo:0000146&#45;&gt;uberon:0001474</title>
<path fill="none" stroke="black" d="M1494.91,-277.72C1504.44,-274.8 1514.27,-271.86 1523.56,-269.22 1580.71,-252.99 1646.01,-236.34 1694.21,-224.41"/>
<polygon fill="black" stroke="black" points="1695.05,-227.81 1703.92,-222.01 1693.37,-221.01 1695.05,-227.81"/>
</g>
<!-- uberon:0001474&#45;&gt;obo:uberon_0004765 -->
<g id="edge9" class="edge">
<title>uberon:0001474&#45;&gt;obo:uberon_0004765</title>
<path fill="none" stroke="black" d="M1784.52,-179.97C1791.67,-170.88 1799.85,-160.49 1807.44,-150.83"/>
<polygon fill="black" stroke="black" points="1810.22,-152.96 1813.65,-142.93 1804.72,-148.63 1810.22,-152.96"/>
</g>
<!-- mfmo:0000052 -->
<g id="node11" class="node">
<title>mfmo:0000052</title>
<ellipse fill="none" stroke="red" cx="155.56" cy="-206.35" rx="155.63" ry="26.74"/>
<text text-anchor="middle" x="155.56" y="-210.15" font-family="Times,serif" font-size="14.00">non stylohyal part of hyoid apparatus</text>
<text text-anchor="middle" x="155.56" y="-195.15" font-family="Times,serif" font-size="14.00">mfmo:0000052</text>
</g>
<!-- mfmo:0000052&#45;&gt;uberon:0001685 -->
<g id="edge6" class="edge">
<title>mfmo:0000052&#45;&gt;uberon:0001685</title>
<path fill="none" stroke="blue" d="M244.66,-184.22C309.17,-168.92 395.19,-148.53 454.98,-134.35"/>
<polygon fill="blue" stroke="blue" points="455.78,-137.75 464.71,-132.04 454.17,-130.94 455.78,-137.75"/>
</g>
<!-- mfmo:0000098 -->
<g id="node12" class="node">
<title>mfmo:0000098</title>
<ellipse fill="none" stroke="red" cx="1603.56" cy="-296.09" rx="71.34" ry="26.74"/>
<text text-anchor="middle" x="1603.56" y="-299.89" font-family="Times,serif" font-size="14.00">scapula bone</text>
<text text-anchor="middle" x="1603.56" y="-284.89" font-family="Times,serif" font-size="14.00">mfmo:0000098</text>
</g>
<!-- mfmo:0000098&#45;&gt;uberon:0001474 -->
<g id="edge7" class="edge">
<title>mfmo:0000098&#45;&gt;uberon:0001474</title>
<path fill="none" stroke="black" d="M1642.95,-273.63C1664.89,-261.67 1692.41,-246.67 1715.71,-233.97"/>
<polygon fill="black" stroke="black" points="1717.64,-236.91 1724.75,-229.05 1714.29,-230.76 1717.64,-236.91"/>
</g>
<!-- mfmo:0000108 -->
<g id="node13" class="node">
<title>mfmo:0000108</title>
<ellipse fill="none" stroke="red" cx="1764.56" cy="-296.09" rx="71.34" ry="26.74"/>
<text text-anchor="middle" x="1764.56" y="-299.89" font-family="Times,serif" font-size="14.00">zygomatic arch</text>
<text text-anchor="middle" x="1764.56" y="-284.89" font-family="Times,serif" font-size="14.00">mfmo:0000108</text>
</g>
<!-- mfmo:0000108&#45;&gt;uberon:0001474 -->
<g id="edge8" class="edge">
<title>mfmo:0000108&#45;&gt;uberon:0001474</title>
<path fill="none" stroke="black" d="M1764.56,-268.77C1764.56,-260.8 1764.56,-251.91 1764.56,-243.42"/>
<polygon fill="black" stroke="black" points="1768.06,-243.35 1764.56,-233.35 1761.06,-243.35 1768.06,-243.35"/>
</g>
<!-- mfmo:0000067 -->
<g id="node14" class="node">
<title>mfmo:0000067</title>
<ellipse fill="none" stroke="red" cx="2988.56" cy="-385.83" rx="147.57" ry="26.74"/>
<text text-anchor="middle" x="2988.56" y="-389.63" font-family="Times,serif" font-size="14.00">muscles innervated by spinal nerve</text>
<text text-anchor="middle" x="2988.56" y="-374.63" font-family="Times,serif" font-size="14.00">mfmo:0000067</text>
</g>
<!-- mfmo:0000095 -->
<g id="node15" class="node">
<title>mfmo:0000095</title>
<ellipse fill="none" stroke="red" cx="1127.56" cy="-116.61" rx="73.58" ry="26.74"/>
<text text-anchor="middle" x="1127.56" y="-120.41" font-family="Times,serif" font-size="14.00">branchial arch 1</text>
<text text-anchor="middle" x="1127.56" y="-105.41" font-family="Times,serif" font-size="14.00">mfmo:0000095</text>
</g>
<!-- mfmo:0000095&#45;&gt;uberon:0000465 -->
<g id="edge10" class="edge">
<title>mfmo:0000095&#45;&gt;uberon:0000465</title>
<path fill="none" stroke="black" d="M1151.41,-90.7C1160.38,-81.34 1170.71,-70.54 1180.26,-60.57"/>
<polygon fill="black" stroke="black" points="1182.98,-62.79 1187.37,-53.15 1177.92,-57.95 1182.98,-62.79"/>
</g>
<!-- mfmo:0000053 -->
<g id="node16" class="node">
<title>mfmo:0000053</title>
<ellipse fill="none" stroke="red" cx="400.56" cy="-206.35" rx="71.34" ry="26.74"/>
<text text-anchor="middle" x="400.56" y="-210.15" font-family="Times,serif" font-size="14.00">stylohyal bone</text>
<text text-anchor="middle" x="400.56" y="-195.15" font-family="Times,serif" font-size="14.00">mfmo:0000053</text>
</g>
<!-- mfmo:0000053&#45;&gt;uberon:0001685 -->
<g id="edge11" class="edge">
<title>mfmo:0000053&#45;&gt;uberon:0001685</title>
<path fill="none" stroke="black" d="M433.41,-182.3C448.93,-171.4 467.63,-158.28 484.12,-146.7"/>
<polygon fill="black" stroke="black" points="486.33,-149.42 492.51,-140.81 482.31,-143.69 486.33,-149.42"/>
</g>
<!-- mfmo:0000145 -->
<g id="node17" class="node">
<title>mfmo:0000145</title>
<ellipse fill="none" stroke="red" cx="3248.56" cy="-385.83" rx="94.09" ry="26.74"/>
<text text-anchor="middle" x="3248.56" y="-389.63" font-family="Times,serif" font-size="14.00">angle of oral opening</text>
<text text-anchor="middle" x="3248.56" y="-374.63" font-family="Times,serif" font-size="14.00">mfmo:0000145</text>
</g>
<!-- uberon:0000166 -->
<g id="node18" class="node">
<title>uberon:0000166</title>
<ellipse fill="none" stroke="blue" cx="3248.56" cy="-296.09" rx="74.49" ry="26.74"/>
<text text-anchor="middle" x="3248.56" y="-299.89" font-family="Times,serif" font-size="14.00">oral opening</text>
<text text-anchor="middle" x="3248.56" y="-284.89" font-family="Times,serif" font-size="14.00">uberon:0000166</text>
</g>
<!-- mfmo:0000145&#45;&gt;uberon:0000166 -->
<g id="edge12" class="edge">
<title>mfmo:0000145&#45;&gt;uberon:0000166</title>
<path fill="none" stroke="black" d="M3248.56,-358.51C3248.56,-350.54 3248.56,-341.65 3248.56,-333.16"/>
<polygon fill="black" stroke="black" points="3252.06,-333.09 3248.56,-323.09 3245.06,-333.09 3252.06,-333.09"/>
</g>
<!-- mfmo:0000055 -->
<g id="node19" class="node">
<title>mfmo:0000055</title>
<ellipse fill="none" stroke="red" cx="1730.56" cy="-385.83" rx="96.33" ry="26.74"/>
<text text-anchor="middle" x="1730.56" y="-389.63" font-family="Times,serif" font-size="14.00">angle of the mandible</text>
<text text-anchor="middle" x="1730.56" y="-374.63" font-family="Times,serif" font-size="14.00">mfmo:0000055</text>
</g>
<!-- uberon:0001684 -->
<g id="node20" class="node">
<title>uberon:0001684</title>
<ellipse fill="none" stroke="blue" cx="1928.56" cy="-296.09" rx="74.49" ry="26.74"/>
<text text-anchor="middle" x="1928.56" y="-299.89" font-family="Times,serif" font-size="14.00">mandible bone</text>
<text text-anchor="middle" x="1928.56" y="-284.89" font-family="Times,serif" font-size="14.00">uberon:0001684</text>
</g>
<!-- mfmo:0000055&#45;&gt;uberon:0001684 -->
<g id="edge13" class="edge">
<title>mfmo:0000055&#45;&gt;uberon:0001684</title>
<path fill="none" stroke="black" d="M1780.27,-362.8C1808.7,-350.21 1844.4,-334.38 1873.65,-321.42"/>
<polygon fill="black" stroke="black" points="1875.18,-324.57 1882.91,-317.32 1872.35,-318.17 1875.18,-324.57"/>
</g>
<!-- uberon:0001684&#45;&gt;uberon:0001474 -->
<g id="edge24" class="edge">
<title>uberon:0001684&#45;&gt;uberon:0001474</title>
<path fill="none" stroke="black" d="M1888.02,-273.4C1865.57,-261.39 1837.48,-246.36 1813.77,-233.68"/>
<polygon fill="black" stroke="black" points="1815.39,-230.57 1804.92,-228.94 1812.09,-236.74 1815.39,-230.57"/>
</g>
<!-- mfmo:0000072 -->
<g id="node21" class="node">
<title>mfmo:0000072</title>
<ellipse fill="none" stroke="red" cx="3539.56" cy="-385.83" rx="178.8" ry="26.74"/>
<text text-anchor="middle" x="3539.56" y="-389.63" font-family="Times,serif" font-size="14.00">muscles innervated by the trigeminal nerve</text>
<text text-anchor="middle" x="3539.56" y="-374.63" font-family="Times,serif" font-size="14.00">mfmo:0000072</text>
</g>
<!-- mfmo:0000075 -->
<g id="node22" class="node">
<title>mfmo:0000075</title>
<ellipse fill="none" stroke="red" cx="3812.56" cy="-385.83" rx="75.82" ry="26.74"/>
<text text-anchor="middle" x="3812.56" y="-389.63" font-family="Times,serif" font-size="14.00">masseter muscle</text>
<text text-anchor="middle" x="3812.56" y="-374.63" font-family="Times,serif" font-size="14.00">mfmo:0000075</text>
</g>
<!-- mfmo:0000147 -->
<g id="node23" class="node">
<title>mfmo:0000147</title>
<ellipse fill="none" stroke="red" cx="1928.56" cy="-385.83" rx="84.29" ry="26.74"/>
<text text-anchor="middle" x="1928.56" y="-389.63" font-family="Times,serif" font-size="14.00">symphyseal region</text>
<text text-anchor="middle" x="1928.56" y="-374.63" font-family="Times,serif" font-size="14.00">mfmo:0000147</text>
</g>
<!-- mfmo:0000147&#45;&gt;uberon:0001684 -->
<g id="edge15" class="edge">
<title>mfmo:0000147&#45;&gt;uberon:0001684</title>
<path fill="none" stroke="black" d="M1928.56,-358.51C1928.56,-350.54 1928.56,-341.65 1928.56,-333.16"/>
<polygon fill="black" stroke="black" points="1932.06,-333.09 1928.56,-323.09 1925.06,-333.09 1932.06,-333.09"/>
</g>
<!-- mfmo:0000007 -->
<g id="node24" class="node">
<title>mfmo:0000007</title>
<ellipse fill="none" stroke="red" cx="4097.56" cy="-385.83" rx="191.75" ry="26.74"/>
<text text-anchor="middle" x="4097.56" y="-389.63" font-family="Times,serif" font-size="14.00">muscles innervated by glossopharyngeal nerve</text>
<text text-anchor="middle" x="4097.56" y="-374.63" font-family="Times,serif" font-size="14.00">mfmo:0000007</text>
</g>
<!-- mfmo:0000105 -->
<g id="node25" class="node">
<title>mfmo:0000105</title>
<ellipse fill="none" stroke="red" cx="1296.56" cy="-116.61" rx="77.56" ry="26.74"/>
<text text-anchor="middle" x="1296.56" y="-120.41" font-family="Times,serif" font-size="14.00">temporalis fascia</text>
<text text-anchor="middle" x="1296.56" y="-105.41" font-family="Times,serif" font-size="14.00">mfmo:0000105</text>
</g>
<!-- mfmo:0000105&#45;&gt;uberon:0000465 -->
<g id="edge16" class="edge">
<title>mfmo:0000105&#45;&gt;uberon:0000465</title>
<path fill="none" stroke="black" d="M1272.43,-90.7C1263.36,-81.34 1252.9,-70.54 1243.24,-60.57"/>
<polygon fill="black" stroke="black" points="1245.52,-57.89 1236.05,-53.15 1240.49,-62.76 1245.52,-57.89"/>
</g>
<!-- mfmo:0000060 -->
<g id="node26" class="node">
<title>mfmo:0000060</title>
<ellipse fill="none" stroke="red" cx="4418.56" cy="-385.83" rx="111.95" ry="26.74"/>
<text text-anchor="middle" x="4418.56" y="-389.63" font-family="Times,serif" font-size="14.00">posterior digastric muscle</text>
<text text-anchor="middle" x="4418.56" y="-374.63" font-family="Times,serif" font-size="14.00">mfmo:0000060</text>
</g>
<!-- mfmo:0000005 -->
<g id="node27" class="node">
<title>mfmo:0000005</title>
<ellipse fill="none" stroke="red" cx="4708.56" cy="-385.83" rx="160.53" ry="26.74"/>
<text text-anchor="middle" x="4708.56" y="-389.63" font-family="Times,serif" font-size="14.00">muscles innervated by the facial nerve</text>
<text text-anchor="middle" x="4708.56" y="-374.63" font-family="Times,serif" font-size="14.00">mfmo:0000005</text>
</g>
<!-- mfmo:0000056 -->
<g id="node28" class="node">
<title>mfmo:0000056</title>
<ellipse fill="none" stroke="red" cx="2136.56" cy="-385.83" rx="105.22" ry="26.74"/>
<text text-anchor="middle" x="2136.56" y="-389.63" font-family="Times,serif" font-size="14.00">condyle of the mandible</text>
<text text-anchor="middle" x="2136.56" y="-374.63" font-family="Times,serif" font-size="14.00">mfmo:0000056</text>
</g>
<!-- mfmo:0000056&#45;&gt;uberon:0001684 -->
<g id="edge17" class="edge">
<title>mfmo:0000056&#45;&gt;uberon:0001684</title>
<path fill="none" stroke="black" d="M2083.54,-362.46C2053.43,-349.76 2015.76,-333.87 1985.09,-320.94"/>
<polygon fill="black" stroke="black" points="1986.39,-317.68 1975.81,-317.02 1983.67,-324.13 1986.39,-317.68"/>
</g>
<!-- mfmo:0000046 -->
<g id="node29" class="node">
<title>mfmo:0000046</title>
<ellipse fill="none" stroke="red" cx="1557.56" cy="-116.61" rx="164.51" ry="26.74"/>
<text text-anchor="middle" x="1557.56" y="-120.41" font-family="Times,serif" font-size="14.00">capsule of the temporomandibular joint</text>
<text text-anchor="middle" x="1557.56" y="-105.41" font-family="Times,serif" font-size="14.00">mfmo:0000046</text>
</g>
<!-- mfmo:0000046&#45;&gt;uberon:0000465 -->
<g id="edge19" class="edge">
<title>mfmo:0000046&#45;&gt;uberon:0000465</title>
<path fill="none" stroke="black" d="M1471.15,-93.7C1417.82,-80.17 1349.7,-62.9 1296.63,-49.44"/>
<polygon fill="black" stroke="black" points="1297.46,-46.04 1286.9,-46.97 1295.73,-52.83 1297.46,-46.04"/>
</g>
<!-- uberon:0007844 -->
<g id="node30" class="node">
<title>uberon:0007844</title>
<ellipse fill="none" stroke="blue" cx="2015.56" cy="-206.35" rx="77.56" ry="26.74"/>
<text text-anchor="middle" x="2015.56" y="-210.15" font-family="Times,serif" font-size="14.00">cartilage element</text>
<text text-anchor="middle" x="2015.56" y="-195.15" font-family="Times,serif" font-size="14.00">uberon:0007844</text>
</g>
<!-- uberon:0007844&#45;&gt;obo:uberon_0004765 -->
<g id="edge20" class="edge">
<title>uberon:0007844&#45;&gt;obo:uberon_0004765</title>
<path fill="none" stroke="black" d="M1971.51,-184.11C1946.76,-172.18 1915.63,-157.17 1889.21,-144.43"/>
<polygon fill="black" stroke="black" points="1890.6,-141.22 1880.07,-140.03 1887.56,-147.53 1890.6,-141.22"/>
</g>
<!-- mfmo:0000004 -->
<g id="node31" class="node">
<title>mfmo:0000004</title>
<ellipse fill="none" stroke="red" cx="650.56" cy="-206.35" rx="160.53" ry="26.74"/>
<text text-anchor="middle" x="650.56" y="-210.15" font-family="Times,serif" font-size="14.00">non ceratohyal part of hyoid apparatus</text>
<text text-anchor="middle" x="650.56" y="-195.15" font-family="Times,serif" font-size="14.00">mfmo:0000004</text>
</g>
<!-- mfmo:0000004&#45;&gt;uberon:0001685 -->
<g id="edge21" class="edge">
<title>mfmo:0000004&#45;&gt;uberon:0001685</title>
<path fill="none" stroke="blue" d="M614.41,-179.97C599.56,-169.55 582.29,-157.43 566.95,-146.66"/>
<polygon fill="blue" stroke="blue" points="568.84,-143.71 558.65,-140.83 564.82,-149.44 568.84,-143.71"/>
</g>
<!-- mfmo:0000092 -->
<g id="node32" class="node">
<title>mfmo:0000092</title>
<ellipse fill="none" stroke="red" cx="1195.56" cy="-296.09" rx="84.29" ry="26.74"/>
<text text-anchor="middle" x="1195.56" y="-299.89" font-family="Times,serif" font-size="14.00">first cervical nerve</text>
<text text-anchor="middle" x="1195.56" y="-284.89" font-family="Times,serif" font-size="14.00">mfmo:0000092</text>
</g>
<!-- mfmo:0000092&#45;&gt;http://purl.obolibrary.org/obo/mfmo.owl#MFMO_0000300 -->
<g id="edge22" class="edge">
<title>mfmo:0000092&#45;&gt;http://purl.obolibrary.org/obo/mfmo.owl#MFMO_0000300</title>
<path fill="none" stroke="black" d="M1166.32,-270.88C1151.32,-258.47 1133.13,-243.41 1118.22,-231.07"/>
<polygon fill="black" stroke="black" points="1120.25,-228.21 1110.32,-224.53 1115.79,-233.6 1120.25,-228.21"/>
</g>
<!-- mfmo:0000092&#45;&gt;mfmo:0000090 -->
<g id="edge23" class="edge">
<title>mfmo:0000092&#45;&gt;mfmo:0000090</title>
<path fill="none" stroke="black" d="M1260.07,-278.72C1283.27,-269.38 1307.03,-255.03 1320.56,-233.22 1333.16,-212.93 1336.32,-197.43 1320.56,-179.48 1279.75,-133 1104.91,-157.05 1044.56,-143.48 1038.3,-142.07 1031.83,-140.38 1025.41,-138.55"/>
<polygon fill="black" stroke="black" points="1025.97,-135.07 1015.39,-135.58 1023.98,-141.78 1025.97,-135.07"/>
</g>
<!-- mfmo:0000010 -->
<g id="node33" class="node">
<title>mfmo:0000010</title>
<ellipse fill="none" stroke="red" cx="5034.56" cy="-385.83" rx="147.16" ry="26.74"/>
<text text-anchor="middle" x="5034.56" y="-389.63" font-family="Times,serif" font-size="14.00">muscles innervated by vagus nerve</text>
<text text-anchor="middle" x="5034.56" y="-374.63" font-family="Times,serif" font-size="14.00">mfmo:0000010</text>
</g>
<!-- mfmo:0000106 -->
<g id="node34" class="node">
<title>mfmo:0000106</title>
<ellipse fill="none" stroke="red" cx="2095.56" cy="-296.09" rx="74.91" ry="26.74"/>
<text text-anchor="middle" x="2095.56" y="-299.89" font-family="Times,serif" font-size="14.00">thyroid cartilage</text>
<text text-anchor="middle" x="2095.56" y="-284.89" font-family="Times,serif" font-size="14.00">mfmo:0000106</text>
</g>
<!-- mfmo:0000106&#45;&gt;uberon:0007844 -->
<g id="edge25" class="edge">
<title>mfmo:0000106&#45;&gt;uberon:0007844</title>
<path fill="none" stroke="black" d="M2072.85,-270.18C2064.24,-260.74 2054.3,-249.84 2045.14,-239.79"/>
<polygon fill="black" stroke="black" points="2047.66,-237.35 2038.33,-232.32 2042.48,-242.07 2047.66,-237.35"/>
</g>
</g>
</svg>
