<?xml version="1.0" encoding="UTF-8" standalone="no"?>
<!DOCTYPE svg PUBLIC "-//W3C//DTD SVG 1.1//EN"
 "http://www.w3.org/Graphics/SVG/1.1/DTD/svg11.dtd">
<!-- Generated by graphviz version 3.0.0 (20220226.1711)
 -->
<!-- Pages: 1 -->
<svg width="884pt" height="241pt"
 viewBox="0.00 0.00 883.86 241.22" xmlns="http://www.w3.org/2000/svg" xmlns:xlink="http://www.w3.org/1999/xlink">
<g id="graph0" class="graph" transform="scale(1 1) rotate(0) translate(4 237.22)">
<polygon fill="white" stroke="transparent" points="-4,4 -4,-237.22 879.86,-237.22 879.86,4 -4,4"/>
<!-- omp:0007193 -->
<g id="node1" class="node">
<title>omp:0007193</title>
<ellipse fill="none" stroke="red" cx="133.64" cy="-206.35" rx="133.79" ry="26.74"/>
<text text-anchor="middle" x="133.64" y="-210.15" font-family="Times,serif" font-size="14.00">altered_physical_object_quality</text>
<text text-anchor="middle" x="133.64" y="-195.15" font-family="Times,serif" font-size="14.00">omp:0007193</text>
</g>
<!-- pato:0001241 -->
<g id="node2" class="node">
<title>pato:0001241</title>
<ellipse fill="none" stroke="blue" cx="167.64" cy="-116.61" rx="98.99" ry="26.74"/>
<text text-anchor="middle" x="167.64" y="-120.41" font-family="Times,serif" font-size="14.00">physical object quality</text>
<text text-anchor="middle" x="167.64" y="-105.41" font-family="Times,serif" font-size="14.00">pato:0001241</text>
</g>
<!-- omp:0007193&#45;&gt;pato:0001241 -->
<g id="edge1" class="edge">
<title>omp:0007193&#45;&gt;pato:0001241</title>
<path fill="none" stroke="black" d="M143.66,-179.5C146.88,-171.18 150.51,-161.82 153.95,-152.95"/>
<polygon fill="black" stroke="black" points="157.23,-154.17 157.58,-143.58 150.7,-151.64 157.23,-154.17"/>
</g>
<!-- pato:0000001 -->
<g id="node7" class="node">
<title>pato:0000001</title>
<ellipse fill="none" stroke="black" cx="387.64" cy="-26.87" rx="64.19" ry="26.74"/>
<text text-anchor="middle" x="387.64" y="-30.67" font-family="Times,serif" font-size="14.00">quality</text>
<text text-anchor="middle" x="387.64" y="-15.67" font-family="Times,serif" font-size="14.00">pato:0000001</text>
</g>
<!-- pato:0001241&#45;&gt;pato:0000001 -->
<g id="edge5" class="edge">
<title>pato:0001241&#45;&gt;pato:0000001</title>
<path fill="none" stroke="black" d="M221.74,-94.03C255.58,-80.54 299.04,-63.21 332.99,-49.67"/>
<polygon fill="black" stroke="black" points="334.3,-52.91 342.29,-45.96 331.71,-46.41 334.3,-52.91"/>
</g>
<!-- omp:0007188 -->
<g id="node3" class="node">
<title>omp:0007188</title>
<ellipse fill="none" stroke="red" cx="387.64" cy="-206.35" rx="102.56" ry="26.74"/>
<text text-anchor="middle" x="387.64" y="-210.15" font-family="Times,serif" font-size="14.00">altered_process_quality</text>
<text text-anchor="middle" x="387.64" y="-195.15" font-family="Times,serif" font-size="14.00">omp:0007188</text>
</g>
<!-- pato:0001236 -->
<g id="node4" class="node">
<title>pato:0001236</title>
<ellipse fill="none" stroke="blue" cx="387.64" cy="-116.61" rx="69.09" ry="26.74"/>
<text text-anchor="middle" x="387.64" y="-120.41" font-family="Times,serif" font-size="14.00">process quality</text>
<text text-anchor="middle" x="387.64" y="-105.41" font-family="Times,serif" font-size="14.00">pato:0001236</text>
</g>
<!-- omp:0007188&#45;&gt;pato:0001236 -->
<g id="edge2" class="edge">
<title>omp:0007188&#45;&gt;pato:0001236</title>
<path fill="none" stroke="black" d="M387.64,-179.03C387.64,-171.06 387.64,-162.17 387.64,-153.68"/>
<polygon fill="black" stroke="black" points="391.14,-153.61 387.64,-143.61 384.14,-153.61 391.14,-153.61"/>
</g>
<!-- pato:0001236&#45;&gt;pato:0000001 -->
<g id="edge4" class="edge">
<title>pato:0001236&#45;&gt;pato:0000001</title>
<path fill="none" stroke="black" d="M387.64,-89.29C387.64,-81.32 387.64,-72.43 387.64,-63.94"/>
<polygon fill="black" stroke="black" points="391.14,-63.87 387.64,-53.87 384.14,-63.87 391.14,-63.87"/>
</g>
<!-- omp:0007189 -->
<g id="node5" class="node">
<title>omp:0007189</title>
<ellipse fill="none" stroke="red" cx="591.64" cy="-206.35" rx="83.38" ry="26.74"/>
<text text-anchor="middle" x="591.64" y="-210.15" font-family="Times,serif" font-size="14.00">altered_relative_to</text>
<text text-anchor="middle" x="591.64" y="-195.15" font-family="Times,serif" font-size="14.00">omp:0007189</text>
</g>
<!-- pato:0000068 -->
<g id="node6" class="node">
<title>pato:0000068</title>
<ellipse fill="none" stroke="blue" cx="565.64" cy="-116.61" rx="64.19" ry="26.74"/>
<text text-anchor="middle" x="565.64" y="-120.41" font-family="Times,serif" font-size="14.00">qualitative</text>
<text text-anchor="middle" x="565.64" y="-105.41" font-family="Times,serif" font-size="14.00">pato:0000068</text>
</g>
<!-- omp:0007189&#45;&gt;pato:0000068 -->
<g id="edge3" class="edge">
<title>omp:0007189&#45;&gt;pato:0000068</title>
<path fill="none" stroke="black" d="M583.98,-179.5C581.55,-171.27 578.8,-162.02 576.2,-153.23"/>
<polygon fill="black" stroke="black" points="579.54,-152.17 573.34,-143.58 572.82,-154.16 579.54,-152.17"/>
</g>
<!-- pato:0000068&#45;&gt;pato:0000001 -->
<g id="edge6" class="edge">
<title>pato:0000068&#45;&gt;pato:0000001</title>
<path fill="none" stroke="black" d="M524.81,-95.48C498.8,-82.66 464.95,-65.97 437.38,-52.39"/>
<polygon fill="black" stroke="black" points="438.81,-49.19 428.29,-47.91 435.71,-55.47 438.81,-49.19"/>
</g>
<!-- omp:0000000 -->
<g id="node8" class="node">
<title>omp:0000000</title>
<ellipse fill="none" stroke="red" cx="784.64" cy="-206.35" rx="91.43" ry="26.74"/>
<text text-anchor="middle" x="784.64" y="-210.15" font-family="Times,serif" font-size="14.00">microbial phenotype</text>
<text text-anchor="middle" x="784.64" y="-195.15" font-family="Times,serif" font-size="14.00">omp:0000000</text>
</g>
</g>
</svg>
