<?xml version="1.0" encoding="UTF-8" standalone="no"?>
<!DOCTYPE svg PUBLIC "-//W3C//DTD SVG 1.1//EN"
 "http://www.w3.org/Graphics/SVG/1.1/DTD/svg11.dtd">
<!-- Generated by graphviz version 3.0.0 (20220226.1711)
 -->
<!-- Pages: 1 -->
<svg width="960pt" height="421pt"
 viewBox="0.00 0.00 959.97 420.70" xmlns="http://www.w3.org/2000/svg" xmlns:xlink="http://www.w3.org/1999/xlink">
<g id="graph0" class="graph" transform="scale(1 1) rotate(0) translate(4 416.7)">
<polygon fill="white" stroke="transparent" points="-4,4 -4,-416.7 955.97,-416.7 955.97,4 -4,4"/>
<!-- po:0025240 -->
<g id="node1" class="node">
<title>po:0025240</title>
<ellipse fill="none" stroke="orange" cx="114.55" cy="-385.83" rx="114.6" ry="26.74"/>
<text text-anchor="middle" x="114.55" y="-389.63" font-family="Times,serif" font-size="14.00">second order inflorescence</text>
<text text-anchor="middle" x="114.55" y="-374.63" font-family="Times,serif" font-size="14.00">po:0025240</text>
</g>
<!-- caro:0000000 -->
<g id="node2" class="node">
<title>caro:0000000</title>
<ellipse fill="none" stroke="blue" cx="382.55" cy="-296.09" rx="78.48" ry="26.74"/>
<text text-anchor="middle" x="382.55" y="-299.89" font-family="Times,serif" font-size="14.00">anatomical entity</text>
<text text-anchor="middle" x="382.55" y="-284.89" font-family="Times,serif" font-size="14.00">caro:0000000</text>
</g>
<!-- po:0025240&#45;&gt;caro:0000000 -->
<g id="edge1" class="edge">
<title>po:0025240&#45;&gt;caro:0000000</title>
<path fill="none" stroke="black" d="M179.43,-363.59C221.25,-349.9 275.44,-332.16 317.33,-318.44"/>
<polygon fill="black" stroke="black" points="318.47,-321.75 326.88,-315.32 316.29,-315.1 318.47,-321.75"/>
</g>
<!-- caro:0030000 -->
<g id="node9" class="node">
<title>caro:0030000</title>
<ellipse fill="none" stroke="black" cx="392.55" cy="-206.35" rx="74.49" ry="26.74"/>
<text text-anchor="middle" x="392.55" y="-210.15" font-family="Times,serif" font-size="14.00">biological entity</text>
<text text-anchor="middle" x="392.55" y="-195.15" font-family="Times,serif" font-size="14.00">caro:0030000</text>
</g>
<!-- caro:0000000&#45;&gt;caro:0030000 -->
<g id="edge8" class="edge">
<title>caro:0000000&#45;&gt;caro:0030000</title>
<path fill="none" stroke="black" d="M385.55,-268.77C386.46,-260.8 387.47,-251.91 388.44,-243.42"/>
<polygon fill="black" stroke="black" points="391.93,-243.69 389.59,-233.35 384.98,-242.89 391.93,-243.69"/>
</g>
<!-- po:0025131 -->
<g id="node3" class="node">
<title>po:0025131</title>
<ellipse fill="none" stroke="orange" cx="579.55" cy="-296.09" rx="100.32" ry="26.74"/>
<text text-anchor="middle" x="579.55" y="-299.89" font-family="Times,serif" font-size="14.00">plant anatomical entity</text>
<text text-anchor="middle" x="579.55" y="-284.89" font-family="Times,serif" font-size="14.00">po:0025131</text>
</g>
<!-- bfo:0000040 -->
<g id="node4" class="node">
<title>bfo:0000040</title>
<ellipse fill="none" stroke="blue" cx="561.55" cy="-206.35" rx="67.76" ry="26.74"/>
<text text-anchor="middle" x="561.55" y="-210.15" font-family="Times,serif" font-size="14.00">material entity</text>
<text text-anchor="middle" x="561.55" y="-195.15" font-family="Times,serif" font-size="14.00">bfo:0000040</text>
</g>
<!-- po:0025131&#45;&gt;bfo:0000040 -->
<g id="edge2" class="edge">
<title>po:0025131&#45;&gt;bfo:0000040</title>
<path fill="none" stroke="black" d="M574.25,-269.24C572.58,-261.1 570.7,-251.96 568.92,-243.26"/>
<polygon fill="black" stroke="black" points="572.32,-242.41 566.88,-233.32 565.46,-243.82 572.32,-242.41"/>
</g>
<!-- bfo:0000004 -->
<g id="node10" class="node">
<title>bfo:0000004</title>
<ellipse fill="none" stroke="black" cx="472.55" cy="-116.61" rx="101.23" ry="26.74"/>
<text text-anchor="middle" x="472.55" y="-120.41" font-family="Times,serif" font-size="14.00">independent continuant</text>
<text text-anchor="middle" x="472.55" y="-105.41" font-family="Times,serif" font-size="14.00">bfo:0000004</text>
</g>
<!-- bfo:0000040&#45;&gt;bfo:0000004 -->
<g id="edge10" class="edge">
<title>bfo:0000040&#45;&gt;bfo:0000004</title>
<path fill="none" stroke="black" d="M536.76,-180.91C527.07,-171.36 515.83,-160.28 505.48,-150.07"/>
<polygon fill="black" stroke="black" points="507.72,-147.36 498.14,-142.84 502.8,-152.35 507.72,-147.36"/>
</g>
<!-- po:0009012 -->
<g id="node5" class="node">
<title>po:0009012</title>
<ellipse fill="none" stroke="orange" cx="810.55" cy="-385.83" rx="141.34" ry="26.74"/>
<text text-anchor="middle" x="810.55" y="-389.63" font-family="Times,serif" font-size="14.00">plant structure development stage</text>
<text text-anchor="middle" x="810.55" y="-374.63" font-family="Times,serif" font-size="14.00">po:0009012</text>
</g>
<!-- bfo:0000015 -->
<g id="node6" class="node">
<title>bfo:0000015</title>
<ellipse fill="none" stroke="blue" cx="810.55" cy="-296.09" rx="60.62" ry="26.74"/>
<text text-anchor="middle" x="810.55" y="-299.89" font-family="Times,serif" font-size="14.00">process</text>
<text text-anchor="middle" x="810.55" y="-284.89" font-family="Times,serif" font-size="14.00">bfo:0000015</text>
</g>
<!-- po:0009012&#45;&gt;bfo:0000015 -->
<g id="edge3" class="edge">
<title>po:0009012&#45;&gt;bfo:0000015</title>
<path fill="none" stroke="black" d="M810.55,-358.51C810.55,-350.54 810.55,-341.65 810.55,-333.16"/>
<polygon fill="black" stroke="black" points="814.05,-333.09 810.55,-323.09 807.05,-333.09 814.05,-333.09"/>
</g>
<!-- bfo:0000003 -->
<g id="node8" class="node">
<title>bfo:0000003</title>
<ellipse fill="none" stroke="black" cx="810.55" cy="-206.35" rx="60.62" ry="26.74"/>
<text text-anchor="middle" x="810.55" y="-210.15" font-family="Times,serif" font-size="14.00">occurrent</text>
<text text-anchor="middle" x="810.55" y="-195.15" font-family="Times,serif" font-size="14.00">bfo:0000003</text>
</g>
<!-- bfo:0000015&#45;&gt;bfo:0000003 -->
<g id="edge5" class="edge">
<title>bfo:0000015&#45;&gt;bfo:0000003</title>
<path fill="none" stroke="black" d="M810.55,-268.77C810.55,-260.8 810.55,-251.91 810.55,-243.42"/>
<polygon fill="black" stroke="black" points="814.05,-243.35 810.55,-233.35 807.05,-243.35 814.05,-243.35"/>
</g>
<!-- po:0025282 -->
<g id="node7" class="node">
<title>po:0025282</title>
<ellipse fill="none" stroke="orange" cx="382.55" cy="-385.83" rx="135.53" ry="26.74"/>
<text text-anchor="middle" x="382.55" y="-389.63" font-family="Times,serif" font-size="14.00">archegonium megagametophyte</text>
<text text-anchor="middle" x="382.55" y="-374.63" font-family="Times,serif" font-size="14.00">po:0025282</text>
</g>
<!-- po:0025282&#45;&gt;caro:0000000 -->
<g id="edge4" class="edge">
<title>po:0025282&#45;&gt;caro:0000000</title>
<path fill="none" stroke="black" d="M382.55,-358.51C382.55,-350.54 382.55,-341.65 382.55,-333.16"/>
<polygon fill="black" stroke="black" points="386.05,-333.09 382.55,-323.09 379.05,-333.09 386.05,-333.09"/>
</g>
<!-- caro:0030000&#45;&gt;bfo:0000004 -->
<g id="edge6" class="edge">
<title>caro:0030000&#45;&gt;bfo:0000004</title>
<path fill="none" stroke="black" d="M415.26,-180.44C423.8,-171.08 433.64,-160.28 442.73,-150.31"/>
<polygon fill="black" stroke="black" points="445.35,-152.63 449.51,-142.89 440.18,-147.92 445.35,-152.63"/>
</g>
<!-- bfo:0000002 -->
<g id="node12" class="node">
<title>bfo:0000002</title>
<ellipse fill="none" stroke="black" cx="472.55" cy="-26.87" rx="60.62" ry="26.74"/>
<text text-anchor="middle" x="472.55" y="-30.67" font-family="Times,serif" font-size="14.00">continuant</text>
<text text-anchor="middle" x="472.55" y="-15.67" font-family="Times,serif" font-size="14.00">bfo:0000002</text>
</g>
<!-- bfo:0000004&#45;&gt;bfo:0000002 -->
<g id="edge9" class="edge">
<title>bfo:0000004&#45;&gt;bfo:0000002</title>
<path fill="none" stroke="black" d="M472.55,-89.29C472.55,-81.32 472.55,-72.43 472.55,-63.94"/>
<polygon fill="black" stroke="black" points="476.05,-63.87 472.55,-53.87 469.05,-63.87 476.05,-63.87"/>
</g>
<!-- po:0020061 -->
<g id="node11" class="node">
<title>po:0020061</title>
<ellipse fill="none" stroke="orange" cx="593.55" cy="-385.83" rx="57.05" ry="26.74"/>
<text text-anchor="middle" x="593.55" y="-389.63" font-family="Times,serif" font-size="14.00">coma</text>
<text text-anchor="middle" x="593.55" y="-374.63" font-family="Times,serif" font-size="14.00">po:0020061</text>
</g>
<!-- po:0020061&#45;&gt;caro:0000000 -->
<g id="edge7" class="edge">
<title>po:0020061&#45;&gt;caro:0000000</title>
<path fill="none" stroke="black" d="M551.61,-367.39C519.86,-354.19 475.87,-335.9 440.72,-321.28"/>
<polygon fill="black" stroke="black" points="441.64,-317.87 431.06,-317.26 438.95,-324.33 441.64,-317.87"/>
</g>
</g>
</svg>
