<?xml version="1.0" encoding="UTF-8" standalone="no"?>
<!DOCTYPE svg PUBLIC "-//W3C//DTD SVG 1.1//EN"
 "http://www.w3.org/Graphics/SVG/1.1/DTD/svg11.dtd">
<!-- Generated by graphviz version 3.0.0 (20220226.1711)
 -->
<!-- Pages: 1 -->
<svg width="960pt" height="421pt"
 viewBox="0.00 0.00 960.19 420.70" xmlns="http://www.w3.org/2000/svg" xmlns:xlink="http://www.w3.org/1999/xlink">
<g id="graph0" class="graph" transform="scale(1 1) rotate(0) translate(4 416.7)">
<polygon fill="white" stroke="transparent" points="-4,4 -4,-416.7 956.19,-416.7 956.19,4 -4,4"/>
<!-- bfo:0000004 -->
<g id="node1" class="node">
<title>bfo:0000004</title>
<ellipse fill="none" stroke="black" cx="493.76" cy="-116.61" rx="101.23" ry="26.74"/>
<text text-anchor="middle" x="493.76" y="-120.41" font-family="Times,serif" font-size="14.00">independent continuant</text>
<text text-anchor="middle" x="493.76" y="-105.41" font-family="Times,serif" font-size="14.00">bfo:0000004</text>
</g>
<!-- bfo:0000002 -->
<g id="node2" class="node">
<title>bfo:0000002</title>
<ellipse fill="none" stroke="black" cx="493.76" cy="-26.87" rx="60.62" ry="26.74"/>
<text text-anchor="middle" x="493.76" y="-30.67" font-family="Times,serif" font-size="14.00">continuant</text>
<text text-anchor="middle" x="493.76" y="-15.67" font-family="Times,serif" font-size="14.00">bfo:0000002</text>
</g>
<!-- bfo:0000004&#45;&gt;bfo:0000002 -->
<g id="edge1" class="edge">
<title>bfo:0000004&#45;&gt;bfo:0000002</title>
<path fill="none" stroke="black" d="M493.76,-89.29C493.76,-81.32 493.76,-72.43 493.76,-63.94"/>
<polygon fill="black" stroke="black" points="497.26,-63.87 493.76,-53.87 490.26,-63.87 497.26,-63.87"/>
</g>
<!-- caro:0000000 -->
<g id="node3" class="node">
<title>caro:0000000</title>
<ellipse fill="none" stroke="blue" cx="403.76" cy="-296.09" rx="78.48" ry="26.74"/>
<text text-anchor="middle" x="403.76" y="-299.89" font-family="Times,serif" font-size="14.00">anatomical entity</text>
<text text-anchor="middle" x="403.76" y="-284.89" font-family="Times,serif" font-size="14.00">caro:0000000</text>
</g>
<!-- caro:0030000 -->
<g id="node4" class="node">
<title>caro:0030000</title>
<ellipse fill="none" stroke="black" cx="413.76" cy="-206.35" rx="74.49" ry="26.74"/>
<text text-anchor="middle" x="413.76" y="-210.15" font-family="Times,serif" font-size="14.00">biological entity</text>
<text text-anchor="middle" x="413.76" y="-195.15" font-family="Times,serif" font-size="14.00">caro:0030000</text>
</g>
<!-- caro:0000000&#45;&gt;caro:0030000 -->
<g id="edge2" class="edge">
<title>caro:0000000&#45;&gt;caro:0030000</title>
<path fill="none" stroke="black" d="M406.76,-268.77C407.67,-260.8 408.69,-251.91 409.65,-243.42"/>
<polygon fill="black" stroke="black" points="413.15,-243.69 410.8,-233.35 406.19,-242.89 413.15,-243.69"/>
</g>
<!-- caro:0030000&#45;&gt;bfo:0000004 -->
<g id="edge9" class="edge">
<title>caro:0030000&#45;&gt;bfo:0000004</title>
<path fill="none" stroke="black" d="M436.48,-180.44C445.02,-171.08 454.86,-160.28 463.95,-150.31"/>
<polygon fill="black" stroke="black" points="466.57,-152.63 470.72,-142.89 461.4,-147.92 466.57,-152.63"/>
</g>
<!-- po:0025282 -->
<g id="node5" class="node">
<title>po:0025282</title>
<ellipse fill="none" stroke="red" cx="135.76" cy="-385.83" rx="135.53" ry="26.74"/>
<text text-anchor="middle" x="135.76" y="-389.63" font-family="Times,serif" font-size="14.00">archegonium megagametophyte</text>
<text text-anchor="middle" x="135.76" y="-374.63" font-family="Times,serif" font-size="14.00">po:0025282</text>
</g>
<!-- po:0025282&#45;&gt;caro:0000000 -->
<g id="edge3" class="edge">
<title>po:0025282&#45;&gt;caro:0000000</title>
<path fill="none" stroke="black" d="M204.09,-362.46C245.43,-348.93 297.87,-331.76 338.63,-318.42"/>
<polygon fill="black" stroke="black" points="339.78,-321.72 348.19,-315.28 337.6,-315.07 339.78,-321.72"/>
</g>
<!-- po:0009012 -->
<g id="node6" class="node">
<title>po:0009012</title>
<ellipse fill="none" stroke="red" cx="810.76" cy="-385.83" rx="141.34" ry="26.74"/>
<text text-anchor="middle" x="810.76" y="-389.63" font-family="Times,serif" font-size="14.00">plant structure development stage</text>
<text text-anchor="middle" x="810.76" y="-374.63" font-family="Times,serif" font-size="14.00">po:0009012</text>
</g>
<!-- bfo:0000015 -->
<g id="node7" class="node">
<title>bfo:0000015</title>
<ellipse fill="none" stroke="blue" cx="810.76" cy="-296.09" rx="60.62" ry="26.74"/>
<text text-anchor="middle" x="810.76" y="-299.89" font-family="Times,serif" font-size="14.00">process</text>
<text text-anchor="middle" x="810.76" y="-284.89" font-family="Times,serif" font-size="14.00">bfo:0000015</text>
</g>
<!-- po:0009012&#45;&gt;bfo:0000015 -->
<g id="edge4" class="edge">
<title>po:0009012&#45;&gt;bfo:0000015</title>
<path fill="none" stroke="black" d="M810.76,-358.51C810.76,-350.54 810.76,-341.65 810.76,-333.16"/>
<polygon fill="black" stroke="black" points="814.26,-333.09 810.76,-323.09 807.26,-333.09 814.26,-333.09"/>
</g>
<!-- bfo:0000003 -->
<g id="node9" class="node">
<title>bfo:0000003</title>
<ellipse fill="none" stroke="black" cx="810.76" cy="-206.35" rx="60.62" ry="26.74"/>
<text text-anchor="middle" x="810.76" y="-210.15" font-family="Times,serif" font-size="14.00">occurrent</text>
<text text-anchor="middle" x="810.76" y="-195.15" font-family="Times,serif" font-size="14.00">bfo:0000003</text>
</g>
<!-- bfo:0000015&#45;&gt;bfo:0000003 -->
<g id="edge6" class="edge">
<title>bfo:0000015&#45;&gt;bfo:0000003</title>
<path fill="none" stroke="black" d="M810.76,-268.77C810.76,-260.8 810.76,-251.91 810.76,-243.42"/>
<polygon fill="black" stroke="black" points="814.26,-243.35 810.76,-233.35 807.26,-243.35 814.26,-243.35"/>
</g>
<!-- po:0025240 -->
<g id="node8" class="node">
<title>po:0025240</title>
<ellipse fill="none" stroke="red" cx="403.76" cy="-385.83" rx="114.6" ry="26.74"/>
<text text-anchor="middle" x="403.76" y="-389.63" font-family="Times,serif" font-size="14.00">second order inflorescence</text>
<text text-anchor="middle" x="403.76" y="-374.63" font-family="Times,serif" font-size="14.00">po:0025240</text>
</g>
<!-- po:0025240&#45;&gt;caro:0000000 -->
<g id="edge5" class="edge">
<title>po:0025240&#45;&gt;caro:0000000</title>
<path fill="none" stroke="black" d="M403.76,-358.51C403.76,-350.54 403.76,-341.65 403.76,-333.16"/>
<polygon fill="black" stroke="black" points="407.26,-333.09 403.76,-323.09 400.26,-333.09 407.26,-333.09"/>
</g>
<!-- po:0020061 -->
<g id="node10" class="node">
<title>po:0020061</title>
<ellipse fill="none" stroke="red" cx="593.76" cy="-385.83" rx="57.05" ry="26.74"/>
<text text-anchor="middle" x="593.76" y="-389.63" font-family="Times,serif" font-size="14.00">coma</text>
<text text-anchor="middle" x="593.76" y="-374.63" font-family="Times,serif" font-size="14.00">po:0020061</text>
</g>
<!-- po:0020061&#45;&gt;caro:0000000 -->
<g id="edge7" class="edge">
<title>po:0020061&#45;&gt;caro:0000000</title>
<path fill="none" stroke="black" d="M553.93,-366.44C526.22,-353.64 488.93,-336.42 458.44,-322.34"/>
<polygon fill="black" stroke="black" points="459.76,-319.09 449.21,-318.08 456.82,-325.45 459.76,-319.09"/>
</g>
<!-- bfo:0000040 -->
<g id="node11" class="node">
<title>bfo:0000040</title>
<ellipse fill="none" stroke="blue" cx="582.76" cy="-206.35" rx="67.76" ry="26.74"/>
<text text-anchor="middle" x="582.76" y="-210.15" font-family="Times,serif" font-size="14.00">material entity</text>
<text text-anchor="middle" x="582.76" y="-195.15" font-family="Times,serif" font-size="14.00">bfo:0000040</text>
</g>
<!-- bfo:0000040&#45;&gt;bfo:0000004 -->
<g id="edge8" class="edge">
<title>bfo:0000040&#45;&gt;bfo:0000004</title>
<path fill="none" stroke="black" d="M557.97,-180.91C548.29,-171.36 537.04,-160.28 526.69,-150.07"/>
<polygon fill="black" stroke="black" points="528.93,-147.36 519.35,-142.84 524.02,-152.35 528.93,-147.36"/>
</g>
<!-- po:0025131 -->
<g id="node12" class="node">
<title>po:0025131</title>
<ellipse fill="none" stroke="red" cx="600.76" cy="-296.09" rx="100.32" ry="26.74"/>
<text text-anchor="middle" x="600.76" y="-299.89" font-family="Times,serif" font-size="14.00">plant anatomical entity</text>
<text text-anchor="middle" x="600.76" y="-284.89" font-family="Times,serif" font-size="14.00">po:0025131</text>
</g>
<!-- po:0025131&#45;&gt;bfo:0000040 -->
<g id="edge10" class="edge">
<title>po:0025131&#45;&gt;bfo:0000040</title>
<path fill="none" stroke="black" d="M595.46,-269.24C593.79,-261.1 591.92,-251.96 590.13,-243.26"/>
<polygon fill="black" stroke="black" points="593.53,-242.41 588.09,-233.32 586.67,-243.82 593.53,-242.41"/>
</g>
</g>
</svg>
